<svg viewBox="0 0 920 320" xmlns="http://www.w3.org/2000/svg" font-family="system-ui, -apple-system, 'Segoe UI', Roboto, sans-serif">
  <defs>
    <marker id="arrow" viewBox="0 0 10 10" refX="9" refY="5" markerWidth="7" markerHeight="7" orient="auto-start-reverse">
      <path d="M 0 1 L 9 5 L 0 9 z" fill="#99A7BB"/>
    </marker>
  </defs>

  <!-- Row data -->
  <rect x="20" y="90" width="196" height="120" rx="8" fill="#FFFFFF" stroke="#DAE2ED" stroke-width="1.5"/>
  <text x="118" y="118" text-anchor="middle" font-size="15" font-weight="600" fill="#1C2025">Row data</text>
  <text x="118" y="138" text-anchor="middle" font-size="12" fill="#6B7A90">The single source of truth</text>
  <rect x="34" y="152" width="168" height="26" rx="5" fill="#F0F7FF"/>
  <text x="118" y="169" text-anchor="middle" font-size="11" font-family="Menlo, Consolas, monospace" fill="#0073E6">'=quantity * unitPrice'</text>
  <text x="118" y="197" text-anchor="middle" font-size="11" fill="#6B7A90">formulas are plain strings</text>

  <!-- Arrow 1 -->
  <line x1="216" y1="150" x2="252" y2="150" stroke="#99A7BB" stroke-width="1.5" marker-end="url(#arrow)"/>

  <!-- Formula engine -->
  <rect x="256" y="90" width="216" height="120" rx="8" fill="#FFFFFF" stroke="#DAE2ED" stroke-width="1.5"/>
  <text x="364" y="118" text-anchor="middle" font-size="15" font-weight="600" fill="#1C2025">Formula engine</text>
  <text x="364" y="143" text-anchor="middle" font-size="12" fill="#4B5565">1. Parses each source once</text>
  <text x="364" y="163" text-anchor="middle" font-size="12" fill="#4B5565">2. Tracks cell dependencies</text>
  <text x="364" y="183" text-anchor="middle" font-size="12" fill="#4B5565">3. Evaluates in dependency order</text>

  <!-- Arrow 2 -->
  <line x1="472" y1="150" x2="508" y2="150" stroke="#99A7BB" stroke-width="1.5" marker-end="url(#arrow)"/>

  <!-- Evaluated values -->
  <rect x="512" y="90" width="196" height="120" rx="8" fill="#FFFFFF" stroke="#DAE2ED" stroke-width="1.5"/>
  <text x="610" y="118" text-anchor="middle" font-size="15" font-weight="600" fill="#1C2025">Evaluated values</text>
  <text x="610" y="138" text-anchor="middle" font-size="12" fill="#6B7A90">Derived grid state</text>
  <rect x="526" y="152" width="168" height="26" rx="5" fill="#F0F7FF"/>
  <text x="610" y="169" text-anchor="middle" font-size="11" font-family="Menlo, Consolas, monospace" fill="#0073E6">total → 6,600</text>
  <text x="610" y="197" text-anchor="middle" font-size="11" fill="#6B7A90">or an error code such as #REF!</text>

  <!-- Arrow 3 -->
  <line x1="708" y1="150" x2="744" y2="150" stroke="#99A7BB" stroke-width="1.5" marker-end="url(#arrow)"/>

  <!-- Grid features -->
  <rect x="748" y="70" width="152" height="160" rx="8" fill="#F0F7FF" stroke="#0073E6" stroke-width="1.5"/>
  <text x="824" y="98" text-anchor="middle" font-size="15" font-weight="600" fill="#1C2025">Grid features</text>
  <text x="824" y="123" text-anchor="middle" font-size="12" fill="#4B5565">Rendering</text>
  <text x="824" y="143" text-anchor="middle" font-size="12" fill="#4B5565">Sorting · Filtering</text>
  <text x="824" y="163" text-anchor="middle" font-size="12" fill="#4B5565">Aggregation</text>
  <text x="824" y="183" text-anchor="middle" font-size="12" fill="#4B5565">Grouping</text>
  <text x="824" y="203" text-anchor="middle" font-size="12" fill="#4B5565">Copy · Export</text>

  <!-- Feedback loop: editing writes back to row data -->
  <path d="M 824 230 L 824 278 L 118 278 L 118 214" fill="none" stroke="#99A7BB" stroke-width="1.5" stroke-dasharray="5 4" marker-end="url(#arrow)"/>
  <rect x="256" y="264" width="430" height="28" rx="14" fill="#FFFFFF" stroke="#DAE2ED"/>
  <text x="471" y="282" text-anchor="middle" font-size="12" fill="#4B5565">Editing and row updates write the formula source — never the evaluated value</text>
</svg>
