<svg version="1.1" xmlns="http://www.w3.org/2000/svg" viewBox="0 0 666.8888075086802 296.61109754774304" width="666.8888075086802" height="296.61109754774304" filter="invert(93%) hue-rotate(180deg)">
  <!-- svg-source:excalidraw -->
  
  <defs>
    <style>
      @font-face {
        font-family: "Virgil";
        src: url("https://excalidraw.com/Virgil.woff2");
      }
      @font-face {
        font-family: "Cascadia";
        src: url("https://excalidraw.com/Cascadia.woff2");
      }
    </style>
  </defs>
  <g stroke-linecap="round" transform="translate(10 52.388870239257585) rotate(0 134.22232733832493 100.44445037841803)"><path d="M0.45 -0.88 C87.08 -0.1, 171.15 -2.57, 268.78 -1.26 M0.07 -0.51 C82.03 1.17, 164.66 0.63, 268.86 -0.58 M269.98 0.65 C271.17 48.44, 269.52 100.64, 268.88 202.6 M267.72 -0.72 C268.09 68.27, 269.17 138.3, 267.62 201.53 M269.52 200.6 C179.68 201.1, 89.41 198.38, 0.58 201.09 M268.1 201.53 C184.55 201.07, 102.24 201.94, 0.48 201.02 M0.53 201.83 C0.83 140.41, -0.76 78.19, 0.29 -1.67 M0.04 200.3 C0.63 134.78, 0.5 70.76, -0.08 -0.04" stroke="#000000" stroke-width="2" fill="none"></path></g><g transform="translate(33.22232733832516 68.83332061767561) rotate(0 111 84)"><text x="0" y="19" font-family="Cascadia, Segoe UI Emoji" font-size="20px" fill="#000000" text-anchor="start" style="white-space: pre;" direction="ltr">DataGrid State</text><text x="0" y="43" font-family="Cascadia, Segoe UI Emoji" font-size="20px" fill="#000000" text-anchor="start" style="white-space: pre;" direction="ltr"></text><text x="0" y="67" font-family="Cascadia, Segoe UI Emoji" font-size="20px" fill="#000000" text-anchor="start" style="white-space: pre;" direction="ltr">  - rows</text><text x="0" y="91" font-family="Cascadia, Segoe UI Emoji" font-size="20px" fill="#000000" text-anchor="start" style="white-space: pre;" direction="ltr">  - virtualization</text><text x="0" y="115" font-family="Cascadia, Segoe UI Emoji" font-size="20px" fill="#000000" text-anchor="start" style="white-space: pre;" direction="ltr">  - filtering model</text><text x="0" y="139" font-family="Cascadia, Segoe UI Emoji" font-size="20px" fill="#000000" text-anchor="start" style="white-space: pre;" direction="ltr">  - sorting model</text><text x="0" y="163" font-family="Cascadia, Segoe UI Emoji" font-size="20px" fill="#000000" text-anchor="start" style="white-space: pre;" direction="ltr">     ...</text></g><g transform="translate(410.8888075086802 146.00004408094628) rotate(0 123 12)"><text x="0" y="19" font-family="Cascadia, Segoe UI Emoji" font-size="20px" fill="#000000" text-anchor="start" style="white-space: pre;" direction="ltr">&lt;CheckBoxSelection /&gt;</text></g><g stroke-linecap="round"><g transform="translate(294.4443766276049 60.39159544653924) rotate(0 87.88745842515118 36.91372142528144)"><path d="M0.92 -1.07 C19.12 0.2, 79.52 -5.74, 108.67 6.85 C137.82 19.44, 164.73 63.17, 175.83 74.45 M-0.05 0.98 C18.13 2.43, 79.06 -4.59, 108.31 7.78 C137.55 20.15, 164.22 63.97, 175.43 75.19" stroke="#364fc7" stroke-width="2" fill="none"></path></g><g transform="translate(294.4443766276049 60.39159544653924) rotate(0 87.88745842515118 36.91372142528144)"><path d="M147.92 61.6 C154.28 64.66, 160.94 67.63, 173.74 73.65 M148.93 59.81 C154.2 62.57, 161.33 66.72, 175.49 74.89" stroke="#364fc7" stroke-width="2" fill="none"></path></g><g transform="translate(294.4443766276049 60.39159544653924) rotate(0 87.88745842515118 36.91372142528144)"><path d="M163.86 48.68 C166.05 55.18, 168.63 61.46, 173.74 73.65 M164.88 46.89 C166.74 52.32, 170.5 59.21, 175.49 74.89" stroke="#364fc7" stroke-width="2" fill="none"></path></g></g><g stroke-linecap="round"><g transform="translate(479.5786771750636 183.4999898274741) rotate(0 -91.69606292307117 36.086570763681465)"><path d="M0.27 -0.1 C-13.6 11.35, -53.04 57.02, -83.67 68.39 C-114.3 79.76, -166.67 68.28, -183.51 68.1 M-1.05 -1.2 C-14.53 9.95, -51.15 55.46, -81.59 66.71 C-112.02 77.95, -166.51 65.97, -183.66 66.28" stroke="#364fc7" stroke-width="2" fill="none"></path></g><g transform="translate(479.5786771750636 183.4999898274741) rotate(0 -91.69606292307117 36.086570763681465)"><path d="M-154.85 56.51 C-160.87 62.56, -168.18 62.6, -183.3 65.33 M-155.54 58.54 C-160.71 61.18, -169.32 62.22, -183.04 67.03" stroke="#364fc7" stroke-width="2" fill="none"></path></g><g transform="translate(479.5786771750636 183.4999898274741) rotate(0 -91.69606292307117 36.086570763681465)"><path d="M-156.64 76.95 C-162.14 77.67, -168.98 72.37, -183.3 65.33 M-157.33 78.98 C-162.21 76.74, -170.39 72.89, -183.04 67.03" stroke="#364fc7" stroke-width="2" fill="none"></path></g></g><g transform="translate(413.55543348524316 10) rotate(0 47 24)"><text x="0" y="19" font-family="Cascadia, Segoe UI Emoji" font-size="20px" fill="#364fc7" text-anchor="start" style="white-space: pre;" direction="ltr">Selector</text><text x="0" y="43" font-family="Cascadia, Segoe UI Emoji" font-size="20px" fill="#364fc7" text-anchor="start" style="white-space: pre;" direction="ltr">Method</text></g><g transform="translate(426.99997287326323 238.61109754774304) rotate(0 35 24)"><text x="0" y="19" font-family="Cascadia, Segoe UI Emoji" font-size="20px" fill="#364fc7" text-anchor="start" style="white-space: pre;" direction="ltr">Event</text><text x="0" y="43" font-family="Cascadia, Segoe UI Emoji" font-size="20px" fill="#364fc7" text-anchor="start" style="white-space: pre;" direction="ltr">Method</text></g></svg>