<svg width="24" height="24" viewBox="0 0 24 24" fill="none" xmlns="http://www.w3.org/2000/svg">
<path d="M0 0H24V24H0V0Z" fill="black"/>
<path d="M18.5545 9.1362C18.4548 9.2172 16.6936 10.2558 16.6936 12.5652C16.6936 15.2364 18.9346 16.1814 19.0017 16.2048C18.9914 16.2624 18.6457 17.499 17.8201 18.759C17.084 19.8678 16.3152 20.9748 15.1457 20.9748C13.9762 20.9748 13.6752 20.2638 12.3251 20.2638C11.0093 20.2638 10.5415 20.9982 9.47174 20.9982C8.40197 20.9982 7.65553 19.9722 6.7973 18.7122C5.80319 17.2326 5 14.934 5 12.7524C5 9.2532 7.17396 7.3974 9.31351 7.3974C10.4504 7.3974 11.398 8.1786 12.1118 8.1786C12.7912 8.1786 13.8506 7.3506 15.144 7.3506C15.6342 7.3506 17.3953 7.3974 18.5545 9.1362ZM14.53 5.8692C15.0649 5.205 15.4432 4.2834 15.4432 3.3618C15.4432 3.234 15.4329 3.1044 15.4106 3C14.5403 3.0342 13.5049 3.6066 12.8806 4.3644C12.3904 4.9476 11.9329 5.8692 11.9329 6.8034C11.9329 6.9438 11.9553 7.0842 11.9656 7.1292C12.0206 7.14 12.1101 7.1526 12.1995 7.1526C12.9803 7.1526 13.9624 6.6054 14.53 5.8692Z" fill="white"/>
</svg>
