<svg width="24" height="24" viewBox="0 0 24 24" fill="none" xmlns="http://www.w3.org/2000/svg">
<path d="M0 0H24V24H0V0Z" fill="#071D49"/>
<path d="M21.1584 19C20.3168 19 19.7812 18.5714 19.6282 17.6349L19.3528 16.1111C18.8936 16.9841 17.2104 19 13.5532 19H9.34507C3.62203 19 2 14.9682 2 12C2 8.65077 3.94338 5 9.34507 5H13.5532C17.6542 5 19.9189 7.47618 20.4698 10.492C20.9288 13.0158 22 19 22 19H21.1584ZM13.0788 6.95238H9.48279C5.443 6.95238 4.0658 9.61903 4.0658 12C4.0658 14.381 5.443 17.0476 9.48279 17.0476H13.0788C17.3022 17.0476 18.5264 14.2698 18.5264 12C18.5264 9.96824 17.4246 6.95238 13.0788 6.95238Z" fill="white"/>
</svg>
