<svg width="24" height="24" viewBox="0 0 24 24" fill="none" xmlns="http://www.w3.org/2000/svg">
<path d="M0 0H24V24H0V0Z" fill="#0096D7"/>
<path d="M18.6092 5H3V7.33103H17.83V7.33281C18.2588 7.33281 18.6036 7.66983 18.6036 8.08453V15.9164L18.6004 15.9217C18.5968 16.3364 18.2505 16.6694 17.8254 16.6694H6.17188C5.74486 16.6694 5.39682 16.3337 5.39682 15.9164V12.751C5.39682 12.3355 5.74486 11.9993 6.17188 11.9993H16.1995V9.6692H5.39085C4.06984 9.6692 3 10.7079 3 11.9917V16.6752C3 17.9586 4.06984 19 5.39085 19H18.6092C19.9311 19 21 17.9586 21 16.6752V7.32433C21 6.04053 19.9311 5 18.6092 5Z" fill="white"/>
</svg>
