<svg width="24" height="24" viewBox="0 0 24 24" fill="none" xmlns="http://www.w3.org/2000/svg">
<path d="M0 0H24V24H0V0Z" fill="white"/>
<path d="M6.34908 10.9549H5.49705L6.56686 8.78922H7.4571L7.94998 10.9549H7.09795L7.05974 10.6865H6.45224L6.34908 10.9549ZM6.99097 10.1721L6.94894 9.79193C6.93748 9.69875 6.93748 9.60556 6.93366 9.51237H6.90309L6.6662 10.1721H6.99097Z" fill="#C22823"/>
<path d="M8.56895 8.78922H9.39806L9.54706 9.92613H9.56617C9.59291 9.82921 9.62348 9.73229 9.66169 9.6391L10.0285 8.78922H10.8499L10.9149 10.9549H10.1316L10.1851 9.76957H10.1699C10.1469 9.84412 10.1202 9.91494 10.0858 9.98577L9.63112 10.9549H9.16881L9.00834 10.038C8.99687 9.94849 8.99305 9.85903 8.99687 9.76957H8.97013C8.95103 9.8553 8.93574 9.94476 8.91282 10.0305L8.69121 10.9549H7.91178L8.56895 8.78922ZM11.4269 8.78922H12.917L12.8367 9.3819H12.1567L12.1299 9.59065H12.7489L12.6725 10.1535H12.0497L12.0191 10.366H12.7221L12.6419 10.9587H11.125L11.4269 8.78922ZM13.1768 8.78922H14.1511C14.6516 8.78922 15.0452 8.99424 14.9726 9.54219C14.9267 9.87021 14.7777 10.0081 14.4644 10.105L14.4606 10.1237C14.5064 10.1572 14.5485 10.202 14.579 10.2542L14.9649 10.9587H14.0365L13.7805 10.2653H13.7652L13.6697 10.9587H12.8826L13.1768 8.78922ZM13.834 9.75093H13.8913C14.025 9.75093 14.1587 9.73229 14.1817 9.56828C14.2046 9.40054 14.0861 9.3819 13.9486 9.3819H13.8875L13.834 9.75093ZM15.4081 8.78922H16.2143L15.9163 10.9549H15.1101L15.4081 8.78922ZM18.0063 9.66893C17.8916 9.55337 17.7464 9.449 17.563 9.449C17.3147 9.45273 17.1046 9.63165 17.0663 9.87021C17.032 10.1088 17.2154 10.2914 17.4599 10.2914C17.6433 10.2914 17.8038 10.2131 17.9489 10.0901L17.8152 10.899C17.6777 10.9587 17.372 10.9848 17.2306 10.9848C16.5964 10.9848 16.1685 10.5039 16.2563 9.88885C16.3442 9.2589 16.9212 8.75195 17.5745 8.75195C17.7541 8.75195 17.9337 8.78177 18.1018 8.84141L18.0063 9.66893ZM18.7398 10.9549H17.8878L18.9576 8.78922H19.8479L20.3407 10.9549H19.4887L19.4505 10.6865H18.843L18.7398 10.9549ZM19.3817 10.1721L19.3397 9.79193C19.3282 9.69875 19.3282 9.60556 19.3244 9.51237H19.2939L19.057 10.1721H19.3817ZM20.7725 8.78922H21.5481L22.1059 9.98949H22.1289C22.1136 9.80684 22.1174 9.62047 22.1365 9.43782L22.2244 8.78922H23L22.702 10.9549H21.9302L21.3762 9.81803H21.3532C21.3609 9.9634 21.3609 10.1088 21.3418 10.2504L21.2424 10.9549H20.4745L20.7725 8.78922ZM5.51997 11.4171H7.01389L6.93366 12.0098H6.25356L6.22299 12.2148H6.84578L6.76936 12.7777H6.14658L6.11601 12.9902H6.81903L6.7388 13.5829H5.22195L5.51997 11.4171ZM7.2546 11.4171H8.06079L7.85828 12.8858H8.53456L8.43904 13.5791H6.95658L7.2546 11.4171ZM8.95103 11.4171H10.4449L10.3647 12.0098H9.68461L9.65405 12.2148H10.2768L10.2004 12.7777H9.57763L9.54706 12.9902H10.2501L10.1699 13.5829H8.653L8.95103 11.4171ZM12.1758 12.2968C12.0611 12.1776 11.9159 12.0769 11.7325 12.0769C11.4842 12.0807 11.2741 12.2596 11.2358 12.4981C11.2015 12.7367 11.3887 12.9193 11.6294 12.9193C11.8166 12.9193 11.9733 12.8411 12.1184 12.7181L11.9847 13.5269C11.8472 13.5866 11.5415 13.6127 11.4001 13.6127C10.7659 13.6127 10.338 13.1318 10.4258 12.5168C10.5137 11.8868 11.0907 11.3799 11.744 11.3799C11.9236 11.3799 12.1032 11.4097 12.2751 11.4693L12.1758 12.2968ZM12.4585 11.4171H14.1549L14.0594 12.1217L13.6162 12.103L13.4099 13.5829H12.6037L12.81 12.103L12.363 12.1217L12.4585 11.4171ZM14.3307 11.4171H15.305C15.8055 11.4171 16.199 11.6259 16.1264 12.1701C16.0806 12.4981 15.9316 12.6361 15.6183 12.733L15.6144 12.7516C15.6603 12.7852 15.7023 12.8299 15.7329 12.8821L16.1188 13.5866H15.1903L14.9344 12.8933H14.9191L14.8235 13.5866H14.0365L14.3307 11.4171ZM14.9878 12.3751H15.0452C15.1789 12.3751 15.3126 12.3565 15.3355 12.1925C15.3585 12.0285 15.24 12.0061 15.1025 12.0061H15.0413L14.9878 12.3751ZM16.5582 11.4171H17.3644L17.0663 13.5829H16.2602L16.5582 11.4171ZM19.1601 12.2968C19.0455 12.1776 18.9003 12.0769 18.7169 12.0769C18.4686 12.0807 18.2584 12.2596 18.2202 12.4981C18.1896 12.7367 18.373 12.9193 18.6138 12.9193C18.801 12.9193 18.9576 12.8411 19.1028 12.7181L18.9691 13.5269C18.8315 13.5866 18.5297 13.6127 18.3845 13.6127C17.7503 13.6127 17.3223 13.1318 17.4102 12.5168C17.4981 11.8868 18.075 11.3799 18.7284 11.3799C18.908 11.3799 19.0875 11.4097 19.2556 11.4693L19.1601 12.2968ZM5.16082 14.0451H6.18097C6.70059 14.0451 7.04446 14.3023 6.97187 14.839C6.91073 15.2826 6.58979 15.5547 6.13894 15.5547H5.72629L5.6346 16.207H4.85898L5.16082 14.0451ZM5.80271 15.0142H5.88295C6.02431 15.0142 6.18097 14.9919 6.20389 14.8167C6.22681 14.6489 6.06252 14.6377 5.93262 14.6377H5.8562L5.80271 15.0142ZM9.46683 15.1335C9.37131 15.8268 8.76381 16.2443 8.08753 16.2443C7.41125 16.2443 6.91837 15.8306 7.01389 15.1335C7.10941 14.4551 7.72074 14.0115 8.39701 14.0115C9.07329 14.0115 9.56235 14.4551 9.46683 15.1335ZM7.8239 15.1447C7.78951 15.3907 7.93852 15.5622 8.18305 15.5622C8.42758 15.5622 8.62244 15.3944 8.65683 15.1447C8.68739 14.9136 8.55749 14.7235 8.30149 14.7235C8.0455 14.7235 7.85446 14.9173 7.8239 15.1447ZM10.2921 14.0451L10.3953 15.3348H10.4144C10.4449 15.2006 10.487 15.0664 10.5366 14.936L10.892 14.0451H11.5109L11.637 15.3348H11.6561C11.6829 15.2043 11.7211 15.0776 11.7631 14.9546L12.1108 14.0451H12.9514L11.8701 16.2108H11.1671L11.0754 15.0329H11.0486C11.0295 15.1447 10.999 15.2528 10.9608 15.3609L10.6207 16.2108H9.93678L9.45919 14.0451H10.2921ZM13.0813 14.0451H14.5714L14.4911 14.6377H13.811L13.7805 14.8428H14.4033L14.3268 15.4056H13.7041L13.6735 15.6181H14.3765L14.2963 16.2108H12.7794L13.0813 14.0451ZM14.835 14.0451H15.8093C16.3098 14.0451 16.7034 14.2501 16.6308 14.798C16.5849 15.1261 16.4359 15.264 16.1226 15.3609L16.1188 15.3795C16.1646 15.4131 16.2067 15.4578 16.2372 15.51L16.6231 16.2145H15.6947L15.4387 15.5212H15.4234L15.3279 16.2145H14.5408L14.835 14.0451ZM15.4922 15.0068H15.5495C15.6832 15.0068 15.817 14.9881 15.8399 14.8241C15.8628 14.6601 15.7444 14.6377 15.6068 14.6377H15.5457L15.4922 15.0068Z" fill="#C22823"/>
<path d="M12.191 16.7774L12.0993 17.4409H1.65717L3.02119 7.56286H13.4634L13.3717 8.22264H13.9486L14.1167 7H2.51685L1 18H12.6037L12.7718 16.7774H12.191Z" fill="#C22823"/>
</svg>
