<svg width="24" height="24" viewBox="0 0 24 24" fill="none" xmlns="http://www.w3.org/2000/svg">
<path d="M0 0H24V24H0V0Z" fill="white"/>
<path d="M11.9904 8.02368V12.0472L12.3981 12.6722C12.6222 13.0156 13.1856 13.8806 13.6509 14.5959C14.1161 15.3113 14.7927 16.3524 15.1555 16.9092C15.5183 17.4661 15.9687 18.1616 16.1586 18.4543L16.5043 18.987L19.2532 18.9892C20.7643 18.9892 22 18.9826 22 18.976C22 18.9672 21.8207 18.6921 21.6009 18.3641C21.3811 18.0362 20.8112 17.1822 20.3353 16.469C18.8392 14.2284 17.4519 12.1506 17.1233 11.6598C16.9483 11.4001 16.6047 10.885 16.3592 10.5152C16.1116 10.1455 15.7616 9.62163 15.5802 9.3487C15.3967 9.07577 14.8055 8.18876 14.2634 7.37878C13.7213 6.5666 12.9935 5.47489 12.6435 4.95105C12.2935 4.4294 12.0032 4.0002 11.999 4.0002C11.9947 4.0002 11.9904 5.81165 11.9904 8.02368Z" fill="#D21241"/>
<path d="M11.3608 4.95745C11.0086 5.48349 10.2787 6.5774 9.7366 7.38958C9.1945 8.19956 8.60332 9.08657 8.41978 9.3595C8.23837 9.63243 7.88835 10.1563 7.64078 10.526C7.39534 10.8958 7.05173 11.4109 6.87673 11.6706C6.54805 12.1614 5.1608 14.2392 3.6647 16.4798C3.18877 17.193 2.61893 18.047 2.3991 18.3749C2.17928 18.7029 2 18.978 2 18.9868C2 18.9934 3.23572 19 4.74889 19L7.49565 18.9978L7.8414 18.4652C8.19568 17.9171 9.17957 16.405 10.5647 14.2788C10.9979 13.6119 11.4995 12.8393 11.6809 12.562L12.0096 12.0558L11.999 4.0002L11.3608 4.95745Z" fill="black"/>
</svg>
