<svg width="24" height="24" viewBox="0 0 24 24" fill="none" xmlns="http://www.w3.org/2000/svg">
<path d="M0 0H24V24H0V0Z" fill="white"/>
<path fill-rule="evenodd" clip-rule="evenodd" d="M18.9255 18.8962C17.0642 20.2687 14.367 21 12.045 21C8.7825 21 5.85637 19.7962 3.63844 17.7921C3.46969 17.6346 3.62044 17.4197 3.82969 17.5423C6.22313 18.9356 9.1875 19.7737 12.2396 19.7737C14.4438 19.7636 16.6242 19.3178 18.6555 18.462C18.9705 18.3281 19.2349 18.6679 18.9255 18.8962ZM19.6995 18.0109C19.4632 17.7071 18.1267 17.8674 17.5282 17.9377C17.3454 17.9602 17.3179 17.8011 17.4821 17.6869C18.5509 16.9387 20.2913 17.1542 20.4949 17.4056C20.6985 17.6571 20.442 19.4081 19.443 20.2429C19.2894 20.3711 19.1432 20.3031 19.218 20.1326C19.443 19.5724 19.9459 18.3158 19.7074 18.0109" fill="#FF9900"/>
<path fill-rule="evenodd" clip-rule="evenodd" d="M13.3669 10.7985C13.3669 11.7502 13.3911 12.5439 12.9101 13.3888C12.5164 14.0751 11.8976 14.4986 11.2198 14.4986C10.2821 14.4986 9.73256 13.7843 9.73256 12.7296C9.73256 10.6483 11.5978 10.2697 13.3674 10.2697L13.3669 10.7985ZM15.8312 16.752C15.6698 16.8966 15.4363 16.9067 15.2541 16.8105C14.4441 16.1372 14.2956 15.8244 13.8523 15.1821C12.5124 16.5489 11.5607 16.9579 9.82594 16.9579C7.76831 16.9579 6.17081 15.69 6.17081 13.1514C6.17081 11.1692 7.24237 9.81919 8.77519 9.15937C10.101 8.5755 11.9533 8.47312 13.368 8.31562V8.00625C13.368 7.42575 13.413 6.73837 13.0699 6.23719C12.7746 5.78719 12.2036 5.60156 11.6991 5.60156C10.7681 5.60156 9.94013 6.07969 9.73763 7.06856C9.69656 7.29356 9.53512 7.50506 9.31181 7.51519L6.9375 7.24969C6.73838 7.20469 6.51562 7.04381 6.57356 6.74344C7.122 3.86625 9.71906 3 12.0416 3C13.2302 3 14.7833 3.31612 15.7204 4.21613C16.9089 5.32594 16.7959 6.80644 16.7959 8.418V12.225C16.7959 13.3691 17.2701 13.8703 17.7167 14.4891C17.8714 14.7141 17.9057 14.9728 17.7066 15.1382C17.0761 15.6713 16.4521 16.2119 15.8346 16.7599L15.8312 16.7531" fill="#221F1F"/>
</svg>
