<svg width="24" height="24" viewBox="0 0 24 24" fill="none" xmlns="http://www.w3.org/2000/svg">
<path d="M0 0H23.9404V12.9559L22.7554 14.8121L23.9404 16.464V24H0V11.7865L0.740616 10.9327L0 10.116V0Z" fill="#016FD0"/>
<path d="M4.64736 16.7237V12.9557H8.62705L9.05403 13.5137L9.49512 12.9557L23.9404 12.9559V16.464C23.9404 16.464 23.5626 16.7199 23.1257 16.7237H15.1271L14.6457 16.1297V16.7237H13.0682V15.7098C13.0682 15.7098 12.8527 15.8513 12.3868 15.8513H11.8499V16.7237H9.46137L9.035 16.1537L8.60209 16.7237H4.64736Z" fill="white"/>
<path d="M0 10.116L0.897435 8.01838H2.44946L2.95876 9.19329V8.01838H4.88806L5.19125 8.86757L5.48519 8.01838H14.1458V8.4453C14.1458 8.4453 14.601 8.01838 15.3493 8.01838L18.1593 8.02823L18.6598 9.18775V8.01838H20.2744L20.7187 8.68444V8.01838H22.3481V11.7864H20.7187L20.2929 11.1181V11.7864H17.9208L17.6822 11.1924H17.0445L16.8098 11.7864H15.2011C14.5573 11.7864 14.1458 11.3682 14.1458 11.3682V11.7864H11.7202L11.2388 11.1924V11.7864H2.21953L1.98115 11.1924H1.34547L1.10877 11.7864L0 11.7865V10.116Z" fill="white"/>
<path d="M1.21507 8.48289L0.00462881 11.3042H0.79269L1.01603 10.7393H2.31442L2.53661 11.3042H3.34203L2.13274 8.48289H1.21507ZM1.66291 9.1395L2.05868 10.1267H1.26599L1.66291 9.1395Z" fill="#016FD0"/>
<path d="M3.42535 11.3038V8.48242L4.54523 8.48659L5.19659 10.3056L5.83235 8.48242H6.94327V11.3038H6.23969V9.22488L5.49387 11.3038H4.87683L4.12893 9.22488V11.3038H3.42535Z" fill="#016FD0"/>
<path d="M7.42467 11.3038V8.48242H9.72058V9.11351H8.13566V9.59611H9.68355V10.1901H8.13566V10.6912H9.72058V11.3038H7.42467Z" fill="#016FD0"/>
<path d="M10.1279 8.48289V11.3042H10.8315V10.3019H11.1278L11.9714 11.3042H12.8312L11.9054 10.2648C12.2853 10.2327 12.6773 9.90575 12.6773 9.39821C12.6773 8.8045 12.2124 8.48289 11.6936 8.48289H10.1279ZM10.8315 9.11398H11.6358C11.8287 9.11398 11.969 9.26528 11.969 9.41097C11.969 9.5984 11.7872 9.70795 11.6462 9.70795H10.8315V9.11398Z" fill="#016FD0"/>
<path d="M13.6829 11.3038H12.9645V8.48242H13.6829V11.3038Z" fill="#016FD0"/>
<path d="M15.3863 11.3038H15.2312C14.4809 11.3038 14.0254 10.7112 14.0254 9.90469C14.0254 9.07827 14.4758 8.48242 15.4233 8.48242H16.201V9.15063H15.3949C15.0103 9.15063 14.7383 9.45154 14.7383 9.91165C14.7383 10.458 15.0493 10.6875 15.4974 10.6875H15.6825L15.3863 11.3038Z" fill="#016FD0"/>
<path d="M16.9173 8.48289L15.7068 11.3042H16.4949L16.7182 10.7393H18.0166L18.2388 11.3042H19.0442L17.835 8.48289H16.9173ZM17.3651 9.1395L17.7609 10.1267H16.9682L17.3651 9.1395Z" fill="#016FD0"/>
<path d="M19.1264 11.3038V8.48242H20.0209L21.1631 10.255V8.48242H21.8667V11.3038H21.0011L19.83 9.48474V11.3038H19.1264Z" fill="#016FD0"/>
<path d="M5.12876 16.2411V13.4198H7.42467V14.0509H5.83976V14.5335H7.38764V15.1274H5.83976V15.6286H7.42467V16.2411H5.12876Z" fill="#016FD0"/>
<path d="M16.3787 16.2411V13.4198H18.6746V14.0509H17.0897V14.5335H18.6302V15.1274H17.0897V15.6286H18.6746V16.2411H16.3787Z" fill="#016FD0"/>
<path d="M7.51378 16.2411L8.63164 14.8478L7.48716 13.4198H8.37359L9.05518 14.3026L9.7391 13.4198H10.5908L9.46137 14.8304L10.5813 16.2411H9.69501L9.0332 15.3722L8.38747 16.2411H7.51378Z" fill="#016FD0"/>
<path d="M10.6649 13.4202V16.2416H11.387V15.3506H12.1276C12.7542 15.3506 13.2292 15.0174 13.2292 14.3692C13.2292 13.8323 12.8567 13.4202 12.219 13.4202H10.6649ZM11.387 14.0583H12.1669C12.3694 14.0583 12.5141 14.1827 12.5141 14.3831C12.5141 14.5714 12.3701 14.7079 12.1646 14.7079H11.387V14.0583Z" fill="#016FD0"/>
<path d="M13.5348 13.4198V16.2411H14.2383V15.2388H14.5346L15.3782 16.2411H16.238L15.3122 15.2017C15.6922 15.1695 16.0841 14.8426 16.0841 14.3351C16.0841 13.7414 15.6193 13.4198 15.1005 13.4198H13.5348ZM14.2383 14.0509H15.0426C15.2355 14.0509 15.3759 14.2022 15.3759 14.3478C15.3759 14.5353 15.194 14.6448 15.053 14.6448H14.2383V14.0509Z" fill="#016FD0"/>
<path d="M19.0005 16.2411V15.6286H20.4086C20.6169 15.6286 20.7072 15.5157 20.7072 15.3919C20.7072 15.2733 20.6172 15.1534 20.4086 15.1534H19.7723C19.2192 15.1534 18.9112 14.8156 18.9112 14.3084C18.9112 13.856 19.1932 13.4198 20.0151 13.4198H21.3853L21.089 14.0546H19.904C19.6775 14.0546 19.6078 14.1737 19.6078 14.2875C19.6078 14.4045 19.694 14.5335 19.867 14.5335H20.5336C21.1501 14.5335 21.4177 14.8841 21.4177 15.3432C21.4177 15.8368 21.1196 16.2411 20.5 16.2411H19.0005Z" fill="#016FD0"/>
<path d="M21.5828 16.2411V15.6286H22.9909C23.1993 15.6286 23.2895 15.5157 23.2895 15.3919C23.2895 15.2733 23.1995 15.1534 22.9909 15.1534H22.3546C21.8015 15.1534 21.4935 14.8156 21.4935 14.3084C21.4935 13.856 21.7756 13.4198 22.5975 13.4198H23.9676L23.6714 14.0546H22.4864C22.2599 14.0546 22.1901 14.1737 22.1901 14.2875C22.1901 14.4045 22.2763 14.5335 22.4493 14.5335H23.1159C23.7325 14.5335 24 14.8841 24 15.3432C24 15.8368 23.7019 16.2411 23.0823 16.2411H21.5828Z" fill="#016FD0"/>
</svg>
