<svg width="24" height="24" viewBox="0 0 24 24" fill="none" xmlns="http://www.w3.org/2000/svg">
<path d="M0 0H24V24H0V0Z" fill="#0033A1"/>
<path d="M13.9625 13.7212C14.5438 12.5084 14.6582 11.1333 14.2847 9.84569C13.9113 8.55803 13.0748 7.44322 11.9272 6.70376C12.8492 5.78324 13.8477 4.87098 14.9015 4C13.6721 4.71005 12.5053 5.51775 11.4131 6.41481C10.2275 5.81419 8.86353 5.63354 7.55568 5.90391C6.24783 6.17428 5.07776 6.87879 4.24657 7.89634C3.41539 8.9139 2.975 10.181 3.0011 11.4797C3.02719 12.7785 3.51814 14.0279 4.38957 15.0132C3.28909 17.3289 3.11488 19.1865 4.06665 19.8139C5.10764 20.4867 7.36809 19.2649 8.7405 17.2794C8.7405 17.2794 6.64152 19.1163 5.49005 18.6952C4.78047 18.4352 4.78047 17.3785 5.36258 15.8676C6.46549 16.6537 7.8206 17.0323 9.18484 16.9355C10.5491 16.8386 11.8332 16.2727 12.8068 15.3393L13.0107 15.7108C15.5176 15.5127 23 15.3186 23 15.3186C22.983 14.976 18.0287 15.3063 13.9625 13.7212ZM3.68849 11.3641C3.6894 10.5414 3.90265 9.73198 4.30874 9.00998C4.71483 8.28798 5.3008 7.67644 6.01304 7.2313C6.72527 6.78616 7.54103 6.52164 8.38568 6.46193C9.23034 6.40222 10.0769 6.54923 10.848 6.88951C8.36426 9.00008 6.29049 11.5265 4.72524 14.3486C4.05068 13.4919 3.68623 12.4427 3.68849 11.3641ZM8.749 16.2804C7.61288 16.2825 6.50936 15.9116 5.61752 15.2278C6.62027 13.0318 8.65977 10.0845 11.4428 7.20323C12.4883 7.84276 13.2568 8.83171 13.6035 9.98367C13.9502 11.1356 13.8512 12.371 13.3251 13.457C12.4467 13.074 11.6353 12.5601 10.9202 11.9338L12.4456 14.716C11.9733 15.2097 11.4013 15.6035 10.7652 15.8727C10.1292 16.1419 9.44279 16.2807 8.749 16.2804Z" fill="white"/>
</svg>
