<svg width="24" height="24" viewBox="0 0 24 24" fill="none" xmlns="http://www.w3.org/2000/svg">
<path d="M0 0H24V24H0V0Z" fill="white"/>
<path d="M9.48848 9.71181L11.4218 10.5256C9.39945 11.3394 7.42179 12.3069 5.55483 13.4072C4.93606 13.0772 4.26573 12.7693 3.62152 12.4835C5.51048 11.4278 7.46614 10.4814 9.48848 9.71181ZM7.06669 8.87217C4.96324 9.52888 2.93101 10.391 1 11.4459C1.59986 11.6656 2.22241 11.9079 2.82193 12.1501C4.68855 11.0723 6.66655 10.1486 8.71055 9.42297C8.17704 9.22497 7.62152 9.04874 7.066 8.87319" fill="#3366CC"/>
<path d="M13.911 9.64241C12.2444 8.85074 10.5332 8.19073 8.75524 7.64095C8.13647 7.81684 7.51083 8.01519 6.91062 8.21251C8.73255 8.74051 10.5108 9.42229 12.2217 10.2357C12.7552 10.0377 13.3331 9.8183 13.911 9.64241ZM16.5999 8.82557C14.911 8.0999 13.1554 7.48412 11.3551 7C10.7868 7.1084 10.2233 7.24052 9.66621 7.396C11.4441 7.9019 13.1774 8.56156 14.8443 9.3352C15.4218 9.15931 16.022 8.98342 16.5999 8.82931M20.9553 10.2766C16.6886 11.6877 12.7112 13.7113 9.11069 16.2626C9.99966 16.8123 10.8886 17.3842 11.7552 18C15.1554 15.3389 18.9333 13.0952 23 11.4237C22.3111 11.006 21.6446 10.6321 20.9557 10.28M18.0223 8.89463C13.5999 10.0602 9.44414 11.9293 5.68821 14.3931C6.53283 14.8109 7.35476 15.2504 8.17704 15.7131C11.8443 13.2058 15.933 11.2479 20.2888 9.94996C19.5418 9.58011 18.7864 9.22846 18.0223 8.89463Z" fill="#E2173E"/>
</svg>
