<svg width="24" height="24" viewBox="0 0 24 24" fill="none" xmlns="http://www.w3.org/2000/svg">
<path d="M0 0H24V24H0V0Z" fill="#0046BE"/>
<path d="M1 7.14867V12.329H3.90645C5.05041 12.329 6.10756 11.9544 6.10756 10.8537C6.10756 10.1097 5.5332 9.77003 4.90145 9.59224C5.28635 9.44816 5.72298 9.14548 5.72298 8.51096C5.72298 7.69884 4.85952 7.14867 3.69698 7.14867H1ZM2.78053 8.35518H3.43513C3.70161 8.35518 3.90481 8.54998 3.90481 8.74768C3.90481 8.93137 3.69367 9.12796 3.43513 9.12796H2.78053V8.35518ZM2.78053 10.2031H3.64461C3.94626 10.2031 4.19939 10.4169 4.19939 10.6613C4.19939 10.9208 3.96264 11.1363 3.59224 11.1363H2.78053V10.2031Z" fill="white"/>
<path d="M2.44013 12.8941V18.0745H5.34658C6.49055 18.0745 7.5477 17.6998 7.5477 16.5992C7.5477 15.8551 6.97333 15.5155 6.34159 15.3377C6.72649 15.1936 7.16312 14.8909 7.16312 14.2564C7.16312 13.4443 6.29965 12.8941 5.13711 12.8941H2.44013ZM4.22066 14.1006H4.87527C5.14175 14.1006 5.34495 14.2954 5.34495 14.4931C5.34495 14.6768 5.1338 14.8734 4.87527 14.8734H4.22066V14.1006ZM4.22066 15.9486H5.08474C5.38639 15.9486 5.63952 16.1624 5.63952 16.4067C5.63952 16.6662 5.40278 16.8817 5.03237 16.8817H4.22066V15.9486Z" fill="white"/>
<path d="M6.24732 12.3284V7.14804H10.7248V8.39915H8.02261V9.07847H10.2169V10.2514H8.02261V11.0822H10.7248V12.3284H6.24732Z" fill="white"/>
<path d="M13.1503 12.4767C14.4107 12.4767 15.4188 11.8058 15.4188 10.7186C15.4188 8.964 12.9729 9.23401 12.9729 8.68771C12.9729 8.47668 13.2107 8.3647 13.4545 8.3647C13.8748 8.3647 14.1785 8.6231 14.1785 8.6231L15.2308 7.68806C14.8099 7.31426 14.1452 7 13.2498 7C11.905 7 11.0252 7.74487 11.0252 8.64339C11.0252 10.4203 13.4358 10.1624 13.4358 10.72C13.4358 10.9154 13.2343 11.112 12.8689 11.112C12.454 11.112 12.1253 10.8783 11.8695 10.68L10.8111 11.6217C11.2373 12.0091 11.9215 12.4767 13.1503 12.4767Z" fill="white"/>
<path d="M16.7891 12.3284V8.39427H15.3228V7.14804H20.0359V8.39427H18.5696V12.3284H16.7891Z" fill="white"/>
<path d="M7.6089 12.8904H9.38419V15.9938C9.38419 16.3089 9.72027 16.5993 10.0707 16.5993C10.4012 16.5993 10.7353 16.3371 10.7353 15.9772V12.8904H12.5054V15.9561C12.5054 17.1726 11.4231 18.1429 10.0237 18.1429C8.61641 18.1429 7.6089 17.0869 7.6089 15.8898V12.8904Z" fill="white"/>
<path d="M14.6944 18.0708V16.2197L12.6078 12.8904H14.404L15.5846 14.6742L16.7694 12.8904H18.5696L16.4749 16.2388V18.0708H14.6944Z" fill="white"/>
<path d="M18.5696 15.7256L17.5223 16.703V18.0226L18.5696 19H23V15.7256H18.5696Z" fill="white"/>
<path d="M18.3976 17.3622C18.3976 17.4836 18.2921 17.5821 18.1619 17.5821C18.0318 17.5821 17.9263 17.4836 17.9263 17.3622C17.9263 17.2407 18.0318 17.1423 18.1619 17.1423C18.2921 17.1423 18.3976 17.2407 18.3976 17.3622Z" fill="white"/>
</svg>
