<svg width="24" height="24" viewBox="0 0 24 24" fill="none" xmlns="http://www.w3.org/2000/svg">
<path d="M0 0H24V24H0V0Z" fill="white"/>
<path d="M22 10.519C22 11.9184 20.9333 13.0379 19.6 13.0379H17.9556V15.9767H16.0667V8H19.5778C20.9333 8 22 9.14286 22 10.519ZM19.2889 9.65598H17.9778V11.312H19.2889C19.7111 11.312 20.0444 10.9155 20.0444 10.4956C20.0444 10.0525 19.7111 9.65598 19.2889 9.65598ZM13.0889 8V11.242H10.4667V8H8.57778V16H10.4667V13.0612H13.0889V16H14.9778V8H13.0889ZM7.84444 13.8309C7.84444 15.1603 6.71111 16 5.51111 16H2V8H5.4C6.64444 8 7.66667 8.95627 7.66667 10.1458C7.66667 11.0787 7.24444 11.5918 6.66667 11.965C7.33333 12.2682 7.84444 12.7114 7.84444 13.8309ZM5.13333 12.7813H3.88889V14.3207H5.13333C5.62222 14.3207 5.88889 13.9708 5.88889 13.551C5.88889 13.1312 5.53333 12.7813 5.13333 12.7813ZM4.95556 9.65598H3.88889V11.312H4.95556C5.44444 11.312 5.71111 10.9155 5.71111 10.4956C5.71111 10.0525 5.44444 9.65598 4.95556 9.65598Z" fill="#E35302"/>
</svg>
