<svg width="24" height="24" viewBox="0 0 24 24" fill="none" xmlns="http://www.w3.org/2000/svg">
<path d="M0 0H24V24H0V0Z" fill="black"/>
<path fill-rule="evenodd" clip-rule="evenodd" d="M21.7498 13.5259V13.5976H21.7928C21.8204 13.5976 21.8358 13.5888 21.8358 13.5612C21.8358 13.5392 21.8237 13.5259 21.7984 13.5259H21.7498ZM21.7124 13.494H21.7984C21.8479 13.494 21.8743 13.5193 21.8743 13.559C21.8743 13.5943 21.859 13.6141 21.8336 13.624L21.8733 13.6968H21.8314L21.795 13.6296H21.7498V13.6968H21.7124V13.494ZM21.7917 13.7783C21.8942 13.7783 21.9658 13.7166 21.9658 13.5998C21.9658 13.4841 21.8942 13.4223 21.7917 13.4223C21.6881 13.4223 21.6165 13.4841 21.6165 13.5998C21.6165 13.7166 21.6881 13.7783 21.7917 13.7783ZM21.7917 13.3937C21.9229 13.3937 22 13.4764 22 13.5998C22 13.7232 21.9229 13.8059 21.7917 13.8059C21.6595 13.8059 21.5834 13.7232 21.5834 13.5998C21.5834 13.4764 21.6595 13.3937 21.7917 13.3937ZM12.0759 13.7814L11.3292 12.487L12.0298 11.7241H11.3175L10.589 12.5431V11.0001H9.96101V13.7814H10.589V13.281L10.8899 12.959L11.3611 13.7814H12.0759ZM21.4058 13.7814L20.6591 12.487L21.3596 11.7241H20.6556L19.9189 12.5431V11.0001H19.2909V13.7814H19.9189V13.281L20.2198 12.959L20.6909 13.7814H21.4058ZM6.7604 13.0932C6.7604 13.2819 6.57811 13.4063 6.37052 13.4063C6.17421 13.4063 6.07837 13.3055 6.07837 13.1659C6.07837 13.0185 6.18669 12.9112 6.40506 12.9112C6.54014 12.9112 6.66167 12.9343 6.7604 12.9573V13.0932ZM7.61735 13.7461V13.3101C7.5905 13.317 7.5499 13.3249 7.51054 13.3249C7.42753 13.3249 7.38832 13.2839 7.38832 13.2072V12.4862C7.38832 11.9468 7.02683 11.6585 6.42777 11.6585C6.03912 11.6585 5.70406 11.8004 5.49496 11.986L5.84474 12.38C5.98462 12.2583 6.17081 12.1789 6.34966 12.1789C6.62655 12.1789 6.76033 12.3174 6.76033 12.5474V12.6148C6.62748 12.5827 6.46416 12.5527 6.26182 12.5527C5.75574 12.5527 5.42832 12.7945 5.42832 13.1993C5.42832 13.6123 5.70158 13.8296 6.12615 13.8296C6.41742 13.8296 6.67438 13.7107 6.8117 13.5563C6.89402 13.7592 7.0699 13.814 7.24508 13.814C7.36035 13.814 7.4981 13.7943 7.61735 13.7461ZM12.9002 12.2942H13.3864C13.6889 12.2941 13.8342 12.1249 13.8342 11.9215C13.8342 11.6825 13.6946 11.5516 13.3864 11.5516H12.9002V12.2942ZM13.8326 13.7814L13.305 12.8456H12.9002V13.7814H12.2461V11.0001H13.4233C14.0601 11.0001 14.5061 11.3034 14.5061 11.9032C14.5061 12.2866 14.3156 12.5542 13.9801 12.7218L14.59 13.7814H13.8326ZM19.1424 12.2189C18.9677 11.8556 18.6429 11.6533 18.1521 11.6533C17.5712 11.6533 17.0534 12.0182 17.0534 12.7392C17.0534 13.444 17.5092 13.8338 18.1433 13.8338C18.5889 13.8338 18.9636 13.6559 19.1385 13.272L18.6273 13.008C18.5356 13.1796 18.3907 13.2858 18.1645 13.2858C17.8727 13.2858 17.68 13.0757 17.68 12.7383C17.68 12.4 17.8975 12.1955 18.1601 12.1955C18.3632 12.1955 18.5205 12.2895 18.6148 12.4888L19.1424 12.2189ZM9.80441 12.2189C9.62969 11.8556 9.30489 11.6533 8.81404 11.6533C8.23321 11.6533 7.71539 12.0182 7.71539 12.7392C7.71539 13.444 8.17117 13.8338 8.80531 13.8338C9.25093 13.8338 9.62555 13.6559 9.80047 13.272L9.28933 13.008C9.19762 13.1796 9.05269 13.2858 8.82647 13.2858C8.53467 13.2858 8.34195 13.0757 8.34195 12.7383C8.34195 12.4 8.55947 12.1955 8.82211 12.1955C9.02518 12.1955 9.18248 12.2895 9.27677 12.4888L9.80441 12.2189ZM3.59511 12.9394C3.59511 13.1219 3.46956 13.2423 3.23095 13.2423L2.66025 13.2423V12.6366H3.23095C3.45855 12.6366 3.59511 12.7523 3.59511 12.9394ZM3.53554 11.821C3.53554 12.0098 3.41471 12.1196 3.18444 12.1196H2.66052V11.5393H3.18444C3.39582 11.5394 3.53554 11.6331 3.53554 11.821ZM4.29012 12.9799C4.29012 12.6678 4.1283 12.4266 3.8382 12.3208C4.11301 12.1719 4.20973 11.9721 4.20973 11.7397C4.20973 11.3339 3.91577 11 3.26027 11L2 11.0001V13.7814H3.31369C3.97379 13.7814 4.29012 13.4527 4.29012 12.9799ZM16.2333 12.7407C16.2333 13.0919 15.9992 13.2898 15.7249 13.2898C15.4506 13.2898 15.2166 13.0919 15.2166 12.7407C15.2166 12.3855 15.4503 12.1959 15.7249 12.1959C15.9995 12.1959 16.2333 12.3854 16.2333 12.7407ZM16.8583 12.7405C16.8583 12.0702 16.3379 11.6502 15.7249 11.6502C15.1118 11.6502 14.5915 12.0701 14.5915 12.7405C14.5915 13.4113 15.1117 13.8354 15.7249 13.8354C16.338 13.8354 16.8583 13.4112 16.8583 12.7405ZM4.54387 13.7814H5.1777V11.0001H4.54387V13.7814Z" fill="white"/>
</svg>
