<svg width="24" height="24" viewBox="0 0 24 24" fill="none" xmlns="http://www.w3.org/2000/svg">
<path d="M0 0H24V24H0V0Z" fill="white"/>
<path d="M8.09811 16.3983L8.06134 16.434C7.48393 17.0223 6.81575 17.3331 6.12746 17.3331C4.68997 17.3331 3.64719 16.2547 3.64719 14.7672C3.64719 13.2821 4.68997 12.2019 6.12746 12.2019C6.81575 12.2019 7.48393 12.5145 8.06134 13.1051L8.09811 13.1401L9.02254 12.0221L8.99783 11.9922C8.22911 11.0839 7.3064 10.6421 6.17227 10.6421C5.03527 10.6421 3.99421 11.0253 3.24502 11.7153C2.42918 12.4633 2 13.5182 2 14.7672C2 16.0163 2.42918 17.0734 3.24502 17.8215C3.99421 18.5155 5.03527 18.8958 6.17227 18.8958C7.3064 18.8958 8.22911 18.4534 8.99783 17.5445L9.02254 17.517L8.09811 16.3983Z" fill="#004685"/>
<path d="M9.95624 18.7433H11.5891V10.7711H9.95624V18.7433Z" fill="#004685"/>
<path d="M17.9862 17.0103C17.5501 17.2757 17.1451 17.4096 16.7808 17.4096C16.2528 17.4096 16.0138 17.1303 16.0138 16.5098V12.2795H17.6782V10.7789H16.0138V8.29801L14.4137 9.15522V10.7789H13.0326V12.2795H14.4137V16.7793C14.4137 18.0048 15.14 18.8436 16.2247 18.8654C16.9607 18.8798 17.4042 18.6603 17.6731 18.4995L17.6903 18.4885L18.0827 16.9511L17.9862 17.0103Z" fill="#004685"/>
<path d="M19.3378 18.7433H20.9729V10.7711H19.3378V18.7433Z" fill="#004685"/>
<path d="M21.9253 9.37366C20.4332 7.26052 17.9558 5.99999 15.4353 5.99999C12.9154 5.99999 10.4375 7.26052 8.94827 9.37366L8.87129 9.48225H10.75L10.7707 9.45984C12.049 8.13956 13.7186 7.44207 15.4353 7.44207C17.1521 7.44207 18.8205 8.13956 20.1017 9.45984L20.1224 9.48225H22L21.9253 9.37366Z" fill="#EE1C25"/>
</svg>
