<svg width="24" height="24" viewBox="0 0 24 24" fill="none" xmlns="http://www.w3.org/2000/svg">
<path d="M24 0H0V24H24V0Z" fill="black"/>
<path d="M8.28336 15.5582C8.68776 15.1822 8.75736 14.7173 8.75736 14.2997V12.547H6.55896V14.9249C6.55896 15.2662 6.31152 15.5417 6.00624 15.5417C5.7012 15.5417 5.47368 15.2662 5.47368 14.9249V8.18688C5.47368 7.8468 5.70096 7.5708 6.00624 7.5708C6.31152 7.5708 6.55896 7.8468 6.55896 8.18688V10.5811H8.75424V8.09736C8.75424 6.72528 7.9488 5.59608 5.98776 5.59344C3.97368 5.59344 3.2124 6.72792 3.2124 8.1V15.1361C3.2124 16.4957 4.18224 17.5246 5.42232 17.5246H6.1032L8.28336 15.5582Z" fill="white"/>
<path d="M16.9495 15.8345V8.10192H15.4322V5.82456H20.9227V8.10192H19.3982V17.5109H18.7474L16.9495 15.8345Z" fill="white"/>
<path d="M17.9333 17.5279L12.5863 12.5386L7.04568 17.5279H17.9333Z" fill="#FEC40E"/>
<path d="M11.995 11.1941L12.5868 7.8252L13.1755 11.1941H11.995ZM14.1115 5.83632H11.0489L9.26448 14.7518L12.5875 11.7648L16.0517 14.9978L14.1115 5.83632Z" fill="white"/>
</svg>
