<svg width="24" height="24" viewBox="0 0 24 24" fill="none" xmlns="http://www.w3.org/2000/svg">
<path d="M0 0H24V24H0V0Z" fill="#481776"/>
<path d="M20.8222 15.5307C20.8882 15.4706 20.966 15.4237 21.0511 15.3925C21.1361 15.3614 21.2267 15.3466 21.3177 15.3492C21.4086 15.3517 21.4982 15.3715 21.5812 15.4073C21.6642 15.4431 21.739 15.4944 21.8013 15.558C21.9273 15.6868 21.9951 15.8583 21.9898 16.0349C21.9844 16.2116 21.9064 16.379 21.7729 16.5005C20.716 17.4651 19.3128 18.002 17.8544 18C16.4099 18.0015 15.0191 17.4747 13.9649 16.5269C13.8304 16.4062 13.7512 16.2392 13.7446 16.0626C13.7381 15.8859 13.8047 15.714 13.9299 15.5844C13.9917 15.5203 14.0661 15.4685 14.1488 15.4321C14.2316 15.3957 14.321 15.3753 14.4119 15.3722C14.5029 15.3691 14.5935 15.3833 14.6788 15.4139C14.764 15.4446 14.842 15.4911 14.9085 15.5508C15.707 16.2685 16.7604 16.6674 17.8544 16.6662C18.9589 16.6675 20.0216 16.261 20.8222 15.5307ZM17.7851 8.33397C15.4602 8.33397 13.5621 10.0848 13.4645 12.3193L13.4619 12.3574L13.3846 13.1057C13.2315 14.4435 12.5723 15.6808 11.5319 16.5831C10.4848 17.4933 9.12231 17.9971 7.7096 17.9963C6.93905 17.9963 6.19087 17.8513 5.4868 17.5644C4.8084 17.288 4.19231 16.8878 3.67265 16.3862C3.15089 15.885 2.73537 15.2914 2.44912 14.6383C2.15136 13.9611 1.99862 13.2333 2.00001 12.4982C2.00001 11.7561 2.15107 11.0363 2.44912 10.358C2.73537 9.70488 3.15089 9.11129 3.67265 8.61009C4.20173 8.09942 4.83083 7.69424 5.52374 7.41791C6.21665 7.14158 6.95967 6.99955 7.71001 7C9.2137 7 10.6338 7.55849 11.7071 8.57282C11.8384 8.69675 11.9132 8.86555 11.9151 9.04226C11.917 9.21898 11.8458 9.38923 11.7173 9.51573C11.6537 9.57835 11.5779 9.62827 11.4941 9.66263C11.4103 9.697 11.3203 9.71511 11.2292 9.71595C11.1382 9.71678 11.0478 9.70032 10.9634 9.6675C10.8789 9.63468 10.8021 9.58615 10.7373 9.52471C9.93157 8.75974 8.84334 8.33163 7.71001 8.33378C5.32537 8.33378 3.38558 10.2018 3.38558 12.498C3.38558 14.7944 5.32537 16.6625 7.71001 16.6625C9.91756 16.6625 11.7649 15.0725 12.0074 12.9627L12.0818 12.244C12.1459 10.8377 12.7715 9.50903 13.8289 8.5336C14.8981 7.54483 16.303 7 17.7853 7C19.2898 7 20.7091 7.55849 21.7832 8.57282C22.0559 8.8306 22.0784 9.26205 21.8105 9.5251C21.5925 9.73936 21.2497 9.77566 20.9826 9.64277C20.9202 9.61194 20.8631 9.57213 20.8132 9.52471C20.0073 8.7597 18.9186 8.3318 17.7851 8.33397Z" fill="white"/>
</svg>
