<svg width="24" height="24" viewBox="0 0 24 24" fill="none" xmlns="http://www.w3.org/2000/svg">
<path d="M0 0H24V24H0V0Z" fill="#1B619A"/>
<path d="M17.0235 17.3171C15.8137 18.3052 14.6218 18.7449 13.1571 18.7449C9.89202 18.7449 7.33411 15.7723 7.33411 11.9763C7.33411 8.14379 9.83772 5.25512 13.1571 5.25512C14.5596 5.25512 15.7058 5.66231 16.8745 6.57554L17.2638 6.88061L18.9484 5.22585L18.4829 4.84143C17.528 4.05113 15.9395 3 13.1796 3C8.51606 3 5 6.87996 5 12.0244C5 17.1415 8.48692 21 13.1121 21C15.9296 21 17.5744 19.8246 18.5663 18.94L19 18.5536L17.4148 16.9978L17.0235 17.3171Z" fill="white"/>
</svg>
