<svg width="24" height="24" viewBox="0 0 24 24" fill="none" xmlns="http://www.w3.org/2000/svg">
<path d="M11.9703 5.63476C12.301 5.08041 12.8497 4.50038 13.4405 4.25506C14.4574 3.78007 15.8205 3.98433 16.6502 4.73595C17.453 5.48268 17.8603 6.50613 17.6682 7.65035C17.8651 7.61307 18.0639 7.48365 18.2723 7.41C19.5186 7.04888 20.8367 7.44047 21.6359 8.53747C22.2361 9.32057 22.3929 10.5372 22.0326 11.4833C21.8538 11.9591 21.5489 12.387 21.1524 12.752L21.1924 12.7933C22.3519 12.8511 23.4914 13.7755 23.843 14.9088C24.2244 16.0521 23.8889 17.2737 23.0746 18.1098C22.4092 18.7849 21.5537 19.0186 20.6027 18.9989H3.3372C1.91956 19.0303 0.824175 18.3855 0.234431 17.0913C-0.228254 15.9804 0.000220239 14.5596 0.864258 13.7128C1.40908 13.1279 2.09163 12.8884 2.82762 12.7678C1.99416 11.9739 1.59263 10.8877 1.82684 9.72284C1.99416 8.77893 2.77794 7.82314 3.6783 7.4934C4.47159 7.16956 5.54608 7.22645 6.27256 7.666L6.29839 7.6336C6.07951 6.34909 6.63392 5.19023 7.67182 4.47976C8.59719 3.83714 10.0768 3.85371 10.9829 4.53684C11.3902 4.79284 11.7256 5.23248 11.9703 5.63476Z" fill="white"/>
<path d="M16.8585 6.11463C17.2294 6.883 17.0115 7.88979 16.6243 8.57963L13.6287 15.4986L13.6028 15.531L12.52 8.51197C12.4331 7.83796 13.1346 7.55038 13.5475 7.22654C13.5265 7.12749 13.4203 7.13237 13.3535 7.08625L12.3414 7.07539L12.3106 7.044C12.3163 6.17262 12.7733 5.36799 13.5475 4.94509C14.3563 4.46531 15.4955 4.59575 16.1971 5.21104C16.4819 5.47191 16.7219 5.77505 16.8585 6.11463Z" fill="#645FAA"/>
<path d="M11.3394 5.87419C11.5842 6.33933 11.7257 6.86735 11.6396 7.45207L10.4181 15.4888C10.4247 15.4985 10.4133 15.5094 10.4036 15.5142L10.0873 14.8676L7.02568 7.84855C6.74081 6.94477 7.0047 5.99984 7.646 5.35206C8.29215 4.67897 9.35507 4.49643 10.2001 4.86151C10.6474 5.05979 11.0747 5.42488 11.3394 5.87419Z" fill="#C9234A"/>
<path d="M21.2898 9.2576C21.7018 9.97875 21.6091 11.07 21.1511 11.7393C20.8674 12.2093 20.3989 12.4438 20.0022 12.7519L13.6584 17.2225H13.6439L13.7147 17.0087L17.0774 9.21646C17.5812 8.29795 18.5428 7.8328 19.5598 7.97309C20.2566 8.10372 20.9534 8.56877 21.2898 9.2576Z" fill="#0089CF"/>
<path d="M6.87854 9.21646L10.3779 17.2217H10.3216L3.26654 12.2299C2.54857 11.6088 2.25429 10.6785 2.498 9.73849C2.68057 9.03392 3.25022 8.37555 3.92793 8.1144C5.03757 7.69739 6.28772 8.14091 6.87854 9.21646Z" fill="#F36F21"/>
<path d="M23.1308 14.9088C23.4825 15.6712 23.3439 16.7153 22.8412 17.3638C22.3423 17.9851 21.675 18.3246 20.8922 18.3029L13.3697 18.3079L19.6714 13.8069C20.2872 13.3996 21.2229 13.3259 21.8949 13.6556C22.4138 13.8647 22.9023 14.3867 23.1308 14.9088Z" fill="#0DB14B"/>
<path d="M0.854751 14.9088C0.50406 15.6712 0.641613 16.7153 1.14537 17.3638C1.64428 17.9851 2.30952 18.3246 3.09339 18.3029L10.6159 18.3079L4.31404 13.8069C3.69847 13.3996 2.76279 13.3259 2.09172 13.6556C1.57254 13.8647 1.08421 14.3867 0.854751 14.9088Z" fill="#FDB913"/>
</svg>
