<svg width="24" height="24" viewBox="0 0 24 24" fill="none" xmlns="http://www.w3.org/2000/svg">
<path d="M4.17112 24C1.86096 24 0 22.1415 0 19.8344V4.16555C0 1.85848 1.86096 0 4.17112 0H19.8289C22.139 0 24 1.85848 24 4.16555V19.8344C24 22.1415 22.139 24 19.8289 24H4.17112Z" fill="#451500"/>
<path d="M16.7166 2.65955C16.877 2.69159 17.5829 2.91589 17.5829 2.91589C17.5829 2.91589 18.2567 3.90921 18.4492 4.13351C18.6096 4.35781 18.5455 4.48598 18.5455 4.48598L18.2246 5.7036C18.0963 5.60748 17.1979 5.67156 16.9733 5.7036C16.7487 5.73565 17.1658 5.44726 17.262 5.35113C17.3583 5.25501 17.7433 4.96662 17.7112 4.83845C17.6791 4.67824 17.0695 3.55674 17.0695 3.55674C17.0695 3.55674 16.0428 3.55674 15.5615 3.62083C15.0802 3.68491 14.0535 4.71028 14.0535 4.71028L13.6684 6.18424C13.6684 6.18424 13.8289 6.44059 14.0214 6.63284C14.246 6.79306 14.8556 6.76101 15.0802 6.72897C15.3048 6.69693 15.2086 6.98531 15.016 7.14553C14.8235 7.30574 14.1176 7.30574 14.1176 7.30574L14.4064 7.40187C14.7273 7.69025 15.3048 9.19626 15.6578 9.54873C16.0107 9.9012 15.6578 11.6315 15.1444 12.1442C14.631 12.6569 14.4064 13.7143 14.1176 14.0027C13.8289 14.2911 13.508 14.1949 13.8289 14.5154C14.1497 14.8358 13.9893 15.2203 14.0535 15.4766C14.0856 15.6689 14.1497 15.9893 14.2781 16.1175C14.4385 16.2777 16.7487 17.8798 17.6471 17.9439C17.8075 17.9439 17.8075 18.777 16.877 19.7704C16.877 19.7704 16.7166 20.3471 15.1123 20.4112C13.3797 20.4753 11.6791 20.1869 11.2941 20.1869C10.9091 20.1869 9.75401 19.5461 9.75401 19.5461C9.52941 19.5461 6.16042 14.5474 6.16042 14.1949C6.16042 13.8425 5.90374 12.9132 5.90374 12.5607C5.90374 12.2083 6.32085 9.03605 6.25668 8.65154C6.19251 8.36315 6.35294 8.26702 6.70588 7.9466C7.05882 7.59413 7.66845 7.01736 7.92513 6.76101C8.02139 6.66489 8.85561 6.66489 9.88235 6.47263L10.0428 6.40854L9.85026 6.31242C9.85026 6.31242 9.52941 5.89586 9.01604 5.9279C8.50267 5.95995 8.31016 5.99199 8.59893 5.86382C8.85561 5.73565 9.36898 5.38318 9.36898 5.38318L10.5241 5.89586H11.1337L12.2246 4.99866L14.6952 3.01202L16.7166 2.65955ZM9.08021 8.97196C8.79144 9.03605 8.31016 8.93992 8.08556 9.35648L7.70053 11.1829C7.70053 11.1829 7.73262 13.0093 7.79679 13.3618C7.82887 13.7143 8.31016 14.8999 8.56684 15.1562C8.79144 15.3805 9.01604 16.1495 9.43315 16.5661C9.52941 16.6622 9.78609 16.7263 9.85026 16.8545C10.0107 17.0788 10.1711 16.9186 9.85026 16.47C8.72727 14.8037 8.47058 13.3618 8.4385 13.1375C8.31016 12.5928 8.40641 11.3431 8.4385 10.8304C8.47058 10.5741 8.63101 9.96529 8.82353 9.83712C8.91978 9.77303 9.68984 9.6769 9.81818 9.64486C10.0749 9.58077 10.3957 9.58077 10.6203 9.54873C11.3262 9.38852 12.385 9.77303 12.4813 9.80507C13.5401 10.2857 13.123 10.478 13.1551 10.51C13.1872 10.5741 11.6791 13.5541 11.6791 13.7143C11.6791 13.8745 11.7433 15.3485 11.8717 15.765C11.9037 15.8932 12.385 17.0147 12.4813 17.239C12.8663 18.1362 11.6791 17.0788 11.615 17.0467C11.5508 17.0147 10.2353 14.3551 10.0107 13.7784C9.85026 13.3939 9.91444 12.8171 9.94652 12.721C9.97861 12.5607 9.88235 11.279 10.1069 11.0868C10.2674 10.9586 10.7487 10.8945 11.1016 11.0547C11.4225 11.1829 11.5829 11.5354 11.5508 11.6315C11.5187 11.6956 11.0374 13.3298 10.9412 13.2016C10.9091 13.1696 10.9091 12.6569 10.8449 12.5928C10.7487 12.4967 10.6203 12.4326 10.5882 12.4967C10.5561 12.5607 10.4599 13.1055 10.492 13.2977C10.7166 14.1949 11.0053 13.9065 11.1016 13.7463C11.262 13.49 11.9679 11.5033 11.9358 11.3752C11.9037 11.0868 11.6791 10.5741 11.2299 10.4139C10.9412 10.3178 10.0107 10.3818 9.65775 10.5421C9.14438 10.7984 9.17647 13.1055 9.27272 13.4259C9.36898 13.7463 10.7166 16.4379 10.7807 16.6302C10.9412 17.0467 11.9037 17.976 12.0321 18.0721C12.0963 18.1041 13.4118 18.6168 13.5722 18.3605C13.6364 18.2323 13.6043 17.9439 13.2834 17.7196C12.9626 17.5274 12.2246 15.3164 12.2246 15.1562C12.2246 14.996 12.0321 13.7784 12.1604 13.522C12.4171 13.0414 14.2139 10.3498 14.0214 10.1255C13.7647 9.83712 12.9626 8.49132 12.5775 9.004C12.2246 9.4526 10.877 9.004 10.4599 8.68358C10.4599 8.71562 9.52941 8.90788 9.08021 8.97196ZM14.2781 19.3218C14.7914 19.3218 16.2353 18.5527 15.7219 18.2003C15.369 17.976 14.984 17.6876 14.246 17.1108C13.9251 16.8545 13.7647 16.9186 13.6684 16.9186C13.3797 16.9186 13.861 16.4379 13.7005 16.0214C13.508 15.6048 13.4118 14.9319 13.2834 14.7717C13.123 14.6115 13.1872 13.8104 13.508 13.49C13.861 13.1375 14.3422 12.1442 14.631 11.7597C14.9519 11.3111 15.1765 10.2857 15.0481 10.1575C14.9198 10.0294 14.3102 8.77971 14.0535 8.52336C13.893 8.36315 13.6043 7.94659 13.3476 7.59412L13.2834 7.498L12.9946 7.65821C12.7059 7.81842 12.3529 8.13885 12.3529 8.13885C12.3529 8.13885 12.0963 8.20294 11.5508 8.10681C11.262 8.04272 11.1337 7.85047 11.1337 7.59412C11.1337 7.33778 10.9733 7.40187 10.9733 7.40187C10.9733 7.40187 8.40641 7.53004 8.18182 7.65821C7.9893 7.78638 7.09091 9.004 7.09091 9.004C7.09091 9.004 6.60962 13.6822 6.99465 14.0668C7.44385 14.5154 9.49732 18.1362 9.91444 18.5527C10.3636 19.1936 13.7647 19.3218 14.2781 19.3218Z" fill="white"/>
</svg>
