<svg width="24" height="24" viewBox="0 0 24 24" fill="none" xmlns="http://www.w3.org/2000/svg">
<path d="M0 0H24V24H0V0Z" fill="white"/>
<path d="M23.0369 10.5979C22.6555 10.1137 21.9826 9.83612 21.191 9.83612C20.3536 9.83612 19.5996 10.1343 19.0775 10.6181L19.1626 10.0595L18.9362 9.989C18.6158 9.889 18.2599 9.83612 17.9071 9.83612C17.3008 9.83612 16.721 10.0324 16.2525 10.3558L16.3873 9.89075H12.7618L12.7188 10.0392C12.3967 9.90362 12.0423 9.83612 11.643 9.83612C10.8966 9.83612 10.0887 10.1394 9.66926 10.7233C9.64179 10.6805 9.61301 10.6384 9.58101 10.5979C9.19952 10.1137 8.52669 9.83612 7.73505 9.83612C6.92239 9.83612 6.18746 10.1166 5.66758 10.5756L5.86997 9.2875L5.64 9.21788C5.24728 9.099 4.81087 9.03613 4.37779 9.03613C2.78902 9.03613 1.34293 10.0934 1.08573 11.4429C0.976239 12.017 1.10412 12.5731 1.44549 13.009C1.73648 13.3804 2.16621 13.6451 2.67678 13.7804H1.10269V15.8881H9.12072L9.13313 15.8624L9.13469 15.8881H10.0998L10.2307 15.6647L10.1902 15.8881H12.3723L12.4043 15.712C12.5961 15.842 12.845 15.9126 13.1317 15.9126C13.3879 15.9126 13.6257 15.857 13.8306 15.7581L13.807 15.8881H16.8665L16.8718 15.8595C17.0136 15.893 17.1626 15.9128 17.305 15.9128C17.3914 15.9128 17.4805 15.9046 17.5691 15.8882H18.7355L18.8221 15.6959H18.8998L18.9236 15.8882H22.5212L22.7001 14.902H22.6344L22.659 14.7665H22.706L22.8851 13.7804H22.7856C22.8667 13.7035 22.9258 13.6047 22.9463 13.4924C22.9704 13.3589 22.9373 13.223 22.8555 13.1198C22.8343 13.093 22.8099 13.0695 22.7836 13.0484C23.069 12.7415 23.2669 12.3701 23.3438 11.9526C23.4377 11.4405 23.3318 10.972 23.0369 10.5979ZM20.9555 14.8283H20.845L21.0117 13.9113C21.0497 13.9061 21.0875 13.9004 21.125 13.8941L20.9555 14.8283ZM18.3807 11.8452C18.3692 11.9065 18.3613 11.967 18.3555 12.0266C18.1127 12.1966 17.8853 12.277 17.6419 12.277C17.4773 12.277 17.3347 12.2207 17.2605 12.1265C17.2183 12.073 17.2041 12.0131 17.2172 11.9435C17.2605 11.7086 17.5649 11.5026 17.8683 11.5026C18.0581 11.5026 18.2365 11.5729 18.4115 11.7166C18.4006 11.7593 18.3885 11.8016 18.3807 11.8452ZM18.6264 13.7803L18.5079 13.9846L18.4094 13.9269C18.3446 13.8888 18.275 13.8594 18.2032 13.8339C18.2558 13.8207 18.3048 13.806 18.3476 13.7897L18.4857 13.7373L18.6215 13.1141C18.6399 13.1409 18.6573 13.1683 18.6776 13.194C18.8825 13.4539 19.1777 13.6526 19.5341 13.7801L18.6264 13.7803ZM19.8279 13.8665L19.7808 14.1259L19.7152 13.8377C19.7524 13.8479 19.7896 13.8578 19.8279 13.8665ZM20.9823 11.5299C21.1301 11.5299 21.2439 11.571 21.3029 11.6456C21.357 11.7144 21.3551 11.802 21.3435 11.8636C21.2965 12.1177 21.0473 12.2952 20.7367 12.2952C20.5857 12.2952 20.4663 12.2535 20.409 12.1808C20.3693 12.1304 20.3575 12.0598 20.374 11.9706C20.4142 11.7516 20.6362 11.5299 20.9823 11.5299ZM14.1545 13.9696C14.112 13.9395 14.0658 13.9129 14.0176 13.8889H14.1693L14.1545 13.9696ZM13.3198 14.828C13.3002 14.8462 13.2683 14.8585 13.2314 14.8607C13.2503 14.8437 13.2799 14.8297 13.3198 14.828ZM13.0825 11.5536L12.9024 12.1741C12.8909 12.0084 12.8416 11.8578 12.7551 11.7238C12.7194 11.6689 12.6769 11.6189 12.6301 11.5714L13.0825 11.5536ZM7.8874 11.8635C7.84048 12.1177 7.59093 12.2952 7.2806 12.2952C7.12967 12.2952 7.01015 12.2535 6.95284 12.1808C6.91308 12.1304 6.90137 12.0598 6.91785 11.9706C6.95833 11.7515 7.1803 11.5299 7.52633 11.5299C7.67415 11.5299 7.78806 11.571 7.84692 11.6456C7.90089 11.7144 7.89875 11.8021 7.8874 11.8635ZM9.96824 13.8811L9.96239 13.8941L9.96119 13.88C9.96358 13.8803 9.96585 13.8808 9.96824 13.8811ZM12.6473 13.055L12.437 13.7803H11.6295C12.0423 13.6376 12.4124 13.3985 12.6473 13.055ZM12.7349 13.8889H12.7799C12.7632 13.8962 12.747 13.9037 12.7309 13.9116L12.7349 13.8889ZM4.04716 11.9865C3.81672 11.9865 3.61707 11.9072 3.51307 11.7746C3.4529 11.6979 3.43272 11.6129 3.45134 11.5149C3.51152 11.1992 3.91355 10.9326 4.3292 10.9326C4.60979 10.9326 4.86973 11.0429 5.12358 11.268C5.05648 11.3993 5.00311 11.5368 4.9643 11.6801C4.65421 11.8879 4.36131 11.9865 4.04716 11.9865ZM8.79701 13.4809L9.05934 13.6045C9.2043 13.6727 9.36537 13.7311 9.53397 13.7804H9.04597L8.99367 13.89L8.98698 13.7804H8.14329C8.37923 13.7045 8.59833 13.6036 8.79701 13.4809ZM15.1906 14.8283L15.3809 13.7803H14.4572L15.1045 11.5471L15.3019 11.555C15.2654 11.657 15.2347 11.7609 15.2148 11.868C15.1227 12.3664 15.2346 12.8474 15.5303 13.2223C15.725 13.4694 15.9925 13.6571 16.3054 13.7801H15.4915L15.301 14.8281L15.1906 14.8283ZM4.90197 13.7019L5.04107 13.6506L5.16263 13.1099C5.18209 13.1382 5.20024 13.167 5.22173 13.1941C5.42651 13.454 5.72167 13.6528 6.07797 13.7803H4.60478C4.71618 13.7584 4.81863 13.7325 4.90197 13.7019ZM21.5994 13.7803C21.719 13.7416 21.8343 13.6969 21.945 13.646C21.9612 13.6867 21.9809 13.7261 22.0082 13.7607C22.0141 13.768 22.0217 13.7735 22.0278 13.7803H21.5994Z" fill="white"/>
<path d="M8.73397 14.0625L8.78961 14.9836H8.8037C8.83248 14.8895 8.86448 14.7912 8.90937 14.6991L9.21266 14.0625H9.70543L9.77994 14.9836H9.79403C9.8197 14.8935 9.8486 14.7993 9.888 14.7114L10.1841 14.0625H10.8529L9.94854 15.6059H9.3877L9.33827 14.7666H9.31713C9.29564 14.8466 9.27678 14.9242 9.24191 15L8.95355 15.6059H8.40669L8.06746 14.0625H8.73397Z" fill="#005DAA"/>
<path d="M10.806 14.0625H11.4254L11.3311 14.5824H11.7253L11.8197 14.0625H12.4392L12.159 15.6059H11.5396L11.6369 15.0696H11.2426L11.1453 15.6059H10.5258L10.806 14.0625Z" fill="#005DAA"/>
<path d="M14.2535 14.8382C14.1636 15.3336 13.6708 15.6304 13.1313 15.6304C12.5915 15.6304 12.2064 15.3335 12.2965 14.8382C12.3845 14.3531 12.883 14.0379 13.4203 14.0379C13.9576 14.0379 14.3414 14.3531 14.2535 14.8382ZM12.9427 14.8464C12.9106 15.0224 13.0248 15.1432 13.2196 15.1432C13.4144 15.1432 13.5724 15.0224 13.6045 14.8464C13.6341 14.6825 13.5324 14.5455 13.3282 14.5455C13.1238 14.5456 12.9723 14.6826 12.9427 14.8464ZM14.3944 14.0625H15.0374L14.847 15.1105H15.3869L15.2968 15.6058H14.1141L14.3944 14.0625ZM16.9079 15.0531L16.9366 15.0757C17.0374 15.1535 17.1643 15.217 17.3122 15.217C17.3756 15.217 17.4806 15.1944 17.4933 15.1249C17.5059 15.0554 17.4226 15.0493 17.366 15.0389L17.2405 15.0185C16.9963 14.9795 16.8088 14.8505 16.8524 14.6091C16.9192 14.2427 17.3386 14.038 17.7235 14.038C17.9253 14.038 18.103 14.0811 18.2598 14.1731L18.0144 14.5682C17.9161 14.5027 17.801 14.4515 17.6624 14.4515C17.6062 14.4515 17.5206 14.4697 17.5094 14.5332C17.4989 14.5905 17.5771 14.5988 17.6246 14.609L17.765 14.6376C18.0273 14.691 18.2016 14.8177 18.1541 15.0798C18.087 15.4482 17.6691 15.6304 17.2867 15.6304C17.0639 15.6304 16.8153 15.5771 16.6319 15.4891L16.9079 15.0531Z" fill="#005DAA"/>
<path d="M19.1169 15.047L19.0912 14.7747C19.0843 14.7092 19.0848 14.6418 19.0851 14.5761H19.0616L18.859 15.047H19.1169ZM18.5571 15.6059H17.8767L18.7717 14.0625H19.4826L19.8337 15.6059H19.1532L19.1296 15.4135H18.6439L18.5571 15.6059Z" fill="#005DAA"/>
<path d="M20.0602 14.0625H20.7032L20.5128 15.1105H21.0527L20.9626 15.6058H19.7801L20.0602 14.0625ZM21.3623 14.0625H22.5521L22.4755 14.4842H21.9333L21.9065 14.6316H22.4016L22.3288 15.0329H21.8337L21.8063 15.1842H22.3673L22.2905 15.6059H21.082L21.3623 14.0625Z" fill="#005DAA"/>
<path d="M12.6386 11.2887L13.4504 11.2569L12.7692 13.6068H14.2258L14.9067 11.2569L15.7003 11.2887L16.0236 10.173H12.9617L12.6386 11.2887ZM9.62257 11.8989C9.41886 13.0008 8.30293 13.6613 7.08024 13.6613C5.85767 13.6613 4.98567 13.0009 5.18937 11.8989C5.38878 10.8195 6.51773 10.1184 7.73505 10.1184C8.95224 10.1184 9.82197 10.8196 9.62257 11.8989ZM6.65301 11.9171C6.58078 12.3088 6.83952 12.5775 7.28048 12.5775C7.72167 12.5775 8.07964 12.3089 8.152 11.9171C8.21935 11.5529 7.98866 11.2479 7.52621 11.2479C7.06376 11.2476 6.72036 11.5529 6.65301 11.9171Z" fill="#E31837"/>
<path d="M9.16991 13.347C9.58555 13.5426 10.1484 13.6613 10.6534 13.6613C11.5199 13.6613 12.4665 13.256 12.6179 12.4362C12.7256 11.8534 12.3315 11.571 11.7366 11.4526L11.4187 11.3889C11.3113 11.366 11.134 11.3479 11.1575 11.2202C11.1835 11.0791 11.3772 11.038 11.5048 11.038C11.8183 11.038 12.0792 11.1519 12.302 11.2976L12.8577 10.4188C12.5021 10.2139 12.0999 10.1184 11.6427 10.1184C10.771 10.1184 9.8203 10.5737 9.66973 11.3889C9.57039 11.9262 9.99582 12.2131 10.5485 12.2998L10.8325 12.3451C10.9612 12.3681 11.1501 12.3816 11.1214 12.5364C11.0928 12.6911 10.855 12.7412 10.7114 12.7412C10.3765 12.7412 10.089 12.6001 9.86054 12.4271L9.79546 12.377L9.16991 13.347ZM18.8589 10.2595C18.5675 10.1684 18.2364 10.1184 17.9067 10.1184C16.7321 10.1184 15.6644 10.9199 15.4792 11.9217C15.2981 12.9009 16.0507 13.6614 17.1937 13.6614C17.454 13.6614 18.0037 13.6204 18.2555 13.5247L18.5354 12.2406C18.2651 12.4364 17.9768 12.5594 17.6419 12.5594C17.2062 12.5594 16.8825 12.2679 16.9525 11.8901C17.0215 11.5166 17.4325 11.2207 17.8683 11.2207C18.1979 11.2207 18.4607 11.3801 18.6603 11.567L18.8589 10.2595ZM21.191 10.1184C19.9739 10.1184 18.8449 10.8195 18.6454 11.8989C18.4418 13.0008 19.3138 13.6613 20.5365 13.6613C21.7589 13.6613 22.8751 13.0009 23.0787 11.8989C23.2779 10.8196 22.4081 10.1184 21.191 10.1184ZM20.9823 11.2476C21.4448 11.2476 21.6756 11.5526 21.608 11.9169C21.5358 12.3085 21.1777 12.5773 20.7365 12.5773C20.2953 12.5773 20.0367 12.3086 20.109 11.9169C20.1764 11.5529 20.5199 11.2476 20.9823 11.2476ZM5.5649 9.48888C5.20131 9.37875 4.78866 9.31825 4.37755 9.31825C2.91236 9.31825 1.58066 10.287 1.34985 11.498C1.1243 12.6815 2.06281 13.6006 3.48812 13.6006C3.81301 13.6006 4.49875 13.5511 4.81242 13.4356L5.16143 11.8833C4.8246 12.12 4.46484 12.2686 4.04704 12.2686C3.5034 12.2686 3.09994 11.9163 3.18698 11.4593C3.27307 11.008 3.78555 10.65 4.32907 10.65C4.74006 10.65 5.06794 10.8427 5.31666 11.0684L5.5649 9.48888Z" fill="#E31837"/>
<path d="M22.1823 13.4398C22.2042 13.3199 22.3318 13.2233 22.4708 13.2233C22.6087 13.2233 22.7022 13.3199 22.6805 13.4398C22.6584 13.5604 22.5301 13.657 22.392 13.657C22.2531 13.657 22.1606 13.5603 22.1823 13.4398ZM22.6155 13.4398C22.633 13.3433 22.5668 13.2799 22.4603 13.2799C22.3521 13.2799 22.2647 13.3433 22.2474 13.4398C22.2299 13.5364 22.2941 13.6004 22.4024 13.6004C22.5088 13.6004 22.598 13.5365 22.6155 13.4398ZM22.5268 13.5531H22.4624L22.422 13.457H22.3798L22.3624 13.5531H22.3077L22.3489 13.3261H22.4751C22.5307 13.3261 22.5608 13.3423 22.5513 13.3956C22.544 13.4345 22.515 13.4545 22.4814 13.4572L22.5268 13.5531ZM22.447 13.4136C22.4744 13.4136 22.4979 13.4136 22.5024 13.3894C22.506 13.3694 22.4824 13.3694 22.455 13.3694H22.3958L22.3881 13.4136H22.447Z" fill="#E31837"/>
<path d="M1.4517 15.6084H8.26878L8.2683 15.6059H8.26269L8.17648 15.2134H1.4517V15.6084ZM1.4517 15.0474H8.13994L8.05301 14.6525H1.4517V15.0474ZM1.4517 14.484H8.01385L7.98436 14.3401L7.92406 14.0655H1.4517V14.484ZM15.6966 14.0625H16.8863L16.8098 14.4842H16.2677L16.2408 14.6316H16.7359L16.6632 15.0329H16.1681L16.1407 15.1842H16.7015L16.625 15.6059H15.4162L15.6966 14.0625Z" fill="#005DAA"/>
</svg>
