<svg width="24" height="24" viewBox="0 0 24 24" fill="none" xmlns="http://www.w3.org/2000/svg">
<path d="M0 0H24V24H0V0Z" fill="#00A1E0"/>
<path d="M9.98736 5.43286C10.7614 4.62638 11.839 4.12617 13.0308 4.12617C14.6151 4.12617 15.9973 5.00959 16.7334 6.32103C17.373 6.03524 18.0811 5.87625 18.826 5.87625C21.6834 5.87625 24 8.21302 24 11.0954C24 13.9781 21.6834 16.3149 18.826 16.3149C18.4837 16.3151 18.1423 16.2811 17.8068 16.2133C17.1587 17.3696 15.9234 18.1508 14.5057 18.1508C13.9121 18.1508 13.3508 18.0137 12.851 17.7699C12.1939 19.3156 10.6629 20.3993 8.87863 20.3993C7.02052 20.3993 5.43692 19.2236 4.82907 17.5747C4.56344 17.6311 4.28822 17.6605 4.00581 17.6605C1.79351 17.6605 7.15261e-09 15.8486 7.15261e-09 13.613C7.15261e-09 12.1149 0.805814 10.8068 2.00308 10.107C1.75659 9.53987 1.61948 8.91387 1.61948 8.25574C1.61948 5.6848 3.70667 3.60072 6.28103 3.60072C7.79248 3.60072 9.13574 4.31935 9.98736 5.43286Z" fill="white"/>
<path d="M3.47618 12.3121C3.46114 12.3514 3.48166 12.3596 3.48644 12.3664C3.53156 12.3993 3.57739 12.4229 3.62354 12.4492C3.86832 12.5791 4.09946 12.617 4.34117 12.617C4.83347 12.617 5.1391 12.3551 5.1391 11.9336V11.9254C5.1391 11.5356 4.79416 11.3941 4.47039 11.2919L4.42835 11.2782C4.18424 11.1989 3.97365 11.1305 3.97365 10.9698V10.9613C3.97365 10.8239 4.09672 10.7227 4.2875 10.7227C4.49946 10.7227 4.75109 10.7931 4.91313 10.8827C4.91313 10.8827 4.96065 10.9134 4.97809 10.8673C4.98765 10.8427 5.06972 10.6218 5.07827 10.5979C5.0875 10.5719 5.07109 10.5527 5.05434 10.5425C4.86938 10.43 4.61365 10.3531 4.34905 10.3531L4.29982 10.3534C3.84923 10.3534 3.5347 10.6256 3.5347 11.0156V11.0239C3.5347 11.4351 3.88171 11.5685 4.20685 11.6615L4.25915 11.6775C4.49607 11.7503 4.70018 11.8129 4.70018 11.9797V11.988C4.70018 12.1404 4.56754 12.2539 4.35351 12.2539C4.27044 12.2539 4.00548 12.2522 3.71933 12.0714C3.68478 12.0512 3.66462 12.0365 3.63796 12.0204C3.62395 12.0115 3.58873 11.9961 3.57336 12.0426L3.47618 12.3121ZM10.6833 12.3121C10.6683 12.3514 10.6888 12.3596 10.6936 12.3664C10.7387 12.3993 10.7846 12.4229 10.8307 12.4492C11.0755 12.5791 11.3066 12.617 11.5483 12.617C12.0406 12.617 12.3463 12.3551 12.3463 11.9336V11.9254C12.3463 11.5356 12.0013 11.3941 11.6775 11.2919L11.6355 11.2782C11.3914 11.1989 11.1808 11.1305 11.1808 10.9698V10.9613C11.1808 10.8239 11.3038 10.7227 11.4946 10.7227C11.7066 10.7227 11.9582 10.7931 12.1203 10.8827C12.1203 10.8827 12.1678 10.9134 12.1852 10.8673C12.1948 10.8427 12.2768 10.6218 12.2854 10.5979C12.2946 10.5719 12.2782 10.5527 12.2615 10.5425C12.0765 10.43 11.8208 10.3531 11.5562 10.3531L11.5069 10.3534C11.0563 10.3534 10.7418 10.6256 10.7418 11.0156V11.0239C10.7418 11.4351 11.0888 11.5685 11.4139 11.6615L11.4662 11.6775C11.7032 11.7503 11.9076 11.8129 11.9076 11.9797V11.988C11.9076 12.1404 11.7746 12.2539 11.5606 12.2539C11.4776 12.2539 11.2126 12.2522 10.9264 12.0714C10.8919 12.0512 10.8714 12.0372 10.8454 12.0204C10.8365 12.0146 10.7948 11.9985 10.7804 12.0426L10.6833 12.3121ZM15.6035 11.4864C15.6035 11.7247 15.559 11.9123 15.4715 12.045C15.385 12.1763 15.2541 12.2402 15.0715 12.2402C14.8887 12.2402 14.7584 12.1766 14.6733 12.045C14.5871 11.9127 14.5434 11.7247 14.5434 11.4864C14.5434 11.2484 14.5871 11.0611 14.6733 10.9298C14.7584 10.7999 14.8887 10.7366 15.0715 10.7366C15.2541 10.7366 15.385 10.7999 15.4719 10.9298C15.5591 11.061 15.6035 11.2484 15.6035 11.4864ZM16.0144 11.0447C15.9741 10.9082 15.9112 10.7879 15.8274 10.6877C15.7437 10.5872 15.6377 10.5065 15.5119 10.4477C15.3864 10.3893 15.238 10.3595 15.0715 10.3595C14.9047 10.3595 14.7563 10.3893 14.6308 10.4477C14.505 10.5065 14.3991 10.5872 14.315 10.6877C14.2315 10.7883 14.1686 10.9086 14.128 11.0447C14.088 11.1804 14.0678 11.3287 14.0678 11.4864C14.0678 11.644 14.088 11.7927 14.128 11.9281C14.1686 12.0641 14.2312 12.1845 14.3153 12.285C14.3991 12.3855 14.5054 12.4658 14.6309 12.5229C14.7567 12.58 14.9047 12.6091 15.0716 12.6091C15.2381 12.6091 15.3861 12.58 15.5119 12.5229C15.6374 12.4658 15.7437 12.3855 15.8275 12.285C15.9112 12.1848 15.9741 12.0645 16.0145 11.9281C16.0548 11.7924 16.075 11.6436 16.075 11.4864C16.075 11.3291 16.0548 11.1804 16.0144 11.0447ZM19.389 12.1766C19.3754 12.1366 19.3367 12.1516 19.3367 12.1516C19.2769 12.1745 19.2133 12.1957 19.1456 12.2063C19.0769 12.2169 19.0013 12.2224 18.9203 12.2224C18.7213 12.2224 18.5634 12.1632 18.4502 12.0463C18.3367 11.9294 18.2731 11.7403 18.2738 11.4846C18.2745 11.2518 18.3305 11.0767 18.4314 10.9434C18.5316 10.8108 18.6841 10.7427 18.8875 10.7427C19.0571 10.7427 19.1863 10.7622 19.3217 10.8049C19.3217 10.8049 19.3541 10.819 19.3695 10.7766C19.4054 10.6767 19.4321 10.6053 19.4704 10.4955C19.4813 10.4644 19.4547 10.4511 19.4451 10.4473C19.3917 10.4265 19.2659 10.3926 19.1709 10.3783C19.082 10.3646 18.9781 10.3574 18.8625 10.3574C18.6898 10.3574 18.536 10.3868 18.4044 10.4456C18.2731 10.5041 18.1617 10.5848 18.0735 10.6853C17.9853 10.7858 17.9182 10.9061 17.8735 11.0422C17.829 11.1779 17.8065 11.327 17.8065 11.4846C17.8065 11.8255 17.8984 12.101 18.08 12.3027C18.2618 12.5051 18.535 12.608 18.8913 12.608C19.1019 12.608 19.3179 12.5653 19.4732 12.5041C19.4732 12.5041 19.5029 12.4897 19.4899 12.4552L19.389 12.1766ZM20.108 11.2581C20.1275 11.1258 20.1641 11.0157 20.2205 10.9299C20.3057 10.7996 20.4356 10.7282 20.6181 10.7282C20.8007 10.7282 20.9214 10.8 21.0079 10.9299C21.0653 11.0157 21.0903 11.1306 21.1002 11.2581H20.108ZM21.4916 10.9671C21.4568 10.8355 21.3703 10.7025 21.3135 10.6417C21.2239 10.5452 21.1364 10.4779 21.0496 10.4403C20.9361 10.3917 20.8 10.3596 20.651 10.3596C20.4773 10.3596 20.3197 10.3887 20.1918 10.4488C20.0636 10.509 19.9559 10.5911 19.8715 10.6933C19.787 10.7952 19.7234 10.9165 19.6831 11.0543C19.6424 11.1914 19.6219 11.3408 19.6219 11.4984C19.6219 11.6588 19.6431 11.8082 19.6851 11.9425C19.7275 12.0779 19.7952 12.1972 19.8868 12.296C19.9781 12.3955 20.0957 12.4735 20.2366 12.5278C20.3764 12.5818 20.5464 12.6098 20.7416 12.6095C21.1433 12.6081 21.3549 12.5186 21.4421 12.4703C21.4575 12.4618 21.4722 12.4468 21.4537 12.4037L21.3627 12.149C21.3491 12.111 21.3104 12.125 21.3104 12.125C21.2109 12.162 21.0694 12.2283 20.7395 12.2276C20.5238 12.2273 20.3637 12.1637 20.2636 12.0642C20.1607 11.9623 20.1104 11.8126 20.1015 11.6013L21.4926 11.6027C21.4926 11.6027 21.5292 11.602 21.533 11.5664C21.5344 11.5514 21.5809 11.2806 21.4916 10.9671ZM8.96726 11.2581C8.98708 11.1258 9.02333 11.0157 9.07974 10.9299C9.16485 10.7996 9.29478 10.7282 9.47733 10.7282C9.65989 10.7282 9.78059 10.8 9.86741 10.9299C9.92449 11.0157 9.94945 11.1306 9.95938 11.2581H8.96726ZM10.3505 10.9671C10.3156 10.8355 10.2295 10.7025 10.1727 10.6417C10.0831 10.5452 9.99563 10.4779 9.90881 10.4403C9.79529 10.3917 9.65924 10.3596 9.51017 10.3596C9.33684 10.3596 9.17888 10.3887 9.05103 10.4488C8.92284 10.509 8.81514 10.5911 8.73069 10.6933C8.64625 10.7952 8.58266 10.9165 8.54232 11.0543C8.50198 11.1914 8.48113 11.3408 8.48113 11.4984C8.48113 11.6588 8.50232 11.8082 8.54438 11.9425C8.58679 12.0779 8.65449 12.1972 8.74609 12.296C8.83738 12.3955 8.95498 12.4735 9.09583 12.5278C9.23568 12.5818 9.40557 12.6098 9.60079 12.6095C10.0025 12.6081 10.2141 12.5186 10.3013 12.4703C10.3167 12.4618 10.3314 12.4468 10.3129 12.4037L10.2223 12.149C10.2083 12.111 10.1697 12.125 10.1697 12.125C10.0702 12.162 9.92901 12.2283 9.59842 12.2276C9.38304 12.2273 9.22304 12.1637 9.12286 12.0642C9.01994 11.9623 8.96971 11.8126 8.96079 11.6013L10.3519 11.6027C10.3519 11.6027 10.3885 11.602 10.3922 11.5664C10.3936 11.5514 10.44 11.2806 10.3505 10.9671ZM5.96038 12.169C5.90602 12.1255 5.8985 12.1146 5.88005 12.0866C5.85268 12.0438 5.83868 11.983 5.83868 11.9057C5.83868 11.7833 5.87902 11.6954 5.96279 11.6363C5.96178 11.6367 6.08245 11.532 6.3662 11.5358C6.5655 11.5385 6.74362 11.5679 6.74362 11.5679V12.2004C6.74362 12.2004 6.56721 12.2383 6.36824 12.2503C6.08517 12.2674 5.95935 12.1686 5.96038 12.169ZM6.51387 11.1915C6.45747 11.1874 6.38429 11.185 6.29677 11.185C6.17747 11.185 6.06225 11.2 5.95421 11.2291C5.8455 11.2582 5.74772 11.3037 5.66362 11.3638C5.57964 11.4237 5.51061 11.5022 5.46191 11.5932C5.41268 11.6848 5.38772 11.7929 5.38772 11.9139C5.38772 12.037 5.40891 12.144 5.45132 12.2315C5.49372 12.3194 5.55491 12.3925 5.63284 12.449C5.7101 12.5054 5.8055 12.5467 5.91625 12.5717C6.02532 12.5966 6.14907 12.6093 6.28447 12.6093C6.42703 12.6093 6.56925 12.5977 6.70703 12.5741C6.84344 12.5508 7.01096 12.5169 7.05744 12.5064C7.09004 12.4985 7.12252 12.4902 7.15488 12.4814C7.18943 12.4729 7.18669 12.4359 7.18669 12.4359L7.18599 11.1638C7.18599 10.8848 7.11147 10.678 6.96481 10.5498C6.81881 10.4219 6.60377 10.3573 6.32584 10.3573C6.22155 10.3573 6.05369 10.3717 5.95318 10.3918C5.95318 10.3918 5.64925 10.4506 5.52411 10.5484C5.52411 10.5484 5.49677 10.5655 5.51181 10.6038L5.61028 10.8684C5.62258 10.9026 5.65576 10.891 5.65576 10.891C5.65576 10.891 5.66635 10.8869 5.67868 10.8797C5.94638 10.7341 6.28483 10.7385 6.28483 10.7385C6.43527 10.7385 6.55082 10.7686 6.62876 10.8284C6.70465 10.8865 6.74328 10.9744 6.74328 11.1597V11.2185C6.62362 11.2014 6.51387 11.1915 6.51387 11.1915ZM17.7338 10.4747C17.7444 10.4433 17.7222 10.4282 17.7129 10.4248C17.6893 10.4156 17.5711 10.3906 17.4798 10.3848C17.3051 10.3742 17.208 10.4036 17.1211 10.4426C17.035 10.4816 16.9393 10.5445 16.8859 10.6159V10.4467C16.8859 10.4231 16.8692 10.4043 16.8459 10.4043H16.4893C16.4661 10.4043 16.4493 10.4231 16.4493 10.4467V12.5216C16.4493 12.5448 16.4685 12.564 16.4917 12.564H16.8572C16.8684 12.5639 16.8791 12.5594 16.887 12.5515C16.8949 12.5435 16.8993 12.5328 16.8992 12.5216V11.485C16.8992 11.3459 16.9146 11.2071 16.9454 11.1199C16.9755 11.0337 17.0165 10.9647 17.0671 10.9151C17.1181 10.8659 17.1758 10.8313 17.2391 10.8118C17.3037 10.792 17.3751 10.7855 17.4258 10.7855C17.4986 10.7855 17.5786 10.8043 17.5786 10.8043C17.6052 10.8074 17.6203 10.791 17.6291 10.7667C17.6531 10.7031 17.7208 10.5127 17.7338 10.4747Z" fill="#00A1E0"/>
<path d="M14.3033 9.5131C14.2588 9.49943 14.2185 9.49019 14.1658 9.48029C14.1125 9.47073 14.0489 9.46592 13.9768 9.46592C13.7251 9.46592 13.5268 9.53703 13.3877 9.67719C13.2492 9.8167 13.1552 10.029 13.108 10.3083L13.0909 10.4023H12.7751C12.7751 10.4023 12.7368 10.401 12.7286 10.4427L12.6769 10.7323C12.6732 10.7596 12.6852 10.777 12.7221 10.777H13.0294L12.7176 12.5179C12.6933 12.6581 12.6653 12.7733 12.6342 12.8608C12.6037 12.947 12.574 13.0116 12.5371 13.0587C12.5015 13.1039 12.468 13.1374 12.4099 13.1569C12.362 13.1729 12.3067 13.1804 12.2462 13.1804C12.2126 13.1804 12.1679 13.1749 12.1347 13.1681C12.1019 13.1616 12.0844 13.1544 12.0595 13.1438C12.0595 13.1438 12.0236 13.1302 12.0092 13.1661C11.9979 13.1958 11.9159 13.4211 11.906 13.4488C11.8964 13.4765 11.9101 13.498 11.9275 13.5045C11.9685 13.5189 11.9989 13.5285 12.0547 13.5418C12.132 13.5599 12.1972 13.5609 12.2584 13.5609C12.3863 13.5609 12.5032 13.5428 12.6 13.508C12.6971 13.4727 12.7818 13.4115 12.8571 13.3288C12.9381 13.2392 12.989 13.1456 13.0376 13.0174C13.0858 12.8909 13.1272 12.7336 13.16 12.5504L13.4735 10.777H13.9316C13.9316 10.777 13.9702 10.7784 13.9781 10.7364L14.0301 10.4471C14.0335 10.4195 14.0219 10.4024 13.9846 10.4024H13.5398C13.5422 10.3925 13.5624 10.2358 13.6133 10.0885C13.6352 10.026 13.6762 9.97501 13.7108 9.94013C13.745 9.90594 13.7843 9.88168 13.8274 9.86765C13.8714 9.85328 13.9217 9.84646 13.9768 9.84646C14.0185 9.84646 14.0598 9.85124 14.0909 9.85773C14.134 9.86698 14.1508 9.87176 14.1621 9.87519C14.2075 9.88886 14.2137 9.87553 14.2226 9.85367L14.3289 9.56171C14.3398 9.53019 14.3128 9.51685 14.3033 9.5131ZM8.08875 12.5217C8.08875 12.5449 8.072 12.5637 8.04874 12.5637H7.67986C7.6566 12.5637 7.64019 12.5449 7.64019 12.5217V9.55277C7.64019 9.52954 7.6566 9.51073 7.67986 9.51073H8.04874C8.072 9.51073 8.08875 9.52954 8.08875 9.55277V12.5217Z" fill="#00A1E0"/>
</svg>
