<svg width="24" height="24" viewBox="0 0 24 24" fill="none" xmlns="http://www.w3.org/2000/svg">
<path d="M0 0H24V24H0V0Z" fill="#FC0000"/>
<path fill-rule="evenodd" clip-rule="evenodd" d="M21.4407 16.9189C20.9716 16.8829 20.1598 16.7748 19.1134 17.2432C18.0851 17.7297 17.6701 17.7477 17.1649 17.6937C17.3093 17.9459 17.616 18.2883 18.5541 18.3604C19.4923 18.4144 19.9613 18.4505 19.4562 19.5495C19.4742 19.2252 19.384 18.5766 18.4459 18.6847C17.5077 18.7928 17.2912 19.5856 18.3015 19.964C17.9768 20.018 17.2732 20.0541 16.7861 18.8649C16.4433 19.009 15.9201 19.2793 14.9459 18.5946C15.2887 18.7027 15.7036 18.7207 15.7036 18.7207C14.8557 18.3423 14.0258 17.6396 13.5206 16.973C13.9356 17.2613 14.3866 17.5495 14.8557 17.6036C14.3144 16.991 13.0515 15.7477 11.5 14.4865C12.4923 15.0811 13.701 16.036 15.6495 15.8198C17.616 15.6036 18.933 15.1892 21.4407 16.9189Z" fill="white"/>
<path fill-rule="evenodd" clip-rule="evenodd" d="M13.1598 16.6847C11.8428 16.1982 11.5722 16.0901 9.87629 15.7297C8.19845 15.3514 6.53866 14.5946 5.4201 13.3874C6.19588 13.8919 7.80155 14.8829 9.4433 14.7748C9.19072 14.4504 8.73969 14.2162 8.18041 13.964C8.79381 14.0901 10.6701 14.5045 13.1598 16.6847Z" fill="white"/>
<path fill-rule="evenodd" clip-rule="evenodd" d="M19.7809 15.5856C20.9356 15.6937 20.8814 15.8559 20.8814 16.1441C20.3943 15.7838 19.7809 15.5856 19.7809 15.5856ZM12.817 9.62162C7.83763 8.1982 5.85309 6.41441 4.31959 4.55856C5.0232 6.7027 6.68299 7.47748 8.46907 8.91892C10.2552 10.3604 10.3634 11.1351 10.8866 12C12.0593 13.9099 12.2397 14.2162 13.4124 15.045C14.7835 15.9459 16.4433 15.3333 18.2655 15.6216C20.0876 15.9099 21.5851 17.2793 21.9098 17.8018C22.2887 17.1351 21.3866 16.1622 21.134 15.9099C21.2603 15.027 19.1675 14.6306 18.3557 14.3423C18.1933 14.2883 17.8144 14.1982 18.1392 13.4054C18.5902 12.3063 19.0773 11.3514 12.817 9.62162Z" fill="white"/>
<path fill-rule="evenodd" clip-rule="evenodd" d="M10.3995 12.2703C10.0747 11.3874 9.51546 10.2703 6.80928 8.59459C5.47423 7.74775 3.54381 6.7027 1 4C1.18041 4.72072 1.99227 6.61261 6.0335 9.08108C7.36856 9.96396 9.10051 10.5045 10.3995 12.2703Z" fill="white"/>
<path fill-rule="evenodd" clip-rule="evenodd" d="M10.3995 13.9279C10.0928 13.1892 9.4433 12.2342 6.97165 10.8829C5.81701 10.2342 3.86856 9.22523 2.10052 7.31532C2.26289 8 3.07474 9.51351 6.59278 11.4054C7.56701 11.964 9.20876 12.4685 10.3995 13.9279Z" fill="white"/>
</svg>
