<svg width="24" height="24" viewBox="0 0 24 24" fill="none" xmlns="http://www.w3.org/2000/svg">
<path d="M0 0H24V24H0V0Z" fill="#0096D6"/>
<path d="M7.68659 13.5658H8.57425V17.0333H7.68659V13.5658ZM15.62 14.5645C15.5923 14.5367 15.3149 14.3703 14.8711 14.3703C14.3163 14.3703 13.9002 14.7586 13.9002 15.2857C13.9002 15.8127 14.2885 16.2011 14.8711 16.2011C15.2871 16.2011 15.5645 16.0346 15.62 16.0069V16.95C15.5091 16.9778 15.2039 17.061 14.8156 17.061C13.817 17.061 12.9571 16.3953 12.9571 15.2579C12.9571 14.2316 13.7338 13.4549 14.8156 13.4549C15.2317 13.4549 15.5368 13.5658 15.62 13.5658V14.5645ZM6.46607 14.5645C6.43833 14.5367 6.16094 14.3703 5.71711 14.3703C5.16232 14.3703 4.74623 14.7586 4.74623 15.2857C4.74623 15.8127 5.13458 16.2011 5.71711 16.2011C6.1332 16.2011 6.41059 16.0346 6.46607 16.0069V16.95C6.35511 16.9778 6.04998 17.061 5.66163 17.061C4.69076 17.061 3.8031 16.3953 3.8031 15.2579C3.8031 14.2316 4.5798 13.4549 5.66163 13.4549C6.07772 13.4549 6.38285 13.5658 6.46607 13.5658V14.5645ZM20.197 15.3134C20.197 16.312 19.4203 17.1165 18.3662 17.1165C17.3121 17.1165 16.5354 16.312 16.5354 15.3134C16.5354 14.3148 17.3121 13.5104 18.3662 13.5104C19.448 13.5104 20.197 14.3148 20.197 15.3134ZM18.3662 14.398C17.8392 14.398 17.4508 14.8141 17.4508 15.3134C17.4508 15.8127 17.8392 16.2288 18.3662 16.2288C18.8933 16.2288 19.2816 15.8127 19.2816 15.3134C19.2816 14.8141 18.8933 14.398 18.3662 14.398ZM11.8752 14.3703C11.8752 14.3703 11.4869 14.2593 11.1817 14.2593C10.8211 14.2593 10.627 14.3703 10.627 14.5367C10.627 14.7586 10.8766 14.8141 11.0153 14.8696L11.265 14.9528C11.8197 15.147 12.0971 15.5353 12.0971 15.9514C12.0971 16.8113 11.3204 17.1165 10.6547 17.1165C10.1831 17.1165 9.7393 17.0333 9.71156 17.0333V16.2288C9.79478 16.2566 10.1554 16.3675 10.5437 16.3675C10.9876 16.3675 11.1817 16.2288 11.1817 16.0346C11.1817 15.8682 11.0153 15.7572 10.7934 15.7018C10.7379 15.674 10.6547 15.6463 10.5992 15.6463C10.0999 15.4799 9.71156 15.2025 9.71156 14.6199C9.71156 13.9819 10.2109 13.5381 11.0153 13.5381C11.4314 13.5381 11.8475 13.6491 11.8752 13.6491V14.3703Z" fill="white"/>
<path d="M2.88769 9.84879C2.88844 9.7903 2.87747 9.73226 2.85543 9.67807C2.83338 9.62389 2.80072 9.57466 2.75936 9.5333C2.718 9.49194 2.66877 9.45927 2.61459 9.43723C2.5604 9.41519 2.50235 9.40422 2.44386 9.40497C2.38537 9.40422 2.32732 9.41519 2.27314 9.43723C2.21896 9.45927 2.16973 9.49194 2.12837 9.5333C2.08701 9.57466 2.05434 9.62389 2.0323 9.67807C2.01026 9.73226 1.99929 9.7903 2.00004 9.84879V10.7642C1.99929 10.8227 2.01026 10.8807 2.0323 10.9349C2.05434 10.9891 2.08701 11.0383 2.12837 11.0797C2.16973 11.121 2.21896 11.1537 2.27314 11.1758C2.32732 11.1978 2.38537 11.2088 2.44386 11.208C2.50235 11.2088 2.5604 11.1978 2.61459 11.1758C2.66877 11.1537 2.718 11.121 2.75936 11.0797C2.80072 11.0383 2.83338 10.9891 2.85543 10.9349C2.87747 10.8807 2.88844 10.8227 2.88769 10.7642V9.84879Z" fill="white"/>
<path d="M5.27329 8.65601C5.27403 8.59752 5.26306 8.53947 5.24102 8.48529C5.21898 8.4311 5.18632 8.38188 5.14495 8.34052C5.10359 8.29915 5.05437 8.26649 5.00018 8.24445C4.946 8.22241 4.88795 8.21144 4.82946 8.21218C4.57981 8.21218 4.41337 8.40636 4.41337 8.65601V10.7642C4.41263 10.8227 4.4236 10.8807 4.44564 10.9349C4.46768 10.9891 4.50034 11.0383 4.54171 11.0797C4.58307 11.121 4.63229 11.1537 4.68648 11.1758C4.74066 11.1978 4.79871 11.2088 4.8572 11.208C4.91569 11.2088 4.97374 11.1978 5.02792 11.1758C5.08211 11.1537 5.13133 11.121 5.17269 11.0797C5.21406 11.0383 5.24672 10.9891 5.26876 10.9349C5.2908 10.8807 5.30177 10.8227 5.30103 10.7642V8.65601H5.27329ZM7.6866 7.01939C7.68735 6.9609 7.67638 6.90286 7.65434 6.84867C7.6323 6.79449 7.59963 6.74526 7.55827 6.7039C7.51691 6.66254 7.46768 6.62987 7.4135 6.60783C7.35931 6.58579 7.30127 6.57482 7.24277 6.57557C7.18428 6.57482 7.12624 6.58579 7.07205 6.60783C7.01787 6.62987 6.96864 6.66254 6.92728 6.7039C6.88592 6.74526 6.85325 6.79449 6.83121 6.84867C6.80917 6.90286 6.7982 6.9609 6.79895 7.01939V11.6241C6.7982 11.6826 6.80917 11.7407 6.83121 11.7948C6.85325 11.849 6.88592 11.8982 6.92728 11.9396C6.96864 11.981 7.01787 12.0136 7.07205 12.0357C7.12624 12.0577 7.18428 12.0687 7.24277 12.0679C7.30127 12.0687 7.35931 12.0577 7.4135 12.0357C7.46768 12.0136 7.51691 11.981 7.55827 11.9396C7.59963 11.8982 7.6323 11.849 7.65434 11.7948C7.67638 11.7407 7.68735 11.6826 7.6866 11.6241V7.01939ZM10.0722 8.65601C10.0729 8.59752 10.062 8.53947 10.0399 8.48529C10.0179 8.4311 9.98521 8.38188 9.94384 8.34052C9.90248 8.29915 9.85326 8.26649 9.79907 8.24445C9.74489 8.22241 9.68684 8.21144 9.62835 8.21218C9.56986 8.21144 9.51181 8.22241 9.45763 8.24445C9.40344 8.26649 9.35422 8.29915 9.31286 8.34052C9.27149 8.38188 9.23883 8.4311 9.21679 8.48529C9.19475 8.53947 9.18378 8.59752 9.18452 8.65601V10.7642C9.18378 10.8227 9.19475 10.8807 9.21679 10.9349C9.23883 10.9891 9.27149 11.0383 9.31286 11.0797C9.35422 11.121 9.40344 11.1537 9.45763 11.1758C9.51181 11.1978 9.56986 11.2088 9.62835 11.208C9.68684 11.2088 9.74489 11.1978 9.79907 11.1758C9.85326 11.1537 9.90248 11.121 9.94384 11.0797C9.98521 11.0383 10.0179 10.9891 10.0399 10.9349C10.062 10.8807 10.0729 10.8227 10.0722 10.7642V8.65601Z" fill="white"/>
<path d="M12.4577 9.84879C12.4584 9.7903 12.4475 9.73226 12.4254 9.67807C12.4034 9.62389 12.3707 9.57466 12.3294 9.5333C12.288 9.49194 12.2388 9.45927 12.1846 9.43723C12.1304 9.41519 12.0724 9.40422 12.0139 9.40497C11.9554 9.40422 11.8973 9.41519 11.8431 9.43723C11.789 9.45927 11.7397 9.49194 11.6984 9.5333C11.657 9.57466 11.6243 9.62389 11.6023 9.67807C11.5803 9.73226 11.5693 9.7903 11.57 9.84879V10.7642C11.5693 10.8227 11.5803 10.8807 11.6023 10.9349C11.6243 10.9891 11.657 11.0383 11.6984 11.0797C11.7397 11.121 11.789 11.1537 11.8431 11.1758C11.8973 11.1978 11.9554 11.2088 12.0139 11.208C12.0724 11.2088 12.1304 11.1978 12.1846 11.1758C12.2388 11.1537 12.288 11.121 12.3294 11.0797C12.3707 11.0383 12.4034 10.9891 12.4254 10.9349C12.4475 10.8807 12.4584 10.8227 12.4577 10.7642V9.84879Z" fill="white"/>
<path d="M14.8433 8.656C14.8433 8.53829 14.7965 8.4254 14.7133 8.34217C14.63 8.25894 14.5172 8.21218 14.3994 8.21218C14.2817 8.21218 14.1688 8.25894 14.0856 8.34217C14.0024 8.4254 13.9556 8.53829 13.9556 8.656V10.7642C13.9556 10.8819 14.0024 10.9948 14.0856 11.078C14.1688 11.1613 14.2817 11.208 14.3994 11.208C14.5172 11.208 14.63 11.1613 14.7133 11.078C14.7965 10.9948 14.8433 10.8819 14.8433 10.7642V8.656ZM17.2288 7.01939C17.2288 6.90168 17.1821 6.78879 17.0989 6.70555C17.0156 6.62232 16.9027 6.57556 16.785 6.57556C16.6673 6.57556 16.5544 6.62232 16.4712 6.70555C16.388 6.78879 16.3412 6.90168 16.3412 7.01939V11.6241C16.3412 11.7418 16.388 11.8547 16.4712 11.9379C16.5544 12.0212 16.6673 12.0679 16.785 12.0679C16.9027 12.0679 17.0156 12.0212 17.0989 11.9379C17.1821 11.8547 17.2288 11.7418 17.2288 11.6241V7.01939ZM19.6144 8.656C19.6144 8.59772 19.6029 8.54001 19.5806 8.48616C19.5583 8.43231 19.5256 8.38338 19.4844 8.34217C19.4432 8.30096 19.3943 8.26826 19.3404 8.24596C19.2866 8.22366 19.2289 8.21218 19.1706 8.21218C19.1123 8.21218 19.0546 8.22366 19.0008 8.24596C18.9469 8.26826 18.898 8.30096 18.8568 8.34217C18.8155 8.38338 18.7829 8.43231 18.7606 8.48616C18.7382 8.54001 18.7268 8.59772 18.7268 8.656V10.7642C18.7268 10.8225 18.7382 10.8802 18.7606 10.934C18.7829 10.9879 18.8155 11.0368 18.8568 11.078C18.898 11.1192 18.9469 11.1519 19.0008 11.1742C19.0546 11.1965 19.1123 11.208 19.1706 11.208C19.2289 11.208 19.2866 11.1965 19.3404 11.1742C19.3943 11.1519 19.4432 11.1192 19.4844 11.078C19.5256 11.0368 19.5583 10.9879 19.5806 10.934C19.6029 10.8802 19.6144 10.8225 19.6144 10.7642V8.656ZM22 9.84879C22 9.73108 21.9532 9.61819 21.87 9.53496C21.7868 9.45172 21.6739 9.40496 21.5562 9.40496C21.4385 9.40496 21.3256 9.45172 21.2423 9.53496C21.1591 9.61819 21.1123 9.73108 21.1123 9.84879V10.7642C21.1123 10.8819 21.1591 10.9948 21.2423 11.078C21.3256 11.1613 21.4385 11.208 21.5562 11.208C21.6739 11.208 21.7868 11.1613 21.87 11.078C21.9532 10.9948 22 10.8819 22 10.7642V9.84879Z" fill="white"/>
</svg>
