<svg width="24" height="24" viewBox="0 0 24 24" fill="none" xmlns="http://www.w3.org/2000/svg">
<path d="M0 0H24V24H0V0Z" fill="#CC0000"/>
<path d="M6.57503 5.60647C6.93655 5.24259 7.45874 5 8.02111 5C8.58347 5 9.14584 5.20216 9.54753 5.60647C10.3509 6.41509 11.1944 7.26415 11.9978 8.07278C12.8012 7.26415 13.6447 6.41509 14.4481 5.60647C14.8096 5.24259 15.372 5 15.8942 5C16.4566 5 16.9788 5.20216 17.3805 5.60647C18.3847 6.61725 19.3889 7.62803 20.3931 8.63881C20.7948 9.04313 21.0358 9.64959 20.9957 10.2156C20.9555 10.7412 20.7546 11.2264 20.3931 11.5903C17.5813 14.3801 14.8096 17.2102 11.9978 20C9.186 17.2102 6.41435 14.3801 3.60253 11.5903C3.24101 11.2264 3.04017 10.7412 3 10.2561V9.93261C3.04017 9.44744 3.24101 8.96226 3.60253 8.59838C4.60675 7.62803 5.57081 6.61725 6.57503 5.60647Z" fill="white"/>
</svg>
