<svg width="24" height="24" viewBox="0 0 24 24" fill="none" xmlns="http://www.w3.org/2000/svg">
<path d="M0 0H24V24H0V0Z" fill="white"/>
<path d="M1.00027 10.1585V3L11.9848 6.57944L1.00027 10.1585Z" fill="url(#paint0_linear_6_383)"/>
<path d="M1.00304 10.159L11.9848 13.738L22.966 10.159V3.00086L11.9848 6.57944L1.00304 10.159Z" fill="url(#paint1_linear_6_383)"/>
<path d="M1.00094 18.4794L1 11.3186L11.9838 14.8978L1.00094 18.4794Z" fill="url(#paint2_linear_6_383)"/>
<path d="M22.9665 11.3186L1.00216 18.4781L11.9838 22.058L22.9665 18.4769V11.3186Z" fill="url(#paint3_linear_6_383)"/>
<defs>
<linearGradient id="paint0_linear_6_383" x1="24" y1="12" x2="0" y2="-12" gradientUnits="userSpaceOnUse">
<stop stop-color="#06549B"/>
<stop offset="0.55" stop-color="#2FA1D3"/>
<stop offset="0.9" stop-color="#2FA1D3"/>
</linearGradient>
<linearGradient id="paint1_linear_6_383" x1="-2.93255e-07" y1="14.4" x2="24" y2="-18" gradientUnits="userSpaceOnUse">
<stop stop-color="#1371B1"/>
<stop offset="0.05" stop-color="#2FA1D3"/>
<stop offset="0.45" stop-color="#2FA1D3"/>
<stop offset="0.6" stop-color="#06569C"/>
</linearGradient>
<linearGradient id="paint2_linear_6_383" x1="24" y1="12" x2="6.00815e-07" y2="-2.4" gradientUnits="userSpaceOnUse">
<stop stop-color="#9D1A36"/>
<stop offset="0.4" stop-color="#9D1A36"/>
<stop offset="0.6" stop-color="#E6192F"/>
</linearGradient>
<linearGradient id="paint3_linear_6_383" x1="1.00216" y1="17.7623" x2="8.19135" y2="-2.0873" gradientUnits="userSpaceOnUse">
<stop stop-color="#A21C38"/>
<stop offset="0.13" stop-color="#E6192F"/>
<stop offset="0.45" stop-color="#E6192F"/>
<stop offset="0.6" stop-color="#A71C37"/>
</linearGradient>
</defs>
</svg>
