<svg width="24" height="24" viewBox="0 0 24 24" fill="none" xmlns="http://www.w3.org/2000/svg">
<path d="M0 0H24V24H0V0Z" fill="#2C6CBE"/>
<path d="M16.1015 5.28992C14.389 4.08788 12.1384 3.65193 9.96323 4.29904L5 5.77525V8.59176L16.1015 5.28992Z" fill="white"/>
<path d="M18.535 8.36872C18.1792 7.46295 17.6412 6.66912 16.9751 6.0159L5.00015 9.57781V12.3948L18.535 8.36872Z" fill="white"/>
<path d="M18.8774 12.0696C19.0543 11.1653 19.0441 10.2148 18.8184 9.27002L5.00033 13.3808V16.1973L18.8774 12.0696Z" fill="white"/>
<path d="M14.0512 17.3076C16.2264 16.6605 17.8418 15.0747 18.5703 13.1466L5.00015 17.183V20L14.0512 17.3076Z" fill="white"/>
</svg>
