<svg width="24" height="24" viewBox="0 0 24 24" fill="none" xmlns="http://www.w3.org/2000/svg">
<path d="M0 0H24V24H0V0Z" fill="#632CA6"/>
<path fill-rule="evenodd" clip-rule="evenodd" d="M18.638 16.9208L16.8571 15.7684L15.3714 18.2027L13.6435 17.7072L12.1221 19.985L12.2 20.7019L20.4726 19.2065L19.9921 14.1363L18.638 16.9208ZM10.9236 14.735L12.251 14.556C12.4656 14.6506 12.6151 14.6867 12.8725 14.7509C13.2737 14.8532 13.7377 14.9515 14.425 14.6119C14.5849 14.5341 14.9183 14.2353 15.0529 14.0648L20.4908 13.0974L21.0455 19.6831L11.729 21.3301L10.9236 14.735ZM21.0246 12.362L20.4878 12.4622L19.4566 2.01138L1.88538 4.00981L4.05027 21.241L6.1072 20.9481C5.94287 20.7181 5.68711 20.4397 5.25048 20.0836C4.64481 19.5901 4.85874 18.7514 5.2164 18.2219C5.68913 17.3272 8.12498 16.1903 7.98697 14.7605C7.93737 14.2406 7.85335 13.5641 7.36106 13.1C7.3425 13.2927 7.3759 13.4777 7.3759 13.4777C7.3759 13.4777 7.17379 13.2248 7.07324 12.8803C6.97336 12.7479 6.89474 12.7058 6.78845 12.5291C6.71253 12.7333 6.72266 12.9703 6.72266 12.9703C6.72266 12.9703 6.55732 12.5874 6.53066 12.264C6.43281 12.4086 6.40818 12.6833 6.40818 12.6833C6.40818 12.6833 6.19358 12.0796 6.2425 11.7543C6.14465 11.4713 5.85413 10.9096 5.93612 9.6334C6.47229 10.0018 7.65293 9.9144 8.11283 9.24947C8.26535 9.02904 8.37028 8.42799 8.03657 7.2431C7.82231 6.48351 7.29189 5.35224 7.08505 4.92297L7.06041 4.94051C7.1694 5.28638 7.39412 6.01088 7.4805 6.36271C7.74167 7.42845 7.81151 7.7998 7.68903 8.2913C7.58477 8.71859 7.33474 8.99793 6.70106 9.31037C6.06738 9.6238 5.22619 8.86091 5.17321 8.81887C4.55742 8.33764 4.08098 7.55289 4.028 7.17128C3.97267 6.75392 4.27331 6.50337 4.42481 6.16214C4.20785 6.22271 3.96626 6.33094 3.96626 6.33094C3.96626 6.33094 4.25475 6.03802 4.61039 5.78483C4.75785 5.68917 4.84423 5.62828 4.99944 5.50184C4.77472 5.4982 4.59217 5.50449 4.59217 5.50449C4.59217 5.50449 4.96705 5.30591 5.35542 5.16127C5.07131 5.14902 4.79901 5.15928 4.79901 5.15928C4.79901 5.15928 5.63548 4.79223 6.29582 4.52315C6.74999 4.34045 7.1937 4.3944 7.44305 4.74821C7.77035 5.21158 8.11418 5.46312 8.84268 5.61901C9.2901 5.4244 9.42574 5.32477 9.98789 5.17418C10.4825 4.64032 10.8709 4.57147 10.8709 4.57147C10.8709 4.57147 10.6782 4.7449 10.6266 5.0173C10.907 4.80051 11.2144 4.61946 11.2144 4.61946C11.2144 4.61946 11.0953 4.76344 10.9843 4.99247L11.0099 5.0302C11.3372 4.83758 11.7219 4.68599 11.7219 4.68599C11.7219 4.68599 11.6119 4.82235 11.483 4.99876C11.73 4.99678 12.2304 5.00902 12.4247 5.03054C13.5716 5.05536 13.8095 3.82943 14.2495 3.67552C14.8005 3.48257 15.0469 3.36573 15.9859 4.27062C16.7913 5.04775 17.4209 6.43784 17.1082 6.74929C16.846 7.00778 16.3291 6.64834 15.7561 5.948C15.4534 5.57697 15.2243 5.13843 15.117 4.58107C15.0266 4.11076 14.6743 3.83803 14.6743 3.83803C14.6743 3.83803 14.8785 4.28485 14.8785 4.67838C14.8785 4.89351 14.9058 5.69745 15.2574 6.1489C15.2226 6.21476 15.2065 6.47524 15.168 6.52522C14.759 6.04034 13.8807 5.69348 13.7373 5.59121C14.2222 5.98076 15.3364 6.87572 15.7642 7.73394C16.1691 8.54516 15.9306 9.28886 16.1354 9.48115C16.1937 9.5361 17.0059 10.529 17.1621 11.0278C17.4348 11.8969 17.1783 12.8108 16.8217 13.3774L15.8253 13.5296C15.6795 13.4899 15.5813 13.4701 15.4507 13.3959C15.523 13.2708 15.666 12.959 15.6674 12.8945L15.611 12.7979C15.3009 13.2288 14.7816 13.6471 14.3501 13.8874C13.7852 14.2015 13.1343 14.1529 12.7105 14.0244C11.508 13.6607 10.3705 12.8634 10.0962 12.6539C10.0962 12.6539 10.0878 12.821 10.1394 12.8588C10.4424 13.1944 11.1371 13.801 11.809 14.2244L10.3773 14.3789L11.0541 19.5478C10.7542 19.5898 10.7073 19.6106 10.379 19.6563C10.0894 18.6531 9.53574 17.9981 8.93041 17.6165C8.3966 17.2799 7.66035 17.2041 6.95581 17.3411L6.9106 17.3928C7.40053 17.3428 7.97888 17.4123 8.57308 17.7813C9.15614 18.1431 9.62617 19.0774 9.79927 19.6398C10.021 20.3586 10.1741 21.1278 9.57758 21.943C9.15344 22.5226 7.9151 22.8426 6.91431 22.1499C7.18155 22.5715 7.54259 22.9161 8.02915 22.981C8.75123 23.0773 9.43654 22.9541 9.90825 22.4792C10.3108 22.0731 10.5247 21.2238 10.4684 20.3295L11.1058 20.2388L11.3359 21.8441L21.8854 20.5979L21.0246 12.362ZM14.6062 8.00269C14.5768 8.06855 14.5303 8.11191 14.5998 8.32638L14.6038 8.33863L14.615 8.36643L14.644 8.43064C14.7692 8.68185 14.9065 8.9185 15.1366 9.03963C15.196 9.0297 15.2577 9.02308 15.3215 9.02011C15.5375 9.01084 15.6738 9.04427 15.7598 9.08994C15.7676 9.04758 15.7693 8.98601 15.7645 8.895C15.7477 8.57693 15.8287 8.03612 15.2054 7.75148C14.9703 7.64457 14.6403 7.67734 14.5303 7.81105C14.5502 7.8137 14.568 7.81767 14.5822 7.82231C14.7489 7.8789 14.6362 7.93517 14.6062 8.00269ZM16.3533 10.9702C16.2717 10.9259 15.8897 10.9434 15.6211 10.9748C15.1096 11.0341 14.5573 11.2078 14.4365 11.3005C14.2165 11.4673 14.3163 11.7579 14.479 11.8774C14.9348 12.2114 15.3343 12.4354 15.7558 12.3808C16.0146 12.3474 16.243 11.9453 16.4046 11.5805C16.5153 11.3293 16.5153 11.0582 16.3533 10.9702ZM11.8248 8.39622C11.9689 8.26184 11.1064 8.08543 10.437 8.53324C9.94335 8.86355 9.92749 9.57184 10.4002 9.97331C10.4475 10.013 10.4866 10.0412 10.5227 10.0643C10.6607 10.0005 10.8179 9.93624 10.9991 9.87865C11.3048 9.78135 11.5593 9.73104 11.7681 9.70423C11.868 9.59468 11.9844 9.40172 11.9554 9.05221C11.9156 8.57792 11.5498 8.65306 11.8248 8.39622Z" fill="white"/>
</svg>
