<svg width="24" height="24" viewBox="0 0 24 24" fill="none" xmlns="http://www.w3.org/2000/svg">
<path fill-rule="evenodd" clip-rule="evenodd" d="M22.2965 3.36055C19.1998 1.84962 15.6694 1 11.9843 1C8.29921 1 4.76906 1.84962 1.67243 3.39189C0.588232 6.03582 0 8.96286 0 11.9845C0 15.0374 0.588486 17.9328 1.67243 20.6081C4.76906 22.1188 8.29921 23 11.9843 23C15.6694 23 19.1998 22.1188 22.2965 20.6081C23.3807 17.9647 24 15.0377 24 11.9845C23.9997 8.96286 23.3807 6.03582 22.2965 3.36055Z" fill="#367C2B"/>
<path fill-rule="evenodd" clip-rule="evenodd" d="M21.5533 4.02159C18.6735 2.66842 15.3906 1.88148 11.9843 1.88148C8.57804 1.88148 5.29536 2.66842 2.41537 4.02159C1.45554 6.50829 0.928988 9.1833 0.928988 11.9845C0.928988 14.7856 1.45529 17.4922 2.41537 19.9473C5.29536 21.3321 8.57804 22.0874 11.9843 22.0874C15.3906 22.0874 18.7044 21.3321 21.5533 19.9473C22.5439 17.4922 23.0705 14.8172 23.0705 11.9845C23.0705 9.1833 22.5134 6.50803 21.5533 4.02159Z" fill="#FFDE00"/>
<path fill-rule="evenodd" clip-rule="evenodd" d="M8.63971 9.43482C8.14425 10.4735 7.80375 11.6065 7.64879 12.897C7.6177 12.897 7.36997 12.9286 7.36997 12.9286C6.28602 13.0232 5.20233 13.1175 4.14922 13.5265L4.21116 13.9357C5.94552 16.1075 8.57753 17.4293 8.57753 17.4293L8.08207 16.4535C7.9582 16.3592 7.58661 16.2647 7.58661 16.2647C6.40989 15.887 5.57367 14.3134 5.44981 14.0616C6.40989 14.0616 7.27694 14.3447 8.08207 14.6281C8.63946 14.7856 9.16601 14.9742 9.69231 15.0374C10.6213 15.1946 11.5814 15.0374 12.4793 14.9112C13.1916 14.817 13.8731 14.817 14.5547 14.8796C14.6472 14.9742 15.3595 15.8554 16.0719 16.2331C16.9389 16.6737 19.4473 17.4604 19.5712 17.492C19.6329 17.5236 20.5932 18.5304 21.2123 19.6637C18.3629 20.9858 15.1737 21.6777 11.9838 21.6777C8.79416 21.6777 5.60451 20.9855 2.75561 19.6637C1.82663 17.2089 1.33117 14.6279 1.33117 11.9842C1.33117 9.37187 1.82663 6.79089 2.75561 4.33632C5.60451 3.01422 8.79416 2.32209 11.9838 2.32209C15.2046 2.32209 18.3942 3.01448 21.2123 4.33632C22.1413 6.79115 22.6365 9.37187 22.6365 11.9842C22.6388 14.3747 22.2409 16.7481 21.4597 19.0029C20.5619 17.429 20.1905 16.9571 20.1905 16.9571C20.1597 16.9571 18.9208 16.296 18.6111 16.0126C18.3631 15.7922 18.2398 15.3519 18.0846 14.848C17.8988 14.1243 17.6515 13.2428 16.97 12.5191L17.744 12.2041C17.5274 10.7251 15.7933 9.78088 15.7625 9.78088L15.7311 9.81249C16.4126 10.6621 16.5365 11.3545 16.5365 11.7954C16.5365 12.0155 16.5057 12.1728 16.4748 12.2357C16.2888 12.1414 15.0193 11.7322 12.0774 11.8581C11.6747 11.8581 11.0553 11.8267 10.6837 11.4804C10.4669 11.2916 10.3741 10.9768 10.3741 10.6305C10.3741 9.59205 10.8076 8.20701 10.8695 8.01844L11.613 8.11273C12.542 7.60917 12.8825 7.13696 12.9133 7.07427C12.1393 7.16882 11.1175 7.35739 11.1175 7.35739C11.1795 7.1999 11.3653 6.60206 11.3653 5.94101C11.3653 5.21702 11.1486 4.43035 10.2505 3.95813L10.1883 3.98973C10.2194 4.02108 10.7146 4.58758 10.7146 5.34291C10.7146 5.56334 10.6837 5.81512 10.5907 6.0353C10.2811 5.94101 10.0953 5.90967 9.7545 5.90967C9.56896 5.27996 9.04266 4.77641 8.33031 4.52463L8.29921 4.55597C8.29921 4.55597 9.0735 5.12273 9.10433 5.90967C8.73274 5.94101 8.5161 6.00396 8.05148 6.12985C7.83459 5.81512 7.40106 5.56335 6.81258 5.5004V5.5636C6.81258 5.5636 7.49383 5.78378 7.6177 6.31894C7.21552 6.50777 6.71981 6.79089 6.44098 7.04293L6.47208 7.07453C8.20619 6.41348 9.81643 6.25625 10.2191 6.75981C10.3119 6.8541 10.343 6.94864 10.343 7.07453C10.343 7.20016 10.2808 7.38925 10.1572 7.57809C9.32123 7.76692 8.02064 8.11299 6.96779 8.52225L7.12249 8.96286C7.12249 8.96286 8.17535 9.1833 8.57804 9.27785C8.57804 9.27785 8.73274 9.30919 8.63971 9.43482Z" fill="#367C2B"/>
</svg>
