<svg width="24" height="24" viewBox="0 0 24 24" fill="none" xmlns="http://www.w3.org/2000/svg">
<path d="M0 0H24V24H0V0Z" fill="#145199"/>
<path d="M20.9201 9.05301C20.2949 6.97097 16.1527 6.37245 11.6681 7.72123C11.4556 7.78193 11.2492 7.85113 11.0429 7.92154C15.0528 6.9916 18.537 7.60469 19.0882 9.44271C19.6952 11.458 16.5509 14.1835 12.0663 15.5298C11.9619 15.5602 11.8623 15.5893 11.7603 15.6184L13.8497 8.39865L13.84 8.39991L13.8448 8.39865L13.2973 8.43629C12.2727 8.53827 11.1825 8.75193 10.0668 9.08579C5.58219 10.4346 2.45244 13.2135 3.08009 15.2992C3.70531 17.3812 7.84877 17.9773 12.3346 16.6297C12.5458 16.5666 12.7546 16.4986 12.9598 16.4306C8.94867 17.3581 5.46443 16.7475 4.91205 14.9095C4.30625 12.8918 7.45057 10.1675 11.9364 8.81992C12.0311 8.79201 12.1258 8.76408 12.2192 8.73737L10.1578 15.9499L10.7054 15.9147C11.73 15.8127 12.8202 15.5978 13.9347 15.2639C18.4193 13.9164 21.5466 11.1351 20.9201 9.05301Z" fill="white"/>
</svg>
