<svg width="24" height="24" viewBox="0 0 24 24" fill="none" xmlns="http://www.w3.org/2000/svg">
<path d="M0 0H24V24H0V0Z" fill="white"/>
<path d="M5.33843 16.2586C5.33843 15.5117 5.7605 15.1078 6.32467 15.1078C6.8467 15.1078 7.09516 15.394 7.19564 15.8007L6.8344 15.9029C6.74936 15.608 6.61918 15.4571 6.32166 15.4571C5.9421 15.4571 5.72086 15.7494 5.72086 16.2557C5.72086 16.7861 5.94838 17.078 6.32781 17.078C6.61918 17.078 6.78285 16.9334 6.86802 16.5989L7.229 16.6805C7.11962 17.1234 6.8433 17.4215 6.32467 17.4215C5.74807 17.4215 5.33843 17.0269 5.33843 16.2586Z" fill="black"/>
<path d="M7.43572 16.5808C7.43572 15.9905 7.82757 15.7494 8.22152 15.7494C8.61324 15.7494 9.00784 15.9905 9.00784 16.5808C9.00784 17.1656 8.61324 17.4125 8.22152 17.4125C7.83032 17.4125 7.43572 17.1656 7.43572 16.5808ZM8.63129 16.5808C8.63129 16.2829 8.50412 16.0659 8.22152 16.0659C7.95174 16.0659 7.81226 16.2586 7.81226 16.5808C7.81226 16.8851 7.93669 17.1021 8.22152 17.1021C8.49182 17.1021 8.63129 16.9092 8.63129 16.5808Z" fill="black"/>
<path d="M9.27051 17.3793V15.7798H9.64353V15.9994C9.76834 15.8638 9.9502 15.7494 10.1962 15.7494C10.4662 15.7494 10.5722 15.8549 10.636 16.0115C10.7635 15.8729 10.9549 15.7494 11.2003 15.7494C11.5279 15.7494 11.671 15.9454 11.671 16.2316V17.3793H11.2975V16.3247C11.2975 16.1471 11.246 16.0659 11.07 16.0659C10.918 16.0659 10.797 16.1502 10.6574 16.2738V17.3793H10.2841V16.3247C10.2841 16.1471 10.2324 16.0659 10.0566 16.0659C9.90768 16.0659 9.78339 16.1502 9.64353 16.2738V17.3793H9.27051Z" fill="black"/>
<path d="M12.015 17.9819V15.7798H12.3882V15.9905C12.4946 15.8638 12.6614 15.7492 12.9011 15.7492C13.2682 15.7492 13.5383 16.0237 13.5383 16.578C13.5383 17.1325 13.2619 17.4035 12.8494 17.4035C12.6767 17.4035 12.5066 17.334 12.3882 17.2018V17.9819H12.015ZM13.1653 16.5809C13.1653 16.2435 13.0195 16.0659 12.7797 16.0659C12.6249 16.0659 12.4763 16.1623 12.3882 16.2674V16.9092C12.4884 17.0387 12.6339 17.1081 12.7673 17.1081C13.0497 17.1081 13.1653 16.9365 13.1653 16.5809Z" fill="black"/>
<path d="M13.7035 16.9938C13.7035 16.6474 14.0008 16.4151 14.7533 16.3307V16.2829C14.7533 16.1229 14.6685 16.0538 14.4893 16.0538C14.2649 16.0538 14.0827 16.1623 13.9463 16.2704L13.7642 16.0384C13.9372 15.8818 14.2073 15.7493 14.5408 15.7493C14.9718 15.7493 15.1207 15.9545 15.1207 16.3277V16.9876C15.1207 17.1804 15.1329 17.2979 15.1661 17.3792H14.79C14.7686 17.3131 14.7533 17.2648 14.7533 17.1745C14.5896 17.3403 14.3982 17.4034 14.1585 17.4034C13.8979 17.4034 13.7035 17.2587 13.7035 16.9938ZM14.7533 16.9333V16.5808C14.3072 16.641 14.0706 16.7496 14.0706 16.9245C14.0706 17.0509 14.1585 17.117 14.2953 17.117C14.4862 17.117 14.6353 17.045 14.7533 16.9333Z" fill="black"/>
<path d="M15.4572 17.3793V15.7798H15.8306V16.0355C15.952 15.8971 16.14 15.7494 16.4072 15.7494C16.7013 15.7494 16.8836 15.8999 16.8836 16.2164V17.3793H16.5104V16.322C16.5104 16.1471 16.4376 16.0568 16.2676 16.0568C16.1037 16.0568 15.9669 16.138 15.8306 16.2648V17.3793H15.4572Z" fill="black"/>
<path d="M16.9739 17.9517L17.0587 17.6536C17.1043 17.6655 17.2013 17.6868 17.3319 17.6868C17.4656 17.6868 17.5352 17.6353 17.587 17.5057L17.6323 17.3883L17.0133 15.7798H17.4016L17.8175 16.9454H17.8234L18.2362 15.7798H18.6063L17.9205 17.5541C17.8144 17.8341 17.6749 18 17.3562 18C17.1651 18 17.0528 17.9729 16.9739 17.9517Z" fill="black"/>
<path d="M10.1267 8.65273V6.77285H9.43497V6.42316H11.198V6.77285H10.506V8.65273H10.1267Z" fill="black"/>
<path d="M11.4221 8.65273V6.42317H11.7985V7.26971C11.9015 7.16151 12.0958 7.0229 12.3873 7.0229C12.6693 7.0229 12.8515 7.18878 12.8515 7.5047V8.65273H12.4751V7.59809C12.4751 7.42078 12.3993 7.33921 12.2354 7.33921C12.0717 7.33921 11.935 7.42351 11.7985 7.54704V8.65273H11.4221Z" fill="black"/>
<path d="M13.1054 7.85438C13.1054 7.24568 13.5394 7.02291 13.8733 7.02291C14.2344 7.02291 14.5802 7.23659 14.5802 7.88725V7.97493H13.4787C13.4939 8.26395 13.6729 8.3906 13.9098 8.3906C14.1191 8.3906 14.2406 8.32137 14.3617 8.20368L14.5591 8.39645C14.3921 8.58064 14.1706 8.68599 13.8822 8.68599C13.4787 8.68599 13.1054 8.44204 13.1054 7.85438ZM14.2374 7.69773C14.216 7.45352 14.0948 7.32401 13.8702 7.32401C13.688 7.32401 13.5212 7.42637 13.4847 7.69773H14.2374Z" fill="black"/>
<path d="M14.6449 11.2224C14.6449 11.2224 14.7004 11.1398 14.747 11.0769C14.8319 10.9626 14.9853 10.8041 15.1007 10.7059C15.1363 10.6761 15.1778 10.6419 15.1778 10.6419C15.1778 10.6419 15.1125 10.6486 15.0757 10.6562C14.9881 10.6732 14.8595 10.758 14.7951 10.8128C14.6891 10.9027 14.5727 11.0493 14.6251 11.1792C14.633 11.1979 14.6449 11.2224 14.6449 11.2224ZM15.2342 11.3789C15.4017 11.3678 15.5587 11.3196 15.7045 11.2394C15.8478 11.1599 16.0583 11.0048 16.0369 10.8222C16.0299 10.7633 15.9912 10.7187 15.942 10.6977C15.8779 10.6701 15.8447 10.675 15.7629 10.6988C15.7038 10.7162 15.6772 10.7266 15.6213 10.7584C15.4567 10.8532 15.224 11.056 15.0975 11.218C15.0682 11.2559 15.0386 11.2987 15.0157 11.3278C15.0008 11.3456 14.9897 11.3623 14.991 11.3669C14.9959 11.3854 15.1686 11.3836 15.2342 11.3789ZM14.8075 11.69C14.7904 11.7078 14.7722 11.752 14.7531 11.7838C14.743 11.8007 14.7242 11.8225 14.7119 11.8311C14.6683 11.8629 14.6316 11.8644 14.5892 11.8276C14.5303 11.7762 14.4963 11.6958 14.4938 11.6178C14.4925 11.5837 14.4981 11.5464 14.492 11.5173C14.4811 11.469 14.4322 11.4193 14.406 11.373C14.3751 11.318 14.3501 11.2231 14.3471 11.1617C14.3363 10.9703 14.4381 10.7941 14.5702 10.6549C14.7031 10.5142 14.877 10.3973 15.0663 10.3179C15.245 10.2428 15.5072 10.1919 15.7036 10.2596C15.7673 10.2814 15.8566 10.3355 15.9013 10.3917C15.9107 10.4037 15.9186 10.4166 15.9284 10.4228C15.9369 10.4282 15.9598 10.4304 15.978 10.4337C16.0408 10.4444 16.1311 10.4915 16.1678 10.5228C16.2415 10.5863 16.2823 10.647 16.301 10.7349C16.3387 10.9117 16.2361 11.1059 16.1193 11.2238C15.919 11.4274 15.7213 11.5701 15.4651 11.6699C15.3529 11.7136 15.1777 11.7542 15.05 11.7428C15.0105 11.7395 14.9695 11.7293 14.931 11.7264C14.9115 11.7247 14.8395 11.7067 14.8319 11.701C14.8223 11.6941 14.8102 11.6876 14.8075 11.69ZM8.69974 12.2125C8.80611 12.206 8.87206 12.2009 8.95514 12.1652C9.00106 12.1459 9.05418 12.1014 9.02801 12.0484C9.01218 12.016 8.95592 12.0047 8.92308 12.0071C8.81174 12.0145 8.73154 12.0958 8.69346 12.2046C8.69203 12.2085 8.69242 12.2125 8.69974 12.2125ZM9.16526 11.9393C9.22727 12.0163 9.25527 12.1068 9.26221 12.206C9.26914 12.306 9.23695 12.4023 9.18083 12.4785C9.08453 12.6084 8.92387 12.6732 8.76268 12.6852C8.74057 12.6866 8.60907 12.6905 8.57532 12.6801C8.56917 12.6779 8.56538 12.6756 8.56197 12.6765C8.55818 12.6769 8.53607 12.767 8.53201 12.7985C8.51762 12.909 8.50009 12.9872 8.48727 13.0742C8.47654 13.1433 8.46882 13.2175 8.46267 13.2913C8.4263 13.7213 8.43886 13.9336 8.47471 14.3544C8.47719 14.3801 8.4785 14.4093 8.47471 14.427C8.46502 14.4775 8.43415 14.5127 8.38443 14.5255C8.23502 14.5644 8.09214 14.4176 8.01888 14.3002C7.84774 14.0257 7.90361 13.4648 7.95294 13.1878C7.97308 13.0731 8.02568 12.8183 8.06218 12.7266C8.08155 12.6773 8.11255 12.5802 8.1102 12.5756C8.10811 12.5713 8.02987 12.5417 7.95817 12.5142C7.93122 12.5045 7.84081 12.4579 7.80208 12.434C7.7224 12.3843 7.66784 12.3439 7.61276 12.2822C7.59602 12.263 7.54028 12.1808 7.53204 12.1625C7.48755 12.0619 7.48494 11.9744 7.52445 11.8675C7.53452 11.8401 7.59 11.7246 7.62689 11.7282C7.68001 11.7329 7.66837 11.8202 7.68237 11.8654C7.68695 11.881 7.70186 11.907 7.71364 11.921C7.78717 12.0071 8.03405 12.1025 8.13519 12.1325C8.14971 12.137 8.30789 12.1848 8.33105 12.1743C8.3372 12.1714 8.36729 12.1183 8.38652 12.0862C8.39686 12.0682 8.4085 12.0548 8.4212 12.0412C8.51736 11.9384 8.65945 11.8411 8.80088 11.8123C8.86316 11.7998 8.98523 11.8102 9.04698 11.8451C9.06098 11.8531 9.10703 11.8711 9.16526 11.9393ZM7.67085 13.1583C7.6753 13.1585 7.68211 13.1607 7.68799 13.1632C7.76061 13.1948 7.76061 13.3235 7.74308 13.384C7.69597 13.5433 7.54381 13.7077 7.4224 13.7896C7.34991 13.8376 7.20155 13.906 7.09544 13.9261C6.92941 13.9578 6.78235 13.9142 6.69351 13.7807C6.61318 13.6601 6.57772 13.5108 6.57131 13.3705C6.553 12.9677 6.68095 12.3793 6.83848 12.043C6.85967 11.9979 6.96382 11.7877 7.06064 11.7538C7.15693 11.72 7.19932 11.8321 7.20887 11.9159C7.22117 12.0237 7.1865 12.1666 7.15903 12.2822C7.11062 12.4845 7.04114 12.8007 7.02466 12.8913C7.00726 12.9872 6.96696 13.1924 6.98148 13.2971C6.98894 13.3527 6.99954 13.3805 7.04206 13.3772C7.06142 13.3755 7.33395 13.251 7.48271 13.1958C7.53845 13.1753 7.60779 13.1531 7.67085 13.1583ZM5.6552 12.9725C5.6552 12.9725 5.68621 12.973 5.71814 12.9725C5.8198 12.9712 5.99027 12.9526 5.99027 12.9526C5.99027 12.9526 5.97117 12.8037 5.95573 12.7086C5.94527 12.6451 5.93689 12.6058 5.92315 12.5556C5.91687 12.5332 5.9013 12.4694 5.88495 12.4445C5.88207 12.4394 5.87788 12.4341 5.87788 12.4341C5.87788 12.4341 5.79559 12.5918 5.74954 12.7017C5.7129 12.7888 5.69458 12.8538 5.66894 12.9067C5.66279 12.919 5.65599 12.9359 5.6552 12.9504C5.65442 12.9606 5.6552 12.9725 5.6552 12.9725ZM5.10988 12.9897C5.10988 12.9897 5.15868 12.8808 5.19663 12.7985C5.23653 12.7119 5.43815 12.3099 5.52123 12.1963C5.61334 12.0692 5.78944 11.8294 5.79088 11.8221C5.79467 11.7958 5.80043 11.7489 5.82516 11.7113C5.84439 11.6815 5.89189 11.6689 5.93807 11.6659C5.98923 11.6629 6.04222 11.7004 6.06524 11.7423C6.1096 11.8218 6.18522 12.048 6.20157 12.1021C6.28989 12.4033 6.38527 12.9659 6.41653 13.2549C6.42465 13.3308 6.45003 13.7259 6.45199 13.8149C6.45382 13.8774 6.45199 13.9811 6.41588 14.0322C6.40254 14.0517 6.37689 14.068 6.35216 14.0676C6.3188 14.0664 6.25155 14.02 6.22211 13.9927C6.1406 13.9164 6.08631 13.8388 6.06891 13.7439C6.05399 13.6612 6.03293 13.4242 6.03293 13.4242L5.67758 13.4383L5.47962 13.4416C5.47962 13.4416 5.46091 13.4874 5.44561 13.5256C5.4125 13.6075 5.3828 13.6893 5.36998 13.7353C5.34408 13.8276 5.29423 14.0108 5.28232 14.0394C5.25733 14.0994 5.23535 14.1343 5.17661 14.1421C5.11145 14.1506 5.06671 14.1552 5.01961 14.1299C4.9309 14.0816 4.89047 13.9795 4.87542 13.8741C4.849 13.6948 4.92213 13.55 4.99723 13.3373C5.02876 13.2478 4.98533 13.218 4.91049 13.1016C4.90081 13.0867 4.89086 13.071 4.88903 13.059C4.88641 13.0471 4.89793 13.016 4.91428 13.0032C4.91938 12.999 4.92082 12.9985 4.93011 12.9981L5.10988 12.9897ZM3.08062 11.8281C3.08062 11.8281 3.07604 11.7142 3.06649 11.6507C3.05851 11.5969 3.04765 11.5565 3.02188 11.5155C2.99362 11.4704 2.97203 11.4421 2.92742 11.4353C2.87273 11.4274 2.8425 11.4644 2.80836 11.5177C2.76296 11.59 2.71769 11.7242 2.691 11.809C2.6524 11.9296 2.63605 12.0036 2.61537 12.1408C2.58123 12.3658 2.54668 12.7484 2.58345 13.0088C2.59025 13.0536 2.6015 13.1192 2.6015 13.1192C2.6015 13.1192 2.65619 13.0583 2.6961 13.0156C2.71311 12.9972 2.79422 12.8768 2.80142 12.8642C2.81542 12.84 2.85297 12.7764 2.8582 12.7634C2.86619 12.7495 2.92467 12.6249 2.93487 12.5957C2.9545 12.5398 2.98302 12.4538 3.005 12.3853C3.05642 12.2273 3.04726 12.1688 3.08062 11.9935C3.08442 11.9733 3.08769 11.8281 3.08403 11.8281H3.08062ZM2.69257 13.4971C2.69257 13.4971 2.71415 13.5346 2.73116 13.5628C2.82576 13.7193 2.97687 13.8089 3.15939 13.8179C3.34635 13.8273 3.58643 13.7197 3.72342 13.6251C4.11475 13.3549 4.32068 12.8678 4.43294 12.401C4.56521 11.8536 4.57123 11.2762 4.41358 10.7465C4.32212 10.439 4.14419 10.0541 3.92373 9.82393C3.85805 9.7556 3.75744 9.66246 3.72878 9.62427C3.69895 9.58491 3.69176 9.55179 3.73729 9.52542C3.7853 9.49801 3.8905 9.55491 3.94296 9.58634C4.20031 9.74157 4.36857 9.89628 4.52099 10.1185C4.55946 10.1747 4.71397 10.427 4.74223 10.4798C4.9152 10.8039 5.0039 11.0863 5.0514 11.444C5.11132 11.8993 5.07299 12.4163 4.91415 12.8728C4.84481 13.0731 4.73779 13.2792 4.62631 13.453C4.59989 13.4938 4.43739 13.7106 4.41737 13.7319C4.3615 13.7904 4.22347 13.9091 4.15897 13.9607C3.83633 14.2177 3.48778 14.3862 3.10522 14.3397C2.89484 14.314 2.72213 14.2447 2.55362 14.1087C2.48899 14.056 2.37987 13.9462 2.33617 13.868C2.30778 13.8179 2.27245 13.757 2.26787 13.7562C2.2629 13.755 2.24419 13.7676 2.22378 13.7818C2.20599 13.794 2.13024 13.8289 2.09007 13.8437C1.82761 13.9409 1.53402 13.9181 1.29289 13.7627C1.11796 13.6503 0.969987 13.4368 0.90457 13.2431C0.808144 12.9559 0.800424 12.6584 0.839675 12.3529C0.906794 11.8345 1.0948 11.3433 1.37505 10.9086C1.55194 10.6346 1.7813 10.364 2.05501 10.17C2.08575 10.1479 2.2527 10.0515 2.28685 10.0359C2.3486 10.0071 2.43076 9.98045 2.47826 10.0309C2.50299 10.057 2.5022 10.0781 2.48388 10.1126C2.45484 10.1659 2.38052 10.2384 2.33944 10.2818C2.30385 10.32 2.10224 10.5654 2.06063 10.6228C2.01497 10.6841 1.80982 10.9892 1.78287 11.0361C1.52408 11.481 1.31853 12.1859 1.33842 12.7325C1.34261 12.8454 1.35935 13.0081 1.38487 13.1141C1.41954 13.257 1.50523 13.4504 1.63385 13.5407C1.76926 13.636 1.89473 13.6306 2.05684 13.5667C2.09988 13.5494 2.16111 13.522 2.16111 13.522C2.16111 13.522 2.11388 13.4018 2.083 13.3116C1.99809 13.0607 1.96394 12.6606 1.99521 12.3853C2.02099 12.1595 2.07175 11.9866 2.17459 11.8073C2.25649 11.6637 2.36679 11.5227 2.50456 11.4061C2.63735 11.2936 2.84957 11.1956 3.03627 11.1907C3.19144 11.1871 3.35211 11.2541 3.43362 11.3941C3.57518 11.6377 3.58421 12.0221 3.5443 12.2754C3.48438 12.6584 3.2846 13.0181 2.99637 13.2618C2.89288 13.3491 2.69257 13.4971 2.69257 13.4971ZM15.0364 12.0823C15.0441 12.0838 15.0563 12.0873 15.0666 12.0909C15.1563 12.1249 15.1932 12.2076 15.2153 12.298C15.2666 12.5084 15.2886 12.9736 15.297 13.1561C15.3033 13.2925 15.3067 13.4274 15.3124 13.5624C15.3173 13.6768 15.3264 13.8291 15.3026 13.9365C15.2938 13.9751 15.2679 14.0195 15.2307 14.0428C15.1879 14.0698 15.0909 14.0718 15.0377 14.0609C14.9062 14.0339 14.8634 13.95 14.8448 13.821C14.8002 13.513 14.8215 12.9086 14.848 12.6535C14.8565 12.5697 14.8887 12.2998 14.933 12.1868C14.9479 12.1483 14.9802 12.0714 15.0364 12.0823ZM10.9867 12.5445C10.9867 12.5445 10.7921 12.5581 10.6584 12.573C10.4879 12.591 10.1677 12.646 9.98324 12.7118C9.92763 12.731 9.81498 12.7779 9.80517 12.8343C9.79523 12.8933 9.8316 12.9389 9.87255 12.9866C9.8961 13.014 10.0296 13.1414 10.0668 13.1724C10.2237 13.3022 10.5416 13.5029 10.7762 13.6003C10.8563 13.6334 10.9895 13.6807 10.9895 13.6807C10.9895 13.6807 10.9796 13.3044 10.9815 12.9338C10.9823 12.7379 10.9867 12.5445 10.9867 12.5445ZM14.5535 12.6943C14.5647 12.7953 14.5383 12.9866 14.534 13.0118C14.5256 13.0698 14.4814 13.2037 14.4743 13.2202C14.4386 13.3014 14.4036 13.3686 14.3662 13.435C14.3024 13.549 14.1509 13.7297 14.0606 13.807C13.7259 14.0943 13.2075 14.258 12.7627 14.3119C12.4611 14.3481 12.1144 14.3426 11.7945 14.284C11.6846 14.2638 11.5211 14.2267 11.5211 14.2267C11.5211 14.2267 11.5215 14.2916 11.5161 14.3375C11.5136 14.358 11.4977 14.4131 11.4889 14.4309C11.4655 14.4786 11.4274 14.5031 11.3721 14.5135C11.3051 14.5262 11.234 14.53 11.172 14.504C11.0705 14.4613 11.0338 14.3667 11.0163 14.2584C11.0019 14.1711 10.9869 14.0195 10.9869 14.0195C10.9869 14.0195 10.911 13.9839 10.8475 13.9525C10.6529 13.8571 10.4677 13.742 10.3061 13.6231C10.2614 13.5902 10.0688 13.4299 10.0262 13.3899C9.90696 13.278 9.79981 13.1661 9.71817 13.0227C9.65471 12.9107 9.63653 12.8111 9.68467 12.6925C9.7514 12.5271 9.99017 12.4023 10.1537 12.3312C10.274 12.2786 10.647 12.1577 10.8021 12.1353C10.8753 12.1249 10.9888 12.1049 10.9958 12.1003C10.9987 12.0982 11.0007 12.0964 11.0027 12.0939C11.0062 12.0888 11.0123 11.9249 11.0111 11.8651C11.0098 11.8062 11.055 11.4195 11.0696 11.3378C11.0774 11.2932 11.1112 11.1229 11.1457 11.0784C11.1681 11.0482 11.208 11.0503 11.2404 11.0704C11.4182 11.1799 11.4721 11.5608 11.4854 11.7546C11.4933 11.8725 11.4973 12.0501 11.4973 12.0501C11.4973 12.0501 11.7012 12.0443 11.8268 12.0475C11.9487 12.0505 12.083 12.0697 12.2097 12.0897C12.3718 12.1152 12.6876 12.1837 12.8687 12.275C13.018 12.3499 13.1574 12.4766 13.2026 12.6105C13.2447 12.7333 13.2383 12.8179 13.1743 12.9287C13.1025 13.054 12.9663 13.1467 12.8283 13.1544C12.787 13.1571 12.6325 13.1366 12.585 13.1001C12.5662 13.0853 12.5672 13.059 12.5808 13.0412C12.5859 13.0347 12.658 12.9972 12.7008 12.9746C12.7221 12.963 12.7399 12.9507 12.7564 12.9356C12.792 12.9043 12.8238 12.8703 12.8203 12.8305C12.8153 12.7786 12.7602 12.7465 12.7074 12.726C12.4601 12.6286 11.9663 12.5474 11.7274 12.5333C11.634 12.5279 11.5013 12.5232 11.5013 12.5232L11.5293 13.8315C11.5293 13.8315 11.6392 13.8525 11.7257 13.8665C11.7756 13.8738 11.9859 13.8926 12.0418 13.894C12.4677 13.9052 12.943 13.8675 13.3338 13.684C13.5053 13.6038 13.6627 13.5042 13.7818 13.3692C13.939 13.1901 14.0213 12.9456 13.9995 12.6903C13.9756 12.4107 13.7776 12.0797 13.6198 11.878C13.2023 11.3448 12.4868 10.9066 11.8575 10.6497C11.2147 10.3874 10.5796 10.2362 9.89728 10.211C9.72157 10.2048 9.33796 10.2136 9.14445 10.2669C9.11646 10.2745 9.08872 10.2839 9.06294 10.2893C9.04253 10.2943 9.01087 10.3077 9.00197 10.3146C8.99726 10.3188 8.99216 10.3239 8.99216 10.3239C8.99216 10.3239 9.0042 10.3304 9.01558 10.3355C9.03612 10.3444 9.1226 10.3495 9.16735 10.3575C9.20712 10.3651 9.24912 10.3863 9.26535 10.4155C9.28105 10.443 9.28327 10.4647 9.2643 10.4877C9.22034 10.5411 9.05496 10.5317 8.98235 10.5206C8.90673 10.5084 8.81265 10.4856 8.79525 10.4202C8.77537 10.3431 8.81187 10.2677 8.85178 10.1978C8.93185 10.0581 9.0462 9.98539 9.21419 9.94005C9.45231 9.8751 9.7531 9.82951 9.97814 9.82094C10.4875 9.8021 10.9693 9.89017 11.4626 10.0392C11.7449 10.1237 12.1149 10.266 12.3854 10.3955C12.5793 10.4882 12.8854 10.6594 13.0573 10.7713C13.1115 10.8067 13.4288 11.0381 13.478 11.0787C13.5808 11.1621 13.7155 11.282 13.8125 11.378C14.0009 11.5634 14.2353 11.8473 14.3493 12.0726C14.3764 12.1269 14.3979 12.18 14.433 12.2425C14.4451 12.2638 14.4973 12.3921 14.506 12.4293C14.5145 12.4659 14.527 12.5198 14.5289 12.5218C14.5315 12.5417 14.5553 12.6515 14.5535 12.6943ZM16.7476 12.7894C16.7571 12.7903 16.7595 12.7907 16.7682 12.792C16.9242 12.813 17.077 12.8408 17.1938 12.8928C17.3023 12.9406 17.3662 13.0006 17.4241 13.108C17.5124 13.2708 17.5183 13.4985 17.4385 13.671C17.3787 13.7992 17.2479 13.9069 17.1286 13.964C17.0041 14.0238 16.8823 14.0521 16.7421 14.068C16.4974 14.0946 16.2323 14.0444 16.0117 13.9384C15.8813 13.8752 15.7219 13.7663 15.6415 13.6259C15.5823 13.5228 15.5842 13.3891 15.6563 13.2914C15.7707 13.1358 16.0161 13.1015 16.2012 13.108C16.3422 13.1132 16.5958 13.1567 16.7299 13.2037C16.7672 13.2171 16.9039 13.2701 16.9277 13.294C16.9445 13.3112 16.9556 13.3355 16.948 13.3584C16.9171 13.4513 16.6901 13.5003 16.6246 13.51C16.4486 13.5367 16.3575 13.4708 16.1578 13.3925C16.1082 13.3733 16.0421 13.352 15.9913 13.3473C15.9008 13.3387 15.7913 13.3635 15.7741 13.4621C15.7652 13.5129 15.8252 13.5602 15.8708 13.5798C15.978 13.6259 16.0651 13.6421 16.1708 13.6438C16.4821 13.6485 16.8321 13.5977 17.0871 13.4185C17.1223 13.3939 17.1563 13.3575 17.1568 13.3119C17.1568 13.3061 17.1484 13.257 17.1325 13.2519C17.1301 13.2509 17.1258 13.2517 17.1258 13.2517C17.1199 13.25 17.1101 13.234 17.1019 13.2235C17.0835 13.2013 17.0096 13.1697 16.9951 13.1636C16.8234 13.0925 16.5063 13.058 16.3426 13.0446C16.1712 13.0301 15.9016 13.0075 15.8367 12.9981C15.7701 12.9888 15.6976 12.9756 15.6396 12.9498C15.5819 12.9238 15.5252 12.8656 15.5082 12.8013C15.4783 12.6852 15.5167 12.5426 15.5816 12.4496C15.7519 12.2064 16.1504 12.1143 16.4486 12.0777C16.7371 12.0419 17.2034 12.0423 17.4867 12.1918C17.5305 12.215 17.553 12.2367 17.5436 12.2832C17.5252 12.3703 17.4588 12.4264 17.3791 12.4511C17.2954 12.4776 17.1218 12.4879 17.0456 12.4925C16.704 12.5116 16.2912 12.5016 15.9661 12.5898C15.9406 12.5971 15.8966 12.6084 15.8821 12.6245C15.8312 12.6793 15.9767 12.6949 16.0079 12.7017C16.0171 12.7035 16.0191 12.7039 16.0286 12.7048L16.7476 12.7894ZM17.8132 14.0578C17.6753 14.0076 17.644 13.7865 17.6376 13.6746C17.6158 13.3105 17.7127 12.8039 17.8359 12.4627C17.871 12.3655 17.9217 12.2068 18.0312 12.2157C18.1066 12.2224 18.1603 12.28 18.2026 12.3393C18.3107 12.4906 18.4527 12.6957 18.5469 12.8385C18.6523 12.9985 18.7534 13.1597 18.8528 13.3056C18.865 13.3232 18.8765 13.3404 18.8899 13.3513C18.9079 13.3657 18.9241 13.3665 18.9315 13.3531C18.9349 13.3479 18.9283 13.164 18.9237 13.1271C18.916 13.0684 18.9125 13.0208 18.9058 12.9702C18.8875 12.823 18.8403 12.616 18.8032 12.4759C18.7624 12.3193 18.7126 12.156 18.6753 12.0044C18.6634 11.9552 18.6523 11.9054 18.6527 11.8585C18.653 11.7907 18.6969 11.7532 18.7681 11.7785C18.9083 11.8276 19.0942 12.1299 19.1484 12.2348C19.1668 12.2703 19.2398 12.4506 19.2562 12.5011C19.3144 12.6743 19.3496 12.8385 19.3657 13.0272C19.3811 13.2106 19.3682 13.4778 19.2901 13.6586C19.2614 13.7252 19.2026 13.8147 19.1536 13.8597C19.0768 13.9304 18.9237 13.9856 18.8183 13.9258C18.7029 13.8609 18.5133 13.5349 18.481 13.4791C18.371 13.2884 18.1816 12.9155 18.1523 12.8737C18.1459 12.8644 18.1376 12.8556 18.1229 12.8512C18.1118 12.848 18.1073 12.8709 18.1045 12.8859C18.0856 12.9945 18.0727 13.5024 18.0724 13.5165C18.0693 13.602 18.0651 13.8117 18.0402 13.9149C18.024 13.9824 18.0075 14.0377 17.9451 14.066C17.9007 14.0859 17.867 14.0776 17.8132 14.0578ZM19.7143 14.0253C19.6993 14.014 19.6753 13.9896 19.6577 13.97C19.655 13.9673 19.6054 13.8935 19.5956 13.8708C19.587 13.8512 19.5804 13.837 19.5741 13.8206C19.529 13.7049 19.5302 13.591 19.5552 13.4667C19.5783 13.3507 19.6003 13.3456 19.6602 13.1863C19.664 13.1776 19.6658 13.1701 19.6672 13.1605C19.6696 13.1387 19.6341 12.9919 19.632 12.9447C19.6295 12.8728 19.6857 12.8217 19.7799 12.8118C19.7886 12.8111 19.795 12.8112 19.8013 12.8094C19.8388 12.8003 19.8629 12.7288 19.8834 12.6715C19.9121 12.591 19.9568 12.4683 19.9568 12.4683C19.9568 12.4683 19.8378 12.441 19.774 12.4171C19.7029 12.3904 19.6491 12.356 19.6169 12.2912C19.5783 12.2153 19.6037 12.1733 19.6835 12.1487C19.7128 12.1394 19.9439 12.0953 20.0169 12.0851C20.1079 12.0718 20.1936 12.0605 20.2803 12.0499C20.3556 12.0408 20.7013 12.001 20.8113 12.0039C20.979 12.0087 21.0879 12.0773 21.1859 12.2182C21.2386 12.2934 21.2746 12.3828 21.1951 12.4312C21.0729 12.5049 20.6769 12.5105 20.6043 12.5113C20.4888 12.5124 20.3291 12.5105 20.3291 12.5105L20.2485 12.7779C20.2485 12.7779 20.5321 12.7749 20.6915 12.7743C20.7302 12.7743 20.7689 12.7764 20.7906 12.7809C20.872 12.7989 20.9001 12.8609 20.9034 12.9504C20.9079 13.0551 20.888 13.1033 20.804 13.1174C20.7605 13.1242 20.2733 13.1271 20.2072 13.1348C20.166 13.1392 20.1225 13.1457 20.1225 13.1457C20.1225 13.1457 20.0873 13.2369 20.0567 13.329C20.0258 13.425 19.9993 13.5228 19.9993 13.5228C19.9993 13.5228 20.0241 13.5238 20.0446 13.5238C20.0789 13.5241 20.1137 13.5191 20.1409 13.5145C20.2895 13.4874 20.5105 13.455 20.6919 13.4266C20.7893 13.4112 20.8384 13.4043 20.8897 13.4685C20.934 13.5252 20.9571 13.5728 20.9602 13.6414C20.963 13.7059 20.9134 13.7487 20.8528 13.7946C20.6611 13.9401 20.3335 14.0978 20.0894 14.1248C19.9766 14.1374 19.9491 14.125 19.8503 14.0994C19.8315 14.0946 19.7632 14.0629 19.7638 14.0595C19.7638 14.0595 19.7268 14.0351 19.7143 14.0253ZM22.7946 12.6812C22.669 12.7856 22.5068 12.9985 22.4294 13.109C22.3259 13.2556 22.2285 13.4234 22.1354 13.5534C22.1153 13.5827 22.0553 13.6872 22.0574 13.6907C22.0616 13.6981 22.122 13.6958 22.1842 13.6854C22.3164 13.6633 22.4963 13.5711 22.5924 13.495C22.7388 13.3785 22.8407 13.2184 22.8888 13.0312C22.9102 12.9462 22.921 12.7678 22.8603 12.6884C22.8484 12.6732 22.8181 12.6613 22.7946 12.6812ZM21.7972 14.2103C21.7972 14.2103 21.7574 14.3262 21.7282 14.4171C21.6778 14.574 21.567 14.9966 21.5414 15.1279C21.5028 15.3228 21.3929 15.8334 21.3872 15.8443C21.3795 15.8591 21.3744 15.8638 21.3558 15.8756C21.3106 15.902 21.2924 15.8933 21.2376 15.8642C21.1664 15.827 21.1039 15.7891 21.0505 15.7191C20.9432 15.5807 20.9688 15.3204 20.9898 15.1677C21.0634 14.6334 21.1379 14.3984 21.3426 13.8666C21.346 13.8575 21.346 13.8554 21.3418 13.8474C21.278 13.7124 21.2436 13.5494 21.2436 13.4177C21.2441 13.0008 21.4854 12.5884 21.7559 12.2572C21.7764 12.232 21.9091 12.074 21.9695 12.0771C22.0299 12.08 22.0397 12.15 22.0307 12.2085C22.0003 12.401 21.8639 12.5971 21.7706 12.7595C21.6657 12.941 21.6429 13.0156 21.5916 13.182C21.5834 13.208 21.5628 13.3296 21.5637 13.3452C21.5658 13.3899 21.5757 13.4463 21.5757 13.4463C21.5757 13.4463 21.7463 13.2091 21.8589 13.0627C21.9204 12.9823 21.9646 12.9291 22.0159 12.8719C22.0679 12.8137 22.2679 12.6072 22.3255 12.5528C22.4465 12.4381 22.5001 12.3905 22.631 12.323C22.7347 12.2698 22.8279 12.2565 22.929 12.3229C23.0894 12.4275 23.1593 12.6487 23.1773 12.8281C23.1984 13.0424 23.1543 13.2835 23.0591 13.467C22.9462 13.6861 22.7919 13.8437 22.5822 13.9817C22.3677 14.1228 22.1161 14.2188 21.8694 14.213C21.836 14.2123 21.7972 14.2103 21.7972 14.2103Z" fill="black"/>
</svg>
