<svg width="24" height="24" viewBox="0 0 24 24" fill="none" xmlns="http://www.w3.org/2000/svg">
<path d="M0 0H24V24H0V0Z" fill="white"/>
<path d="M14.3384 19.9101C13.8828 20.4007 13.2773 20.7204 12.6197 20.8183C11.6235 20.879 10.6525 20.2584 10.3584 18.0029L6.33362 16.8019C8.09211 23.1449 12.9585 22.9225 14.6325 20.1626C14.7467 19.981 14.712 19.8902 14.6325 19.8448C14.5523 19.7995 14.4532 19.7995 14.3384 19.9101ZM14.3384 3.25886C12.7195 -0.0208316 6.98147 3.21852 5.98527 11.6854C5.90266 12.074 6.08348 12.4708 6.42821 12.6594C6.93766 12.9405 7.49298 13.1265 8.06737 13.2092C8.50735 13.3137 8.96047 13.3525 9.41205 13.3255C9.81671 13.3076 10.152 13.0002 10.2089 12.5936C11.0658 3.51122 13.1131 1.45256 14.0645 3.40521C14.1738 3.63211 14.4532 3.51122 14.3334 3.25886H14.3384Z" fill="#005984"/>
<path d="M13.3472 6.12484C12.9445 6.06009 12.5412 6.23959 12.3162 6.58425C12.0786 7.01729 11.9236 7.49093 11.8576 7.98206C11.7514 8.4788 11.7192 8.98925 11.763 9.49566C11.8404 9.7659 12.0831 9.95258 12.3611 9.95467C14.1939 10.0709 19.5734 10.848 20.3306 12.4325C20.829 13.5224 19.3344 13.7998 18.2289 14.0874C17.8608 14.1546 17.5729 14.4464 17.5064 14.8191C17.3806 15.3827 17.4889 15.9732 17.8055 16.4541C17.9455 16.6933 18.251 16.7723 18.4876 16.6305L18.5526 16.5852C19.1224 16.2048 19.6273 15.733 20.0466 15.1874C23.6431 10.1061 16.1019 6.18032 13.3472 6.12484Z" fill="#54B948"/>
<path d="M15.1953 14.4454C6.17459 15.4545 -0.943799 11.2769 4.44586 10.2626C4.44586 10.2626 5.13341 10.101 5.2628 9.70728C5.39219 9.31406 5.43201 9.20296 5.58151 8.62254C5.6761 8.26457 5.76077 8.0626 5.85085 7.78519C5.99481 7.35632 5.72597 7.09888 5.12838 7.39667C0.202024 9.83378 1.64181 14.3852 5.66154 16.6658C8.29341 18.2241 11.3985 18.7505 14.3883 18.1441C14.8847 18.0488 15.3171 17.7444 15.5788 17.3068C15.9841 16.6902 16.1608 15.9483 16.0768 15.2123C16.0843 14.9844 15.9886 14.7656 15.8165 14.6182C15.6448 14.4708 15.4158 14.4106 15.1953 14.4555V14.4454Z" fill="#26BCD7"/>
</svg>
