<svg width="24" height="24" viewBox="0 0 24 24" fill="none" xmlns="http://www.w3.org/2000/svg">
<path d="M0 0H24V24H0V0Z" fill="black"/>
<path fill-rule="evenodd" clip-rule="evenodd" d="M21.6333 6.40217C21.3 5.84783 20.6667 5.52174 20 5.52174C19.1 5.52174 18.3667 6.1087 18.1667 6.92391C18.0667 7.34783 18 7.80435 18 8.55435C18 8.65217 18 11.0326 18 11.0978H20.7V11.6522H18V19.8696H16.9V11.0978C16.9 11 16.9 8.61957 16.9 8.55435C17 6.1413 18.2 5 19.8333 5C20.7 5 21.5 5.3913 21.9667 6.1413C22 6.1413 21.6333 6.40217 21.6333 6.40217ZM15.3667 19.9022C15.2 19.9022 15.0667 19.7717 15.0667 19.6087C15.0667 19.4457 15.2 19.3152 15.3667 19.3152C15.5333 19.3152 15.6667 19.4457 15.6667 19.6087C15.7 19.7717 15.5333 19.9022 15.3667 19.9022ZM12.7667 5.97826C12.7667 5.48913 13.2 5.06522 13.6333 5.06522H13.8667V19.8696H12.7667V5.97826ZM11.0667 19.9022C10.9 19.9022 10.7667 19.7717 10.7667 19.6087C10.7667 19.4457 10.9 19.3152 11.0667 19.3152C11.2333 19.3152 11.3667 19.4457 11.3667 19.6087C11.3667 19.7717 11.2333 19.9022 11.0667 19.9022ZM3.16667 15.2717C3.13333 18.0435 4.9 19.4457 6.6 19.4457C8.13333 19.4457 9.03333 18.6304 9.46667 18.2391L9.8 18.5652C9.23333 19.1848 8.06667 20 6.5 20C3.96667 20 2 18.0435 2 15.4348C2 12.9565 3.9 11.0326 6.23333 11.0326C8.66667 11.0326 10.1 12.7283 10.2333 15.1087C10.2333 15.2065 10.2333 15.2717 10.2333 15.2717H3.16667ZM6.23333 11.5217C5 11.5217 3.3 12.6304 3.16667 14.7826H9.1C9.03333 12.7935 7.8 11.5217 6.23333 11.5217ZM19.6333 19.3152C19.8 19.3152 19.9333 19.4457 19.9333 19.6087C19.9333 19.7717 19.8 19.9022 19.6333 19.9022C19.4667 19.9022 19.3333 19.7717 19.3333 19.6087C19.3333 19.4457 19.4667 19.3152 19.6333 19.3152Z" fill="white"/>
</svg>
