<svg width="24" height="24" viewBox="0 0 24 24" fill="none" xmlns="http://www.w3.org/2000/svg">
<path d="M0 0H24V24H0V0Z" fill="white"/>
<path d="M15.4852 9.82883C15.1741 9.15936 14.8398 8.02107 15.0842 6.64325C15.4213 4.73995 16.4908 3.0796 18 2C15.0751 2.34053 12.4998 4.83549 12.009 7.86002C11.8243 9.00377 11.7316 10.7788 13.6263 12.6282C14.7696 13.7432 15.9283 14.9621 15.5947 17.1322C15.2527 19.3549 13.2197 21.1496 11.0455 21.1415C8.87053 21.1319 7.42667 19.3282 7.72022 17.0994C8.09664 14.2428 11.2512 13.3631 11.5483 11.5977C11.6613 10.9228 11.4928 10.2253 11.3285 9.64253C11.0785 8.85091 10.6178 7.55566 11.1866 5.97378C11.1866 5.97378 9.49976 7.2431 9.08823 9.91277C8.99975 10.4921 8.83542 11.3213 8.01307 12.1484C7.19141 12.9769 6.29954 14.3902 6.06077 16.0983C5.6071 19.3514 7.73988 21.9863 10.9141 22C14.0891 22.0129 17.0449 19.3903 17.5562 16.1474C18 13.3372 16.1622 11.2851 15.4852 9.82883Z" fill="#E43539"/>
<path d="M11.0504 20.0325H11.0616C12.6522 20.0325 14.2106 18.6322 14.4662 16.9684C14.7092 15.3913 13.988 14.5178 12.8173 13.4095C11.6396 12.2938 11.6726 11.7615 11.582 11.0231C11.6073 12.6213 11.6831 13.6156 10.773 14.4523C9.87829 15.2746 9.01239 16.0301 8.85227 17.24C8.74342 18.0692 8.94427 18.8157 9.419 19.3412C9.82351 19.7902 10.3874 20.0291 11.0504 20.0325Z" fill="#373535"/>
</svg>
