<svg width="24" height="24" viewBox="0 0 24 24" fill="none" xmlns="http://www.w3.org/2000/svg">
<path d="M0 0H24V24H0V0Z" fill="white"/>
<path d="M2.00918 14.748H13.8873V10.2295H2.00918V14.748Z" fill="#676465"/>
<path d="M15.0996 14.7499H21.8356V10.2295H15.0996V14.7499Z" fill="#B3B2B2"/>
<path d="M2.00918 4.37071C2.00918 4.17321 2.13756 4.00138 2.40106 4.00077C2.50683 3.99904 13.8873 4.00077 13.8873 4.00077V8.51929H2.00918C2.00918 8.51929 2.00918 4.48993 2.00918 4.37071Z" fill="#676465"/>
<path d="M15.0996 4.00017C15.0996 4.00017 20.9503 4.00017 21.3318 4.00017C21.8563 4.00017 21.8356 4.28328 21.8356 4.76019C21.8356 5.23528 21.8356 8.52297 21.8356 8.52297H15.0996V4.00017Z" fill="#B3B2B2"/>
<path d="M18.4676 21C20.4184 21 22 19.9495 22 18.6563C22 17.3656 20.4184 16.3139 18.4676 16.3139C16.5204 16.3139 14.9364 17.3656 14.9364 18.6563C14.9364 19.9495 16.5204 21 18.4676 21Z" fill="#B3B2B2"/>
<path d="M13.8799 20.9205C13.8799 20.9205 2.91949 20.9205 2.53861 20.9205C2.01345 20.9205 2 20.7872 2 20.3103C2 19.8358 2 16.3965 2 16.3965H13.8799V20.9205Z" fill="#676465"/>
</svg>
