<svg width="24" height="24" viewBox="0 0 24 24" fill="none" xmlns="http://www.w3.org/2000/svg">
<path d="M0 0H24V24H0V0Z" fill="white"/>
<path d="M17.8435 8V9.49148H15.5478V10.4858H17.8435V11.8778H15.5478V13.2699H17.8435V14.7614H13.8783V8H17.8435ZM19.9304 14.7614H17.8435L19.8261 12.5739L17.8435 10.4858H19.9304L20.9739 11.4801L21.913 10.4858H24L21.913 12.5739L24 14.7614H21.8087L20.8696 13.6676L19.9304 14.7614Z" fill="#FF6600"/>
<path d="M12.2504 8V10.7642H12.24C11.8748 10.3665 11.4157 10.2273 10.873 10.2273C9.78783 10.2273 8.96348 10.9332 8.68174 11.8679C8.34783 10.8338 7.50261 10.2074 6.24 10.2074C5.21739 10.2074 4.41391 10.6349 3.99652 11.3509V10.4659H1.87826V9.50142H4.18435V8H0V14.7514H1.87826V11.9176H3.75652C3.70435 12.1264 3.67304 12.3452 3.67304 12.5838C3.67304 13.9858 4.8 14.9801 6.24 14.9801C7.45044 14.9801 8.25391 14.4332 8.6713 13.4489H7.06435C6.84522 13.7472 6.67826 13.8366 6.24 13.8366C5.73913 13.8366 5.30087 13.4091 5.30087 12.9119H8.58783C8.72348 14.0355 9.64174 15 10.8939 15C11.4365 15 11.9374 14.7415 12.24 14.3139H12.2504V14.7514H13.9096V8H12.2504ZM5.35304 11.9375C5.45739 11.5099 5.80174 11.2216 6.24 11.2216C6.72 11.2216 7.05391 11.5 7.13739 11.9375H5.35304ZM11.2487 13.7273C10.633 13.7273 10.2574 13.1804 10.2574 12.6136C10.2574 12.0071 10.5913 11.4304 11.2487 11.4304C11.9374 11.4304 12.2087 12.0071 12.2087 12.6136C12.2087 13.1903 11.9165 13.7273 11.2487 13.7273Z" fill="#652C8F"/>
</svg>
