<svg width="24" height="24" viewBox="0 0 24 24" fill="none" xmlns="http://www.w3.org/2000/svg">
<path d="M11.999 24C18.6279 24 24 18.6279 24 12.001C24 5.37404 18.6279 0 11.999 0C5.37208 0 0 5.37404 0 12.001C0 18.6279 5.37208 24 11.999 24Z" fill="white"/>
<path d="M14.6919 8.87559C14.6919 7.51102 15.6157 6.18759 16.1197 6.4369C16.6942 6.7249 15.6891 8.01012 14.6919 8.87559ZM8.41029 9.37273C8.41029 8.27559 9.49274 6.19102 10.154 6.41143C10.9357 6.672 9.50645 8.77469 8.41029 9.37273ZM7.31265 17.2193C6.81502 17.2418 6.48196 16.9234 6.48196 16.392C6.48196 14.9642 8.46318 13.6002 9.95951 12.8679C9.69404 14.8614 9.02057 17.1424 7.31265 17.2193ZM16.4532 12.5667C15.3233 12.5667 14.4598 13.3979 14.4598 14.3946C14.4598 15.2258 14.9593 15.8905 15.622 15.8905C15.8567 15.8905 16.0888 15.7567 16.0888 15.4599C16.0888 15.0255 15.5158 14.9211 15.5589 14.2751C15.5878 13.849 15.9894 13.5639 16.3881 13.5639C17.185 13.5639 17.5577 14.3363 17.5577 15.1332C17.5254 16.3641 16.6193 17.2188 15.5574 17.2188C14.1605 17.2188 13.2632 15.8904 13.2632 14.4607C13.2632 12.3321 14.6601 11.5014 15.3918 11.303C15.3987 11.303 17.303 11.6415 17.2438 10.802C17.2163 10.4327 16.6673 10.2906 16.2705 10.2754C15.8292 10.2583 15.3835 10.417 15.3835 10.417C15.1523 10.2994 14.9917 10.0697 14.8922 9.80522C16.2553 8.77371 17.2193 7.77747 17.2193 6.64702C17.2193 6.04898 16.8196 5.51706 16.055 5.51706C14.6919 5.51706 13.6614 7.24555 13.6614 8.808C13.6614 9.07298 13.6614 9.33992 13.73 9.57208C12.865 10.2029 12.2219 10.5962 11.0596 11.2942C11.0596 11.1487 11.09 10.7731 11.1879 10.2872C11.5861 9.85469 12.1332 9.20669 12.1332 8.70759C12.1332 8.47543 12.0015 8.2751 11.7331 8.2751C11.0694 8.2751 10.5718 9.27331 10.4385 9.97127C10.1393 10.3386 9.54073 10.8039 9.04114 10.8039C8.64294 10.8039 8.50922 10.438 8.47543 10.3043C9.7391 9.87184 11.3016 8.14335 11.3016 6.5809C11.3016 6.24931 11.1683 5.51706 10.1716 5.51706C8.67576 5.51706 7.41404 7.74514 7.41404 9.47167C6.88065 9.47167 6.68229 8.90743 6.68229 8.47494C6.68229 8.04196 6.84833 7.61143 6.84833 7.47771C6.84833 7.34449 6.78171 7.17894 6.58139 7.17894C6.08376 7.17894 5.78449 7.84359 5.78449 8.60816C5.81878 9.672 6.51625 10.3386 7.44637 10.4038C7.57959 11.0361 8.14384 11.6346 8.84131 11.6346C9.27429 11.6346 9.80571 11.5014 10.1716 11.1698C10.1393 11.402 10.1069 11.6023 10.0727 11.8007C8.60914 12.5667 7.54531 13.0981 6.58139 13.9621C5.81878 14.6611 5.38629 15.5912 5.38629 16.3215C5.38629 17.3202 6.01714 18.2503 7.31314 18.2503C8.84131 18.2503 10.006 17.0209 10.5718 15.3247C10.8367 14.5278 10.943 13.367 11.0111 12.3017C12.5383 11.4362 13.2632 10.9376 14.0616 10.3714C14.161 10.5375 14.2614 10.6702 14.3931 10.7696C13.6957 11.1355 12.0338 12.1665 12.0338 14.5925C12.0338 16.321 13.1961 18.2498 15.4913 18.2498C17.3858 18.2498 18.6818 16.6869 18.6818 15.1905C18.6813 13.8289 17.9167 12.5667 16.4532 12.5667ZM22.1687 15.4222C22.1638 15.4325 22.1451 15.4462 22.1074 15.434C22.078 15.4237 22.0717 15.41 22.0717 15.3909C22.0731 15.3722 22.4733 14.1889 22.4699 12.8331C22.4664 11.3677 21.8718 10.4699 21.1092 10.4699C20.6424 10.4699 20.3104 10.8034 20.3104 11.303C20.3104 12.2003 21.4065 12.2674 21.4065 14.2281C21.4065 15.025 21.2405 15.7896 20.976 16.6202C19.7447 20.7747 15.8224 22.7035 12.0015 22.7035C10.2387 22.7035 8.98678 22.3411 8.61453 22.174C8.59935 22.1652 8.58514 22.1363 8.59739 22.1069C8.60571 22.0849 8.63167 22.0678 8.64686 22.0746C8.79772 22.1329 9.87282 22.4713 11.2031 22.4713C12.6651 22.4713 13.5301 21.8733 13.5301 21.1411C13.5301 20.6762 13.1642 20.3104 12.6994 20.3104C11.8016 20.3104 11.7336 21.4403 9.8062 21.4403C8.97551 21.4403 8.24376 21.2743 7.38025 21.0073C3.25714 19.7447 1.29453 15.8567 1.296 12.001C1.29747 10.1221 1.82449 8.6258 1.83282 8.61208C1.83967 8.60229 1.86318 8.59151 1.89208 8.60229C1.92147 8.61208 1.92784 8.63608 1.92637 8.6449C1.87886 8.80065 1.52963 9.87282 1.52963 11.2031C1.52963 12.6666 2.12767 13.5301 2.89225 13.5301C3.32327 13.5301 3.68914 13.1985 3.68914 12.7332C3.68914 11.8344 2.59151 11.735 2.59151 9.80669C2.59151 8.97551 2.75902 8.24376 3.024 7.38025C4.28767 3.25812 8.17763 1.32637 12.0005 1.29649C13.777 1.28278 15.3311 1.81469 15.3909 1.8622C15.4011 1.87102 15.4114 1.89355 15.4011 1.92049C15.3869 1.95282 15.3664 1.95624 15.3566 1.95429C15.338 1.95282 14.327 1.53012 12.7969 1.53012C11.3677 1.52865 10.4699 2.12718 10.4699 2.89273C10.4699 3.32376 10.8034 3.68963 11.3006 3.68963C12.1984 3.68963 12.265 2.59347 14.1938 2.59347C15.0225 2.59347 15.7548 2.75755 16.6183 3.02449C20.7747 4.28767 22.6658 8.20996 22.7016 12.0005C22.7211 13.9416 22.174 15.41 22.1687 15.4222ZM12.001 0.565714C5.68506 0.565714 0.566204 5.6831 0.566204 12.0005C0.566204 18.3164 5.68506 23.4338 12.001 23.4338C18.3154 23.4338 23.4343 18.3164 23.4343 12.0005C23.4343 5.71739 18.3154 0.565714 12.001 0.565714ZM12.001 24C5.3858 24 0 18.6485 0 12.001C0 5.38384 5.3858 0 12.001 0C18.6142 0 24 5.38384 24 12.001C24 18.6485 18.6142 24 12.001 24Z" fill="#3B73B9"/>
</svg>
