<svg width="24" height="24" viewBox="0 0 24 24" fill="none" xmlns="http://www.w3.org/2000/svg">
<path d="M0 0H24V24H0V0Z" fill="#C6093B"/>
<path d="M18.9298 3C7.31162 4.06851 5.8418 11.8128 9.63994 14.2887C8.98521 17.0843 9.5865 17.0197 9.5865 17.0197C9.70341 16.1836 9.87378 15.3572 10.0942 14.5405C11.5774 9.09146 15.2453 4.34935 18.9466 3.10653V3.09362C18.9699 3.09039 19 3.0807 19 3.05488C19 3.02583 18.9766 3.00323 18.9466 3.00323C18.9466 3.00323 18.9466 3.00323 18.9432 3.00323L18.9298 3ZM18.3286 4.77869C18.3085 4.77869 18.2851 4.79806 18.2751 4.81743C17.3131 6.63809 17.0425 9.23996 16.3109 11.2382C15.4724 13.5172 13.9826 15.0603 11.6843 14.9118V20.4577C11.6843 20.4577 5.54784 17.7654 5.54784 13.4559V5.3759L10.5586 4.92396H10.5719C10.5987 4.92396 10.612 4.91105 10.612 4.88522C10.612 4.85294 10.5987 4.83357 10.5719 4.83357H5V13.4559C5 18.3013 11.6843 21 11.6843 21C11.6843 21 18.382 18.2593 18.382 13.4527V4.83034C18.382 4.80775 18.3553 4.77869 18.3286 4.77869Z" fill="white"/>
</svg>
