<svg width="24" height="24" viewBox="0 0 24 24" fill="none" xmlns="http://www.w3.org/2000/svg">
<path fill-rule="evenodd" clip-rule="evenodd" d="M0 24H24V0H0V24Z" fill="#7399C6"/>
<path fill-rule="evenodd" clip-rule="evenodd" d="M21.3154 5.5065H20.4713V2.40112H21.2663V2.74875C21.3653 2.53988 21.6135 2.355 21.9364 2.33138C22.4831 2.30813 22.8551 2.60963 22.8551 3.25838V5.5065H21.9862V3.16575C21.9862 2.88788 21.9862 2.65575 21.7875 2.60963C21.7129 2.58637 21.5888 2.60963 21.4894 2.679C21.3653 2.79525 21.3154 2.934 21.3154 3.16575V5.5065ZM6.63675 3.95363C6.63675 4.533 6.63675 4.9965 6.53738 5.22862C6.46275 5.34412 6.38812 5.41388 6.21412 5.41388C6.06525 5.41388 5.96588 5.34412 5.91638 5.22825C5.79225 4.9965 5.79225 4.533 5.79225 3.95363C5.79225 3.3975 5.79225 2.91113 5.916 2.679C5.96587 2.56313 6.06525 2.49375 6.21412 2.49375C6.38812 2.49375 6.46275 2.56313 6.53738 2.679C6.6615 2.91075 6.63675 3.39713 6.63675 3.95363ZM6.95925 2.60963C6.7605 2.44725 6.51225 2.33138 6.21412 2.33138C5.91637 2.33138 5.69287 2.44763 5.46938 2.60963C5.12138 2.88788 4.89787 3.3975 4.89787 3.95363C4.89787 4.533 5.12138 5.01975 5.46938 5.298C5.69287 5.46 5.91637 5.57588 6.21412 5.57588C6.51225 5.57588 6.76088 5.46 6.95963 5.298C7.332 5.01975 7.53075 4.533 7.53075 3.95363C7.53075 3.3975 7.33163 2.88788 6.95925 2.60963ZM15.6278 6.6885V7.5225H15.4541C15.3547 7.17488 15.2055 6.87375 14.808 6.8505C14.5597 6.82763 14.3363 6.96675 14.3115 7.17488C14.2868 7.38375 14.361 7.56862 14.808 7.80113C15.3795 8.10188 15.8265 8.241 15.8265 8.86688C15.8265 9.53888 15.2055 9.86362 14.6839 9.86362H13.6901V8.70487H13.8641C13.9886 9.30713 14.187 9.678 14.6591 9.70125C14.9572 9.70125 15.1804 9.53888 15.1804 9.23775C15.1804 8.93625 14.982 8.751 14.5103 8.496C13.9886 8.19488 13.6658 8.00925 13.6658 7.59225C13.6658 7.03613 14.088 6.6885 14.7585 6.6885H15.6278ZM16.7205 5.5065V3.25838C16.7205 2.60963 16.3481 2.30813 15.8018 2.33138C15.429 2.35463 15.2055 2.58637 15.1061 2.77163C14.982 2.44725 14.7086 2.30813 14.3111 2.33138C13.9886 2.35463 13.74 2.53988 13.6406 2.74875V2.40112H12.8707V5.50612H13.7153V3.16613C13.7153 2.93438 13.74 2.79525 13.8892 2.67938C13.9886 2.61 14.088 2.58675 14.1622 2.61C14.361 2.65613 14.361 2.88825 14.361 3.16613V5.50688H15.2055V3.1425C15.2055 2.93363 15.255 2.7945 15.3795 2.67863C15.4789 2.60925 15.5782 2.586 15.6525 2.60925C15.8512 2.65538 15.876 2.8875 15.876 3.16537V5.50612L16.7205 5.5065ZM8.10188 5.5065H8.97112V1.752H8.10188V5.5065ZM11.0325 2.65613C11.2065 2.88788 11.2065 3.44362 11.2065 3.88425C11.2065 4.34775 11.2316 4.95038 11.0329 5.205C10.9583 5.298 10.8836 5.34412 10.7595 5.34412C10.5859 5.34412 10.4865 5.15887 10.437 4.85738C10.4119 4.5795 10.4119 4.23187 10.4119 3.861C10.4119 3.2355 10.4614 2.53988 10.7846 2.53988C10.9084 2.53988 10.9579 2.58637 11.0325 2.65613ZM12.0514 5.5065V1.752H11.1818V2.63287C11.1075 2.4705 10.9335 2.35462 10.6852 2.35462C10.0642 2.35462 9.56775 2.95725 9.54263 3.88425C9.51788 4.51013 9.74137 5.553 10.6106 5.553C10.9583 5.553 11.157 5.36737 11.2316 5.205V5.5065H12.0514ZM18.807 3.6525L18.5336 3.8145C18.2606 3.97688 18.2111 4.18575 18.186 4.41713C18.1612 4.60275 18.1612 4.76475 18.186 5.043C18.2107 5.298 18.3848 5.34413 18.5336 5.298C18.7076 5.22825 18.807 4.92713 18.807 4.60275V3.6525ZM19.3035 2.49375C19.5274 2.61 19.6763 2.79487 19.6763 3.21225V5.5065H18.8565V5.15888C18.7575 5.41388 18.4841 5.57588 18.1114 5.57588C17.8136 5.57588 17.292 5.43713 17.292 4.71863C17.292 4.04625 17.7638 3.9075 18.2858 3.69863C18.7575 3.51338 18.807 3.49012 18.807 3.30487V2.79488C18.807 2.58638 18.6829 2.49375 18.4342 2.49375C18.3352 2.517 18.1613 2.56313 18.1613 2.679C18.1361 2.81813 18.3101 2.81813 18.3353 3.02663C18.36 3.35138 18.0866 3.46688 17.8384 3.444C17.6644 3.444 17.4656 3.35138 17.4409 3.09637C17.4161 2.679 17.9126 2.33138 18.6082 2.33138C18.9311 2.33138 19.1299 2.40113 19.3035 2.49375ZM6.51225 7.986L6.23925 8.14838C5.96588 8.31075 5.91638 8.51925 5.89125 8.751C5.86688 8.93625 5.86688 9.12187 5.89125 9.3765C5.89125 9.65475 6.06525 9.70125 6.21412 9.6315C6.41287 9.56213 6.51225 9.28425 6.51225 8.93625V7.986ZM7.00912 6.82725C7.23263 6.96637 7.35675 7.12875 7.35675 7.54575V9.86325H6.5625V9.51562C6.46313 9.74737 6.19012 9.90938 5.81737 9.90938C5.4945 9.90938 4.99762 9.79388 4.99762 9.07538C4.99762 8.40338 5.46975 8.26425 5.96625 8.05538C6.46312 7.84725 6.51263 7.824 6.51263 7.66162V7.15162C6.51263 6.92025 6.3885 6.82763 6.14025 6.8505C6.04088 6.8505 5.86725 6.897 5.86725 7.01288C5.84212 7.17525 6.01612 7.17525 6.04087 7.38375C6.06562 7.68488 5.79262 7.80075 5.544 7.80075C5.37038 7.7775 5.17163 7.68488 5.1465 7.42988C5.12175 7.03613 5.61863 6.68812 6.31388 6.68812C6.63713 6.68812 6.83512 6.73425 7.00912 6.82725ZM13.02 7.6155C13.02 6.96675 12.6473 6.642 12.1009 6.6885C11.8279 6.71138 11.604 6.82725 11.4799 6.98962V6.08588H10.635V8.21813C10.635 9.00563 10.0387 9.74737 9.4425 9.72412C9.02063 9.72412 8.92125 9.423 8.87138 9.09863C8.79712 8.63513 8.79712 8.10225 8.84662 7.5225C8.8965 7.152 8.99588 6.8505 9.294 6.8505C9.5175 6.8505 9.54225 6.98962 9.44287 7.08225C9.3435 7.1985 9.19462 7.314 9.26888 7.569C9.3435 7.84725 9.81525 7.89338 10.0391 7.68525C10.2128 7.49963 10.188 7.19813 10.0639 7.01288C9.91463 6.78113 9.66638 6.6885 9.294 6.6885C8.82188 6.6885 7.92788 7.08225 7.92788 8.33362C7.92788 9.678 8.84662 9.90975 9.36825 9.90975C9.9645 9.90975 10.4858 9.423 10.635 9.02888V9.86325H11.4795V7.5225C11.4795 7.29112 11.529 7.152 11.6535 7.03575C11.7529 6.96637 11.877 6.94313 11.9516 6.96638C12.1504 7.01288 12.1504 7.24463 12.1504 7.5225V9.86325H13.0196L13.02 7.6155ZM4.32675 1.68263V3.00375H4.15275C4.00387 2.355 3.681 1.86787 3.234 1.845C2.93587 1.82175 2.76187 1.98375 2.613 2.2155C2.46412 2.49375 2.3895 3.07313 2.3895 3.768C2.3895 4.41713 2.41425 4.90388 2.48887 5.2515C2.53837 5.41388 2.6625 5.6685 2.98537 5.6685C3.15937 5.6685 3.2835 5.62238 3.35812 5.52975C3.48187 5.39063 3.507 5.11237 3.507 4.92712V4.30125C3.507 4.0695 3.43275 3.93075 3.30825 3.861C3.20925 3.8145 3.06 3.8145 2.98575 3.79125V3.62925H4.37625V6.9435H4.20262C4.128 6.6885 4.0785 6.50288 3.954 6.29438C3.83025 6.08588 3.60637 5.85413 3.234 5.85413C2.8365 5.83087 2.53837 6.06263 2.53837 6.41025C2.53837 6.87375 2.8365 6.98963 3.38287 7.26788C3.9045 7.54575 4.57538 7.77787 4.57538 8.58862C4.57538 9.3765 3.85462 9.86362 3.03525 9.86362H1.719V8.26425H1.89262C2.11613 9.4695 2.6625 9.678 3.03525 9.678C3.507 9.678 3.7305 9.39975 3.7305 9.006C3.70575 8.496 3.333 8.31075 2.81175 8.05575C2.06662 7.662 1.719 7.47638 1.719 6.82763C1.74375 6.27113 2.2155 5.92387 2.73712 5.78475C1.64437 5.6685 1.3215 4.74188 1.34625 3.74513C1.34625 2.74875 1.96725 1.68263 3.18412 1.68263H4.32675Z" fill="white"/>
</svg>
