<svg width="24" height="24" viewBox="0 0 24 24" fill="none" xmlns="http://www.w3.org/2000/svg">
<path d="M24 12C24 18.6274 18.6274 24 12 24C5.37258 24 0 18.6274 0 12C0 5.37258 5.37258 0 12 0C18.6274 0 24 5.37258 24 12Z" fill="white"/>
<path d="M12.0335 6.10352e-05L9.45152 7.23909L11.2067 7.23964C12.471 7.24 13.009 8.23688 12.6109 9.35326L10.0436 16.5512H7.46024L10.2848 8.63109H8.95468L6.13034 16.5512H3.52465L9.3202 0.300281C3.98306 1.51785 0 6.29389 0 12C0 17.6173 3.85969 22.332 9.07156 23.6393L11.9992 15.419L14.9269 7.19874H19.1674C20.0445 7.19874 21.1476 7.79014 20.6709 9.13615L18.2901 15.8589C17.9859 16.7177 17.263 16.8917 16.6871 16.8917H14.0802L11.5518 23.9908C11.7007 23.9963 11.8499 24 12 24C18.6274 24 24 18.6274 24 12C24 5.38355 18.6457 0.0180614 12.0335 6.10352e-05ZM17.0291 8.61167L14.5698 15.5152H15.8794L18.3392 8.61167H17.0291Z" fill="#015294"/>
</svg>
