<svg width="24" height="24" viewBox="0 0 24 24" fill="none" xmlns="http://www.w3.org/2000/svg">
<path d="M24 0H0V24H24V0Z" fill="black"/>
<path d="M5.55433 15.6224H1.45254V16.2083H5.55433V15.6224Z" fill="white"/>
<path d="M5.55433 14.5037H1.45254V15.0897H5.55433V14.5037Z" fill="white"/>
<path d="M4.38239 13.385H2.62447V13.971H4.38239V13.385Z" fill="white"/>
<path d="M4.38239 12.2663H2.62447V12.8523H4.38239V12.2663Z" fill="white"/>
<path d="M4.38239 11.1477H2.62447V11.7336H4.38239V11.1477Z" fill="white"/>
<path d="M4.38239 10.029H2.62447V10.615H4.38239V10.029Z" fill="white"/>
<path d="M5.55433 8.91034H1.45254V9.49631H5.55433V8.91034Z" fill="white"/>
<path d="M5.55434 7.79175H1.45255V8.37772H5.55434V7.79175Z" fill="white"/>
<path d="M6.14031 15.0897H12.3924C12.4985 14.9066 12.5779 14.7092 12.6282 14.5037H6.14031V15.0897Z" fill="white"/>
<path d="M11.903 12.2663H7.31222V12.8523H12.3918C12.2635 12.6305 12.0982 12.4323 11.903 12.2663Z" fill="white"/>
<path d="M7.31224 11.1477V11.7337H11.903C12.0982 11.5677 12.2635 11.3695 12.3918 11.1477L7.31224 11.1477Z" fill="white"/>
<path d="M12.3924 8.91034H6.14031V9.4963H12.6282C12.5779 9.29075 12.4985 9.09344 12.3924 8.91034Z" fill="white"/>
<path d="M10.4552 7.79167H6.14031V8.37764H11.9645C11.5526 8.00005 11.0139 7.79092 10.4552 7.79167Z" fill="white"/>
<path d="M9.07015 10.029H7.31224V10.615H9.07015V10.029Z" fill="white"/>
<path d="M10.7215 10.615H12.6141C12.6661 10.424 12.6924 10.2269 12.6925 10.029H10.7215V10.615Z" fill="white"/>
<path d="M9.07015 13.385H7.31224V13.971H9.07015V13.385Z" fill="white"/>
<path d="M10.7215 13.385V13.971H12.6925C12.6924 13.7731 12.6661 13.576 12.6141 13.385H10.7215Z" fill="white"/>
<path d="M6.14031 16.2025L10.4552 16.2083C11.0141 16.2098 11.553 16.0006 11.9645 15.6223H6.14032L6.14031 16.2025Z" fill="white"/>
<path d="M17.8588 16.2083L18.0634 15.6223H17.656L17.8588 16.2083Z" fill="white"/>
<path d="M17.469 15.0897H18.2504L18.4561 14.5037H17.2633L17.469 15.0897Z" fill="white"/>
<path d="M17.0763 13.971H18.6431L18.8489 13.385H16.8706L17.0763 13.971Z" fill="white"/>
<path d="M16.6835 12.8523H19.0359L19.2416 12.2663H16.4779L16.6835 12.8523Z" fill="white"/>
<path d="M14.3439 10.615H17.5097L17.306 10.029H14.3439V10.615Z" fill="white"/>
<path d="M18.5987 9.49629H22.5475V8.91032H18.8025L18.5987 9.49629Z" fill="white"/>
<path d="M19.1915 7.79169L18.9877 8.37767H22.5475V7.79169H19.1915Z" fill="white"/>
<path d="M16.1018 15.6224H13.1719V16.2083H16.1018V15.6224Z" fill="white"/>
<path d="M16.1018 14.5037H13.1719V15.0897H16.1018V14.5037Z" fill="white"/>
<path d="M16.1018 13.385H14.3439V13.971H16.1018V13.385Z" fill="white"/>
<path d="M16.1018 12.2663H14.3439V12.8523H16.1018V12.2663Z" fill="white"/>
<path d="M21.3755 10.029H18.4135L18.2097 10.615H21.3755V10.029Z" fill="white"/>
<path d="M19.6176 11.7337H21.3755V11.1477H18.0244L17.8597 11.6213L17.695 11.1477H14.3439V11.7337H16.1018V11.1952L16.2908 11.7337H19.4286L19.6176 11.1952V11.7337Z" fill="white"/>
<path d="M21.3755 12.2663H19.6176V12.8523H21.3755V12.2663Z" fill="white"/>
<path d="M21.3755 13.385H19.6176V13.971H21.3755V13.385Z" fill="white"/>
<path d="M22.5475 14.5037H19.6176V15.0897H22.5475V14.5037Z" fill="white"/>
<path d="M22.5475 15.6224H19.6176V16.2083H22.5475V15.6224Z" fill="white"/>
<path d="M17.1207 9.49629L16.917 8.91032H13.172V9.49629H17.1207Z" fill="white"/>
<path d="M16.7317 8.37767L16.528 7.79169H13.172V8.37767H16.7317Z" fill="white"/>
</svg>
