<svg width="24" height="24" viewBox="0 0 24 24" fill="none" xmlns="http://www.w3.org/2000/svg">
<path d="M24 0H0V24H24V0Z" fill="#0068B5"/>
<path d="M4.30431 9.47739H2.98525V10.8162H4.30431V9.47739Z" fill="#00C7FD"/>
<path d="M4.2696 16.4392V11.6265H3.01996V16.4392H4.2696ZM12.5519 16.4886V15.3118C12.3714 15.3118 12.2117 15.3048 12.1007 15.2836C11.9688 15.2625 11.8716 15.2202 11.8021 15.1497C11.7397 15.0863 11.6911 14.9877 11.6702 14.8679C11.6494 14.7481 11.6425 14.5931 11.6425 14.4028V12.7187H12.545V11.6265H11.6425V9.74516H10.3928V14.4028C10.3928 14.7974 10.4275 15.1286 10.49 15.3964C10.5525 15.6571 10.6705 15.8685 10.8233 16.0305C10.976 16.1926 11.1843 16.3053 11.4342 16.3758C11.6841 16.4463 12.0035 16.4815 12.3853 16.4815H12.5519V16.4886ZM19.7096 16.4392V9.37874H18.4599V16.4392H19.7096ZM9.19178 12.0986C8.84466 11.7181 8.35869 11.5279 7.74082 11.5279C7.44229 11.5279 7.17154 11.5913 6.92161 11.7111C6.67862 11.8379 6.47035 12.007 6.30373 12.2255L6.23431 12.3171V11.6265H4.99855V16.4392H6.24125V13.8814V14.0575C6.24125 14.0294 6.24125 14.0012 6.24125 13.973C6.25513 13.522 6.36621 13.1908 6.56754 12.9724C6.7897 12.7469 7.05351 12.6271 7.35898 12.6271C7.71999 12.6271 7.99769 12.7399 8.17819 12.9583C8.35869 13.1767 8.44894 13.4868 8.44894 13.8814V16.4322H9.71247V13.7052C9.71941 13.0217 9.53891 12.4792 9.19178 12.0986ZM17.8143 14.0223C17.8143 13.677 17.7518 13.3529 17.6338 13.0499C17.5088 12.7469 17.3422 12.4862 17.1339 12.2537C16.9187 12.0282 16.6618 11.852 16.3633 11.7181C16.0648 11.5913 15.7316 11.5279 15.3706 11.5279C15.0304 11.5279 14.7041 11.5913 14.4056 11.7252C14.107 11.8591 13.8432 12.0352 13.6211 12.2607C13.3989 12.4862 13.2253 12.754 13.0934 13.057C12.9615 13.36 12.899 13.6911 12.899 14.0364C12.899 14.3817 12.9615 14.7129 13.0795 15.0159C13.2045 15.3188 13.3781 15.5866 13.5933 15.8121C13.8085 16.0376 14.0793 16.2137 14.3847 16.3476C14.6971 16.4815 15.0373 16.5449 15.3983 16.5449C16.4605 16.5449 17.1131 16.0517 17.5088 15.6007L16.6063 14.9031C16.4189 15.1286 15.9676 15.4386 15.4053 15.4386C15.0512 15.4386 14.7666 15.3611 14.5444 15.192C14.3222 15.0299 14.1765 14.8045 14.0931 14.5226L14.0793 14.4803H17.8073L17.8143 14.0223ZM14.1001 13.5854C14.1001 13.2331 14.4958 12.6201 15.3567 12.613C16.2175 12.613 16.6202 13.2261 16.6202 13.5784L14.1001 13.5854Z" fill="white"/>
<path d="M21.1397 15.8121C21.1189 15.7557 21.0842 15.7064 21.0425 15.6641C21.0009 15.6218 20.9523 15.5866 20.8967 15.5655C20.8412 15.5443 20.7787 15.5302 20.7162 15.5302C20.6537 15.5302 20.5913 15.5443 20.5357 15.5655C20.4802 15.5866 20.4316 15.6218 20.3899 15.6641C20.3483 15.7064 20.3136 15.7557 20.2927 15.8121C20.2719 15.8685 20.258 15.9319 20.258 15.9953C20.258 16.0587 20.2719 16.1221 20.2927 16.1785C20.3136 16.2349 20.3483 16.2842 20.3899 16.3265C20.4316 16.3688 20.4802 16.404 20.5357 16.4251C20.5913 16.4463 20.6537 16.4604 20.7162 16.4604C20.7787 16.4604 20.8412 16.4463 20.8967 16.4251C20.9523 16.404 21.0009 16.3688 21.0425 16.3265C21.0842 16.2842 21.1189 16.2349 21.1397 16.1785C21.1605 16.1221 21.1744 16.0587 21.1744 15.9953C21.1744 15.9319 21.1605 15.8685 21.1397 15.8121ZM21.0633 16.1433C21.0425 16.1926 21.0148 16.2349 20.987 16.2701C20.9592 16.3053 20.9106 16.3335 20.862 16.3476C20.8134 16.3617 20.7718 16.3758 20.7093 16.3758C20.6607 16.3758 20.6051 16.3688 20.5566 16.3476C20.508 16.3265 20.4663 16.2983 20.4316 16.2701C20.3969 16.2419 20.3691 16.1926 20.3552 16.1433C20.3344 16.094 20.3274 16.0517 20.3274 15.9883C20.3274 15.9389 20.3344 15.8826 20.3552 15.8332C20.376 15.7839 20.4038 15.7416 20.4316 15.7064C20.4663 15.6712 20.508 15.643 20.5566 15.6289C20.6051 15.6148 20.6468 15.6007 20.7093 15.6007C20.7579 15.6007 20.8134 15.6078 20.862 15.6289C20.9106 15.65 20.9523 15.6782 20.987 15.7064C21.0217 15.7346 21.0495 15.7839 21.0633 15.8332C21.0842 15.8826 21.0911 15.9248 21.0911 15.9883C21.0911 16.0517 21.0772 16.101 21.0633 16.1433ZM20.7995 16.0305C20.8342 16.0235 20.862 16.0094 20.8898 15.9883C20.9176 15.9671 20.9245 15.9319 20.9245 15.8826C20.9245 15.8332 20.9106 15.791 20.8759 15.7628C20.8481 15.7346 20.7995 15.7205 20.7371 15.7205H20.5288V16.256H20.626V16.0376H20.6954L20.8273 16.256H20.9314L20.7995 16.0305ZM20.7509 15.953C20.7371 15.953 20.7232 15.953 20.7023 15.953H20.6329V15.798H20.7023C20.7162 15.798 20.7301 15.798 20.7509 15.798C20.7648 15.798 20.7787 15.805 20.7926 15.805C20.8065 15.8121 20.8134 15.8191 20.8204 15.8262C20.8273 15.8332 20.8273 15.8473 20.8273 15.8685C20.8273 15.8896 20.8204 15.9037 20.8204 15.9107C20.8134 15.9178 20.7995 15.9319 20.7926 15.9319C20.7787 15.953 20.7648 15.953 20.7509 15.953Z" fill="white"/>
</svg>
