<svg width="24" height="24" viewBox="0 0 24 24" fill="none" xmlns="http://www.w3.org/2000/svg">
<path d="M0 0H24V24H0V0Z" fill="#1025CD"/>
<path fill-rule="evenodd" clip-rule="evenodd" d="M11.8656 9.5788H13.1302V21H11.8656V9.5788ZM15 4.49766C15 5.87566 13.8755 6.99482 12.5 6.99482C11.1203 6.99482 10 5.87566 10 4.49766C10 3.11916 11.1203 2 12.5 2C13.8755 2 15 3.11916 15 4.49766ZM13.7933 4.49766C13.7933 3.78568 13.2124 3.20561 12.5 3.20561C11.7835 3.20561 11.2025 3.78568 11.2025 4.49766C11.2025 5.20914 11.7835 5.78921 12.5 5.78921C13.2124 5.78921 13.7933 5.20914 13.7933 4.49766Z" fill="white"/>
</svg>
