<svg width="24" height="24" viewBox="0 0 24 24" fill="none" xmlns="http://www.w3.org/2000/svg">
<path d="M0 0H24V24H0V0Z" fill="#EB1700"/>
<path d="M21 8.14973H19.7006V13.0784C19.7006 13.877 19.3587 14.3512 18.5653 14.3512C17.7857 14.3512 17.4301 13.8396 17.4301 12.9786V12.0677L16.1307 12.3672V12.779C16.1307 14.0267 16.8146 14.9875 18.5517 14.9875C20.3024 14.9875 20.9726 14.0392 20.9726 12.779V8.14973H21ZM11.6717 14.2888C10.6732 14.2888 10.0441 13.5401 10.0441 12.754C10.0441 12.2549 10.2903 11.8057 10.6869 11.5437L13.0532 13.902C12.6155 14.139 12.1231 14.2888 11.6717 14.2888ZM13.9696 13.1159L11.9179 11.057C12.2872 10.9198 12.6429 10.8699 12.9301 10.8699C13.7781 10.8699 14.2979 11.3191 14.2979 12.0927C14.3115 12.4421 14.2021 12.7914 13.9696 13.1159ZM11.6444 10.7825L11.193 10.3209C10.7963 9.92157 10.6869 9.67201 10.6869 9.37255C10.6869 8.82353 11.0699 8.49911 11.6854 8.49911C12.3009 8.49911 12.6702 8.82353 12.6702 9.40998C12.6565 9.97148 12.3693 10.4831 11.6444 10.7825ZM11.6991 8C10.2492 8 9.53799 8.73619 9.53799 9.64706C9.53799 10.1462 9.77051 10.6453 10.3723 11.2442L10.386 11.2692C9.36018 11.7184 8.89513 12.4421 8.89513 13.1907C8.89513 14.1765 9.7158 15 11.0015 15C11.7401 15 12.5881 14.7255 13.3678 14.2264L13.997 14.8503H15.6383V14.8004L14.2979 13.4528C14.8587 12.8414 15.1869 12.18 15.1869 11.5936C15.1869 10.8699 14.6535 10.3832 13.8191 10.3832C13.3815 10.3832 12.8891 10.4955 12.5608 10.6078L12.5334 10.5704C13.3267 10.1836 13.6687 9.82175 13.6687 9.31016C13.6687 8.57398 12.9574 8 11.6991 8Z" fill="white"/>
<path d="M6.55623 8.14973H7.84195V12.779C7.84195 14.0392 7.17173 14.9875 5.42097 14.9875C3.68389 14.9875 3 14.0267 3 12.779V12.3672L4.29939 12.0802V12.9911C4.29939 13.8645 4.64134 14.3636 5.42097 14.3512C6.21429 14.3512 6.55623 13.877 6.55623 13.0784V8.14973Z" fill="white"/>
</svg>
