<svg width="24" height="24" viewBox="0 0 24 24" fill="none" xmlns="http://www.w3.org/2000/svg">
<path d="M0 0H24V24H0V0Z" fill="black"/>
<path d="M16.6945 14.5945C16.8418 14.6493 17.06 14.6845 17.3492 14.7008V14.8153H14.085V14.7008C14.3736 14.6845 14.5925 14.6493 14.7397 14.5945C14.887 14.5402 14.9891 14.4529 15.0448 14.3325C15.1005 14.2126 15.1287 14.0352 15.1287 13.8008V10.1522H15.1023L12.8642 14.9216H12.8378L10.4401 10.169H10.4137V13.8008C10.4137 14.0352 10.443 14.2126 10.5022 14.3325C10.5609 14.4523 10.663 14.5397 10.8073 14.5945C10.9516 14.6493 11.1687 14.6845 11.4573 14.7008V14.8153H8.96694V14.7008C9.25558 14.6845 9.47264 14.6493 9.61696 14.5945C9.76128 14.5402 9.86335 14.4529 9.92202 14.3325C9.98069 14.2126 10.0106 14.0352 10.0106 13.8008V10.1441C10.0106 9.90972 9.98127 9.73233 9.92202 9.61245C9.86277 9.49256 9.76128 9.40523 9.61696 9.35044C9.47205 9.29619 9.25558 9.26039 8.96694 9.24411V9.12965H11.201L13.2414 13.2486L15.2202 9.12965H17.3492V9.24411C17.06 9.26039 16.8418 9.29619 16.6945 9.35044C16.5473 9.40523 16.444 9.49365 16.3848 9.61625C16.3255 9.73884 16.2962 9.9146 16.2962 10.1441V13.8008C16.2962 14.0352 16.3255 14.2126 16.3848 14.3325C16.444 14.4529 16.5473 14.5397 16.6945 14.5945ZM6.28176 12.3367V13.8008C6.28176 14.0298 6.31696 14.2055 6.38794 14.3287C6.45893 14.4513 6.57686 14.5402 6.74171 14.5945C6.90656 14.6493 7.15765 14.6845 7.49381 14.7008V14.8153H4.07003V14.7008C4.35867 14.6845 4.57573 14.6493 4.72005 14.5945C4.86437 14.5402 4.96645 14.4529 5.02512 14.3325C5.08379 14.2126 5.11371 14.0352 5.11371 13.8008V10.169C5.11371 9.42096 4.74821 9.26907 4.19323 9.26907C3.58427 9.26907 3.21173 9.42041 3.21173 10.1446V14.2082C3.21173 15.1266 2.56641 16 1.29217 16C1.19361 16 1.09621 15.9946 1 15.9843V15.8861C1.30272 15.8693 1.54795 15.7743 1.73451 15.5991C1.94101 15.4055 2.04427 15.0881 2.04427 14.646V10.1441C2.04427 9.91515 2.01494 9.73884 1.95568 9.61625C1.89643 9.49365 1.79317 9.40523 1.64592 9.35044C1.49867 9.29619 1.28336 9.26039 1 9.24411V9.12965H7.04559C8.42074 9.12965 9.272 9.76542 9.272 10.725C9.272 11.8235 8.10512 12.3367 7.06203 12.3367H6.28176ZM6.28176 12.117H6.70358C7.42107 12.117 8.02475 11.7286 8.02475 10.7332C8.02475 9.51643 7.15589 9.34935 6.72528 9.34935H6.28176V12.117Z" fill="white"/>
<path d="M18.3634 11.812C18.3634 13.3857 19.3983 14.3556 20.703 14.3475C21.6816 14.3393 22.1932 13.8506 22.449 13.5815L22.5722 13.7036C22.1932 14.1847 21.4 14.8124 20.2625 14.8205C18.1991 14.8286 17 13.5327 17 11.8939C17 10.1737 18.4373 8.88536 20.3417 8.88536C21.329 8.88536 22.0084 9.12459 22.4226 9.33669V10.9966L22.246 10.9994C22.0049 10.0972 21.532 9.17883 20.4296 9.17883C19.3273 9.17883 18.3634 10.1488 18.3634 11.812Z" fill="white"/>
</svg>
