<svg width="24" height="24" viewBox="0 0 24 24" fill="none" xmlns="http://www.w3.org/2000/svg">
<path d="M0 0H24V24H0V0Z" fill="#E61D2B"/>
<path d="M16.4118 8.56309C16.4118 8.56309 15.9994 8.73754 15.5197 9.29929C15.0401 9.86104 14.7608 10.4927 14.9675 10.6607C15.0469 10.7246 15.23 10.7367 15.5623 10.4175C15.8689 10.1346 16.1096 9.77989 16.2655 9.38139C16.4801 8.82534 16.4118 8.56917 16.4118 8.56309ZM19.0367 9.5737C18.5038 9.28333 18.1143 8.92758 17.709 8.70751C17.3224 8.49657 17.0724 8.4084 16.7598 8.45287C16.7162 8.46113 16.6731 8.47255 16.631 8.48707C16.631 8.48707 16.792 9.07125 16.1514 10.0526C15.5026 11.0476 14.9138 11.0408 14.7464 10.7675C14.5712 10.479 14.7976 9.89107 15.1757 9.3677C15.5716 8.8204 16.2669 8.36659 16.2669 8.36659C16.2669 8.36659 16.0451 8.22254 15.5008 8.55054C14.9696 8.86905 14.0554 9.62919 13.207 10.9112C12.3587 12.1932 12.1906 12.8986 12.0689 13.4539C11.9473 14.0092 12.0579 14.604 12.6373 14.604C13.2167 14.604 13.8913 13.6648 14.0815 13.3383C14.4353 12.7302 14.666 11.7975 14.1846 11.9256C13.9474 11.9887 13.7554 12.2677 13.6341 12.5364C13.5576 12.709 13.499 12.89 13.4596 13.0761C13.2913 13.1498 13.1333 13.2475 12.9899 13.3665C12.8304 13.492 12.6813 13.6319 12.5443 13.7845C12.5443 13.7845 12.5464 13.3406 12.8794 12.6223C13.2124 11.9039 13.8237 11.5759 14.1699 11.5451C14.4818 11.5185 14.8877 11.7998 14.5437 12.8374C14.1996 13.875 13.1845 15.1365 12.1183 15.1521C11.1344 15.1665 10.4906 13.8321 11.8601 11.5033C13.3759 8.93062 15.1538 8.1412 15.7311 8.05341C16.3084 7.96561 16.4962 8.23622 16.4962 8.23622C16.8437 8.08473 17.219 8.01897 17.5938 8.04391C18.2988 8.09446 18.8439 8.62466 19.5635 8.99713C19.3765 9.18717 19.1976 9.38671 19.0367 9.5737ZM22.2038 8.70751C21.7153 9.04046 21.0393 9.34224 20.3897 9.27763C20.2252 9.45816 20.0492 9.6672 19.8729 9.89525C20.9992 10.132 21.986 9.39051 22.5107 8.7592C22.702 8.53223 22.8663 8.28115 23 8.0116C22.7611 8.276 22.4941 8.50958 22.2038 8.70751ZM20.7038 12.0795C20.7123 12.0638 20.7193 12.0471 20.7245 12.0297C20.7212 12.0023 20.7091 11.977 20.6903 11.9579C20.6715 11.9388 20.6471 11.9271 20.6211 11.9248C20.5138 11.9195 20.3676 11.9412 19.9838 12.3927C19.6654 12.7656 19.3914 13.1787 19.1679 13.6226C18.9483 14.0491 18.8593 14.3668 18.9855 14.4489C19.0266 14.4715 19.0741 14.4767 19.1186 14.4634C19.2041 14.4417 19.301 14.3566 19.4484 14.1753C19.5174 14.0901 19.5939 13.9696 19.6855 13.8362C19.9394 13.4691 20.5775 12.3133 20.7038 12.0795ZM16.7172 12.5706C16.7812 12.3927 16.8628 12.0434 16.6932 11.9062C16.5112 11.7607 16.0469 12.1023 16.0444 12.4528C16.0412 12.8116 16.3713 12.9738 16.4504 12.9967C16.4954 13.0096 16.5112 13.0077 16.533 12.9693C16.603 12.8411 16.6646 12.7079 16.7172 12.5706ZM16.366 13.2232C16.2509 13.1667 16.1436 13.094 16.0469 13.0069C15.95 12.9205 15.869 12.8157 15.808 12.6979C15.8016 12.6865 15.7951 12.6953 15.788 12.7055C15.7808 12.7158 15.7522 12.7435 15.5047 13.1289C15.2572 13.5143 14.877 14.3128 15.2211 14.4489C15.4414 14.536 15.808 14.1259 16.0079 13.8541C16.1442 13.6644 16.2676 13.4648 16.3774 13.2566C16.3878 13.2334 16.3771 13.2281 16.366 13.2232ZM20.2692 14.1456C20.1759 14.3045 20.0693 14.6093 20.3765 14.4196C20.7524 14.1889 21.2878 13.3258 21.2878 13.3258H21.5307C21.3097 13.6869 21.0637 14.0299 20.7946 14.352C20.4137 14.8005 19.9491 15.2079 19.6218 15.1676C19.2395 15.1201 19.3593 14.5869 19.3593 14.5869C19.3593 14.5869 18.8124 15.2056 18.434 15.1612C17.9229 15.1011 18.0788 14.4299 18.0788 14.4299C18.0788 14.4299 17.5009 15.1836 17.1071 15.1604C16.4897 15.1224 16.645 14.3243 16.8166 13.7621C16.9086 13.4615 16.9937 13.2255 16.9937 13.2255C16.9937 13.2255 16.9325 13.2426 16.8009 13.2635C16.7322 13.2737 16.607 13.2813 16.607 13.2813C16.607 13.2813 16.3499 13.7633 16.1442 14.0529C15.9386 14.3425 15.0644 15.3409 14.5501 15.141C14.0744 14.9563 14.2318 14.1825 14.5086 13.5675C14.9128 12.6709 16.0494 11.3829 16.705 11.5531C17.3846 11.7283 16.7204 13.0461 16.7204 13.0461C16.7204 13.0461 16.7204 13.051 16.7276 13.0544C16.7412 13.0597 16.7766 13.0639 16.8585 13.0468C16.9434 13.0284 17.0265 13.0021 17.1071 12.9681C17.1071 12.9681 17.7902 11.4478 18.5449 10.4532C19.2996 9.45854 20.805 7.74555 21.3959 8.15983C21.5389 8.26169 21.4745 8.6125 21.28 9.03818C21.1923 9.06843 21.1033 9.0938 21.0132 9.11419C21.1433 8.86296 21.2295 8.65126 21.2553 8.50342C21.3444 7.98955 20.2152 9.07353 19.4083 10.2381C18.9223 10.9401 18.4905 11.6828 18.1171 12.4588C18.2629 12.3644 18.402 12.2588 18.5334 12.143C18.8934 11.8259 19.2354 11.4865 19.5578 11.1267C19.8683 10.7889 20.1594 10.4318 20.4298 10.0572C20.5157 10.0527 20.6013 10.0434 20.6862 10.029C20.3915 10.4542 20.07 10.8577 19.7241 11.2369C19.4022 11.5828 19.0538 11.9549 18.7513 12.2251C18.481 12.4693 18.1959 12.6944 17.8979 12.899C17.8979 12.899 17.1922 14.4113 17.576 14.5082C17.8017 14.566 18.2473 13.8366 18.2473 13.8366C18.2473 13.8366 18.8289 12.8937 19.1794 12.4683C19.6576 11.8906 20.0693 11.5562 20.4806 11.5501C20.7202 11.5455 20.8615 11.8161 20.8615 11.8161L20.9742 11.6307H21.668C21.668 11.6307 20.3722 13.9674 20.2685 14.1433M22.2038 8.70751C21.7153 9.04046 21.0393 9.34224 20.3897 9.27763C20.2252 9.45816 20.0492 9.6672 19.8729 9.89525C20.9992 10.132 21.986 9.39051 22.5107 8.7592C22.702 8.53223 22.8663 8.28115 23 8.0116C22.7611 8.276 22.4941 8.50958 22.2038 8.70751ZM12.4588 9.85382H11.7989L11.4259 10.4942H12.0858L12.4588 9.85382ZM9.33422 12.0716C9.61498 11.6626 10.3897 10.2293 10.3897 10.2293C10.3864 10.202 10.3744 10.1766 10.3557 10.1575C10.3369 10.1384 10.3126 10.1267 10.2867 10.1244C10.1794 10.1191 10.0006 10.1575 9.64539 10.6299C9.29022 11.1024 9.01446 11.4783 8.81345 11.8694C8.59313 12.2962 8.49691 12.5972 8.62353 12.6789C8.66462 12.7008 8.71182 12.7059 8.75622 12.6934C8.83849 12.6713 8.94614 12.5835 9.09386 12.403C9.16325 12.3186 9.24194 12.205 9.33422 12.0716ZM5.7933 10.1332C5.61089 9.98684 5.14699 10.3293 5.14449 10.679C5.14163 11.0381 5.56189 11.148 5.61625 11.1506C5.63225 11.152 5.64828 11.1485 5.66239 11.1404C5.67209 11.1344 5.67983 11.1253 5.68457 11.1145C5.73398 11.0113 5.77839 10.9055 5.81762 10.7975C5.88164 10.6197 5.96284 10.2704 5.7933 10.1332ZM5.51825 11.3696C5.39247 11.3278 5.27227 11.269 5.16058 11.1947C5.05236 11.1197 4.96435 11.0161 4.90521 10.8941C4.89877 10.8827 4.89162 10.8914 4.88518 10.9017C4.87874 10.9119 4.84155 10.9614 4.59332 11.3483C4.3451 11.7352 3.97742 12.5265 4.32185 12.6626C4.54146 12.7511 4.91236 12.3376 5.11373 12.067C5.26442 11.8543 5.40366 11.6328 5.53077 11.4034C5.539 11.3802 5.53077 11.3749 5.51861 11.3707M10.908 11.6079H11.1497C11.1497 11.6079 9.93832 13.4702 9.2541 13.3836C8.87211 13.3361 8.98549 12.8351 8.98549 12.8351C8.98549 12.8351 8.44899 13.5025 7.95612 13.3672C7.50903 13.2452 7.79767 12.455 7.79767 12.455C7.74688 12.4767 6.77939 13.6356 6.09946 13.3577C5.38806 13.0658 5.75753 12.0955 5.89273 11.8036C6.00754 11.5577 6.13452 11.3182 6.13452 11.3182C6.13452 11.3182 6.02543 11.3509 5.95568 11.3677C5.88594 11.3844 5.78507 11.4057 5.78507 11.4057C5.78507 11.4057 5.44851 11.9868 5.24285 12.2768C5.03719 12.5668 4.16305 13.5633 3.64801 13.3649C3.13296 13.1665 3.26065 12.4007 3.55001 11.7926C4.01927 10.8063 5.13269 9.59423 5.80332 9.77818C6.48074 9.96176 5.91991 11.1293 5.91991 11.1293C5.91991 11.1293 6.05476 11.148 6.37773 10.9138C6.8427 10.5767 7.45646 9.66986 8.12101 9.77628C8.43432 9.82645 8.72618 10.1666 8.32702 10.8127C8.19969 11.0203 7.98616 11.2057 7.82271 11.0222C7.72077 10.9081 7.80983 10.7002 7.91678 10.5581C7.9584 10.5002 8.01279 10.454 8.07516 10.4236C8.13753 10.3933 8.20597 10.3797 8.27444 10.384C8.27444 10.384 8.38425 10.118 8.10491 10.1218C7.87886 10.1263 7.30659 10.6862 6.98362 11.2517C6.68747 11.7709 6.2386 12.6553 6.68926 12.848C7.10237 13.0252 7.88852 12.0335 8.25263 11.514C8.61673 10.9944 9.44652 9.81695 10.1425 9.76982C10.3822 9.7531 10.5249 9.98532 10.5249 9.98532L10.6054 9.85002H11.3014C11.3014 9.85002 9.99054 12.1746 9.88824 12.3505C9.80777 12.4881 9.70082 12.7975 9.99554 12.6242C10.2903 12.4509 10.908 11.6079 10.908 11.6079ZM10.5292 15.3326C10.0167 14.9556 9.40303 14.7653 8.78019 14.7902C8.6116 14.7951 8.44648 14.8422 8.29821 14.9275C8.14993 15.0129 8.02269 15.1342 7.92679 15.2817C7.6614 14.7895 7.1367 14.4873 6.32551 14.4941C5.01466 14.5101 3.71453 15.1524 2.68445 15.1517C1.69728 15.1517 0.977299 14.4922 1.00055 13.3212C1.04383 11.2662 2.67801 9.41559 3.89766 8.58285C4.60083 8.10434 5.18884 7.96219 5.57333 8.00818C5.85375 8.04125 6.19103 8.38559 5.97821 8.89299C5.66561 9.63452 5.23391 9.5737 5.25 9.2191C5.25894 8.98839 5.40344 8.8432 5.51217 8.76301C5.5812 8.71246 5.70317 8.69801 5.76683 8.69649C5.82871 8.641 5.87413 8.23508 5.3734 8.36849C4.87266 8.5019 4.26463 9.0264 3.68735 9.70407C3.11007 10.3817 2.21125 11.6626 1.98914 13.0077C1.88542 13.6314 1.95338 14.7689 3.34506 14.756C4.52537 14.7458 6.26506 13.9199 7.86384 13.937C8.4844 13.9434 9.02447 14.1213 9.44545 14.3972C9.85891 14.6678 10.3546 15.0631 10.5306 15.333" fill="white"/>
</svg>
