<svg width="24" height="24" viewBox="0 0 24 24" fill="none" xmlns="http://www.w3.org/2000/svg">
<path d="M0 0H24V24H0V0Z" fill="#132F57"/>
<path d="M20 10.028H14.4693C15.196 7.488 15.8533 5.33333 15.8533 5.33333C15.8533 5.33333 13.3653 7.80933 11.1533 10.028H2.77067C2.632 10.028 2.632 10.0933 2.77067 10.0933C2.83867 10.0933 10.736 10.4467 10.736 10.4467C9.008 12.1507 8.07467 13.116 8.04133 13.148C7.972 13.212 8.04133 13.2453 8.10933 13.18C8.144 13.148 9.38933 12.0867 11.152 10.4467L13.8813 10.4787C13.708 11.2187 13.572 11.8933 13.364 12.6973C10.0107 14.3707 4.55067 17.104 4.55067 17.104C4.48133 17.136 4.516 17.2 4.58533 17.168C4.62 17.136 9.7 14.756 13.26 13.084C12.6733 15.56 12.292 17.264 12.292 17.2973C12.2573 17.328 12.3267 17.36 12.3613 17.2973C12.3613 17.264 12.88 15.56 13.6413 12.9227C16.8187 11.412 20 10.028 20 10.028ZM11.6 10.028C13.26 8.51733 14.6427 7.29467 14.6427 7.29467C14.6427 7.29467 14.4 8.356 13.9867 10.028H11.6ZM14.332 10.4787L17.6493 10.544C17.6493 10.544 15.9907 11.38 13.7427 12.504C13.9507 11.7973 14.124 11.1867 14.332 10.4787Z" fill="white"/>
</svg>
