<svg width="24" height="24" viewBox="0 0 24 24" fill="none" xmlns="http://www.w3.org/2000/svg">
<path d="M11.9896 0C5.35882 0 0 5.38435 0 12C0 18.6365 5.37967 24 11.9896 24C18.6203 24 24 18.6157 24 12C24 5.38435 18.6203 0 11.9896 0Z" fill="#D00A2C"/>
<path d="M20.3718 17.3426C19.9131 17.5722 19.0374 17.9478 18.2867 17.9478C17.9114 17.9478 17.5569 17.8435 17.2024 17.593C15.2632 16.2991 15.9305 14.7548 17.2441 12.3548C17.8071 11.3322 18.391 10.2887 18.6412 9.20348C18.9123 8.03478 19.1625 6.34435 18.1616 5.05044C17.682 4.44522 16.9731 3.98609 16.0139 3.67304C15.0339 3.33913 13.7619 3.17217 12.2398 3.1513H11.7394C10.2172 3.17217 8.94526 3.33913 7.96525 3.67304C7.00608 3.98609 6.29713 4.44522 5.81755 5.05044C4.81668 6.34435 5.0669 8.03478 5.33797 9.20348C5.58818 10.2887 6.17202 11.3322 6.73501 12.3548C8.0695 14.7548 8.7159 16.2991 6.77672 17.593C6.42224 17.8226 6.06777 17.9478 5.69244 17.9478C4.94179 17.9478 4.06603 17.5722 3.6073 17.3426L3.71156 17.5513C4.67072 18.9913 5.90096 19.7635 7.27715 19.7635C7.88184 19.7635 8.50739 19.6174 9.15378 19.3252C9.84188 19.0122 10.4466 18.4696 10.8636 17.76C11.2806 17.0504 11.4266 16.2783 11.3223 15.6104C11.1764 15.0052 10.8636 14.1913 10.4883 13.2313C9.52911 10.7478 8.21546 7.36696 9.36229 5.71826C9.84188 5.02957 10.6968 4.67478 11.9896 4.67478C13.2824 4.67478 14.1373 5.02957 14.6169 5.71826C15.7428 7.36696 14.4292 10.7478 13.4909 13.2313C13.1156 14.1913 12.8028 15.0052 12.6568 15.6104C12.5317 16.2991 12.6985 17.0713 13.1156 17.7809C13.5326 18.4904 14.1373 19.0539 14.8254 19.3461C15.4718 19.6383 16.1182 19.7843 16.702 19.7843C18.0782 19.7843 19.3084 19.0122 20.2676 17.5722L20.3718 17.3426Z" fill="white"/>
</svg>
