<svg width="24" height="24" viewBox="0 0 24 24" fill="none" xmlns="http://www.w3.org/2000/svg">
<path d="M0 0H24V24H0V0Z" fill="black"/>
<path d="M14.7056 7.323H9.29916V17.0374H14.7056V7.323Z" fill="#FF5F00"/>
<path d="M9.64242 12.1802C9.64242 10.2923 10.5178 8.49011 11.9938 7.323C9.31632 5.21192 5.42025 5.67533 3.30917 8.36996C1.21524 11.0474 1.67865 14.9263 4.37329 17.0374C6.62168 18.8053 9.76257 18.8053 12.011 17.0374C10.5178 15.8703 9.64242 14.0682 9.64242 12.1802Z" fill="#EB001B"/>
<path d="M22 12.1802C22 15.5957 19.2367 18.359 15.8212 18.359C14.431 18.359 13.0922 17.8956 12.011 17.0374C14.6884 14.9263 15.1518 11.0474 13.0408 8.3528C12.7318 7.97521 12.3886 7.61478 12.011 7.323C14.6884 5.21192 18.5845 5.67533 20.6784 8.36996C21.5366 9.45125 22 10.79 22 12.1802Z" fill="#F79E1B"/>
</svg>
