<svg width="24" height="24" viewBox="0 0 24 24" fill="none" xmlns="http://www.w3.org/2000/svg">
<path d="M2.07897 24C2.07897 24 0 24 0 21.921V2.07901C0 2.07901 0 0 2.07897 0H21.921C21.921 0 24 0 24 2.07901V21.921C24 21.921 24 24 21.921 24H2.07897Z" fill="#DB0007"/>
<path d="M15.4866 4.9321C14.0786 4.9321 12.8229 6.80817 12.0012 9.7414C11.1799 6.80817 9.9237 4.9321 8.51569 4.9321C6.04108 4.9321 4.03424 11.174 4.03424 18.8733H6.02618C6.02618 11.724 7.14114 5.92802 8.51569 5.92802C9.89023 5.92802 11.0054 11.2782 11.0054 17.8776H12.997C12.997 11.2782 14.1116 5.92802 15.4865 5.92802C16.8613 5.92802 17.9763 11.7239 17.9763 18.8733H19.9676C19.9676 11.174 17.9614 4.9321 15.4866 4.9321Z" fill="#FFBC0D"/>
</svg>
