<svg width="24" height="24" viewBox="0 0 24 24" fill="none" xmlns="http://www.w3.org/2000/svg">
<path d="M0 0H24V24H0V0Z" fill="white"/>
<path d="M2.69274 14.4979C2.69274 15.4033 2.89138 16.0983 3.15113 16.5187C3.49175 17.0696 3.99966 17.3027 4.51731 17.3027C5.18513 17.3027 5.79604 17.137 6.9736 15.5087C7.91671 14.2036 9.02815 12.3714 9.77605 11.2229L11.0424 9.2771C11.922 7.92567 12.9405 6.42355 14.108 5.40536C15.0611 4.57421 16.0893 4.11267 17.1241 4.11267C18.8612 4.11267 20.5161 5.11927 21.7825 7.00759C23.1684 9.07531 23.8412 11.6799 23.8412 14.3678C23.8412 15.9658 23.5262 17.1397 22.9903 18.0672C22.4724 18.9642 21.4635 19.8604 19.7656 19.8604V17.3027C21.2192 17.3027 21.582 15.9671 21.582 14.4384C21.582 12.26 21.0741 9.8427 19.9553 8.11534C19.1613 6.89009 18.1323 6.1414 17.0003 6.1414C15.7758 6.1414 14.7906 7.06475 13.6834 8.7115C13.0946 9.58638 12.4902 10.6525 11.8116 11.8554L11.0645 13.1786C9.56398 15.8393 9.18384 16.4452 8.43357 17.4455C7.11849 19.1968 5.99546 19.8604 4.51731 19.8604C2.76361 19.8604 1.65454 19.1009 0.967755 17.9566C0.40716 17.0243 0.131868 15.8006 0.131868 14.4065L2.69274 14.4979Z" fill="#0081FB"/>
<path d="M2.15112 7.18804C3.32526 5.37823 5.01969 4.11267 6.9628 4.11267C8.08821 4.11267 9.20703 4.44566 10.3754 5.39983C11.6533 6.44278 13.0155 8.16039 14.7147 10.9908L15.324 12.0066C16.7951 14.4571 17.6318 15.7176 18.1215 16.3122C18.7514 17.0756 19.1926 17.3027 19.7656 17.3027C21.2192 17.3027 21.582 15.9671 21.582 14.4384L23.8412 14.3678C23.8412 15.9658 23.5262 17.1397 22.9903 18.0672C22.4724 18.9642 21.4635 19.8604 19.7656 19.8604C18.7103 19.8604 17.7753 19.6312 16.7413 18.6557C15.9465 17.907 15.0174 16.5772 14.3024 15.3817L12.1762 11.8298C11.1093 10.0471 10.1306 8.71809 9.56425 8.11613C8.95492 7.46887 8.17172 6.68725 6.92171 6.68725C5.91011 6.68725 5.05104 7.39721 4.33185 8.4831L2.15112 7.18804Z" fill="url(#paint0_linear_1_48)"/>
<path d="M6.92171 6.68725C5.91011 6.68725 5.05104 7.39721 4.33185 8.4831C3.31525 10.0176 2.69274 12.3029 2.69274 14.4979C2.69274 15.4033 2.89138 16.0983 3.15113 16.5187L0.967755 17.9566C0.40716 17.0243 0.131868 15.8006 0.131868 14.4065C0.131868 11.8712 0.82787 9.22863 2.15112 7.18804C3.32526 5.37823 5.01969 4.11267 6.9628 4.11267L6.92171 6.68725Z" fill="url(#paint1_linear_1_48)"/>
<defs>
<linearGradient id="paint0_linear_1_48" x1="3.45264" y1="11.3781" x2="21.5381" y2="12.0413" gradientUnits="userSpaceOnUse">
<stop stop-color="#0064E1"/>
<stop offset="0.4" stop-color="#0064E1"/>
<stop offset="0.83" stop-color="#0073EE"/>
<stop offset="1" stop-color="#0082FB"/>
</linearGradient>
<linearGradient id="paint1_linear_1_48" x1="3.54739" y1="15.5731" x2="3.54739" y2="9.55426" gradientUnits="userSpaceOnUse">
<stop stop-color="#0082FB"/>
<stop offset="1" stop-color="#0064E0"/>
</linearGradient>
</defs>
</svg>
