<svg width="24" height="24" viewBox="0 0 24 24" fill="none" xmlns="http://www.w3.org/2000/svg">
<path d="M0 0H24V24H0V0Z" fill="#007A73"/>
<path d="M7.4996 7.50009C7.4996 5.01459 9.51456 3 11.9996 3C14.4854 3 16.4996 5.01459 16.4996 7.50009H7.4996ZM7.4996 16.4999C7.4996 14.0148 9.51456 11.9998 11.9996 11.9998C9.51456 11.9998 7.4996 9.98559 7.4996 7.50009C5.01456 7.50009 3 9.5147 3 11.9998C3 14.4857 5.01456 16.4999 7.4996 16.4999ZM7.4996 16.4999C7.4996 18.9858 9.51456 21 11.9996 21C14.4854 21 16.4996 18.9858 16.4996 16.4999H7.4996ZM11.9996 11.9998C14.4854 11.9998 16.4996 14.0148 16.4996 16.4999C18.985 16.4999 21 14.4857 21 11.9998C21 9.5147 18.985 7.50009 16.4996 7.50009C16.4996 9.98559 14.4854 11.9998 11.9996 11.9998Z" fill="white"/>
</svg>
