<svg width="24" height="24" viewBox="0 0 24 24" fill="none" xmlns="http://www.w3.org/2000/svg">
<path d="M0 0H24V24H0V0Z" fill="#002C51"/>
<path d="M3.17546 7V11.0102H3.64948V7.34355L3.66229 7.35605L4.7897 11.0102H5.15482L6.28863 7.35605L6.29503 7.34355V11.0102H6.76905V7H5.98115L4.97546 10.2232V10.2357L4.96905 10.2232L3.96336 7H3.17546ZM8.69076 7.98694C8.29161 7.98694 7.95331 8.14377 7.7171 8.43668C7.49787 8.71005 7.3776 9.09623 7.3776 9.52357C7.3776 9.9513 7.49787 10.3368 7.7171 10.6104C7.95332 10.9041 8.29161 11.0602 8.69076 11.0602C9.09155 11.0602 9.42883 10.9041 9.66443 10.6104C9.88368 10.3368 10.0039 9.9513 10.0039 9.52357C10.0039 9.09623 9.88368 8.71005 9.66443 8.43668C9.42883 8.14377 9.09155 7.98694 8.69076 7.98694ZM13.5463 7.99943C13.0115 7.99943 12.2523 8.35033 12.2523 9.52981C12.2523 10.675 13.0091 11.0602 13.5207 11.0602C13.8192 11.0602 14.0905 10.8989 14.2765 10.6667L14.3022 10.6542V11.2164C14.3022 11.6106 13.9522 11.8535 13.5783 11.8535C13.2148 11.8535 12.893 11.7858 12.6303 11.6661V12.0659C12.8515 12.1583 13.2116 12.2158 13.5207 12.2158C14.3621 12.2158 14.7634 11.7642 14.7634 11.1102V8.05565H14.411L14.3086 8.36797C14.1347 8.14701 13.907 7.99943 13.5463 7.99943ZM16.6082 7.99943C15.935 7.99943 15.6162 8.39269 15.4808 8.63657L15.8587 8.83021C15.9118 8.69086 16.1027 8.36797 16.6146 8.36797C17.0182 8.36797 17.2231 8.54168 17.2231 8.88643V8.99262C17.2231 8.99262 17.2265 9.0249 17.2167 9.03634C17.2017 9.0548 17.1592 9.06989 17.0566 9.08007C16.4915 9.14155 16.1158 9.23206 15.8395 9.40488C15.5396 9.59289 15.3527 9.85612 15.3527 10.2169C15.3527 10.4732 15.48 10.692 15.6473 10.8478C15.803 10.9913 16.0151 11.066 16.2495 11.0727C16.7484 11.0883 17.0769 10.8858 17.236 10.6479C17.2483 10.8114 17.3084 10.9047 17.4409 10.9727C17.5654 11.0376 17.7697 11.0247 17.8573 11.004V10.6917C17.7516 10.6865 17.6844 10.6375 17.6844 10.5105V8.89268C17.6844 8.59748 17.5655 8.35534 17.3384 8.19932C17.1512 8.06975 16.8896 7.99943 16.6082 7.99943ZM19.8687 7.99943C19.5602 7.99943 19.2445 8.15527 18.9783 8.44918V8.05565H18.5043V11.0165H18.9783V8.81772C19.1396 8.64965 19.5011 8.36797 19.8303 8.36797C20.1602 8.36797 20.3043 8.52579 20.3043 8.88018V11.0165H20.7783V8.86769C20.7783 8.22798 20.3118 7.99943 19.8687 7.99943ZM12.073 8.01192C11.592 8.01192 11.307 8.19375 11.0609 8.62408V8.05565H10.5868V11.0102H11.0609V9.33617C11.1779 8.72803 11.5081 8.44293 12.073 8.44293V8.01192ZM8.69076 8.35548C9.20107 8.35548 9.50429 8.79226 9.50429 9.52357C9.50428 10.2551 9.20107 10.6917 8.69076 10.6917C8.18128 10.6917 7.87724 10.2551 7.87724 9.52357C7.87724 8.79226 8.18128 8.35548 8.69076 8.35548ZM13.5783 8.36173C13.8457 8.36173 14.0805 8.47441 14.3022 8.74276V10.1545C14.1795 10.495 13.8281 10.6917 13.5783 10.6917C13.0895 10.6917 12.752 10.3948 12.752 9.50483C12.752 8.75646 13.0549 8.36173 13.5783 8.36173ZM17.236 9.40488V10.1545C17.2141 10.4132 16.7182 10.7265 16.3135 10.7041C16.0903 10.6922 15.8752 10.5169 15.8523 10.2294C15.8153 9.74899 16.1855 9.54953 17.0118 9.4611C17.0692 9.45597 17.1805 9.43607 17.236 9.40488Z" fill="white"/>
<path d="M14.3765 12.6843V16.3759C14.3765 16.5583 14.4743 16.6649 14.5751 16.732C14.6832 16.8027 14.8418 16.8382 15.0555 16.8382C15.1907 16.8382 15.3694 16.7944 15.3694 16.7944V16.4634C15.3158 16.4666 15.2683 16.4696 15.2157 16.4696C14.8975 16.4696 14.8505 16.3484 14.8505 16.2135V12.6843H14.3765ZM4.36441 12.7217C4.00713 12.7217 3.68413 12.831 3.4548 13.0278C3.23211 13.2198 3.1089 13.4847 3.1089 13.7712C3.1089 14.0866 3.23981 14.3331 3.51246 14.527C3.75292 14.6982 4.07098 14.8088 4.37723 14.9143C4.90959 15.0989 5.40854 15.2674 5.40854 15.7388C5.40854 15.9484 5.33541 16.1281 5.19715 16.251C5.04513 16.3861 4.82642 16.4509 4.53737 16.4509C4.03073 16.4509 3.66189 16.1773 3.4548 15.6451L3 15.7638C3.09796 15.9796 3.26458 16.2911 3.50605 16.5009C3.7708 16.7325 4.09945 16.8444 4.51174 16.8444C4.99999 16.8444 5.37062 16.7216 5.61352 16.4759C5.86534 16.2201 5.921 15.8927 5.921 15.6638C5.921 15.3359 5.77884 15.0827 5.49181 14.883C5.24123 14.7077 4.91697 14.5948 4.60142 14.4895C4.08728 14.3181 3.59668 14.1549 3.60213 13.7337C3.60395 13.5373 3.6738 13.3844 3.80071 13.2777C3.93005 13.1693 4.11439 13.1153 4.3516 13.1153C4.60076 13.1153 4.82293 13.1832 4.99217 13.3152C5.14781 13.4354 5.26106 13.6137 5.31246 13.8149L5.75445 13.7587C5.56054 13.114 5.08662 12.7217 4.36441 12.7217ZM6.67046 12.8592V13.8211H6.21566V14.1897H6.67046C6.67046 14.1897 6.67046 16.2509 6.67046 16.3759C6.67046 16.5583 6.75561 16.6649 6.85623 16.732C6.96451 16.8027 7.12268 16.8382 7.33665 16.8382C7.47204 16.8382 7.65694 16.7944 7.65694 16.7944V16.4634C7.60431 16.4666 7.54922 16.4696 7.4968 16.4696C7.1782 16.4696 7.14448 16.3484 7.14448 16.2135V14.1897H7.65694V13.8211H7.14448V12.8592H6.67046ZM16.9644 13.7712C16.7618 13.7712 16.5734 13.8075 16.4135 13.8773C16.257 13.9461 16.118 14.0497 16.01 14.1834C15.795 14.4459 15.6705 14.8356 15.6705 15.3078C15.6705 15.8332 15.8253 16.2342 16.106 16.5009C16.4022 16.7827 16.7795 16.8382 17.0413 16.8382C17.7214 16.8382 18.0551 16.4793 18.1943 16.1511L17.8164 15.9699C17.7245 16.1698 17.5133 16.4759 17.0413 16.4759C16.7715 16.4759 16.5508 16.3681 16.3943 16.1698C16.2431 15.9778 16.1581 15.7121 16.1573 15.3952H18.2327V15.1141C18.2327 14.6286 18.1001 14.2665 17.8548 14.046C17.6459 13.8587 17.3529 13.7712 16.9644 13.7712ZM9.37367 13.7774C8.70081 13.7774 8.38211 14.1707 8.24626 14.4145L8.6242 14.6082C8.67744 14.4688 8.86816 14.1459 9.38007 14.1459C9.78366 14.1459 9.98861 14.3196 9.98861 14.6644V14.7706C9.98861 14.7706 9.98531 14.8029 9.9758 14.8143C9.96101 14.8328 9.9251 14.8479 9.82206 14.858C9.25692 14.9194 8.88127 15.01 8.60498 15.1829C8.3052 15.3709 8.11815 15.6341 8.11815 15.9949C8.11815 16.2512 8.24519 16.4698 8.41281 16.6258C8.56847 16.7693 8.78075 16.844 9.01495 16.8507C9.51349 16.8663 9.84233 16.6638 10.0014 16.4259C10.014 16.5893 10.0736 16.6827 10.2064 16.7507C10.3307 16.8155 10.5349 16.8027 10.6228 16.7819V16.4696C10.5173 16.4645 10.4498 16.4155 10.4498 16.2885V14.6706C10.4498 14.3754 10.3248 14.1333 10.0975 13.9773C9.91008 13.8477 9.65483 13.7774 9.37367 13.7774ZM12.6342 13.7774C12.3248 13.7774 12.0099 13.9332 11.7438 14.2271V13.8336H11.2698V16.7944H11.7438V14.5957C11.9053 14.4275 12.2662 14.1459 12.5957 14.1459C12.9251 14.1459 13.0698 14.3038 13.0698 14.6581V16.7944H13.5438V14.6457C13.5438 14.0059 13.0772 13.7774 12.6342 13.7774ZM18.553 13.8274L19.61 16.7632V16.7882C19.5468 17.0696 19.3641 17.4169 19.2 17.5253C19.055 17.6212 18.8981 17.6315 18.7772 17.6315C18.7189 17.6315 18.5984 17.6123 18.5466 17.6002V17.9563C18.6122 17.972 18.7635 18 18.8605 18C19.0864 18 19.2769 17.9449 19.437 17.8313C19.6287 17.6955 19.8411 17.3413 19.9431 17.038L21 13.8274H20.5388L19.847 16.1011L19.8406 16.151L19.8278 16.1011L19.0142 13.8274H18.553ZM16.9772 14.1397C17.5203 14.1397 17.7631 14.4197 17.7651 15.0267H16.1701C16.2114 14.4202 16.472 14.1397 16.9772 14.1397ZM10.0014 15.1829V15.9324C9.97957 16.1911 9.48364 16.5044 9.079 16.4821C8.85613 16.4701 8.64004 16.2948 8.61779 16.0074C8.58016 15.527 8.95076 15.3275 9.77723 15.2391C9.83431 15.2339 9.94636 15.214 10.0014 15.1829Z" fill="white"/>
</svg>
