<svg width="24" height="24" viewBox="0 0 24 24" fill="none" xmlns="http://www.w3.org/2000/svg">
<path d="M0 0H24V24H0V0Z" fill="white"/>
<path d="M1.01013 13.3068V10.6524H3.13305V10.8635H1.24427V11.8269H3.05626V12.0382H1.24427V13.0958H3.15466V13.3068H1.01013ZM5.58243 13.3068L3.68068 11.001V13.3068H3.44634V10.6525H3.70695L5.60883 12.9587V10.6525H5.8429V13.3068H5.58243ZM6.28768 13.3068V10.6525H8.41047V10.8636H6.52169V11.8271H8.33382V12.038H6.52169V13.0958H8.43248V13.3068H6.28768ZM10.8151 13.3069L10.8056 13.2981C10.7396 13.2277 10.7365 13.0707 10.7221 12.6728C10.7166 12.4505 10.6773 12.3177 10.5867 12.2402C10.4963 12.1614 10.3393 12.1283 10.0844 12.1287H8.95789V13.3069H8.72382V10.6526H10.0879C10.3406 10.6526 10.5663 10.6877 10.733 10.7966C10.9002 10.9058 11.0007 11.0918 10.9998 11.3709C11.0007 11.6221 10.8602 11.8942 10.5553 12.0104C10.8133 12.0864 10.9546 12.2997 10.9561 12.5557C10.9629 13.0265 10.9797 13.1768 11.0252 13.2581L11.0516 13.3069H10.8151ZM10.0588 11.9175C10.1401 11.9177 10.3205 11.9169 10.4767 11.8466C10.6323 11.7751 10.7646 11.6439 10.7658 11.3599C10.7643 10.9632 10.4686 10.8677 10.1025 10.8637H8.95796V11.9175H10.0588Z" fill="black"/>
<path d="M10.855 7.06667V7.27756H9.80483V9.72077H9.57083V7.27756H8.52055V7.06801L7.42961 8.37167L8.55836 9.72077H8.24953L7.27327 8.55026L6.2862 9.72077H5.98803L7.12064 8.37167L6.02862 7.06667H6.3409L7.2736 8.19005L8.22421 7.06667H10.855ZM3.84121 9.72077V7.06667H5.96413V7.27756H4.07528V8.24108H5.88741V8.45217H4.07528V9.50989H5.98601V9.72084L3.84121 9.72077ZM3.13595 9.72077L1.23414 7.41513V9.72077H1V7.06667H1.26021L3.16222 9.37245V7.06667H3.39657V9.72077H3.13595Z" fill="#7AC143"/>
<path d="M19.7596 10.6333C19.7596 10.6333 19.8238 10.8086 19.8318 11.0474L18.7663 12.2817L20.24 11.1748L20.3122 11.5172C20.3122 11.5172 19.1909 12.7834 18.9186 13.1417C18.9186 13.1417 20.348 11.9656 21.1468 11.4906C20.7944 10.8433 20.1057 10.4038 19.3133 10.4038C18.1623 10.4038 17.2291 11.3315 17.2291 12.4759C17.2291 12.5075 17.2325 12.5384 17.234 12.5698C17.6969 12.171 18.9442 11.1186 19.7596 10.6333ZM21.3973 12.5257C21.3971 12.3247 21.3675 12.1249 21.3095 11.9324C20.8283 12.1865 19.6855 12.8157 18.8652 13.4731C19.5564 13.5679 20.2436 13.6899 20.9251 13.8389C21.2311 13.4689 21.3981 13.0046 21.3973 12.5257Z" fill="#0096D6"/>
<path d="M19.7997 11.8141C19.7997 11.8141 18.6221 12.7219 18.462 12.8733L18.3016 12.5785C18.3016 12.5785 19.1108 11.5752 19.375 11.3124C19.375 11.3124 17.9343 12.332 17.2728 12.948C17.299 13.0728 17.3369 13.195 17.3858 13.3129C17.7408 13.3408 18.0999 13.3773 18.4632 13.4212C18.4886 13.3907 19.6568 11.9953 19.7997 11.8141Z" fill="#0096D6"/>
<path d="M12.7069 13.3648C12.3043 13.3648 11.9491 13.2383 11.6946 13.0006C11.4398 12.7631 11.2877 12.4148 11.2879 11.9796C11.2881 11.6588 11.3977 11.3135 11.6307 11.0467C11.8632 10.7802 12.2205 10.5943 12.707 10.5946C13.3552 10.593 13.8452 10.9158 13.9754 11.49L13.9846 11.5303H13.7487L13.7428 11.5047C13.6374 11.0445 13.2191 10.8067 12.707 10.8054C11.981 10.8064 11.5234 11.3428 11.522 11.9795C11.5242 12.6148 11.9257 13.1522 12.707 13.1538C13.337 13.1515 13.7402 12.7821 13.7942 12.1612H12.7502V11.9501H14.0326L14.0311 11.9849C14.0203 12.2012 13.9555 12.4791 13.8927 12.655C13.69 13.1327 13.2168 13.3648 12.7086 13.3648H12.7069ZM15.4106 13.2455C15.3651 13.2453 15.3197 13.2446 15.2745 13.2446C15.2644 13.2446 15.2539 13.2449 15.2432 13.245H15.21L15.2097 12.1978L13.9672 10.6525H14.2856L15.3271 11.977L16.3904 10.6525H16.6869L15.4441 12.1978V13.2457L15.4106 13.2455Z" fill="black"/>
<path d="M20.8415 13.9336C20.0795 13.7691 19.3105 13.6383 18.5369 13.5416C17.4781 13.4095 16.412 13.3429 15.3449 13.3425C8.63502 13.3427 3.74909 15.9791 2.10951 17C7.43508 14.611 12.401 13.917 16.374 13.917C19.7764 13.917 22.4504 14.4258 24 14.8156C22.9221 14.4459 21.8685 14.1554 20.8415 13.9336Z" fill="#7AC143"/>
<path d="M13.6746 8.47009C13.6746 7.71074 13.2757 7.0002 12.2341 7.0002C11.4009 7.0002 10.8203 7.55377 10.8203 8.42115C10.8203 9.11229 11.2147 9.79315 12.2741 9.79315C13.1697 9.79315 13.4886 9.21984 13.6218 8.93074H12.9565C12.8368 9.14639 12.6595 9.30316 12.2561 9.30316C11.649 9.30316 11.4778 8.83285 11.4583 8.56805H13.6745L13.6746 8.47009ZM11.4584 8.13694C11.5604 7.60755 11.9594 7.46078 12.2427 7.46078C12.5442 7.46078 12.9608 7.61742 13.0365 8.13694H11.4584ZM18.3938 9.24703C18.3428 9.23441 18.2718 9.23468 18.2718 9.09402V7.87644C18.2718 7.54182 18.2368 7.01303 17.0213 7.01303C16.3322 7.01303 15.8802 7.22143 15.7926 7.89571H16.3848C16.4066 7.60963 16.6216 7.46897 17.0213 7.46897C17.372 7.46897 17.6794 7.54182 17.6794 7.83757C17.6794 8.03644 17.5869 8.07054 16.7181 8.16279C16.3322 8.2016 15.6742 8.26471 15.6742 8.97297C15.6742 9.47746 16.016 9.77804 16.6216 9.77804C17.3017 9.77804 17.596 9.5501 17.7148 9.42408C17.7319 9.52103 17.7758 9.75401 18.1709 9.75401C18.2698 9.75401 18.4419 9.74608 18.5224 9.73521L18.524 9.26825C18.4442 9.26147 18.4299 9.2561 18.3938 9.24703ZM17.6662 8.64781C17.6662 9.21541 17.1178 9.35117 16.7926 9.35117C16.5868 9.35117 16.3058 9.28819 16.3058 8.9484C16.3058 8.73019 16.4154 8.6184 16.8722 8.5606C17.3017 8.50715 17.4904 8.48298 17.6662 8.40033V8.64781ZM15.6643 7.02504C15.5829 7.01007 15.6287 7 15.5332 7C15.054 7 14.7963 7.28501 14.6288 7.58512H14.62V7.0703H13.9956V9.72003H14.62V8.44008C14.62 7.82522 15.0675 7.64018 15.3839 7.64018C15.4312 7.64018 15.6077 7.64152 15.6618 7.64736L15.6643 7.02504Z" fill="#0096D6"/>
<path d="M14.1026 15.167H14.4709C14.6169 15.167 14.7352 15.2395 14.7352 15.4342C14.7352 15.5678 14.6753 15.6709 14.5614 15.6884V15.6912C14.6652 15.7014 14.7193 15.7582 14.7251 15.9034C14.7265 15.9702 14.7282 16.0515 14.7309 16.114C14.734 16.1648 14.7587 16.1896 14.7806 16.204H14.5922C14.5762 16.1851 14.5687 16.1532 14.5645 16.1125C14.5586 16.05 14.5602 15.9918 14.5571 15.9165C14.5542 15.8032 14.519 15.7538 14.4052 15.7538H14.2693V16.204H14.1026V15.167ZM14.4023 15.6289C14.5088 15.6289 14.5687 15.5649 14.5687 15.4603C14.5687 15.35 14.5205 15.2919 14.4108 15.2919H14.2692V15.6289H14.4023ZM14.96 15.167H15.524V15.3065H15.1266V15.594H15.5008V15.7335H15.1266V16.0645H15.5359V16.204H14.96V15.167ZM15.8642 15.9092C15.8642 16.0355 15.9198 16.0994 16.0353 16.0994C16.1405 16.0994 16.193 16.0253 16.193 15.9484C16.193 15.8394 16.1376 15.7914 16.0441 15.7639L15.93 15.7247C15.7783 15.6667 15.7125 15.5882 15.7125 15.4399C15.7125 15.2513 15.8409 15.1467 16.0368 15.1467C16.3041 15.1467 16.3318 15.3122 16.3318 15.4196V15.4429H16.1652V15.4211C16.1652 15.3267 16.123 15.2715 16.0191 15.2715C15.9475 15.2715 15.879 15.3106 15.879 15.4211C15.879 15.5097 15.9243 15.5546 16.0353 15.5968L16.1477 15.6375C16.2954 15.6898 16.3595 15.7696 16.3595 15.9119C16.3595 16.1328 16.2251 16.2243 16.0148 16.2243C15.7563 16.2243 15.6978 16.0529 15.6978 15.9077V15.8829H15.8642V15.9092ZM16.5144 15.6855C16.5144 15.3151 16.6197 15.1466 16.8591 15.1466C17.099 15.1466 17.204 15.3151 17.204 15.6855C17.204 16.0559 17.0989 16.2243 16.8591 16.2243C16.6196 16.2243 16.5144 16.0559 16.5144 15.6855ZM17.0375 15.6812C17.0375 15.3325 16.9585 15.2716 16.859 15.2716C16.7598 15.2716 16.6809 15.3325 16.6809 15.6812C16.6809 16.0383 16.7598 16.0995 16.859 16.0995C16.9585 16.0995 17.0375 16.0383 17.0375 15.6812ZM17.578 15.167V15.9107C17.578 16.0412 17.6306 16.0994 17.7313 16.0994C17.8307 16.0994 17.8832 16.0412 17.8832 15.9107V15.167H18.0498V15.8976C18.0498 16.1373 17.9301 16.2243 17.7313 16.2243C17.5314 16.2243 17.4115 16.1373 17.4115 15.8976V15.167H17.578ZM18.2818 15.167H18.65C18.7961 15.167 18.9143 15.2395 18.9143 15.4342C18.9143 15.5678 18.8544 15.6709 18.7405 15.6884V15.6912C18.8443 15.7014 18.8984 15.7582 18.9042 15.9034C18.9057 15.9702 18.9073 16.0515 18.9101 16.114C18.913 16.1648 18.9378 16.1896 18.9598 16.204H18.7711C18.7551 16.1851 18.7478 16.1532 18.7435 16.1125C18.7377 16.05 18.7393 15.9918 18.7362 15.9165C18.7333 15.8032 18.6984 15.7538 18.5843 15.7538H18.4484V16.204H18.2818V15.167ZM18.5814 15.6289C18.688 15.6289 18.7479 15.5649 18.7479 15.4603C18.7479 15.35 18.6997 15.2919 18.5901 15.2919H18.4484V15.6289H18.5814ZM19.7583 15.8321V15.8539C19.7583 16.0413 19.6825 16.2243 19.4371 16.2243C19.174 16.2243 19.0922 16.0559 19.0922 15.6855C19.0922 15.3152 19.1741 15.1466 19.4384 15.1466C19.735 15.1466 19.7525 15.3644 19.7525 15.472V15.4908H19.5861V15.4734C19.5861 15.3776 19.5568 15.2671 19.4371 15.2715C19.3142 15.2715 19.2588 15.347 19.2588 15.6811C19.2588 16.0153 19.3142 16.0995 19.4371 16.0995C19.5756 16.0995 19.5919 15.9453 19.5919 15.8494V15.832L19.7583 15.8321ZM19.9481 15.167H20.5121V15.3065H20.1148V15.594H20.4887V15.7335H20.1148V16.0645H20.524V16.204H19.9481V15.167ZM20.8523 15.9092C20.8523 16.0355 20.908 16.0994 21.0234 16.0994C21.1285 16.0994 21.181 16.0253 21.181 15.9484C21.181 15.8394 21.1256 15.7914 21.0322 15.7639L20.9181 15.7247C20.7663 15.6667 20.7005 15.5882 20.7005 15.4399C20.7005 15.2513 20.829 15.1467 21.025 15.1467C21.2922 15.1467 21.32 15.3122 21.32 15.4196V15.4429H21.1533V15.4211C21.1533 15.3267 21.1111 15.2715 21.0073 15.2715C20.9356 15.2715 20.8671 15.3106 20.8671 15.4211C20.8671 15.5097 20.9123 15.5546 21.0234 15.5968L21.1359 15.6375C21.2835 15.6898 21.3476 15.7696 21.3476 15.9119C21.3476 16.1328 21.2132 16.2243 21.0029 16.2243C20.7444 16.2243 20.686 16.0529 20.686 15.9077V15.8829H20.8523V15.9092Z" fill="black"/>
</svg>
