<svg width="24" height="24" viewBox="0 0 24 24" fill="none" xmlns="http://www.w3.org/2000/svg">
<path d="M0 0H24V24H0V0Z" fill="black"/>
<path d="M6.65461 14.998C6.20767 14.9814 5.84201 14.867 5.55609 14.6545C5.50153 14.6139 5.3715 14.4923 5.32788 14.4409C5.21194 14.3046 5.13311 14.1719 5.08053 14.0246C4.91875 13.5714 5.00201 12.9767 5.3187 12.3239C5.58984 11.7651 6.00824 11.2109 6.73818 10.4433C6.84571 10.3303 7.16591 10 7.16798 10C7.16798 10 7.1513 10.0283 7.12933 10.0627C6.93954 10.36 6.77714 10.7103 6.68867 11.0135C6.54655 11.5 6.56369 11.9175 6.73887 12.2413C6.85971 12.4643 7.06688 12.6575 7.29984 12.7643C7.70767 12.9512 8.30476 12.9666 9.03395 12.8095C9.08415 12.7986 11.5718 12.181 14.5622 11.4369C17.5526 10.6928 20 10.085 20 10.085C20 10.085 13.0526 12.8664 9.4456 14.3091C8.87438 14.5375 8.72163 14.5952 8.45308 14.6834C7.7666 14.9089 7.15168 15.0164 6.65461 14.998Z" fill="white"/>
</svg>
