<svg width="24" height="24" viewBox="0 0 24 24" fill="none" xmlns="http://www.w3.org/2000/svg">
<path d="M0 0H24V24H0V0Z" fill="black"/>
<path fill-rule="evenodd" clip-rule="evenodd" d="M12.0602 3C7.07454 3 3 7.2535 3 12.5236C3 15.1452 4.01231 17.6866 5.83446 19.479C6.46715 20.121 7.45415 20.1745 8.16277 19.6127C10.4405 17.8204 13.5786 17.8204 15.8563 19.6127C16.5649 20.1745 17.5519 20.121 18.1846 19.479C21.8036 15.8407 21.9555 9.7949 18.5136 5.96942C16.8433 4.09681 14.4897 3.02675 12.0602 3ZM12.0095 17.3121C9.58 17.3923 7.55538 15.3592 7.50477 12.8178C7.50477 12.7376 7.50477 12.6573 7.50477 12.5771C7.50477 9.9554 9.52938 7.81528 12.0095 7.81528C14.4897 7.81528 16.5143 9.9554 16.5143 12.5771C16.5902 15.1452 14.6668 17.2586 12.2626 17.3388C12.1614 17.3121 12.0855 17.3121 12.0095 17.3121Z" fill="white"/>
</svg>
