<svg width="24" height="24" viewBox="0 0 24 24" fill="none" xmlns="http://www.w3.org/2000/svg">
<path d="M23.8413 0.131866H0.131897V23.8412H23.8413V0.131866Z" fill="black"/>
<path d="M19.1658 16.3035L19.7564 17.9197H18.5567L19.1658 16.3035ZM18.5333 15.6744L17.1718 19.1236H18.1331L18.3483 18.5143H19.9593L20.1632 19.1236H21.2069L19.8354 15.6739L18.5333 15.6744ZM15.8001 19.1249H16.7754V15.6734L15.7998 15.6731L15.8001 19.1249ZM9.0295 15.6731L8.21574 18.4086L7.43623 15.6734L6.3838 15.6731L7.49708 19.1249H8.90199L10.0242 15.6731H9.0295ZM12.9718 16.4247H13.391C13.999 16.4247 14.3923 16.6976 14.3923 17.4063C14.3923 18.1149 13.999 18.3881 13.391 18.3881H12.9718V16.4247ZM12.0048 15.6731V19.1249H13.5859C14.4284 19.1249 14.7034 18.9848 15.0008 18.6708C15.2108 18.4503 15.3467 17.9661 15.3467 17.4371C15.3467 16.9518 15.2319 16.5193 15.0311 16.2495C14.67 15.7674 14.1494 15.6731 13.3728 15.6731H12.0048ZM2.76627 15.6684V19.1249H3.74968V16.5003L4.51181 16.5006C4.76418 16.5006 4.94411 16.5635 5.06555 16.6931C5.21967 16.8573 5.28263 17.1223 5.28263 17.607V19.1247H6.23574V17.215C6.23574 15.852 5.36693 15.6681 4.51708 15.6681L2.76627 15.6684ZM10.4352 15.6731L10.4355 19.1249H11.4102V15.6731H10.4352Z" fill="white"/>
<path d="M5.38721 8.80028C5.38721 8.80028 6.6417 6.94963 9.1462 6.75811V6.08661C6.3722 6.30948 3.96992 8.65881 3.96992 8.65881C3.96992 8.65881 5.33057 12.5922 9.1462 12.9523V12.2387C6.34612 11.8864 5.38721 8.80028 5.38721 8.80028ZM9.1462 10.8193V11.4729C7.03001 11.0956 6.44254 8.89564 6.44254 8.89564C6.44254 8.89564 7.45862 7.76997 9.1462 7.58741V8.30449C9.14488 8.30449 9.14409 8.30422 9.14304 8.30422C8.25736 8.19806 7.56531 9.02525 7.56531 9.02525C7.56531 9.02525 7.95309 10.4186 9.1462 10.8193ZM9.1462 4.84819V6.08661C9.2276 6.08029 9.309 6.07502 9.39093 6.07238C12.5448 5.96622 14.5996 8.65907 14.5996 8.65907C14.5996 8.65907 12.2395 11.529 9.78082 11.529C9.55558 11.529 9.34431 11.5082 9.1462 11.4729V12.2387C9.31559 12.2603 9.49157 12.2729 9.67492 12.2729C11.9631 12.2729 13.6178 11.1043 15.22 9.72126C15.4856 9.93411 16.5733 10.4515 16.797 10.6783C15.2735 11.9539 11.7229 12.9821 9.70996 12.9821C9.5158 12.9821 9.32929 12.97 9.1462 12.9523L9.14647 14.0287H17.8436V4.84819H9.1462ZM9.1462 7.58741V6.75811C9.22681 6.75258 9.30795 6.74836 9.39093 6.74573C11.6589 6.6746 13.1468 8.69464 13.1468 8.69464C13.1468 8.69464 11.5398 10.9267 9.81665 10.9267C9.56876 10.9267 9.34641 10.8867 9.1462 10.8193V8.30449C10.0292 8.41118 10.2068 8.80159 10.7376 9.68648L11.9181 8.69095C11.9181 8.69095 11.0564 7.5608 9.60353 7.5608C9.44573 7.56054 9.29452 7.57134 9.1462 7.58741Z" fill="#77B900"/>
</svg>
