<svg width="24" height="24" viewBox="0 0 24 24" fill="none" xmlns="http://www.w3.org/2000/svg">
<path d="M0 0H24V24H0V0Z" fill="#191919"/>
<path fill-rule="evenodd" clip-rule="evenodd" d="M12.9031 3.125L12.5329 7.685C12.3577 7.665 12.1826 7.655 12.0025 7.655C11.7773 7.655 11.5572 7.67 11.3421 7.705L11.1319 5.495C11.1269 5.425 11.1819 5.365 11.252 5.365H11.6272L11.4471 3.13C11.4421 3.06 11.4972 3 11.5622 3H12.788C12.8581 3 12.9131 3.06 12.9031 3.13V3.125ZM9.81101 3.35C9.791 3.285 9.72095 3.245 9.65591 3.27L8.50513 3.69C8.44008 3.715 8.41006 3.79 8.44008 3.85L9.37572 5.89L9.02048 6.02C8.95543 6.045 8.92541 6.12 8.95543 6.18L9.91108 8.185C10.2563 7.995 10.6316 7.85 11.0268 7.76L9.81602 3.35H9.81101ZM6.9891 4.62L9.63589 8.35C9.30067 8.57 8.99546 8.83 8.73528 9.13L7.14921 7.57C7.09917 7.52 7.10418 7.44 7.15421 7.395L7.44441 7.155L5.86834 5.56C5.8183 5.51 5.8233 5.43 5.87834 5.385L6.81398 4.6C6.86902 4.555 6.94407 4.565 6.98409 4.62H6.9891ZM4.76759 6.78C4.71255 6.74 4.6325 6.76 4.59747 6.82L3.98706 7.88C3.95203 7.94 3.97705 8.015 4.03709 8.045L6.06847 9.005L5.87834 9.33C5.84332 9.39 5.86834 9.47 5.93338 9.495L7.95475 10.42C8.09985 10.045 8.29498 9.695 8.53515 9.38L4.76759 6.78ZM3.27157 9.66C3.28158 9.59 3.35163 9.55 3.41667 9.565L7.84468 10.72C7.7296 11.095 7.66456 11.49 7.65455 11.9L5.43804 11.72C5.368 11.715 5.31796 11.65 5.33297 11.58L5.39802 11.21L3.1615 11C3.09145 10.995 3.04642 10.93 3.05643 10.86L3.26657 9.655L3.27157 9.66ZM3.10646 12.65C3.03641 12.655 2.99138 12.72 3.00139 12.79L3.21653 13.995C3.22654 14.065 3.29659 14.105 3.36163 14.09L5.53311 13.525L5.59815 13.895C5.60816 13.965 5.67821 14.005 5.74325 13.99L7.88471 13.4C7.75962 13.03 7.67957 12.635 7.65955 12.23L3.10146 12.65H3.10646ZM3.81694 15.82C3.78192 15.76 3.80694 15.685 3.86698 15.655L7.99978 13.695C8.15489 14.065 8.36503 14.41 8.6152 14.72L6.80397 16.01C6.74893 16.05 6.66888 16.035 6.63386 15.975L6.44373 15.645L4.59747 16.92C4.54243 16.96 4.46238 16.94 4.42736 16.88L3.81194 15.82H3.81694ZM8.82534 14.96L5.60816 18.215C5.55812 18.265 5.56313 18.345 5.61817 18.39L6.5588 19.175C6.61384 19.22 6.68889 19.21 6.72892 19.155L8.0298 17.325L8.32 17.57C8.37504 17.615 8.45509 17.605 8.49512 17.545L9.75598 15.715C9.41575 15.505 9.10053 15.25 8.83035 14.96H8.82534ZM8.18991 20.185C8.12487 20.16 8.09485 20.085 8.12487 20.025L10.0312 15.865C10.3814 16.045 10.7617 16.18 11.1569 16.255L10.5965 18.405C10.5815 18.47 10.5065 18.51 10.4414 18.485L10.0862 18.355L9.4908 20.52C9.47078 20.585 9.40073 20.625 9.33569 20.6L8.18491 20.18L8.18991 20.185ZM11.4721 16.31L11.1019 20.87C11.0969 20.94 11.1519 21 11.217 21H12.4428C12.5128 21 12.5679 20.94 12.5579 20.87L12.3778 18.635H12.753C12.8231 18.635 12.8781 18.575 12.8731 18.505L12.663 16.295C12.4478 16.33 12.2277 16.345 12.0025 16.345C11.8224 16.345 11.6473 16.335 11.4721 16.31ZM15.8851 3.965C15.9152 3.9 15.8851 3.83 15.8201 3.805L14.6693 3.385C14.6043 3.36 14.5342 3.4 14.5142 3.465L13.9188 5.63L13.5636 5.5C13.4985 5.475 13.4285 5.515 13.4085 5.58L12.8481 7.73C13.2483 7.81 13.6236 7.945 13.9738 8.12L15.8851 3.965ZM18.3968 5.78L15.1797 9.035C14.9095 8.745 14.5993 8.49 14.254 8.28L15.5149 6.45C15.5549 6.395 15.635 6.38 15.69 6.425L15.9802 6.67L17.2811 4.84C17.3211 4.785 17.4012 4.775 17.4512 4.82L18.3918 5.605C18.4469 5.65 18.4469 5.73 18.4018 5.78H18.3968ZM20.138 8.34C20.2031 8.31 20.2231 8.235 20.1881 8.175L19.5726 7.115C19.5376 7.055 19.4576 7.04 19.4025 7.075L17.5563 8.35L17.3661 8.025C17.3311 7.965 17.2511 7.945 17.196 7.99L15.3848 9.28C15.635 9.59 15.8401 9.935 16.0002 10.305L20.133 8.345L20.138 8.34ZM20.7885 10L20.9986 11.205C21.0086 11.275 20.9636 11.335 20.8935 11.345L16.3354 11.77C16.3154 11.36 16.2354 10.97 16.1103 10.6L18.2517 10.01C18.3168 9.99 18.3868 10.035 18.3968 10.105L18.4619 10.475L20.6334 9.91C20.6984 9.895 20.7685 9.935 20.7785 10.005L20.7885 10ZM20.5833 14.425C20.6484 14.44 20.7184 14.4 20.7284 14.33L20.9386 13.125C20.9486 13.055 20.9035 12.995 20.8335 12.985L18.597 12.775L18.662 12.405C18.672 12.335 18.627 12.275 18.557 12.265L16.3404 12.085C16.3304 12.495 16.2654 12.89 16.1503 13.265L20.5783 14.42L20.5833 14.425ZM19.4025 17.175C19.3675 17.235 19.2875 17.25 19.2324 17.215L15.4649 14.615C15.705 14.3 15.9001 13.95 16.0452 13.575L18.0666 14.5C18.1317 14.53 18.1567 14.605 18.1217 14.665L17.9315 14.99L19.9629 15.95C20.023 15.98 20.048 16.055 20.0129 16.115L19.4025 17.175ZM14.3641 15.64L17.0109 19.37C17.0509 19.425 17.131 19.435 17.181 19.39L18.1167 18.605C18.1717 18.56 18.1717 18.48 18.1267 18.43L16.5506 16.835L16.8408 16.595C16.8958 16.55 16.8958 16.47 16.8458 16.42L15.2597 14.86C14.9945 15.16 14.6943 15.425 14.3591 15.64H14.3641ZM14.3391 20.72C14.274 20.745 14.204 20.705 14.184 20.64L12.9732 16.23C13.3684 16.14 13.7437 15.995 14.0889 15.805L15.0446 17.81C15.0746 17.875 15.0446 17.95 14.9795 17.97L14.6243 18.1L15.5599 20.14C15.5899 20.205 15.5599 20.275 15.4949 20.3L14.3441 20.72H14.3391Z" fill="white"/>
</svg>
