<svg width="24" height="24" viewBox="0 0 24 24" fill="none" xmlns="http://www.w3.org/2000/svg">
<path d="M0 0H24V24H0V0Z" fill="#C74634"/>
<path d="M8.88146 17.8777H15.6378C18.8495 17.7991 21.3758 15.1095 21.2974 11.9093C21.2191 8.78775 18.7124 6.29441 15.6378 6.21588H8.88146C5.66976 6.13735 2.98681 8.66995 2.90848 11.8897C2.83014 15.1095 5.35642 17.7795 8.56813 17.858C8.66605 17.8776 8.76396 17.8777 8.88146 17.8777ZM15.4811 15.8162H9.01855C6.94269 15.7573 5.31725 14.01 5.37601 11.929C5.45434 9.94607 7.04061 8.3362 9.01855 8.2773H15.4811C17.557 8.2184 19.2999 9.84791 19.3587 11.929C19.4174 14.01 17.792 15.7573 15.7161 15.8162C15.6378 15.8162 15.5595 15.8162 15.4811 15.8162Z" fill="white"/>
</svg>
