<svg width="24" height="24" viewBox="0 0 24 24" fill="none" xmlns="http://www.w3.org/2000/svg">
<path d="M0 0H24V24H0V0Z" fill="white"/>
<path fill-rule="evenodd" clip-rule="evenodd" d="M21.0212 16.5509C21.2855 11.0232 16.5184 4.79809 10.0195 4.02863L10.0306 3.95309C16.4375 3.95309 21.3491 9.88434 21.3491 14.5636C21.343 15.5376 21.266 16.1411 21.1288 16.5793L21.0212 16.5509ZM20.633 17.2536C20.2067 17.7744 19.6706 18.2988 19.0425 18.7967C17.887 12.1511 13.0036 6.33999 9.55104 4.64384L9.47709 4.69539C12.9493 7.54503 17.0906 13.0796 18.7011 19.0574C17.8796 19.6608 16.9923 20.169 16.0561 20.5721C12.7796 16.8357 9.72492 9.62957 8.74054 5.05683L8.64042 5.08696C8.66262 9.52568 11.814 17.0609 15.6572 20.7377C14.7757 21.0865 13.8594 21.3397 12.9239 21.4929C9.23997 20.0334 6.61773 15.3592 6.61773 10.5709C6.61773 7.44511 7.57079 5.51144 7.75517 5.11571L7.67666 5.08458C7.45361 5.42203 6.05744 7.3547 6.05744 10.7293C6.05744 16.1417 8.72666 20.2787 12.2704 21.5815C11.0032 21.7209 9.7219 21.6607 8.47328 21.4032L8.44691 21.4857C8.82599 21.6253 10.1121 22.1652 12.0741 22.1652C16.5119 22.1652 19.5118 19.4079 20.7194 17.3121L20.633 17.2536Z" fill="#28458E"/>
<path fill-rule="evenodd" clip-rule="evenodd" d="M11.6304 2C8.2663 2 4.32165 4.42793 4.32165 6.64729C4.32165 7.50577 5.10697 8.23102 6.73233 8.23102C10.5055 8.23102 14.011 5.63873 14.011 3.62298C14.011 2.56228 12.9923 2 11.6304 2ZM12.9735 3.56033C12.9735 5.25945 9.71064 7.33646 6.98314 7.33646C5.77809 7.33646 5.12699 6.86221 5.12699 6.07967C5.12699 4.35616 8.42689 2.31445 10.9853 2.31445C12.6533 2.31445 12.9735 3.16321 12.9735 3.56033Z" fill="#0096D6"/>
<path fill-rule="evenodd" clip-rule="evenodd" d="M2.98139 7.67489C2.88682 7.83846 2.50813 8.57997 2.50813 9.33971C2.50813 10.7488 3.93186 12.0569 6.55052 12.0569C11.5882 12.0569 17.4084 8.34879 17.4084 4.90674C17.4084 3.36167 15.9458 2.52163 14.9303 2.34795L14.9113 2.40822C15.2271 2.50815 16.3842 3.04604 16.3842 4.42238C16.3842 7.16496 11.2454 10.9018 6.12664 10.9018C4.167 10.9018 2.93242 9.9345 2.93242 8.52544C2.93242 8.07975 3.0252 7.78612 3.04979 7.70106L2.98139 7.67489Z" fill="#EB7B30"/>
<path fill-rule="evenodd" clip-rule="evenodd" d="M19.4854 5.16409C19.6236 5.26897 20.4533 5.96051 20.4533 7.26825C20.4533 11.7272 13.4669 16.1118 7.29044 16.1118C3.60711 16.1118 1.92801 14.2931 2.00236 12.6783H2.06838C2.21272 13.5169 3.40864 15.0176 6.63241 15.0176C12.8166 15.0176 19.7216 10.4807 19.7216 6.50573C19.7216 5.82391 19.5364 5.39903 19.4317 5.21008L19.4854 5.16409Z" fill="#00984A"/>
<path fill-rule="evenodd" clip-rule="evenodd" d="M21.8206 9.32682C21.8495 9.42179 22 9.84865 22 10.5172C22 15.4774 14.9297 19.7238 8.78059 19.7238C5.61571 19.7238 3.96299 18.1864 3.61405 17.5621L3.67035 17.5205C4.54608 18.2863 6.27097 18.8682 8.28394 18.8682C13.7148 18.8682 21.8184 14.7364 21.746 9.34486L21.8206 9.32682Z" fill="#DF002C"/>
</svg>
