<svg width="24" height="24" viewBox="0 0 24 24" fill="none" xmlns="http://www.w3.org/2000/svg">
<path d="M0 0H24V24H0V0Z" fill="white"/>
<path d="M3.94873 11.0014C4.5232 8.89456 6.91582 8.39314 9.1187 8.33119C10.9296 8.28027 12.9487 8.52047 12.9487 8.52047L12 12C12 12 9.98088 11.7598 8.16997 11.8107C5.96711 11.8727 3.57447 12.3741 3 14.481L3.94873 11.0014Z" fill="#0190FF"/>
<path d="M17.6959 17.5205C11.2147 17.1151 3.68287 13.7615 3.94873 11.0014L3.05451 14.2811C2.78326 17.0971 9.77006 20.4404 16.7472 21L17.6959 17.5205Z" fill="#2B01BE"/>
<path d="M20.0513 12.9986C19.4768 15.1054 17.0842 15.6069 14.8813 15.6688C13.0704 15.7197 11.0513 15.4795 11.0513 15.4795L12 12C12 12 14.0191 12.2402 15.8301 12.1893C18.0329 12.1273 20.4255 11.6259 21 9.51904L20.0513 12.9986Z" fill="#2B01BE"/>
<path d="M6.30407 6.47952C12.7853 6.88495 20.3171 10.2385 20.0513 12.9986L20.9455 9.71891C21.2167 6.90292 14.23 3.5596 7.25279 3L6.30407 6.47952Z" fill="#0190FF"/>
</svg>
