<svg width="24" height="24" viewBox="0 0 24 24" fill="none" xmlns="http://www.w3.org/2000/svg">
<path d="M12 24C18.6274 24 24 18.6274 24 12C24 5.37258 18.6274 0 12 0C5.37258 0 0 5.37258 0 12C0 18.6274 5.37258 24 12 24Z" fill="url(#paint0_radial_8_269)"/>
<path d="M3.18667 11.9967C3.18667 6.5 6.65667 1.81333 11.5267 0.01C5.12 0.26 0 5.53 0 12C0 18.4767 5.13 23.7533 11.5467 23.99C6.67 22.19 3.18667 17.5 3.18667 11.9967Z" fill="url(#paint1_radial_8_269)"/>
<mask id="mask0_8_269" style="mask-type:luminance" maskUnits="userSpaceOnUse" x="0" y="0" width="12" height="24">
<path d="M3.18667 11.9967C3.18667 6.5 6.65667 1.81333 11.5267 0.00999832C5.12 0.259998 0 5.53 0 12C0 18.4767 5.13 23.7533 11.5467 23.99C6.67 22.19 3.18667 17.5 3.18667 11.9967Z" fill="url(#paint2_radial_8_269)"/>
</mask>
<g mask="url(#mask0_8_269)">
<path d="M3.18667 11.9967C3.18667 6.5 6.65667 1.81333 11.5267 0.00999832C5.12 0.259998 0 5.53 0 12C0 18.4767 5.13 23.7533 11.5467 23.99C6.67 22.19 3.18667 17.5 3.18667 11.9967Z" fill="url(#paint3_radial_8_269)"/>
</g>
<path d="M11.7967 10.8567C12.5933 8.89333 11.1033 8.36 10.1333 8.36H6.91999C7.18665 8.54333 7.14332 8.78666 7.08998 8.93666L5.21665 14.92C5.14332 15.1567 4.86332 15.4067 4.71332 15.4433H7.31332C7.16998 15.4167 6.96665 15.2133 7.03998 14.9367L7.71999 12.7733C7.72332 12.7733 10.85 13.1967 11.7967 10.8567ZM9.26999 8.91C9.60999 8.91 10.5533 8.95666 9.94332 10.74C9.30665 12.6133 7.89332 12.2267 7.89332 12.2267L8.93332 8.91H9.26999Z" fill="white"/>
<path d="M13.8766 15.4467H15.6266C15.0666 15.2667 14.24 14.7367 13.91 14.36C14.1766 14.07 14.5066 13.7033 14.5666 12.96H13.66C13.66 12.96 13.8333 13.06 13.8333 13.2733C13.8333 13.47 13.7533 13.7433 13.6 13.9333C13.3333 13.54 13.05 13.09 12.95 12.43C13.3066 12.2533 13.8066 12.06 14.2033 11.7133C14.58 11.3833 14.6666 11.07 14.6733 10.8667V10.84C14.6733 10.6267 14.59 10.4267 14.4366 10.2767C14.1733 10.0167 13.76 9.91 13.3233 9.99C12.9733 10.0567 12.6766 10.2433 12.5266 10.38C12 10.8767 11.9333 11.6933 11.9333 12.0633C11.9333 12.1533 11.9366 12.22 11.94 12.26C11.91 12.2733 11.8566 12.2933 11.8566 12.2933C11.47 12.4367 10.44 12.71 10.0733 13.5567C10.0266 13.6633 9.95996 13.8967 9.95996 14.1667C9.95996 14.4 10.01 14.66 10.16 14.8967C10.42 15.3033 10.86 15.56 11.5666 15.5467C12.3333 15.5333 13.09 15.01 13.2233 14.9133C13.3533 15.0367 13.6966 15.36 13.8766 15.4467ZM13.8766 10.7133C13.7866 11.2833 13.0466 11.86 12.8666 11.9367C12.8333 11.6167 12.85 11.11 13.1166 10.6967C13.2933 10.4233 13.53 10.3033 13.72 10.37C13.8733 10.4233 13.89 10.5633 13.8766 10.7133ZM12.85 14.5267C12.7466 14.59 12.34 14.7967 11.96 14.8333C11.6066 14.8667 11.02 14.73 11.0233 14.0233C11.0233 13.42 11.68 12.9767 12.0366 12.8233C12.18 13.4067 12.5033 14.0667 12.85 14.5267Z" fill="white"/>
<path d="M19.1933 8.91666C20.2333 8.66666 21.09 9.48 21.1666 9.53666L21.4633 8.59333C21.0533 8.47 18.07 7.46 15.96 9.86666C14.6633 11.3467 14.3466 14.38 15.99 15.1933C17.75 16.0633 19.6933 15.06 19.8366 14.99L20.64 12.43C20.7266 12.12 20.9233 11.92 21.27 11.79H18.4766C18.8833 11.96 18.8533 12.2667 18.8233 12.3933L18.02 14.9533C17.9133 14.9733 15.6666 15.5333 16.9233 11.6033C17.2 10.76 17.9566 9.21333 19.1933 8.91666Z" fill="white"/>
<defs>
<radialGradient id="paint0_radial_8_269" cx="0" cy="0" r="1" gradientUnits="userSpaceOnUse" gradientTransform="translate(5.08989 4.67033) scale(22.4104)">
<stop stop-color="#00A1DF"/>
<stop offset="0.13" stop-color="#0092D7"/>
<stop offset="0.37" stop-color="#006CC1"/>
<stop offset="0.62" stop-color="#003DA6"/>
<stop offset="0.73" stop-color="#043799"/>
<stop offset="0.93" stop-color="#102777"/>
<stop offset="1" stop-color="#152169"/>
</radialGradient>
<radialGradient id="paint1_radial_8_269" cx="0" cy="0" r="1" gradientUnits="userSpaceOnUse" gradientTransform="translate(3.45843 1.85034) scale(37.158)">
<stop offset="0.02" stop-color="white"/>
<stop offset="0.03" stop-color="#FBFEFF"/>
<stop offset="0.09" stop-color="#BAE7F9"/>
<stop offset="0.14" stop-color="#87D5F4"/>
<stop offset="0.19" stop-color="#63C9F1"/>
<stop offset="0.23" stop-color="#4CC1EF"/>
<stop offset="0.26" stop-color="#44BEEE"/>
<stop offset="0.28" stop-color="#37B8EB"/>
<stop offset="0.35" stop-color="#19ACE5"/>
<stop offset="0.41" stop-color="#07A4E0"/>
<stop offset="0.45" stop-color="#00A1DF"/>
<stop offset="0.79" stop-color="#0045AB"/>
<stop offset="0.82" stop-color="#003DA6"/>
<stop offset="0.96" stop-color="#0059B6"/>
</radialGradient>
<radialGradient id="paint2_radial_8_269" cx="0" cy="0" r="1" gradientUnits="userSpaceOnUse" gradientTransform="translate(10.0663 11.6343) rotate(-88.2324) scale(12.9244 13.1521)">
<stop offset="0.1" stop-color="white"/>
<stop offset="0.35" stop-color="#FDFDFD"/>
<stop offset="0.45" stop-color="#F6F6F6"/>
<stop offset="0.51" stop-color="#EAEAEA"/>
<stop offset="0.57" stop-color="#D9D9D9"/>
<stop offset="0.62" stop-color="#C3C3C3"/>
<stop offset="0.66" stop-color="#A7A7A7"/>
<stop offset="0.7" stop-color="#868686"/>
<stop offset="0.73" stop-color="#606060"/>
<stop offset="0.77" stop-color="#353535"/>
<stop offset="0.8"/>
</radialGradient>
<radialGradient id="paint3_radial_8_269" cx="0" cy="0" r="1" gradientUnits="userSpaceOnUse" gradientTransform="translate(9.33529 9.6586) scale(15.0977 15.0977)">
<stop offset="0.32" stop-color="#44BEEE" stop-opacity="0"/>
<stop offset="0.48" stop-color="#2B99D9" stop-opacity="0.27"/>
<stop offset="0.67" stop-color="#1476C6" stop-opacity="0.58"/>
<stop offset="0.82" stop-color="#0561BA" stop-opacity="0.84"/>
<stop offset="0.92" stop-color="#0059B6"/>
</radialGradient>
</defs>
</svg>
