<svg width="24" height="24" viewBox="0 0 24 24" fill="none" xmlns="http://www.w3.org/2000/svg">
<path d="M0 0H24V24H0V0Z" fill="white"/>
<path d="M18.5684 12.3404C17.223 13.4659 17.7878 15.2419 18.3414 16.2478C19.0336 17.5055 18.1492 19.3575 16.9391 20.4058C19.8798 18.7605 21.89 15.6916 22 12.1501C21.0858 11.5613 19.5548 11.5159 18.5684 12.3404Z" fill="#00927B"/>
<path d="M11.5549 15.1713C9.62601 13.5623 7.93655 14.3406 6.78493 15.6703C5.61795 17.02 7.22649 17.4235 9.42307 17.9139C11.0814 18.2855 10.8772 20.5006 11.0287 21C13.0082 17.8535 12.4384 15.908 11.5549 15.1713Z" fill="#5BAC26"/>
<path d="M14.655 5.36337C17.9442 7.87446 15.0521 9.15879 15.0521 9.15879C16.9204 10.72 18.8082 7.72948 20.8368 9.43812C21.3742 9.89019 21.7161 10.4374 21.9705 11.0263C21.6294 6.94173 18.7551 3.56489 14.8952 2.41899C13.3817 3.07321 12.7763 3.92957 14.655 5.36337Z" fill="#009EC5"/>
<path d="M6.71023 14.0278C5.96448 12.0211 6.91192 11.0973 10.1526 8.82719C14.2466 5.96 7.84359 6.97685 10.4494 4.3947C11.3727 3.48035 12.6696 2.77019 13.6266 2.13068C13.0983 2.04574 12.5567 2 12.0039 2C6.47949 2 2 6.40758 2 11.8434C2 12.0619 2.00955 12.278 2.02449 12.4928C3.53176 13.8686 5.40215 14.7613 6.71023 14.0278Z" fill="#006455"/>
</svg>
