<svg width="24" height="24" viewBox="0 0 24 24" fill="none" xmlns="http://www.w3.org/2000/svg">
<path d="M0 0H24V24H0V0Z" fill="#4A613E"/>
<path d="M8.99337 17.7928C8.99337 19.578 9.3065 20.3023 10.4294 21H5C6.01746 20.457 6.22594 19.8355 6.22594 17.5089V6.51755C6.22594 4.18935 6.01746 3.56858 5 3.02643H7.63622C8.47176 3.02643 8.47177 3.02647 10.7168 3H11.5773C13.118 3 14.2143 3.20691 15.206 3.67287C16.902 4.49892 18 6.07804 18 7.78389C18 10.6037 15.2575 12.9046 11.917 12.9046C11.0557 12.9046 10.6645 12.8277 9.93195 12.543C11.6562 12.336 12.5955 11.9743 13.4826 11.2237C14.4477 10.396 14.9186 9.43924 14.9186 8.27554C14.9186 6.18152 13.4053 4.8879 10.9253 4.8879C10.1936 4.8879 9.75003 4.9392 8.99337 5.12125" fill="white"/>
</svg>
