<svg width="24" height="24" viewBox="0 0 24 24" fill="none" xmlns="http://www.w3.org/2000/svg">
<path d="M0 0H24V24H0V0Z" fill="#005C9E"/>
<path d="M7.43785 4.00257H15.1735C18.0826 3.93718 20 5.11266 20 8.18151C20 10.3362 18.4793 12.1645 16.2975 12.491V12.5563C17.6198 12.9481 17.9504 14.1234 17.9504 15.364C17.9504 16.0823 17.8182 17.127 17.8182 18.1717C17.8182 18.89 17.8844 19.5429 18.0166 20H14.5124C14.4462 19.6082 14.3802 19.2817 14.3802 18.9553C14.3802 17.9106 14.5787 16.8006 14.5787 15.6905C14.5787 14.1235 13.653 13.7317 12.2646 13.7317H8.89263L7.57031 20H4L7.43785 4.00257ZM9.48749 11.2503H12.7933C14.6446 11.2503 16.4958 10.5321 16.4958 8.7038C16.4958 7.00615 15.2396 6.745 13.8512 6.745H10.4792L9.48749 11.2503Z" fill="white"/>
</svg>
