<svg width="24" height="24" viewBox="0 0 24 24" fill="none" xmlns="http://www.w3.org/2000/svg">
<path d="M0 0H24V24H0V0Z" fill="#CD2C2C"/>
<path d="M19.9416 20.0532C19.3221 20.0532 18.7495 19.5568 18.5274 19.2797C16.8912 17.1783 15.5822 11.3246 13.3265 11.1745C15.4419 10.7819 16.9613 9.36177 16.9613 7.24888C16.9613 5.37845 15.8977 3 11.3864 3H4V3.93521C4.61943 3.93521 5.40248 4.22386 5.40248 5.65555V16.7049C5.40248 18.1366 4.61943 18.4253 4 18.4253V19.3605H9.92549V18.4253C9.30606 18.4253 8.52301 18.1366 8.52301 16.7049V11.3823H10.0657C12.4149 11.3823 13.1278 16.9359 15.0796 19.5221C15.7809 20.4458 16.9613 21 18.2586 21H20V20.0648C19.9883 20.0532 19.9416 20.0532 19.9416 20.0532ZM10.0657 10.3663C10.0307 10.3663 8.52301 10.3663 8.52301 10.3663V4.62797C8.52301 4.62797 9.87874 4.63951 10.2995 4.63951C12.9642 4.63951 13.5018 6.00192 13.5018 7.49134C13.5018 8.77293 12.9759 10.3201 10.0657 10.3663Z" fill="white"/>
</svg>
