<svg width="24" height="24" viewBox="0 0 24 24" fill="none" xmlns="http://www.w3.org/2000/svg">
<path d="M0 0H24V24H0V0Z" fill="white"/>
<path fill-rule="evenodd" clip-rule="evenodd" d="M12.4055 7.96339C12.6102 7.98371 12.8105 8.01935 13.0049 8.06878L14.0487 2.10991C13.8515 2.0685 13.6515 2.03362 13.45 2.00401L12.4055 7.96339ZM9.25122 9.01931L4.65519 5.13589C4.44216 5.36825 4.23993 5.61091 4.04898 5.86259L8.63421 9.73898C8.81111 9.47525 9.01812 9.23411 9.25122 9.01931ZM17.266 3.40722C17.1049 3.3066 16.9418 3.20924 16.7749 3.11765L13.7715 8.35007C13.9433 8.43389 14.1089 8.52899 14.2663 8.63538L17.266 3.40722ZM19.5353 5.35119L14.953 9.22131C15.0657 9.341 15.1711 9.46747 15.2689 9.60022L19.8491 5.73211C19.7478 5.60262 19.6431 5.4754 19.5353 5.35119ZM8.05134 11.0845C8.13439 10.7256 8.26361 10.3846 8.43398 10.0692L2.80519 8.00504C2.66392 8.33627 2.54022 8.67729 2.43434 9.02634L8.05134 11.0845ZM16.0535 11.9964C16.0535 14.2352 14.2389 16.0497 12.0005 16.0497C9.99568 16.0497 8.33211 14.5938 8.00642 12.6817L2.38767 14.7428C2.51237 15.1814 2.66543 15.6083 2.84534 16.0203L8.42972 13.9724L3.87133 17.8295C4.16013 18.2348 4.47704 18.6172 4.8208 18.974L9.08335 15.3709L6.30271 20.242C6.74432 20.5509 7.21127 20.8259 7.70081 21.061L10.3138 16.4848L9.40202 21.6921C9.96005 21.8432 10.5372 21.9455 11.1293 21.9972L11.9799 17.1307L12.8335 22C13.4533 21.9483 14.057 21.8404 14.6394 21.6803L13.8477 17.1628L16.1273 21.1396C16.7513 20.854 17.3412 20.507 17.889 20.1047L15.7969 16.4587L18.9958 19.1605C19.5059 18.6571 19.9626 18.0998 20.3565 17.4965L17.4978 15.0836L20.9973 16.3663C21.3215 15.6948 21.5719 14.9807 21.7418 14.2359L18.6698 13.111L21.9343 13.1105C21.9764 12.7351 22 12.3542 22 11.9678C22 11.5201 21.9681 11.0805 21.9119 10.6486H15.8232C15.9717 11.0704 16.0535 11.5236 16.0535 11.9964ZM7.94746 11.9964C7.94746 11.7713 7.96678 11.551 8.00216 11.3359H2.02158C2.00803 11.5449 2 11.755 2 11.9678C2 12.1657 2.00728 12.3625 2.01857 12.5579H7.9871C7.96176 12.3743 7.94746 12.1873 7.94746 11.9964ZM9.65143 8.69485C9.87023 8.53852 10.1053 8.40352 10.354 8.29286L7.35003 3.05266C7.1109 3.17938 6.87856 3.31563 6.65123 3.46067L9.65143 8.69485ZM9.91991 2.11718C10.138 2.07051 10.3593 2.03187 10.5826 2L11.6274 7.96113C11.4001 7.98171 11.178 8.02085 10.9627 8.07781L9.91991 2.11718Z" fill="#CE1126"/>
</svg>
