<svg width="24" height="24" viewBox="0 0 24 24" fill="none" xmlns="http://www.w3.org/2000/svg">
<path d="M0 0H24V24H0V0Z" fill="white"/>
<path d="M24 6H0V18H12.1319" fill="url(#paint0_linear_1_140)"/>
<path d="M11.8681 8.39999V14.0533L9.81097 8.39999H7.75383L6.01317 13.0933C5.80218 11.92 4.58899 11.4933 3.63954 11.1733C3.00658 10.96 2.32086 10.6933 2.32086 10.32C2.32086 10.0533 2.69009 9.78666 3.37581 9.83999C3.85053 9.89332 4.27251 9.89332 5.11647 10.32L5.96042 8.87999C5.16921 8.45332 4.11427 8.23999 3.27031 8.23999C2.26812 8.23999 1.42416 8.55999 0.896687 9.09332C0.527456 9.46666 0.369215 9.94666 0.316467 10.48C0.316467 11.2267 0.580203 11.76 1.16042 12.1867C1.63515 12.5067 2.21537 12.72 2.74284 12.88C3.42856 13.0933 3.95603 13.3067 3.95603 13.68C3.90328 14.16 3.37581 14.2667 3.00658 14.2667C2.37361 14.32 1.84614 14.2133 1.05493 13.7333L0.316467 15.1733C1.10768 15.6533 1.95163 15.8667 2.95383 15.8667C3.63954 15.8667 4.69449 15.6533 5.27471 15.12L5.16921 15.6H7.17361L7.54284 14.6933C8.33405 14.9067 9.23075 14.96 10.022 14.6933L10.2857 15.6H13.8725V13.4667H14.611C16.4571 13.4667 17.5648 12.56 17.5648 10.96C17.5648 9.14666 16.5099 8.39999 14.2417 8.39999H11.8681ZM8.01757 13.0933L8.75603 10.6933H8.80877L9.54724 13.0933C9.01976 13.2533 8.49229 13.2533 8.01757 13.0933ZM13.8725 11.8667V9.94666H14.4C15.0857 9.94666 15.6132 10.16 15.6132 10.8533C15.6132 11.6 15.0857 11.8667 14.4 11.8667H13.8725Z" fill="white"/>
<defs>
<linearGradient id="paint0_linear_1_140" x1="0" y1="0" x2="0" y2="24" gradientUnits="userSpaceOnUse">
<stop stop-color="#00AAEE"/>
<stop offset="1" stop-color="#0055AA"/>
</linearGradient>
</defs>
</svg>
