<svg width="24" height="24" viewBox="0 0 24 24" fill="none" xmlns="http://www.w3.org/2000/svg">
<path d="M0 0H24V24H0V0Z" fill="white"/>
<path d="M1.67206 11.7217C1.5349 11.614 1.36182 11.5552 1.18873 11.5552C1.05157 11.5552 0.871956 11.627 0.871956 11.7642C0.871956 11.9111 1.07117 11.9765 1.19853 12.0059L1.38794 12.0581C1.77657 12.1626 2.08355 12.3422 2.08355 12.7635C2.08355 13.015 2.0215 13.2795 1.78963 13.4591C1.56756 13.6289 1.27364 13.7008 0.989523 13.7008C0.636822 13.7008 0.293918 13.5995 0 13.4069L0.316778 12.8811C0.496394 13.028 0.7152 13.1456 0.969928 13.1456C1.13975 13.1456 1.32916 13.0738 1.32916 12.8811C1.32916 12.6884 1.04504 12.6296 0.888284 12.5872C0.424548 12.4729 0.13063 12.3553 0.13063 11.8622C0.13063 11.3364 0.542115 11 1.10056 11C1.40754 11.0065 1.70799 11.0784 1.98558 11.2123L1.67206 11.7217Z" fill="#DB1E35"/>
<path d="M3.48129 11.9013L3.17757 12.7439H3.78827L3.48129 11.9013ZM2.9653 13.2697L2.77589 13.7236H1.99537L3.0796 11.0914H3.88298L4.94761 13.7236H4.1671L3.98748 13.2697H2.9653Z" fill="#DB1E35"/>
<path d="M5.97633 13.1423H6.83849V13.7236H5.26113V11.0914H5.97633V13.1423Z" fill="#DB1E35"/>
<path d="M7.87047 13.1423H8.73589V13.7236H7.15527V11.0914H7.87047V13.1423Z" fill="#DB1E35"/>
<path d="M8.31461 11.0914H9.16697L9.68296 11.8066L10.1989 11.0914H11.0513L10.0389 12.4598V13.7236H9.32373V12.4598L8.31461 11.0914Z" fill="#DB1E35"/>
<path d="M11.8514 13.5636H12.2629C12.4523 13.5636 12.6515 13.5734 12.8213 13.4591C12.9846 13.3611 13.0859 13.1848 13.0859 12.9954C13.0891 12.7962 12.9781 12.6133 12.8017 12.5218C12.6319 12.4369 12.4131 12.4369 12.2335 12.4369H11.8514V13.5636ZM12.1453 12.2802C12.3249 12.2802 12.4719 12.29 12.6287 12.1855C12.7854 12.081 12.8279 11.9438 12.8279 11.7642C12.8279 11.5976 12.7658 11.4278 12.6058 11.3331C12.4686 11.2482 12.2988 11.2482 12.1421 11.2482H11.8481V12.2802H12.1453ZM11.6816 13.7236V11.0914H12.2302C12.4295 11.0914 12.6287 11.1012 12.7887 11.2482C12.9585 11.3854 13.0206 11.5846 13.0206 11.7968C13.0206 12.0385 12.9258 12.2181 12.7038 12.3324C13.0401 12.3945 13.2622 12.659 13.2622 12.9954C13.2622 13.2076 13.1708 13.4069 13.0108 13.544C12.8213 13.7008 12.6221 13.7334 12.3805 13.7334H11.6849L11.6816 13.7236Z" fill="#231F20"/>
<path d="M13.9676 11.2482V12.2051H15.1237V12.3651H13.9676V13.5636H15.1564V13.7236H13.788V11.0914H15.1564V11.2482H13.9676Z" fill="#231F20"/>
<path d="M19.6108 11.0914H19.7905V12.7113C19.7905 12.9758 19.7905 13.2044 19.601 13.4167C19.4116 13.6159 19.1275 13.7204 18.8434 13.7204C18.5593 13.7204 18.2751 13.6159 18.0857 13.4167C17.8963 13.1946 17.8963 12.9758 17.8963 12.7113V11.0914H18.0759V12.659C18.0759 12.8909 18.0759 13.1423 18.2229 13.3122C18.3601 13.482 18.6344 13.5636 18.8434 13.5636C19.0524 13.5636 19.3267 13.4787 19.4639 13.3122C19.6108 13.1423 19.6108 12.8909 19.6108 12.659V11.0914Z" fill="#231F20"/>
<path d="M20.8747 13.7236H20.7049V11.2482H19.9995V11.0914H21.5801V11.2482H20.8747V13.7236Z" fill="#231F20"/>
<path d="M22.0014 11.0914H22.1875L23.0007 12.4271L23.8106 11.0914H24L23.0856 12.597V13.7236H22.9158V12.597L22.0014 11.0914Z" fill="#231F20"/>
<path d="M15.9891 12.7015L16.5247 11.3854L17.0603 12.7015H15.9891ZM16.577 11.0914H16.4725L15.3686 13.7236H15.5482L15.9173 12.8615H17.1289L17.4979 13.7236H17.6775L16.577 11.0914Z" fill="#231F20"/>
<path d="M23.7257 13.4395C23.7453 13.4395 23.7877 13.4395 23.7877 13.4199C23.7877 13.4003 23.7681 13.4003 23.7453 13.4003H23.7061V13.4428H23.7257V13.4395ZM23.8106 13.544H23.7779L23.7257 13.4591H23.693V13.544H23.6734V13.3742H23.7453C23.7779 13.3742 23.8073 13.384 23.8073 13.4167C23.8073 13.4493 23.7845 13.4591 23.7551 13.4591L23.8106 13.544ZM23.8726 13.4591C23.8726 13.384 23.8106 13.3219 23.7355 13.3219C23.6604 13.3219 23.5983 13.384 23.5983 13.4591C23.5983 13.5342 23.6604 13.5963 23.7355 13.5963C23.8106 13.5963 23.8726 13.5342 23.8726 13.4591ZM23.5787 13.4591C23.5787 13.3709 23.6506 13.3024 23.7355 13.3024C23.8237 13.3024 23.8922 13.3742 23.8922 13.4591C23.8922 13.5473 23.8204 13.6159 23.7355 13.6159C23.6506 13.6159 23.582 13.5473 23.5787 13.4591Z" fill="#231F20"/>
</svg>
