<svg width="24" height="24" viewBox="0 0 24 24" fill="none" xmlns="http://www.w3.org/2000/svg">
<path d="M24 12C24 18.624 18.624 24 12 24C5.376 24 0 18.624 0 12C0 5.376 5.376 2.09212e-10 12 2.09212e-10C18.624 2.09212e-10 24 5.376 24 12Z" fill="white"/>
<path d="M13.2429 5.20486C12.4501 5.07569 11.6419 5.07569 10.8491 5.20486C10.7855 5.20486 10.7534 5.17269 10.8173 5.10797L12.0621 4.13911L13.3069 5.10797C13.3387 5.17231 13.3065 5.20486 13.2429 5.20486ZM11.2011 11.2118C11.1693 11.2118 11.1375 11.244 11.1375 11.2761C11.3929 11.4699 11.5527 11.9222 12.095 11.9222C12.6373 11.9222 12.7971 11.4699 13.0525 11.2761C13.0525 11.244 13.0207 11.2118 12.9889 11.2118C12.397 11.3087 11.7931 11.3087 11.2011 11.2118ZM12.0632 10.4689C11.9035 10.4689 11.8717 10.4045 11.776 10.4045C11.6488 10.4045 11.5527 10.4689 11.4569 10.5661C11.4569 10.5983 11.4887 10.6305 11.4887 10.663C11.712 10.6952 11.8077 10.8246 12.031 10.8246C12.2543 10.8246 12.3826 10.696 12.5734 10.663C12.6052 10.6309 12.6052 10.5987 12.6052 10.5661C12.5094 10.4693 12.4137 10.4375 12.2861 10.4045C12.2543 10.4045 12.2229 10.4689 12.0632 10.4689ZM24 12.7624C24 13.053 23.9682 13.3437 23.9364 13.6343C22.5959 13.8603 22.085 12.6333 20.7123 12.6976C20.808 12.9883 20.872 13.3107 20.9038 13.6022C22.0528 13.6022 22.4998 14.6679 23.7763 14.5388C23.7127 14.8617 23.6166 15.1849 23.5209 15.5077C22.4998 15.6046 22.1482 14.6032 20.9999 14.6357V15.443C21.9892 15.443 22.309 16.3475 23.2665 16.315L22.8835 17.2838C22.2133 17.2517 21.9578 16.3793 20.9367 16.4436L20.8095 17.1218C21.7035 17.0575 21.8942 17.8969 22.5331 17.962C22.3733 18.2527 22.1815 18.5751 21.9907 18.834C21.6077 18.6402 21.2887 17.9938 20.5544 17.962L20.7459 17.2517C20.0117 17.2195 19.3097 16.9288 18.7673 16.4115C18.9588 15.2488 17.2039 14.0862 17.2039 13.2464C17.2039 12.3419 17.6508 11.8253 17.6508 10.5983C17.619 9.62945 17.2357 8.69276 16.5662 8.01456C16.439 7.88588 16.3107 7.78861 16.151 7.69173C16.8212 8.43465 17.2043 9.37096 17.2357 10.3724C17.2357 11.535 16.6933 12.1485 16.6933 13.2146C16.6933 14.2807 18.2254 15.2167 18.2254 16.315C18.2254 16.7351 18.0982 17.1869 17.6508 17.9942C18.2254 18.6073 18.9914 18.9952 19.8213 19.0917C19.981 19.1239 20.1086 19.0274 20.1729 18.8658C20.2365 18.7371 20.3001 18.6073 20.3326 18.4783C20.9711 18.5104 21.2584 19.0914 21.6092 19.3184L21.0033 20.0614C20.78 19.8029 20.4609 19.351 19.9822 19.2212C19.8864 19.3828 19.8225 19.544 19.7267 19.7056C20.1097 19.8025 20.397 20.2222 20.5885 20.4807L19.8864 21.1589C19.7267 20.8682 19.5034 20.6423 19.2162 20.4485C19.1204 20.5772 19.0247 20.707 18.8971 20.8361C19.1204 21.0298 19.3123 21.2562 19.4395 21.5143L18.5455 22.1603C18.3858 20.9329 16.7262 20.0939 17.1728 18.6724C16.9813 18.9631 16.8856 19.2855 16.8538 19.6091C16.8538 20.6423 17.9385 21.4499 18.0346 22.4835L17.3284 22.8699C17.2966 21.7395 16.1476 20.5121 16.1476 19.5758C16.1476 18.5426 17.4881 17.5094 17.4881 16.2817C17.4881 15.0539 15.9561 14.2153 15.9561 13.1491C15.9561 12.083 16.6264 11.4699 16.6264 10.081C16.6264 9.04775 16.1794 8.07889 15.4134 7.40031L14.9982 7.10966C15.7003 7.94984 16.0829 8.69162 16.0829 9.85463C16.0829 11.1463 15.3487 11.8567 15.3487 13.117C15.3487 14.3772 16.8485 15.0869 16.8485 16.2495C16.8485 17.4121 15.4441 18.4132 15.4441 19.6405C15.4441 20.738 16.6888 21.8367 16.6888 23.1602C16.4177 23.2818 16.1407 23.3896 15.8589 23.483C16.0186 22.1584 14.6141 20.8024 14.6141 19.7363C14.6141 18.5415 16.0822 17.54 16.0822 16.2809C16.0822 15.0218 14.5823 14.4075 14.5823 13.1158C14.5823 11.8241 15.508 11.0812 15.508 9.66048C15.508 8.59474 14.9975 7.56116 14.1675 6.9155L14.1039 6.88334C14.0403 6.819 13.9767 6.88334 14.0082 6.94767C14.5827 7.65805 14.9021 8.56257 14.8699 9.46671C14.8699 10.7913 13.8167 11.8567 13.8167 13.1162C13.8167 14.6338 15.2211 15.0539 15.2211 16.2813C15.2211 17.5086 13.7213 18.5097 13.7213 19.8339C13.7213 21.0612 15.1576 22.3847 14.9021 23.8062L14.0403 24C14.2958 22.2561 12.8913 20.9965 12.8913 19.8661C12.8913 18.6387 14.4548 17.5408 14.4548 16.3135C14.4548 15.183 13.3375 14.7958 13.1782 13.6328C13.1782 13.4712 13.051 13.3743 12.8909 13.3743H12.8591C12.5368 13.4729 12.2053 13.5378 11.8698 13.5681C11.5508 13.5359 11.1996 13.4712 10.8805 13.3743C10.7208 13.3422 10.5933 13.4387 10.5615 13.6003V13.6324C10.4018 14.7951 9.28492 15.1826 9.28492 16.3131C9.28492 17.5404 10.8484 18.6383 10.8484 19.8657C10.8484 20.9962 9.44388 22.2557 9.69934 23.9996L8.83758 23.8058C8.61428 22.4169 10.0506 21.0609 10.0506 19.8335C10.0506 18.5089 8.5507 17.54 8.5507 16.2809C8.5507 15.0218 9.95518 14.6017 9.95518 13.1158C9.95518 11.8241 8.90191 10.758 8.90191 9.46633C8.87012 8.56181 9.18917 7.65729 9.76367 6.9473C9.82726 6.88296 9.76367 6.81862 9.66792 6.88296L9.60434 6.91513C8.77399 7.56116 8.26381 8.59436 8.26381 9.66011C8.26381 11.1134 9.18954 11.8238 9.18954 13.1155C9.18954 14.4071 7.68968 15.021 7.68968 16.2805C7.68968 17.54 9.15775 18.574 9.15775 19.7359C9.15775 20.8016 7.75326 22.1902 7.91298 23.4826C7.63115 23.3892 7.35414 23.2814 7.083 23.1598C7.1148 21.8681 8.35957 20.7698 8.35957 19.6401C8.35957 18.4128 6.95509 17.4439 6.95509 16.2491C6.95509 15.0543 8.64682 14.4083 8.64682 13.1488C8.64682 11.8892 7.9126 11.1789 7.9126 9.88643C7.9126 8.72379 8.29561 7.98087 8.99729 7.14145C8.83758 7.20578 8.71003 7.30305 8.58211 7.4321C7.8161 8.11031 7.4013 9.07917 7.36914 10.1127C7.36914 11.4691 8.0394 12.1148 8.0394 13.1809C8.0394 14.2471 6.50737 15.1186 6.50737 16.3135C6.50737 17.5083 7.84789 18.574 7.84789 19.6076C7.84789 20.5443 6.69887 21.7712 6.66708 22.9017C6.44379 22.773 6.18832 22.6432 5.96503 22.5142C6.06078 21.481 7.14584 20.6733 7.14584 19.6397C7.11405 19.3169 7.01867 18.9615 6.82679 18.7031C7.27376 20.1242 5.61381 20.9636 5.4541 22.191C5.16685 21.9972 4.84818 21.7709 4.56017 21.5449C4.68734 21.2864 4.87922 21.0605 5.10252 20.8667C5.00676 20.738 4.87922 20.6082 4.78347 20.4792C4.52801 20.6729 4.30471 20.8993 4.11321 21.1895C3.85774 20.9636 3.63445 20.7373 3.41115 20.5113C3.63445 20.2529 3.88991 19.8331 4.27292 19.7363C4.17717 19.5747 4.08141 19.4134 4.01745 19.2518C3.57049 19.3805 3.25144 19.8006 2.99635 20.092C2.77306 19.8335 2.58118 19.6076 2.39042 19.3491C2.74201 19.1231 3.02889 18.5418 3.66699 18.5089C3.73057 18.6376 3.76274 18.7674 3.8267 18.8965C3.89028 19.0581 4.0182 19.1224 4.17829 19.1224C5.00863 19.0255 5.77427 18.638 6.34878 18.0566C5.90182 17.2165 5.77427 16.7971 5.77427 16.3774C5.77427 15.2799 7.3063 14.3428 7.3063 13.2771C7.3063 12.2113 6.76396 11.5978 6.76396 10.4348C6.79555 9.42881 7.18022 8.46707 7.84902 7.72201C7.68931 7.81889 7.56176 7.91578 7.43384 8.04483C6.76358 8.72303 6.38058 9.65973 6.34916 10.6286C6.34916 11.8559 6.79612 12.3725 6.79612 13.2767C6.79612 14.1169 5.0408 15.2787 5.23268 16.4418C4.69033 16.9584 3.98791 17.249 3.25406 17.249L3.44556 17.9594C2.71134 17.9916 2.39229 18.6376 2.00929 18.8314C1.81779 18.5407 1.6577 18.25 1.46695 17.9594C2.10541 17.895 2.29729 17.0549 3.19047 17.1192C3.15868 16.8933 3.12689 16.6669 3.0633 16.441C2.0422 16.3767 1.78674 17.2483 1.11648 17.2812C0.956768 16.9584 0.829224 16.6351 0.733473 16.3123C1.69099 16.3445 2.01004 15.4403 3.00009 15.4403V14.6346C1.81928 14.6024 1.46807 15.6035 0.479132 15.5066C0.383381 15.1837 0.319421 14.8605 0.22367 14.5377C1.50023 14.6993 1.9472 13.601 3.09622 13.601L3.28772 12.6965C1.91503 12.6322 1.40448 13.8591 0.0635851 13.6332C0.0317925 13.3425 0 13.0519 0 12.7612C1.56344 12.9228 2.1705 11.6308 3.60677 11.7924C3.73394 11.4366 3.92582 11.1142 4.08553 10.7913C2.29767 10.4685 1.69174 11.9861 0 11.7602C0.188885 5.0758 5.67815 -0.18859 12.2854 0.00518219C18.6364 0.198954 23.7438 5.33392 23.9028 11.7602C22.2432 11.9861 21.6047 10.4685 19.8172 10.7913C20.0087 11.1142 20.1363 11.4374 20.296 11.7924C21.828 11.5986 22.4343 12.9228 23.9989 12.7612M6.92367 7.65956C5.96615 7.27202 4.91288 7.40107 4.05112 7.98239C3.92395 7.1422 3.47661 6.40042 2.80635 5.91599C2.78261 5.90028 2.75486 5.89191 2.72649 5.89191C2.69812 5.89191 2.67037 5.90028 2.64664 5.91599C2.61484 5.94816 2.61484 5.98033 2.61484 6.01288C2.74201 7.82192 1.72091 9.40389 0.412555 10.7928C1.75308 11.1804 2.86993 9.46823 4.59421 10.0825C5.20014 9.11361 5.99869 8.30635 6.92441 7.66032M12.0636 6.56278C10.9464 6.56278 10.0214 7.20881 9.76555 8.01607C9.73375 8.08041 9.76555 8.11296 9.82913 8.08041C10.0524 7.98352 10.2761 7.95173 10.4994 7.95173C10.9146 7.91956 11.2972 8.11333 11.5841 8.40399C11.6798 8.79154 11.6798 9.17908 11.5841 9.53446C11.3926 9.50229 11.3286 9.34068 11.1371 9.34068C10.9456 9.34068 10.8181 9.46936 10.4986 9.46936C10.1792 9.46936 10.1471 9.30776 9.9563 9.30776C9.76554 9.30776 9.66905 9.56625 9.66905 9.82436C9.66905 11.0839 10.8181 12.7953 11.9993 12.7953C13.1804 12.7953 14.3295 11.0835 14.3295 9.82436C14.3295 9.5337 14.2659 9.30776 14.0104 9.27559C13.8507 9.40426 13.6914 9.46936 13.4999 9.43719C13.1808 9.43719 13.1169 9.30851 12.9253 9.30851C12.7338 9.30851 12.7338 9.79294 12.4784 9.79294C12.3187 9.34068 12.2869 8.82408 12.4466 8.33965C12.7338 8.01683 13.1169 7.85522 13.5313 7.88739C13.7546 7.88739 13.9782 7.91956 14.2015 8.01607C14.2651 8.04824 14.2973 8.01607 14.2651 7.95173C14.0736 7.20881 13.1486 6.56278 12.0636 6.56278ZM13.7864 8.37182C13.4991 8.37182 13.2119 8.46871 13.0204 8.66248C12.9886 8.72682 12.9886 8.79116 13.0204 8.88842C13.4991 8.72682 13.9143 8.72682 14.1376 8.95276C14.2333 8.88842 14.2647 8.75899 14.2647 8.6621C14.2647 8.46833 14.1054 8.37182 13.7864 8.37182ZM9.92339 8.95125C10.1467 8.72531 10.6576 8.72531 11.1682 8.91908C11.2 8.66059 10.753 8.37031 10.2742 8.37031C9.95518 8.37031 9.79547 8.4672 9.79547 8.6288C9.79547 8.75747 9.82801 8.88691 9.92339 8.95125ZM17.5835 4.68864C16.7532 4.75298 15.9875 5.04439 15.3494 5.56061C15.6049 4.85024 15.9554 4.13949 16.3705 3.52601C15.3494 3.59034 14.3919 4.04261 13.6252 4.75336L13.1146 3.3644L14.2958 2.29828L12.6998 2.1696L12.0613 0.684142L11.4229 2.1696L9.82689 2.29828L11.0077 3.36403L10.4654 4.78515C9.73113 4.04223 8.77362 3.62251 7.71998 3.5578C8.13515 4.20383 8.48599 4.88241 8.74108 5.5924C8.10261 5.0758 7.3048 4.75222 6.47446 4.72043C7.0168 5.39863 7.46377 6.14155 7.81498 6.91664C7.84677 6.98098 7.94215 7.04532 8.00648 7.01353H8.03828C9.27857 6.39218 10.6439 6.06892 12.0279 6.06892C13.4118 6.06892 14.7772 6.39218 16.0175 7.01353C16.081 7.0457 16.1772 7.04569 16.209 6.98136V6.94919C16.592 6.109 17.0393 5.36722 17.5816 4.68864M19.4967 10.0495C21.2202 9.43643 22.3374 11.18 23.6783 10.7599C22.4018 9.37096 21.3481 7.82116 21.476 5.97995C21.476 5.91561 21.4443 5.85127 21.3803 5.85127C21.3485 5.85127 21.3167 5.85127 21.2845 5.88344C20.6143 6.36787 20.1673 7.14296 20.0398 7.94984C19.178 7.36852 18.1247 7.23947 17.1672 7.62701C18.0929 8.30521 18.89 9.11285 19.4967 10.0495Z" fill="#006241"/>
</svg>
