<svg width="24" height="24" viewBox="0 0 24 24" fill="none" xmlns="http://www.w3.org/2000/svg">
<path d="M24 0H0V24H24V0Z" fill="#00A0DF"/>
<path d="M20.8512 10.8768C20.8512 11.4528 20.1504 11.9712 19.6032 11.9712C19.2384 11.9712 18.9216 11.712 18.9216 11.5584C18.9216 11.4624 18.9504 11.184 19.0848 11.184C19.1808 11.184 19.2672 11.2608 19.3632 11.3472C19.4976 11.472 19.6608 11.616 19.9008 11.616C20.1408 11.616 20.3904 11.4528 20.3904 11.184C20.3904 11.0208 20.2656 10.8672 20.1312 10.6848C19.9584 10.464 19.7568 10.2048 19.7568 9.8784C19.7568 9.2832 20.352 8.5152 21.024 8.5152C21.3216 8.5152 21.4944 8.688 21.4944 8.8512C21.4944 8.9856 21.3504 9.1584 21.1872 9.1584C21.0624 9.1584 20.9664 9.1104 20.8704 9.072C20.7744 9.0336 20.6784 8.9856 20.5632 8.9856C20.3328 8.9856 20.1792 9.1584 20.1792 9.4272C20.1792 9.6288 20.3232 9.8208 20.4768 10.0224C20.6496 10.272 20.8512 10.5504 20.8512 10.8768ZM6.2112 6.6528C6.2016 6.6528 6.1824 6.672 6.1824 6.6816V6.8448C6.1824 6.8544 6.192 6.864 6.2016 6.8736L6.2976 6.8832L6.4224 6.8928C6.5856 6.9216 6.624 6.9504 6.624 7.0272C6.624 7.1616 6.4704 7.5936 6.2592 8.1888L6.0672 8.7264C5.904 9.2064 5.6448 9.8688 5.424 10.4544C5.1552 11.1552 4.944 11.7024 4.944 11.7792C4.944 11.8656 4.992 11.8944 5.1936 11.8944C5.4144 11.8944 5.5104 11.856 5.5296 11.7792C5.904 10.5408 6.9408 9.1296 7.4784 9.1296C7.6512 9.1296 7.7088 9.1872 7.7088 9.36C7.7088 9.6384 7.4784 10.1568 7.248 10.656C7.0464 11.0976 6.864 11.5104 6.864 11.712C6.864 11.8944 6.9504 11.9904 7.104 11.9904C7.632 11.9904 8.0352 11.5104 8.3616 11.1264L8.4096 11.0688L8.4192 11.0496L8.4096 11.0304L8.304 10.896C8.304 10.896 8.2944 10.8864 8.2848 10.8864C8.2752 10.8864 8.2656 10.8864 8.2656 10.896C8.0832 11.088 7.776 11.376 7.6896 11.3856C7.6608 11.3856 7.6512 11.3856 7.6416 11.376C7.632 11.3664 7.632 11.3376 7.632 11.2896C7.6416 11.2512 7.6896 11.1168 7.776 10.9248C7.9776 10.4352 8.3136 9.6288 8.3136 9.1392C8.3136 8.7552 8.1312 8.5344 7.8048 8.5344C7.152 8.5344 6.6336 9.2736 6.384 9.6288C6.3264 9.7152 6.2688 9.792 6.2592 9.792H6.2496C6.24 9.7728 6.2784 9.696 6.3456 9.5424C6.4128 9.3792 6.5184 9.1296 6.672 8.7552C7.1616 7.488 7.3632 6.8064 7.3632 6.7488C7.3632 6.672 7.296 6.6624 7.2192 6.6624H6.2112V6.6528ZM4.7808 11.1936C4.7808 11.184 4.7808 11.1744 4.7808 11.1648L4.6656 11.0496C4.6656 11.04 4.656 11.04 4.6464 11.04C4.6368 11.04 4.6368 11.04 4.6272 11.0496L4.6176 11.0592C4.416 11.2416 4.0224 11.5584 3.6768 11.5872C3.5424 11.5968 3.4176 11.5584 3.3216 11.472C3.2064 11.3664 3.1392 11.2128 3.1296 11.0112C3.1104 10.4832 3.552 9.696 3.9936 9.2256C4.2336 8.976 4.4544 8.8416 4.608 8.8416C4.7904 8.8416 4.9056 8.976 5.0208 9.1104C5.1168 9.2256 5.2128 9.3408 5.3472 9.3408C5.3952 9.3408 5.4528 9.312 5.5008 9.2736C5.5488 9.2256 5.568 9.1584 5.568 9.0912C5.568 8.8704 5.376 8.544 4.9056 8.5344C4.368 8.5248 3.7056 8.8512 3.2064 9.36C2.736 9.8496 2.4864 10.4256 2.5152 10.992C2.5344 11.4624 2.7936 11.9712 3.4464 11.9712C4.1088 11.9712 4.6848 11.376 4.7808 11.1936ZM13.4208 9.984C13.4112 10.0128 13.3728 10.0896 13.3632 10.08H13.3536V10.0512C13.3536 10.0224 13.392 9.8784 13.4304 9.7056C13.5072 9.3792 13.6128 8.928 13.6128 8.7936C13.6128 8.6208 13.5168 8.5344 13.3536 8.5344C12.9984 8.5344 12.4608 9.12 12.2784 9.4272L12.2688 9.4368C12.2688 9.4464 12.2688 9.4464 12.2784 9.456L12.384 9.5616C12.384 9.5712 12.3936 9.5712 12.4032 9.5712C12.4128 9.5712 12.4224 9.5616 12.4224 9.5616L12.48 9.4848C12.5952 9.3312 12.8448 9.024 12.9792 9.024C13.0464 9.024 13.0848 9.0912 13.0848 9.216C13.0848 9.5328 12.7392 10.4832 12.5088 11.1168C12.384 11.472 12.288 11.7312 12.288 11.7792C12.288 11.8464 12.3168 11.8752 12.3744 11.8752H12.672C12.7296 11.8752 12.7584 11.8368 12.7968 11.7408C12.7968 11.7408 12.9408 11.3952 13.0272 11.2224C13.6128 10.0224 13.9392 9.408 14.1888 9.168C14.352 9.0048 14.4672 8.9376 14.5536 8.9376C14.6208 8.9376 14.6592 8.9952 14.7072 9.0432C14.7552 9.1008 14.8032 9.1584 14.8896 9.168C14.9472 9.168 15.0048 9.1488 15.0528 9.1104C15.1296 9.0432 15.168 8.9184 15.168 8.7936C15.168 8.5728 15.0144 8.496 14.88 8.496C14.352 8.5248 13.9584 8.928 13.4208 9.984ZM11.5776 8.4672C11.5968 8.4576 11.6256 8.4672 11.6544 8.4864C11.6544 8.4864 11.664 8.4864 11.664 8.496L11.8656 8.6304C11.9136 8.6496 11.9136 8.7072 11.9136 8.7168C11.904 8.784 11.7504 9.2064 11.5584 9.696C11.3088 10.3584 10.992 11.184 10.9824 11.3376C10.9824 11.3952 10.9824 11.424 11.0016 11.4336C11.0112 11.4432 11.0304 11.4528 11.0592 11.4528C11.1744 11.4528 11.3664 11.2128 11.52 11.0304L11.6352 10.8864C11.6448 10.8768 11.664 10.8768 11.6736 10.8864L11.7888 11.0208L11.7984 11.04C11.7984 11.04 11.7888 11.0592 11.7888 11.0496C11.6256 11.2992 11.1744 11.9616 10.656 11.9712C10.56 11.9712 10.4928 11.952 10.4448 11.8944C10.3872 11.8368 10.3584 11.7504 10.3584 11.6256C10.3584 11.376 10.4832 11.0976 10.5504 10.9536L10.5888 10.8576C10.5984 10.8384 10.5984 10.8288 10.5888 10.8192H10.5792C10.56 10.8192 10.4448 11.0208 10.4448 11.0208C9.8976 11.856 9.4656 11.9616 9.1488 11.9616C8.8896 11.9616 8.64 11.7504 8.64 11.28C8.64 10.5888 9.4176 8.592 10.9056 8.592C11.04 8.592 11.136 8.6112 11.2128 8.6304C11.2704 8.64 11.3184 8.6496 11.3664 8.6496C11.424 8.6496 11.4528 8.6016 11.4816 8.5536C11.5008 8.5248 11.5296 8.4864 11.5776 8.4672ZM9.216 11.1264C9.216 11.4048 9.2928 11.4528 9.4368 11.4528C10.0896 11.4528 11.1456 9.6096 11.1456 9.216C11.1456 8.9568 11.0016 8.8128 10.752 8.8128C9.984 8.8128 9.216 10.1568 9.216 11.1264ZM16.4064 11.0304C16.4064 9.8208 17.76 8.5344 18.7104 8.5344C19.1616 8.5344 19.4016 8.8128 19.4016 9.072C19.4016 9.7056 18.3648 9.9744 17.808 9.9744L17.4912 9.9648C17.4912 9.9648 17.4432 9.9648 17.4336 9.9648C17.4336 9.9744 17.4144 9.9936 17.4144 9.9936C17.2608 10.224 17.0592 10.5408 17.0592 10.9632C17.0592 11.3088 17.2704 11.5296 17.6064 11.5296C17.8848 11.5296 18.2592 11.2512 18.4608 11.0976L18.5472 11.04C18.5568 11.0304 18.576 11.0304 18.5856 11.04L18.6816 11.1648C18.6912 11.1744 18.6912 11.184 18.6816 11.1936C18.528 11.3952 17.8848 11.9712 17.28 11.9712C16.7712 11.9712 16.4064 11.5872 16.4064 11.0304ZM18.6048 8.7456C18.192 8.7456 17.7504 9.4176 17.5968 9.696C18.4224 9.6864 18.8928 9.4368 18.8928 9.0336C18.8928 8.8704 18.768 8.7456 18.6048 8.7456ZM16.128 11.0688C16.1376 11.0592 16.128 11.04 16.128 11.04C16.128 11.0304 16.0128 10.896 16.0128 10.896C16.0032 10.8864 16.0032 10.8864 15.9936 10.8864C15.984 10.8864 15.9744 10.8864 15.9744 10.896L15.936 10.9344C15.648 11.2512 15.4848 11.4336 15.3504 11.4336C15.3312 11.4336 15.312 11.4336 15.2928 11.4144C15.2736 11.3952 15.264 11.3568 15.264 11.3184C15.2736 11.136 15.5616 10.3008 16.1472 8.7648L16.5696 7.6608C16.7904 7.0848 16.9056 6.7968 16.9056 6.7584C16.9056 6.7296 16.896 6.7104 16.8864 6.7008C16.8672 6.6816 16.8288 6.672 16.7712 6.672H15.7728C15.7536 6.672 15.744 6.6816 15.744 6.7008L15.7344 6.864C15.7344 6.8736 15.744 6.8928 15.7536 6.8928L15.9744 6.912C16.1184 6.9408 16.176 6.9792 16.1664 7.0752C16.1568 7.2192 15.5136 8.8128 15.5136 8.8128C15.168 9.6768 14.5824 11.1648 14.5728 11.52C14.5632 11.6736 14.6016 11.7984 14.6784 11.8848C14.7456 11.9616 14.8512 11.9904 14.976 11.9904C15.3792 11.9904 15.7824 11.4816 16.0512 11.1456L16.128 11.0688ZM2.5152 14.0736C2.5152 14.544 2.8896 14.7936 3.2448 14.9856L3.3984 15.0624C3.7632 15.2448 3.9072 15.4272 3.9072 15.7056C3.9072 16.0224 3.7056 16.2528 3.408 16.2528C2.9376 16.2528 2.6688 15.7632 2.5536 15.4656V15.456L2.3904 15.5136V15.5232C2.4384 15.8208 2.496 16.1472 2.5344 16.272L2.6112 16.3008L2.8224 16.3776C2.9664 16.4256 3.1392 16.464 3.312 16.464C3.9744 16.464 4.4256 16.0608 4.4256 15.4752C4.4256 14.928 4.0032 14.6784 3.696 14.5344L3.5712 14.4768C3.168 14.2944 3.0048 14.112 3.0048 13.8624C3.0048 13.6128 3.1584 13.3632 3.4944 13.3632C3.888 13.3632 4.0416 13.6704 4.1376 13.9776V13.9872L4.3104 13.9584V13.9488C4.272 13.7088 4.2336 13.4976 4.2144 13.296V13.2864L4.0992 13.248L4.0032 13.2192C3.8784 13.1712 3.7152 13.152 3.5616 13.152C2.9472 13.1424 2.5152 13.5264 2.5152 14.0736ZM4.7904 14.8512C4.7904 15.648 5.3472 16.4544 6.5856 16.4544C6.9024 16.4544 7.3248 16.3584 7.4976 16.3104C7.584 16.1184 7.6992 15.7056 7.7472 15.4944V15.4848L7.5936 15.456V15.4656C7.344 15.9744 7.104 16.2528 6.576 16.2528C5.8944 16.2528 5.4336 15.6384 5.4336 14.736C5.4336 14.1024 5.7312 13.3632 6.576 13.3632C7.0752 13.3632 7.344 13.5744 7.4784 14.0736V14.0832L7.632 14.064L7.6128 13.8432L7.5456 13.2768H7.536L7.4496 13.2576C7.2864 13.2192 7.008 13.152 6.6624 13.152C5.568 13.1424 4.7904 13.8432 4.7904 14.8512ZM11.376 13.2096H9.9936V13.3632H10.0032C10.3584 13.392 10.4064 13.4112 10.4064 13.9488V14.592H8.9376V13.9488C8.9376 13.4208 8.9856 13.392 9.3312 13.3632H9.3408V13.2096H7.9392V13.3632H7.9488C8.3616 13.392 8.3904 13.4304 8.3904 13.9488V15.648C8.3904 16.1568 8.3616 16.2048 7.968 16.2336H7.9584V16.3872H9.36V16.2336H9.3504C8.9856 16.2048 8.9376 16.176 8.9376 15.648V14.832H10.3968V15.648C10.3968 16.1664 10.368 16.2048 9.9552 16.2336H9.9456V16.3872H11.3664V16.2336H11.3568C10.992 16.2048 10.944 16.1856 10.944 15.648V13.9488C10.944 13.4304 10.9728 13.392 11.3568 13.3632H11.3664L11.376 13.2096ZM16.2432 13.2096H15.12V13.3632L15.2928 13.3728C15.3888 13.3824 15.4368 13.4016 15.4656 13.44C15.4848 13.4592 15.4848 13.488 15.4848 13.536C15.4848 13.584 15.4752 13.6608 15.4464 13.7568C15.4368 13.8048 15.168 14.8512 14.9568 15.5616C14.9184 15.4656 14.112 13.2672 14.112 13.2672V13.2576H13.92C13.92 13.2576 13.2 15.5232 13.1904 15.5616C13.1616 15.456 12.624 13.68 12.624 13.68C12.6048 13.6128 12.5952 13.5552 12.5952 13.5168C12.5952 13.488 12.6048 13.4592 12.6144 13.4496C12.6432 13.4112 12.6912 13.392 12.7776 13.3824L12.9312 13.3728V13.2192H11.6064V13.3728H11.616C11.8752 13.4016 11.952 13.4304 12.0864 13.8432L12.8832 16.4352H13.1136C13.1136 16.4352 13.8624 14.1984 13.8624 14.1696C13.9008 14.2656 14.688 16.4256 14.688 16.4256V16.4352H14.9184V16.4256C15.3696 14.928 15.7344 13.872 15.7344 13.8624C15.8976 13.4208 15.936 13.4016 16.2336 13.3728H16.2432V13.2096ZM17.0688 13.9776C17.0688 13.9872 16.704 15.0048 16.6944 15.024H17.4432C17.4336 15.0048 17.0784 13.9872 17.0688 13.9776ZM18.2976 15.744C18.4608 16.1856 18.5376 16.2048 18.8064 16.2336H18.816V16.3872H17.52V16.2336L17.664 16.2144C17.7504 16.2048 17.7984 16.1856 17.8176 16.1568C17.8272 16.1472 17.8272 16.128 17.8272 16.1088C17.8272 16.0704 17.8176 16.032 17.7984 15.9648C17.7504 15.8208 17.6352 15.5328 17.5392 15.2736H16.6464C16.5888 15.3984 16.5216 15.6192 16.4544 15.8112L16.4256 15.888C16.3968 15.9744 16.3872 16.032 16.3872 16.08C16.3872 16.1088 16.3968 16.128 16.4064 16.1472C16.4352 16.1856 16.4832 16.2048 16.5888 16.2144L16.7328 16.2336V16.3872H15.6384V16.2336H15.648C15.9456 16.1952 15.9936 16.176 16.1664 15.744L17.1552 13.2L17.3568 13.1808H17.3664L17.6928 14.064L18.2976 15.744ZM20.16 14.592C20.592 14.592 20.832 14.3808 20.832 13.9968C20.832 13.4592 20.3712 13.4112 20.2272 13.4112C20.0736 13.4112 20.016 13.4304 20.0064 13.4304C19.968 13.4496 19.968 13.536 19.968 13.6416V14.592H20.16ZM20.3904 13.2096C20.7552 13.2096 20.9568 13.248 21.1392 13.3728C21.3216 13.4976 21.4176 13.68 21.4176 13.9296C21.4176 14.3712 20.9856 14.5824 20.7456 14.6304C21.2832 14.7072 21.6 15.0048 21.6 15.4464C21.6 15.7632 21.456 16.0032 21.1584 16.1856C20.9472 16.3104 20.6112 16.3776 20.2272 16.3776H19.008V16.224H19.0176C19.3824 16.1952 19.4304 16.1664 19.4304 15.6384V13.9392C19.4304 13.4112 19.392 13.3824 19.0464 13.3536H19.0368V13.2H20.3904V13.2096ZM19.9776 14.784V15.6384C19.9776 15.8784 19.9968 16.032 20.0736 16.1088C20.1216 16.1568 20.1984 16.176 20.3424 16.176C20.6496 16.176 20.9856 16.0032 20.9856 15.504C20.9856 15.0432 20.6784 14.784 20.1408 14.784H19.9776Z" fill="white"/>
</svg>
