<svg width="24" height="24" viewBox="0 0 24 24" fill="none" xmlns="http://www.w3.org/2000/svg">
<path d="M0 0H24V24H0V0Z" fill="#0014DC"/>
<path d="M11.4399 15.2C7.61234 12.1354 6.01556 8.2 2 8.2V15.2H11.4399Z" fill="white"/>
<path d="M19.5804 8.095C18.7988 8.095 18.1 8.435 17.6948 8.9342V6H16.7499V13H17.5278L17.6276 12.2642C17.902 12.6316 18.461 13.105 19.535 13.105C20.9778 13.105 22 12.0736 22 10.6116C22 9.1496 21.019 8.095 19.5804 8.095ZM19.3216 12.2282C18.2808 12.2282 17.6594 11.6086 17.6594 10.6014C17.6594 9.5942 18.296 8.9746 19.3216 8.9746C20.3472 8.9746 20.9838 9.5942 20.9838 10.6014C20.9838 11.6086 20.3472 12.2282 19.3216 12.2282Z" fill="white"/>
<path d="M16.0499 6H15.1049V13H16.0499V6Z" fill="white"/>
<path d="M12.4337 12.289C11.7445 12.289 11.0209 11.9528 10.6323 11.4696L9.99492 12.0762C10.6165 12.7806 11.4295 13.105 12.3929 13.105C13.7151 13.105 14.5449 12.516 14.5449 11.5228C14.5449 9.4582 10.9583 10.7494 10.9583 9.5858C10.9583 9.16 11.4549 8.9188 12.2283 8.9188C12.9175 8.9188 13.4151 9.1422 13.7245 9.4616L14.3619 8.855C13.9399 8.401 13.1453 8.095 12.2521 8.095C10.9159 8.095 10.0369 8.7272 10.0369 9.7276C10.0369 11.7354 13.6093 10.4584 13.6093 11.629C13.6093 12.0406 13.1439 12.289 12.4337 12.289Z" fill="white"/>
<path d="M21.8948 14.5H11.6799C13.7885 16.2206 17.0261 18 21.8948 18V14.5Z" fill="white"/>
</svg>
