<svg width="24" height="24" viewBox="0 0 24 24" fill="none" xmlns="http://www.w3.org/2000/svg">
<path d="M0 0H24V24H0V0Z" fill="#29B5E8"/>
<path fill-rule="evenodd" clip-rule="evenodd" d="M20.4212 11.1763L18.1706 12.472L20.4212 13.7568C20.5558 13.8346 20.6737 13.938 20.7683 14.0613C20.8629 14.1845 20.9322 14.3252 20.9724 14.4753C21.0125 14.6253 21.0227 14.7818 21.0024 14.9358C20.982 15.0898 20.9315 15.2382 20.8537 15.3727C20.7759 15.5072 20.6723 15.625 20.549 15.7195C20.4256 15.814 20.2848 15.8833 20.1346 15.9234C19.9845 15.9635 19.8278 15.9737 19.6737 15.9534C19.5196 15.933 19.371 15.8826 19.2364 15.8048L15.2039 13.4838C15.0191 13.3769 14.8666 13.2222 14.7624 13.036C14.6583 12.8498 14.6064 12.6389 14.6122 12.4256C14.6154 12.3332 14.6296 12.2416 14.6546 12.1526C14.7371 11.8541 14.9333 11.5997 15.2012 11.4439L19.2337 9.13107C19.3689 9.05302 19.5181 9.00237 19.6729 8.98202C19.8277 8.96167 19.985 8.97202 20.1358 9.01247C20.2866 9.05293 20.4279 9.12269 20.5517 9.21778C20.6754 9.31287 20.7792 9.43141 20.8571 9.56661C20.9353 9.70065 20.9861 9.84886 21.0065 10.0027C21.0269 10.1565 21.0165 10.3128 20.9759 10.4625C20.9354 10.6123 20.8655 10.7525 20.7702 10.875C20.675 10.9976 20.5564 11.1 20.4212 11.1763ZM18.2908 17.4569L14.2597 15.1399C14.0793 15.0365 13.875 14.982 13.6671 14.9819C13.4591 14.9819 13.2548 15.0361 13.0743 15.1394C12.8939 15.2427 12.7436 15.3913 12.6385 15.5705C12.5334 15.7498 12.477 15.9534 12.475 16.1612V20.7897C12.4855 21.0972 12.6151 21.3886 12.8365 21.6025C13.0579 21.8164 13.3539 21.9359 13.6618 21.9359C13.9698 21.9359 14.2657 21.8164 14.4871 21.6025C14.7086 21.3886 14.8382 21.0972 14.8486 20.7897V18.1955L17.1047 19.4912C17.2393 19.569 17.3879 19.6196 17.542 19.64C17.6962 19.6605 17.8529 19.6504 18.0031 19.6103C18.1533 19.5702 18.2942 19.501 18.4177 19.4065C18.5411 19.3121 18.6447 19.1943 18.7226 19.0598C18.8005 18.9253 18.8511 18.7768 18.8716 18.6228C18.892 18.4688 18.8819 18.3123 18.8418 18.1622C18.8017 18.012 18.7324 17.8713 18.6379 17.7479C18.5433 17.6246 18.4254 17.521 18.2908 17.4432V17.4569ZM13.6447 12.9294L11.964 14.5883C11.9065 14.6417 11.8319 14.6732 11.7535 14.6771H11.2602C11.182 14.6724 11.1077 14.6411 11.0498 14.5883L9.37855 12.924C9.32627 12.867 9.29536 12.7936 9.29109 12.7164V12.2249C9.2956 12.1474 9.32646 12.0737 9.37855 12.016L11.0498 10.3517C11.1078 10.2993 11.1821 10.2685 11.2602 10.2643H11.7535C11.8317 10.2679 11.9062 10.2989 11.964 10.3517L13.6393 12.016C13.691 12.0738 13.7213 12.1475 13.7254 12.2249V12.7164C13.7216 12.7935 13.6912 12.8668 13.6393 12.924L13.6447 12.9294ZM12.3056 12.4679C12.2991 12.3884 12.2659 12.3133 12.2113 12.255L11.7262 11.7757C11.6681 11.7235 11.5938 11.6927 11.5157 11.6883H11.498C11.4203 11.6924 11.3464 11.7233 11.2889 11.7757L10.8038 12.255C10.7517 12.3136 10.7213 12.3883 10.7177 12.4666V12.4843C10.7212 12.5615 10.7516 12.6349 10.8038 12.6919L11.2916 13.1697C11.3492 13.222 11.423 13.2528 11.5007 13.2571H11.5185C11.5965 13.2528 11.6708 13.222 11.7289 13.1697L12.214 12.6878C12.2664 12.6307 12.2978 12.5575 12.3028 12.4802L12.3056 12.4679ZM4.7229 7.48721L8.75543 9.79735C8.93598 9.90073 9.14046 9.95512 9.34856 9.95511C9.55666 9.95511 9.76114 9.90072 9.94169 9.79734C10.1222 9.69395 10.2726 9.54518 10.3778 9.36579C10.483 9.1864 10.5394 8.98263 10.5414 8.77472V4.15033C10.531 3.8428 10.4014 3.55136 10.1799 3.3375C9.95852 3.12364 9.6626 3.0041 9.35463 3.0041C9.04667 3.0041 8.75075 3.12364 8.52932 3.3375C8.30789 3.55136 8.17828 3.8428 8.16783 4.15033V6.74447L5.90902 5.4474C5.77443 5.36958 5.62582 5.31901 5.47168 5.29858C5.31753 5.27815 5.16086 5.28826 5.01062 5.32832C4.86039 5.36838 4.71952 5.43762 4.59606 5.53208C4.4726 5.62654 4.36897 5.74437 4.29109 5.87884C4.21321 6.01332 4.1626 6.1618 4.14215 6.31582C4.1217 6.46983 4.13182 6.62637 4.17191 6.77648C4.21201 6.92659 4.28131 7.06734 4.37585 7.19069C4.47039 7.31404 4.58832 7.41758 4.7229 7.4954V7.48721ZM13.5723 9.95573C13.8104 9.97455 14.0487 9.92075 14.2556 9.80145L18.2867 7.48038C18.4213 7.40257 18.5392 7.29903 18.6338 7.17567C18.7283 7.05232 18.7976 6.91157 18.8377 6.76146C18.8778 6.61135 18.8879 6.45481 18.8675 6.3008C18.847 6.14678 18.7964 5.9983 18.7185 5.86382C18.6406 5.72935 18.537 5.61152 18.4136 5.51706C18.2901 5.4226 18.1492 5.35337 17.999 5.3133C17.6956 5.23239 17.3724 5.27522 17.1006 5.43238L14.8445 6.74037V4.14623C14.8341 3.83871 14.7045 3.54726 14.483 3.3334C14.2616 3.11954 13.9657 3 13.6577 3C13.3498 3 13.0538 3.11954 12.8324 3.3334C12.611 3.54726 12.4814 3.83871 12.4709 4.14623V8.77472C12.4705 9.07438 12.5841 9.363 12.7885 9.58224C12.993 9.80148 13.2731 9.93497 13.5723 9.95573ZM9.44414 14.9856C9.20598 14.9663 8.96759 15.0201 8.76089 15.1399L4.7229 17.4514C4.45109 17.6086 4.25289 17.8672 4.17191 18.1703C4.09093 18.4735 4.1338 18.7964 4.29109 19.068C4.44838 19.3396 4.7072 19.5376 5.01062 19.6185C5.31405 19.6994 5.63721 19.6566 5.90902 19.4994L8.16783 18.2037V20.7979C8.17828 21.1054 8.30789 21.3968 8.52932 21.6107C8.75075 21.8245 9.04667 21.9441 9.35463 21.9441C9.6626 21.9441 9.95852 21.8245 10.1799 21.6107C10.4014 21.3968 10.531 21.1054 10.5414 20.7979V16.1612C10.5408 15.863 10.4274 15.5761 10.2238 15.3581C10.0203 15.1401 9.74178 15.007 9.44414 14.9856ZM8.35094 12.8188C8.42879 12.5631 8.41706 12.2884 8.31769 12.0402C8.21832 11.792 8.03725 11.5851 7.80435 11.4535L3.77592 9.1338C3.50386 8.9781 3.18121 8.93623 2.87836 9.01731C2.57552 9.09839 2.31705 9.29585 2.15936 9.56661C2.08129 9.70061 2.03059 9.84874 2.01019 10.0024C1.98979 10.1561 2.00009 10.3124 2.0405 10.4621C2.08091 10.6118 2.15063 10.752 2.24562 10.8746C2.34061 10.9972 2.45899 11.0997 2.59391 11.1763L4.84452 12.472L2.59391 13.7568C2.45932 13.8344 2.34134 13.9376 2.24669 14.0608C2.15205 14.1839 2.0826 14.3244 2.04232 14.4743C2.00203 14.6242 1.99169 14.7806 2.01189 14.9345C2.03209 15.0884 2.08243 15.2369 2.16005 15.3713C2.23766 15.5058 2.34102 15.6237 2.46423 15.7183C2.58744 15.8128 2.72808 15.8822 2.87813 15.9225C3.02818 15.9627 3.18469 15.973 3.33874 15.9529C3.49278 15.9327 3.64134 15.8824 3.77592 15.8048L7.80435 13.4838C8.06376 13.339 8.2586 13.1014 8.34958 12.8188H8.35094ZM21.0798 5.14293H20.8981V5.36548H21.0785C21.1618 5.36548 21.2151 5.32725 21.2151 5.25625C21.2151 5.18525 21.1659 5.14293 21.0785 5.14293H21.0798ZM20.6781 4.93813H21.088C21.3094 4.93813 21.457 5.05964 21.457 5.24806C21.4577 5.3005 21.4444 5.35219 21.4185 5.39779C21.3925 5.44339 21.3549 5.48125 21.3094 5.50747L21.4693 5.73685V5.78327H21.2383L21.0785 5.56482H20.8981V5.78327H20.6767L20.6781 4.93813ZM21.8123 5.37777C21.8189 5.27441 21.804 5.17079 21.7685 5.07349C21.733 4.97618 21.6776 4.8873 21.606 4.81248C21.5343 4.73766 21.4478 4.67852 21.3521 4.6388C21.2564 4.59909 21.1534 4.57967 21.0498 4.58178C20.5975 4.58178 20.2968 4.90809 20.2968 5.37777C20.2968 5.82559 20.5975 6.17239 21.0498 6.17239C21.1535 6.17488 21.2565 6.15578 21.3524 6.11631C21.4483 6.07683 21.535 6.01785 21.6068 5.94311C21.6786 5.86837 21.7341 5.77951 21.7698 5.68218C21.8054 5.58485 21.8203 5.48118 21.8136 5.37777H21.8123ZM22.0008 5.37777C22.0008 5.90888 21.6456 6.35261 21.0443 6.35261C20.443 6.35261 20.1028 5.90478 20.1028 5.37777C20.1028 4.85075 20.454 4.40292 21.0443 4.40292C21.6346 4.40292 21.9995 4.84528 21.9995 5.37777H22.0008Z" fill="white"/>
</svg>
