<svg width="24" height="24" viewBox="0 0 24 24" fill="none" xmlns="http://www.w3.org/2000/svg">
<path d="M0 0H24V24H0V0Z" fill="white"/>
<path d="M5.86781 19.8982C7.56318 21.2112 9.69117 22 11.9999 22C14.5265 22 16.8298 21.0616 18.5877 19.5212C18.609 19.5023 18.5985 19.4899 18.5774 19.5023C17.7886 20.0294 15.5404 21.1798 12 21.1798C8.92327 21.1798 6.97888 20.4931 5.88084 19.8799C5.85983 19.8695 5.85205 19.8853 5.86781 19.8982ZM12.6787 20.4094C15.1396 20.4094 17.8437 19.7383 19.461 18.4099C19.9036 18.0479 20.3252 17.5662 20.7028 16.9188C20.9201 16.5463 21.1327 16.1037 21.3058 15.6687C21.3135 15.6475 21.3004 15.6372 21.2845 15.661C19.7805 17.8752 15.4253 19.2563 10.9283 19.2563C7.7496 19.2563 4.32943 18.2394 2.99041 16.2977C2.97723 16.2798 2.96405 16.2875 2.97207 16.3081C4.21947 18.9605 8.00377 20.4094 12.6787 20.4094ZM9.99003 16.0092C4.87196 16.0092 2.45868 13.6246 2.02091 11.9972C2.01551 11.9737 2 11.9788 2 12C2 12.5478 2.05481 13.2548 2.14912 13.7241C2.1941 13.9526 2.37994 14.311 2.65239 14.5968C3.89171 15.8891 6.98151 17.7 12.3325 17.7C19.6231 17.7 21.2901 15.2704 21.6305 14.4715C21.8739 13.9001 22 12.8674 22 12C22 11.7901 21.9947 11.6225 21.9868 11.4579C21.9868 11.4311 21.9714 11.429 21.966 11.455C21.6017 13.41 15.3727 16.0092 9.99003 16.0092ZM2.96405 7.70996C2.67078 8.29222 2.3457 9.27451 2.24906 9.78291C2.2067 10.0007 2.22474 10.1053 2.3011 10.2679C2.91454 11.57 6.01741 13.6533 13.2552 13.6533C17.6708 13.6533 21.1009 12.568 21.6566 10.5876C21.759 10.223 21.7645 9.83813 21.633 9.31947C21.4861 8.73989 21.211 8.06403 20.9782 7.58944C20.9705 7.57397 20.957 7.57626 20.9597 7.59455C21.0462 10.1921 13.8056 11.8661 10.1522 11.8661C6.19503 11.8661 2.89362 10.2888 2.89362 8.29718C2.89362 8.10582 2.93321 7.91441 2.98263 7.71522C2.98759 7.69702 2.97202 7.694 2.96405 7.70996ZM18.6039 4.52077C18.6459 4.58665 18.6668 4.65696 18.6668 4.75159C18.6668 5.86268 15.2677 7.82824 9.85667 7.82824C5.88084 7.82824 5.13648 6.35273 5.13648 5.41437C5.13648 5.07894 5.26507 4.73573 5.54828 4.38716C5.56374 4.36644 5.55061 4.35846 5.53276 4.37388C5.01626 4.81178 4.54167 5.3045 4.12536 5.8364C3.92644 6.08795 3.80295 6.31079 3.80295 6.4443C3.80295 8.38889 8.67698 9.79882 13.2343 9.79882C18.0903 9.79882 20.2575 8.21296 20.2575 6.81928C20.2575 6.3212 20.0636 6.03044 19.5679 5.46672C19.246 5.10001 18.9416 4.80141 18.6194 4.50749C18.6039 4.49464 18.593 4.5051 18.6039 4.52077ZM17.1152 3.40993C15.6165 2.51127 13.8762 2 12 2C10.1107 2 8.318 2.52912 6.81396 3.45157C6.36282 3.72935 6.10889 3.95194 6.10889 4.23808C6.10889 5.08157 8.07935 5.9885 11.5752 5.9885C15.0348 5.9885 17.7181 4.99511 17.7181 4.03889C17.7181 3.81065 17.5187 3.65096 17.1152 3.40993Z" fill="#00A8E0"/>
</svg>
