<svg width="24" height="24" viewBox="0 0 24 24" fill="none" xmlns="http://www.w3.org/2000/svg">
<path d="M0 0H24V24H0V0Z" fill="#1868DB"/>
<path d="M21.0382 20.1182L12.6927 3.42713C12.5284 3.06571 12.3641 3 12.1669 3C12.0027 3 11.8055 3.06571 11.6084 3.39428C10.4255 5.26709 9.89985 7.43561 9.89985 9.70269C9.89985 12.8569 11.5098 15.814 13.8755 20.5782C14.1383 21.1039 14.3355 21.2025 14.7954 21.2025H20.5782C21.0053 21.2025 21.2353 21.0382 21.2353 20.7096C21.2353 20.5453 21.2025 20.4468 21.0382 20.1182ZM8.91414 12.2326C8.257 11.247 8.05989 11.1812 7.8956 11.1812C7.73132 11.1812 7.63275 11.247 7.33705 11.8384L3.16428 20.1839C3.03286 20.4468 3 20.5453 3 20.6768C3 20.9396 3.23 21.2025 3.72284 21.2025H9.60413C9.9984 21.2025 10.2941 20.8739 10.4584 20.2496C10.6555 19.4611 10.7212 18.7711 10.7212 17.9497C10.7212 15.6497 9.70269 13.4155 8.91414 12.2326Z" fill="white"/>
</svg>
