<svg width="24" height="24" viewBox="0 0 24 24" fill="none" xmlns="http://www.w3.org/2000/svg">
<path d="M11.9944 19.9992C7.57621 19.9992 3.99072 16.4195 3.99072 12.0006C3.99072 7.57366 7.57621 3.99649 11.9944 3.99649C16.4164 3.99649 19.9974 7.57366 19.9974 12.0006C19.9974 16.4195 16.4164 19.9992 11.9944 19.9992ZM11.9944 0C5.37101 0 0 5.37237 0 12.0006C0 18.6237 5.37101 23.9944 11.9944 23.9944C18.6206 23.9944 24 18.6237 24 12.0006C24 5.37237 18.6206 0 11.9944 0Z" fill="#CC0000"/>
<path d="M11.9943 7.88828C9.72402 7.88828 7.88449 9.72335 7.88449 12.0006C7.88449 14.2703 9.72396 16.1108 11.9943 16.1108C14.2668 16.1108 16.1103 14.2702 16.1103 12.0006C16.1103 9.72341 14.2668 7.88828 11.9943 7.88828Z" fill="#CC0000"/>
</svg>
