<svg width="24" height="24" viewBox="0 0 24 24" fill="none" xmlns="http://www.w3.org/2000/svg">
<path d="M0 0H24V24H0V0Z" fill="#E20074"/>
<path d="M8.22978 14.7423H4.80121V11.3137H8.22373V14.7423H8.22978ZM4.8012 3.42857V9.25775H5.82917V9.08844C5.82917 6.34316 7.37112 4.6319 10.2857 4.6319H10.455V16.9735C10.455 18.6848 9.77172 19.3741 8.05442 19.3741H7.54044V20.5714H16.4535V19.3741H15.9395C14.2283 19.3741 13.5389 18.6908 13.5389 16.9735V4.62585H13.7082C16.6228 4.62585 18.1648 6.33711 18.1648 9.08238V9.2517H19.1927V3.42857H4.8012ZM15.7702 14.7423H19.1988V11.3137H15.7763V14.7423H15.7702Z" fill="white"/>
</svg>
