<svg width="24" height="24" viewBox="0 0 24 24" fill="none" xmlns="http://www.w3.org/2000/svg">
<path d="M0 0H24V24H0V0Z" fill="#E82127"/>
<path d="M11.9529 21.5L14.6255 6.48681C17.173 6.48681 17.9765 6.76582 18.0925 7.90469C18.0925 7.90469 19.8014 7.26825 20.6633 5.97566C17.2999 4.41895 13.9204 4.34874 13.9204 4.34874L11.9485 6.74776L11.9529 6.74746L9.98095 4.34837C9.98095 4.34837 6.60143 4.41865 3.23848 5.97535C4.09963 7.26795 5.80921 7.90438 5.80921 7.90438C5.9259 6.76545 6.72844 6.48643 9.25879 6.48463L11.9529 21.5Z" fill="white"/>
<path d="M11.9519 3.65579C14.6707 3.63502 17.7827 4.0759 20.9685 5.46277C21.3943 4.69729 21.5037 4.35898 21.5037 4.35898C18.0212 2.98278 14.7599 2.51181 11.9515 2.5C9.14323 2.51181 5.88206 2.98286 2.4 4.35898C2.4 4.35898 2.55534 4.77569 2.93488 5.46277C6.12004 4.0759 9.23258 3.63502 11.9515 3.65579H11.9519Z" fill="white"/>
</svg>
