<svg width="24" height="24" viewBox="0 0 24 24" fill="none" xmlns="http://www.w3.org/2000/svg">
<path d="M0 0H24V24H0V0Z" fill="#F47D39"/>
<path d="M9.73254 14.4651C9.73254 14.2777 9.73254 14.1652 9.7138 14.0153C9.75128 14.0153 10.0698 14.0153 10.1635 14.0153C10.3697 14.0153 10.5196 14.0903 10.5196 14.2589C10.5196 14.4276 10.3509 14.5026 10.2385 14.5213C10.3509 14.5213 10.5571 14.5963 10.5571 14.8024C10.5571 15.0273 10.3509 15.121 10.1448 15.121C10.0511 15.121 9.75128 15.121 9.7138 15.121C9.7138 14.971 9.73254 14.8586 9.73254 14.6712V14.4651ZM10.0886 14.109C10.0324 14.109 10.0324 14.109 9.99489 14.109C9.99489 14.184 9.99489 14.2777 9.99489 14.3339C9.99489 14.3901 9.99489 14.4463 9.99489 14.5026H10.0698C10.1635 14.5026 10.276 14.4276 10.276 14.2964C10.276 14.184 10.2198 14.109 10.0886 14.109ZM10.0698 14.5963C10.0324 14.5963 10.0136 14.5963 9.99489 14.5963C9.99489 14.6337 9.99489 14.6899 9.99489 14.7462C9.99489 14.8399 9.99489 14.971 9.99489 15.0273C10.0324 15.0273 10.0511 15.0273 10.0886 15.0273C10.1823 15.0273 10.276 14.9523 10.276 14.8024C10.276 14.6712 10.201 14.5963 10.0698 14.5963Z" fill="white"/>
<path d="M12.2811 14.4651C12.2811 14.2777 12.2811 14.1652 12.2624 14.0153C12.3748 14.0153 12.8995 14.0153 12.937 14.0153C12.937 14.0341 12.937 14.1278 12.937 14.1652C12.8058 14.1465 12.5809 14.1465 12.5247 14.1465C12.5247 14.2589 12.5247 14.3714 12.5247 14.4838C12.6746 14.4838 12.7871 14.4838 12.9182 14.4651C12.9182 14.5026 12.9182 14.5775 12.9182 14.5963C12.7871 14.5963 12.6559 14.5775 12.5247 14.5775C12.5247 14.6525 12.5247 14.7087 12.5247 14.7836C12.5247 14.8586 12.5247 14.9148 12.5247 14.971C12.6559 14.971 12.7871 14.971 12.9182 14.971C12.9182 14.9898 12.9182 15.1022 12.9182 15.121C12.862 15.121 12.2811 15.121 12.2436 15.121C12.2624 14.971 12.2624 14.8586 12.2624 14.6712V14.4651H12.2811Z" fill="white"/>
<path d="M15.6354 15.1397C15.5792 15.1397 15.3731 15.1397 15.3356 15.1397C15.2981 15.0273 15.2606 14.9148 15.2044 14.8024C15.1295 14.8024 14.8671 14.8024 14.7922 14.8024C14.7359 14.9148 14.6985 15.0273 14.661 15.1397C14.6422 15.1397 14.5298 15.1397 14.4923 15.1397C14.5673 14.9523 14.8296 14.3714 14.9983 14.0153C15.017 14.0153 15.1107 14.0153 15.1295 14.0153C15.2981 14.3714 15.5043 14.8773 15.6354 15.1397ZM15.1857 14.7087C15.1295 14.5775 15.092 14.4463 15.0358 14.3152C14.9796 14.4463 14.9233 14.5775 14.8671 14.7087H15.1857Z" fill="white"/>
<path d="M17.0221 14.7274C17.0221 14.5588 17.0221 14.4651 17.0221 14.3526C17.0221 14.184 17.0221 14.0716 17.0221 14.0153C17.0784 14.0153 17.1158 14.0153 17.1721 14.0153C17.2095 14.0153 17.2658 14.0153 17.322 14.0153C17.3032 14.2215 17.3032 14.3901 17.3032 14.5775C17.3032 14.971 17.4344 15.046 17.6593 15.046C17.9404 15.046 17.9591 14.7649 17.9591 14.4651C17.9591 14.3152 17.9591 14.1652 17.9404 14.0153C17.9779 14.0153 17.9966 14.0153 18.0341 14.0153C18.0716 14.0153 18.0903 14.0153 18.1278 14.0153C18.109 14.109 18.109 14.3339 18.109 14.6337C18.109 15.0085 17.9404 15.1584 17.6031 15.1584C17.247 15.1584 17.0221 15.0273 17.0221 14.7274Z" fill="white"/>
<path d="M19.908 14.2777C19.908 14.2215 19.908 14.1652 19.908 14.1465C19.8518 14.1465 19.7019 14.1465 19.5894 14.1652C19.5894 14.1465 19.5894 14.0528 19.5894 14.0153C19.7394 14.0153 20.339 14.0153 20.4889 14.0153C20.4889 14.0341 20.4889 14.1278 20.4889 14.1652C20.3952 14.1652 20.2453 14.1652 20.1704 14.1652C20.1704 14.184 20.1704 14.2402 20.1704 14.2964V14.7087C20.1704 14.8961 20.1704 15.0085 20.1891 15.1584C20.1516 15.1584 19.9455 15.1584 19.908 15.1584C19.9267 15.0085 19.9267 14.8961 19.9267 14.7087C19.908 14.6899 19.908 14.2777 19.908 14.2777Z" fill="white"/>
<path d="M22.569 14.5026C22.6627 14.3714 22.7564 14.184 22.8313 14.0153C22.8688 14.0153 22.9625 14.0153 23 14.0153C22.925 14.1465 22.7376 14.4463 22.6252 14.6525C22.6252 14.7087 22.6252 14.7462 22.6252 14.8024C22.6252 14.9148 22.6252 15.0273 22.644 15.1397C22.5877 15.1397 22.4003 15.1397 22.3441 15.1397C22.3441 15.046 22.3629 14.9336 22.3629 14.8211C22.3629 14.7649 22.3629 14.7274 22.3629 14.6712C22.2317 14.4463 22.0443 14.109 21.9881 14.0153C22.0443 14.0153 22.2504 14.0153 22.3066 14.0153C22.3816 14.1652 22.5128 14.4276 22.569 14.5026Z" fill="white"/>
<path d="M5.32877 8.67462C5.31003 9.27428 5.31003 10.0426 5.31003 10.7359C5.31003 12.0102 5.32877 12.2913 5.57238 12.6099C5.81599 12.9285 6.26573 13.0971 6.82791 13.0971C7.50253 13.0971 8.02723 12.7598 8.21463 12.2726C8.27084 12.1039 8.32706 11.8416 8.32706 11.1857C8.32706 10.1363 8.32706 9.08688 8.2521 8.05622C8.36454 8.07496 8.88924 8.07496 9.02042 8.05622L8.98294 8.43101C8.94546 9.12436 8.92672 10.7734 8.90798 11.5792C8.88924 12.5349 8.60815 12.9659 8.06471 13.3032C7.67119 13.5468 7.12774 13.6405 6.678 13.6405C5.68481 13.6405 4.50423 13.3407 4.31684 12.0852C4.2981 11.9727 4.2981 11.7291 4.2981 11.6542V9.49915C4.2981 9.08688 4.27936 8.46848 4.26062 8.05622C4.44802 8.07496 5.21633 8.07496 5.38498 8.05622L5.32877 8.67462Z" fill="white"/>
<path d="M10.2385 10.2675C10.2385 9.91141 10.2385 9.83646 10.2197 9.12436C10.201 8.95571 10.1823 8.22487 10.1635 8.07496C10.3697 8.11243 11.1005 8.11243 11.3066 8.07496C11.2504 9.27427 11.2317 10.2862 11.2317 11.523C11.2317 12.0852 11.2504 12.6099 11.2504 13.0409H11.4003C11.6439 13.0409 12.8245 13.0409 13.3117 12.9659C13.2743 13.0596 13.2743 13.4531 13.3117 13.5656C12.8807 13.5468 12.1874 13.5281 11.7376 13.5281C11.2129 13.5281 10.7632 13.5468 10.1635 13.5843C10.1635 13.4532 10.2197 11.598 10.2197 11.4106V10.2675H10.2385Z" fill="white"/>
<path d="M15.6354 12.46C15.6354 13.0596 15.6729 13.322 15.6916 13.5468C15.448 13.5281 14.8296 13.5094 14.5298 13.5468C14.5673 12.9472 14.6047 12.3288 14.6047 11.7104V9.48041C14.6047 9.18058 14.6047 8.89949 14.586 8.59966H14.1737C14.0988 8.59966 13.3117 8.6184 12.8807 8.65588C12.8995 8.56218 12.9182 8.11244 12.8995 8.01874C13.5553 8.05622 14.4548 8.05622 15.092 8.05622C15.7853 8.05622 16.5162 8.03748 17.3032 8C17.2845 8.13118 17.2657 8.5247 17.3032 8.65588C16.816 8.59966 16.2351 8.59966 15.6541 8.59966C15.6541 8.88075 15.6354 9.19932 15.6354 9.49915V12.46Z" fill="white"/>
<path d="M20.5264 12.6848L20.1891 11.8416C19.833 11.8228 18.4651 11.8228 18.1465 11.8416C17.8841 12.46 17.6218 13.1158 17.4906 13.5656C17.3782 13.5468 16.8347 13.5468 16.7223 13.5656L17.678 11.5043C18.5213 9.70528 18.9898 8.67462 19.1771 8.05622H19.7206C20.1141 9.10562 20.6013 10.23 20.9012 10.9046C21.2197 11.598 21.7632 12.7973 22.1192 13.5656C21.988 13.5656 21.0136 13.5656 20.8637 13.5656L20.5264 12.6848ZM19.1584 9.38671L18.3151 11.3356C18.615 11.3356 18.8773 11.3543 19.1771 11.3543C19.3458 11.3543 19.5894 11.3543 19.9455 11.3356L19.1584 9.38671Z" fill="white"/>
<path d="M3.04259 8.29983C1.74957 9.18058 1 10.2675 1 11.6167C1 14.6712 4.67291 16.9199 9.91993 16.9199C12.2624 16.9199 14.23 16.3203 15.6917 15.5707H15.598C13.8552 16.0954 12.075 16.3203 10.2385 16.3203C4.97274 16.3015 1.33731 13.8279 1.33731 11.5417C1.33731 10.2675 1.91823 9.18058 3.04259 8.37479V8.29983Z" fill="white"/>
<path d="M21.4634 8.05622C21.632 8.05622 21.7819 8.20613 21.7819 8.39353C21.7819 8.58092 21.632 8.73083 21.4634 8.73083C21.276 8.73083 21.1261 8.58092 21.1261 8.39353C21.1261 8.18739 21.2947 8.05622 21.4634 8.05622ZM21.4634 8.65588C21.6133 8.65588 21.7257 8.5247 21.7257 8.37479C21.7257 8.22487 21.6133 8.0937 21.4634 8.0937C21.3135 8.0937 21.1823 8.22487 21.1823 8.37479C21.201 8.54344 21.3135 8.65588 21.4634 8.65588ZM21.3322 8.18739H21.4821C21.5758 8.18739 21.6133 8.22487 21.6133 8.29983C21.6133 8.37479 21.5758 8.39353 21.5196 8.41227L21.632 8.58092H21.5758L21.4821 8.41227H21.4072V8.58092H21.3509V8.18739H21.3322ZM21.4446 8.35605C21.5009 8.35605 21.5383 8.35605 21.5383 8.29983C21.5383 8.24361 21.4821 8.24361 21.4446 8.24361H21.3697V8.35605H21.4446Z" fill="white"/>
</svg>
