<svg width="24" height="24" viewBox="0 0 24 24" fill="none" xmlns="http://www.w3.org/2000/svg">
<path d="M0 0H24V24H0V0Z" fill="#301506"/>
<path fill-rule="evenodd" clip-rule="evenodd" d="M4.43662 7.96525L4.50934 16.2197L6.36387 18.5106L11.9277 21.456L18.764 18.1106L20.1822 14.7288L20.0367 3.78324L14.8731 3.63778L9.49134 4.51051L4.58229 7.34683L4.43662 7.96525Z" fill="#301506"/>
<path d="M12.4025 2.00016C9.16176 2.00016 6.33489 2.62759 4 3.8649V13.7568C4 15.8382 4.78207 17.5788 6.26126 18.7913C7.63468 19.9179 11.8822 21.7745 12.4027 22C12.8963 21.7852 17.1942 19.8999 18.5458 18.7913C20.0242 17.5794 20.8064 15.8384 20.8064 13.7568V3.8649C18.4712 2.62743 15.6446 2.00016 12.4025 2.00016ZM17.2012 3.91551C18.1677 3.92814 19.1166 3.98784 20.0339 4.07309V13.7567C20.0339 15.6176 19.3586 17.1208 18.0558 18.194C16.8918 19.1525 13.3821 20.725 12.4027 21.1567C11.4102 20.7192 7.89165 19.1268 6.74864 18.1944C5.45348 17.1396 4.77174 15.6007 4.77174 13.7571V8.09879C8.49366 4.6855 13.0136 3.86073 17.2012 3.91551ZM12.6216 8.42458C11.8242 8.42458 11.1809 8.60282 10.6512 8.94473V18.4722H12.1137V15.3942C12.2596 15.4373 12.4714 15.4775 12.7715 15.4775C14.3938 15.4775 15.3262 14.0151 15.3262 11.8799C15.3262 9.74881 14.3661 8.42458 12.6216 8.42458ZM17.6187 8.42458C16.6569 8.45246 15.6511 9.14919 15.6573 10.3303C15.6597 11.108 15.8753 11.6896 17.0806 12.3969C17.7239 12.7744 17.983 13.0232 17.9941 13.482C18.0064 13.992 17.654 14.2995 17.1178 14.2975C16.6512 14.2938 16.0935 14.0349 15.72 13.7024V15.0482C16.178 15.3213 16.7494 15.5018 17.3266 15.5018C18.7714 15.5018 19.4165 14.4812 19.4444 13.546C19.4718 12.6937 19.2363 12.0487 18.0146 11.3309C17.4693 11.0111 17.0387 10.8009 17.0531 10.2688C17.0674 9.74933 17.4987 9.56684 17.9127 9.57055C18.4236 9.57506 18.9177 9.85797 19.2227 10.1708V8.89986C18.9657 8.70184 18.4215 8.39999 17.6187 8.42458ZM5.51855 8.57256V13.1682C5.51855 14.7175 6.25142 15.5019 7.69782 15.5019C8.59281 15.5019 9.34241 15.2947 9.9008 14.9151V8.57259H8.44155V14.083C8.28248 14.192 8.04653 14.2617 7.7497 14.2617C7.0798 14.2617 6.9797 13.6474 6.9797 13.2329V8.57266L5.51855 8.57256ZM12.6315 9.60199C13.4797 9.60199 13.8313 10.2792 13.8313 11.9171C13.8313 13.5152 13.4292 14.2873 12.5879 14.2873C12.3899 14.2873 12.2178 14.2382 12.1132 14.1989V9.70782C12.2317 9.64879 12.433 9.60199 12.6315 9.60199Z" fill="#FAB80A"/>
</svg>
