<svg width="24" height="24" viewBox="0 0 24 24" fill="none" xmlns="http://www.w3.org/2000/svg">
<path d="M0 0H24V24H0V0Z" fill="#00579F"/>
<path d="M10.6666 15.3586H9.0465L10.0599 9.11322H11.6799L10.6666 15.3586Z" fill="white"/>
<path d="M16.5398 9.2659C16.2202 9.13954 15.7134 9.00001 15.0867 9.00001C13.4867 9.00001 12.3601 9.8504 12.3531 11.0662C12.3399 11.9632 13.1598 12.4614 13.7731 12.7605C14.3999 13.0661 14.6129 13.2656 14.6129 13.538C14.6066 13.9564 14.1064 14.1493 13.64 14.1493C12.9932 14.1493 12.6466 14.0499 12.1199 13.8171L11.9065 13.7173L11.6798 15.1192C12.0598 15.2918 12.7599 15.4449 13.4867 15.4516C15.1867 15.4516 16.2934 14.6144 16.3065 13.3188C16.313 12.6078 15.88 12.0631 14.9466 11.6179C14.3799 11.3322 14.0329 11.1395 14.0329 10.8471C14.0395 10.5813 14.3264 10.3091 14.9661 10.3091C15.4928 10.2957 15.8798 10.4219 16.1729 10.5482L16.3195 10.6145L16.5398 9.2659Z" fill="white"/>
<path d="M18.6931 13.1461C18.8265 12.7873 19.3399 11.3987 19.3399 11.3987C19.3332 11.412 19.4731 11.0332 19.5531 10.8007L19.6663 11.3389C19.6663 11.3389 19.9731 12.8338 20.0397 13.1461C19.7865 13.1461 19.0131 13.1461 18.6931 13.1461ZM20.693 9.11322H19.4398C19.0533 9.11322 18.7597 9.22608 18.593 9.6314L16.1865 15.3585H17.8864C17.8864 15.3585 18.1663 14.5876 18.2265 14.4216C18.413 14.4216 20.0667 14.4216 20.3066 14.4216C20.3531 14.6409 20.4999 15.3585 20.4999 15.3585H22L20.693 9.11322Z" fill="white"/>
<path d="M7.6933 9.11322L6.10665 13.3719L5.93327 12.5082C5.63993 11.5116 4.71996 10.4288 3.69332 9.8904L5.14663 15.3519H6.85989L9.40647 9.11322H7.6933Z" fill="white"/>
<path d="M4.63331 9.11322H2.02667L2 9.23941C4.03335 9.75767 5.37999 11.0067 5.93327 12.5082L5.36662 9.6382C5.27332 9.23932 4.98663 9.12638 4.63331 9.11322Z" fill="white"/>
</svg>
