<svg width="24" height="24" viewBox="0 0 24 24" fill="none" xmlns="http://www.w3.org/2000/svg">
<path d="M0 0H24V24H0V0Z" fill="white"/>
<path fill-rule="evenodd" clip-rule="evenodd" d="M20.0234 10.5015C17.368 12.4791 14.9105 12.2662 12.6493 9.86282C17.2327 8.12004 19.6474 5.42722 22 7.73606L20.2551 10.2128H20.2523L20.2519 10.2163H20.249L20.2487 10.2206H20.2455L20.2423 10.2217C20.2405 10.2217 20.2412 10.2238 20.2398 10.2238V10.2248L20.2394 10.2259L20.2383 10.228L20.2369 10.2294C20.2369 10.2305 20.2355 10.2305 20.2355 10.2316L20.2348 10.2326C20.2319 10.2326 20.229 10.2379 20.2276 10.2379L20.2265 10.2397L20.2273 10.2404L20.2251 10.2429L20.2219 10.245V10.2461C20.2219 10.2482 20.2165 10.2539 20.2148 10.255L20.2141 10.256V10.2613H20.213V10.2627L20.2123 10.2635L20.2119 10.2652L20.2101 10.2659L20.2076 10.2673C20.2066 10.2681 20.2058 10.2695 20.2058 10.2712L20.2048 10.2727L20.2001 10.2744L20.1991 10.2759C20.1958 10.2776 20.1791 10.301 20.1758 10.3056L20.1751 10.307C20.1751 10.3091 20.1719 10.3116 20.1719 10.3148L20.1716 10.3162C20.1683 10.3176 20.1619 10.3247 20.1583 10.3247V10.3262C20.1516 10.3293 20.1462 10.3354 20.1387 10.3382V10.3393H20.1362V10.3403H20.1351L20.1341 10.3424C20.1326 10.3424 20.1323 10.3435 20.1309 10.3435V10.3446L20.1251 10.3478V10.3499H20.1241C20.1223 10.3513 20.1144 10.358 20.113 10.358L20.1087 10.3637H20.1077V10.3648L20.1059 10.3676V10.3687H20.1037C20.1037 10.4136 20.0398 10.4303 20.0398 10.4593H20.0387C20.0387 10.4625 20.0312 10.4693 20.0312 10.4735H20.0302C20.0291 10.4749 20.0255 10.4788 20.0255 10.4802H20.0245C20.0212 10.4834 20.0234 10.4976 20.0234 10.5015Z" fill="#ECB833"/>
<path fill-rule="evenodd" clip-rule="evenodd" d="M20.2587 10.2078C13.3345 16.4255 10.6191 1.71847 2 7.28441L11.7124 21" fill="#00939A"/>
</svg>
