<svg width="24" height="24" viewBox="0 0 24 24" fill="none" xmlns="http://www.w3.org/2000/svg">
<path d="M0 0H24V24H0V0Z" fill="white"/>
<path d="M18.4082 13.4122C18.4326 12.9429 18.4449 12.4653 18.4449 12C18.4449 11.5347 18.4326 11.0571 18.4082 10.5878C18.8898 10.6122 19.3633 10.6408 19.8245 10.6694C19.8531 11.1143 19.8694 11.5592 19.8694 12C19.8694 12.4408 19.8531 12.8857 19.8245 13.3306C19.3673 13.3592 18.8898 13.3878 18.4082 13.4122ZM17.1347 19.1959C17.2816 18.7592 17.4204 18.298 17.5388 17.8286C16.8367 17.9959 16.1061 18.1265 15.3592 18.2286C15.3102 18.702 15.2571 19.1673 15.1959 19.6163C15.8612 19.5061 16.5102 19.3673 17.1347 19.1959ZM14.6449 21.7429C14.7592 21.151 14.8612 20.5225 14.951 19.8653C14.4857 19.9347 14.0082 19.9837 13.5306 20.0204C13.4857 20.7143 13.4326 21.3796 13.3755 22C13.8 21.9429 14.2286 21.8571 14.6449 21.7429ZM5.5551 12C5.5551 11.5347 5.56734 11.0571 5.59183 10.5878C5.1102 10.6122 4.63673 10.6408 4.17551 10.6694C4.14693 11.1143 4.13061 11.5592 4.13061 12C4.13061 12.4408 4.14693 12.8857 4.17551 13.3306C4.63265 13.3592 5.1102 13.3878 5.59183 13.4122C5.56734 12.9429 5.5551 12.4653 5.5551 12ZM13.5224 15.4367C13.5347 14.8898 13.5469 14.3306 13.5551 13.7673C13.0367 13.7714 12.5143 13.7755 12 13.7755C11.4898 13.7755 10.9673 13.7714 10.4449 13.7673C10.4531 14.3306 10.4612 14.8898 10.4775 15.4367C10.9837 15.449 11.4939 15.4531 12 15.4531C12.5061 15.4531 13.0163 15.449 13.5224 15.4367ZM15.1673 5.95918C14.6653 5.89388 14.151 5.84898 13.6326 5.81633C13.6735 6.63674 13.702 7.4898 13.7265 8.3551C14.2735 8.36735 14.8204 8.39184 15.3551 8.41633C15.3102 7.58367 15.249 6.7551 15.1673 5.95918ZM8.63673 5.77143C8.68571 5.29796 8.73877 4.83265 8.8 4.38367C8.13877 4.4898 7.48571 4.63265 6.8653 4.8C6.71836 5.23674 6.57959 5.69796 6.46122 6.16735C7.15918 6.00816 7.88979 5.87347 8.63673 5.77143ZM13.5224 8.56327C13.0163 8.55102 12.5061 8.54694 12 8.54694C11.4939 8.54694 10.9837 8.55102 10.4775 8.56327C10.4653 9.11021 10.4531 9.66939 10.4449 10.2327C10.9592 10.2286 11.4816 10.2245 12 10.2245C12.5184 10.2245 13.0408 10.2286 13.5551 10.2327C13.5469 9.66939 13.5347 9.11021 13.5224 8.56327ZM4.62857 17.298C4.0653 17.102 3.53061 16.8857 3.03673 16.649C3.29796 17.1469 3.6 17.6286 3.94285 18.0816C4.29387 18.2612 4.66122 18.4286 5.04489 18.5837C4.89387 18.1673 4.75102 17.7347 4.62857 17.298ZM20.0571 5.91837C19.7061 5.73878 19.3388 5.57143 18.9551 5.41633C19.1102 5.83265 19.249 6.26123 19.3714 6.70204C19.9347 6.89796 20.4694 7.11429 20.9633 7.35102C20.702 6.85306 20.3959 6.37143 20.0571 5.91837Z" fill="#43BEAC"/>
<path d="M19.8653 14.951C19.9347 14.4816 19.9837 14.0082 20.0204 13.5306C20.7143 13.4857 21.3755 13.4327 22 13.3755C21.9429 13.8041 21.8571 14.2286 21.7429 14.6449C21.1551 14.7551 20.5224 14.8612 19.8653 14.951ZM19.1959 17.1347C19.3673 16.5102 19.5061 15.8612 19.6122 15.2C19.1633 15.2571 18.698 15.3143 18.2245 15.3633C18.1265 16.1102 17.9918 16.8408 17.8245 17.5429C18.298 17.4204 18.7592 17.2816 19.1959 17.1347ZM15.1673 18.0408C15.2449 17.2449 15.3102 16.4204 15.3551 15.5837C14.8204 15.6122 14.2735 15.6327 13.7265 15.6449C13.702 16.5143 13.6735 17.3673 13.6327 18.1837C14.151 18.151 14.6653 18.102 15.1673 18.0408ZM8.3551 13.7265C7.48163 13.702 6.62857 13.6735 5.81633 13.6327C5.84898 14.151 5.89796 14.6653 5.95918 15.1673C6.7551 15.2449 7.57959 15.3102 8.41633 15.3551C8.39184 14.8245 8.37143 14.2776 8.3551 13.7265ZM10.4694 20.0204C9.99184 19.9837 9.51429 19.9347 9.04898 19.8653C9.13878 20.5224 9.2449 21.151 9.3551 21.7429C9.77143 21.8571 10.2 21.9429 10.6245 22C10.5673 21.3796 10.5184 20.7143 10.4694 20.0204ZM19.1959 6.86531C18.7592 6.71837 18.298 6.57959 17.8286 6.46122C17.9959 7.16327 18.1265 7.89388 18.2286 8.64082C18.702 8.6898 19.1673 8.74286 19.6163 8.80408C19.5061 8.13877 19.3673 7.4898 19.1959 6.86531ZM14.6449 2.25714C14.2286 2.14286 13.8 2.05714 13.3755 2C13.4327 2.62041 13.4857 3.28571 13.5306 3.97959C14.0082 4.01633 14.4857 4.06531 14.951 4.13469C14.8612 3.47755 14.7551 2.84898 14.6449 2.25714ZM3.97959 10.4694C4.01633 9.99184 4.06531 9.51429 4.13469 9.04898C3.47755 9.13878 2.84898 9.2449 2.25714 9.3551C2.14286 9.77143 2.05714 10.1959 2 10.6245C2.62041 10.5673 3.28571 10.5184 3.97959 10.4694ZM8.3551 10.2735C8.36735 9.72653 8.39184 9.17959 8.41633 8.6449C7.57959 8.6898 6.7551 8.7551 5.95918 8.83265C5.89388 9.33469 5.84898 9.84898 5.81633 10.3673C6.63673 10.3265 7.4898 10.2939 8.3551 10.2735ZM13.3306 4.17551C12.8857 4.14694 12.4408 4.13061 12 4.13061C11.5592 4.13061 11.1143 4.14694 10.6694 4.17551C10.6408 4.63265 10.6122 5.1102 10.5878 5.59184C11.0571 5.56735 11.5306 5.5551 12 5.5551C12.4694 5.5551 12.9429 5.56735 13.4122 5.59184C13.3878 5.1102 13.3592 4.63265 13.3306 4.17551ZM6.70204 19.3714C6.26531 19.249 5.83265 19.1102 5.41633 18.9551C5.57143 19.3388 5.73878 19.7061 5.91837 20.0571C6.37143 20.4 6.85306 20.702 7.35102 20.9633C7.11429 20.4653 6.89796 19.9347 6.70204 19.3714ZM18.0816 3.94286C17.6286 3.6 17.1469 3.29796 16.649 3.03673C16.8857 3.53061 17.1061 4.06531 17.298 4.62857C17.7347 4.75102 18.1673 4.8898 18.5837 5.0449C18.4286 4.66531 18.2571 4.29388 18.0816 3.94286Z" fill="#56AEE1"/>
<path d="M6.17142 17.5388C5.69796 17.4163 5.24081 17.2816 4.80408 17.1347C4.63265 16.5102 4.49387 15.8612 4.38775 15.2C4.83673 15.2571 5.30204 15.3143 5.77551 15.3633C5.87347 16.1061 6.00816 16.8408 6.17142 17.5388ZM10.2245 12C10.2245 11.4857 10.2286 10.9633 10.2326 10.4449C9.67346 10.4531 9.11428 10.4612 8.56326 10.4776C8.55102 10.9837 8.54694 11.4939 8.54694 12C8.54694 12.5061 8.55102 13.0163 8.56326 13.5224C9.11428 13.5347 9.67346 13.5469 10.2326 13.5551C10.2286 13.0367 10.2245 12.5143 10.2245 12ZM13.3306 19.8245C13.3592 19.3673 13.3878 18.8898 13.4122 18.4082C12.9429 18.4327 12.4653 18.4449 12 18.4449C11.5347 18.4449 11.0612 18.4327 10.5878 18.4082C10.6122 18.8898 10.6408 19.3633 10.6694 19.8245C11.1143 19.8531 11.5592 19.8694 12 19.8694C12.4408 19.8694 12.8857 19.8531 13.3306 19.8245ZM18.0408 8.83265C17.2449 8.7551 16.4204 8.6898 15.5837 8.6449C15.6122 9.17959 15.6326 9.72653 15.6449 10.2735C16.5143 10.298 17.3673 10.3265 18.1837 10.3673C18.151 9.84898 18.102 9.33469 18.0408 8.83265ZM10.4694 3.97959C10.5143 3.28571 10.5673 2.62041 10.6245 2C10.1959 2.05714 9.77142 2.14286 9.3551 2.25714C9.24081 2.8449 9.13877 3.47755 9.04898 4.13469C9.51428 4.06531 9.99183 4.01224 10.4694 3.97959ZM20.0571 18.0816C20.4 17.6286 20.702 17.151 20.9633 16.649C20.4694 16.8857 19.9347 17.1061 19.3714 17.298C19.249 17.7347 19.1102 18.1673 18.9551 18.5837C19.3347 18.4286 19.7061 18.2612 20.0571 18.0816ZM4.62857 6.70204C4.75102 6.26531 4.88979 5.83265 5.04489 5.41633C4.66122 5.57143 4.29387 5.73878 3.94285 5.91837C3.6 6.37143 3.29796 6.84898 3.03673 7.35102C3.53469 7.11429 4.0653 6.89796 4.62857 6.70204Z" fill="#91AEDB"/>
<path d="M15.5796 15.3592C15.6082 14.8245 15.6286 14.2776 15.6408 13.7306C16.5143 13.7061 17.3673 13.6776 18.1796 13.6367C18.1469 14.1551 18.098 14.6694 18.0367 15.1714C17.2449 15.249 16.4163 15.3102 15.5796 15.3592ZM15.4367 13.5224C15.449 13.0163 15.4531 12.5061 15.4531 12C15.4531 11.4939 15.449 10.9837 15.4367 10.4776C14.8857 10.4653 14.3265 10.4531 13.7673 10.4449C13.7714 10.9633 13.7755 11.4816 13.7755 12C13.7755 12.5143 13.7714 13.0367 13.7673 13.5551C14.3265 13.5469 14.8898 13.5347 15.4367 13.5224ZM3.97959 13.5306C3.28571 13.4857 2.62449 13.4327 2 13.3755C2.05714 13.8041 2.14286 14.2286 2.25714 14.6449C2.8449 14.7592 3.47755 14.8612 4.13469 14.951C4.06531 14.4857 4.01224 14.0082 3.97959 13.5306ZM8.63673 18.2286C7.8898 18.1306 7.15918 17.9959 6.45714 17.8286C6.57551 18.302 6.71429 18.7592 6.86122 19.1959C7.48571 19.3673 8.13469 19.5061 8.79592 19.6122C8.74286 19.1673 8.68571 18.698 8.63673 18.2286ZM10.2735 15.6449C9.72653 15.6327 9.17959 15.6082 8.6449 15.5837C8.6898 16.4204 8.7551 17.2449 8.83265 18.0408C9.33469 18.1061 9.84898 18.1551 10.3673 18.1837C10.3265 17.3633 10.2939 16.5102 10.2735 15.6449ZM21.7429 9.3551C21.151 9.24082 20.5224 9.13878 19.8653 9.04898C19.9347 9.51429 19.9837 9.99184 20.0204 10.4694C20.7143 10.5143 21.3755 10.5673 22 10.6245C21.9429 10.2 21.8571 9.77143 21.7429 9.3551ZM17.1347 4.80408C16.5102 4.63265 15.8612 4.49388 15.2 4.38776C15.2612 4.83674 15.3143 5.30204 15.3633 5.77551C16.1102 5.87347 16.8408 6.00816 17.5429 6.17551C17.4204 5.70204 17.2816 5.24082 17.1347 4.80408ZM5.77143 8.63674C5.86939 7.8898 6.00408 7.15918 6.17143 6.45714C5.70204 6.57551 5.24082 6.71429 4.80408 6.86123C4.63265 7.48571 4.49388 8.1347 4.38775 8.79592C4.83673 8.74286 5.30204 8.68572 5.77143 8.63674ZM10.2735 8.3551C10.298 7.48572 10.3265 6.63265 10.3673 5.81633C9.84898 5.84898 9.33469 5.89796 8.83265 5.95918C8.7551 6.7551 8.6898 7.57959 8.6449 8.41633C9.17551 8.39184 9.72245 8.37143 10.2735 8.3551ZM18.0816 20.0571C18.2612 19.7061 18.4286 19.3388 18.5837 18.9551C18.1673 19.1102 17.7388 19.249 17.298 19.3714C17.102 19.9347 16.8857 20.4694 16.649 20.9633C17.1469 20.702 17.6286 20.3959 18.0816 20.0571ZM6.70204 4.62857C6.89796 4.06531 7.11429 3.53061 7.35102 3.03674C6.85306 3.29796 6.37143 3.6 5.91837 3.94286C5.73878 4.29388 5.57143 4.66123 5.41633 5.0449C5.83265 4.89388 6.26531 4.75102 6.70204 4.62857Z" fill="#8FC73E"/>
</svg>
