<svg width="24" height="24" viewBox="0 0 24 24" fill="none" xmlns="http://www.w3.org/2000/svg">
<path d="M0 24H24V0H0V24Z" fill="#B31E30"/>
<path d="M8.64982 7.55418V8.73353H8.91955C9.25996 8.73353 9.41435 8.56797 9.41435 8.10479V8.03224H9.81057V9.86266H9.41435V9.78453C9.41435 9.32506 9.25996 9.15021 8.91955 9.15021H8.64982V10.4691H9.78081C10.2961 10.4691 10.4821 10.1287 10.5435 9.4776H10.9546V10.8895H7.23981V10.4691H7.55418C7.7495 10.4691 7.85367 10.4151 7.85367 10.0747V7.87413C7.85367 7.62858 7.74205 7.55418 7.47977 7.55418H7.36444C7.09471 7.55418 6.96636 7.61742 6.87149 7.89831L5.84654 10.8895H5.06712L4.47372 8.94001H4.46258L3.80408 10.8895H3.01536L1.95134 7.75508C1.90482 7.60068 1.82485 7.55418 1.60907 7.55418H1.53094V7.13564H3.17162V7.55418H2.93351C2.80888 7.55418 2.75866 7.62858 2.75866 7.70299C2.75866 7.7588 2.77913 7.82948 2.80888 7.90761L3.51947 10.0022H3.53061L4.20772 8.03224L4.11285 7.76438C4.05519 7.59696 3.94172 7.55418 3.77616 7.55418H3.64223V7.13564H5.33685V7.55418H5.03736C4.92203 7.55418 4.87738 7.6044 4.87738 7.67881C4.87738 7.73647 4.90529 7.81646 4.92391 7.87041L5.54521 9.96497H5.55635L6.2781 7.91877C6.30043 7.8518 6.32086 7.796 6.32086 7.72531C6.32086 7.63602 6.2781 7.55418 6.07904 7.55418H5.80559V7.13564H10.9546V8.41916H10.5323C10.4467 7.87599 10.3984 7.55418 9.645 7.55418H8.64982ZM14.82 10.8895V9.4776H14.3866C14.3289 10.1231 14.2117 10.4691 13.6239 10.4691H12.7701V7.8146C12.7701 7.60626 12.8557 7.55418 13.1049 7.55418H13.423V7.13564H11.3489V7.55418H11.6763C11.9033 7.55418 11.9795 7.62858 11.9795 7.79972V10.2179C11.9795 10.4151 11.8716 10.4691 11.7117 10.4691H11.3489V10.8895H14.82ZM18.6725 10.8895V9.4776H18.2372C18.1795 10.1231 18.0586 10.4691 17.4782 10.4691H16.6225V7.8146C16.6225 7.60626 16.7081 7.55418 16.9574 7.55418H17.2736V7.13564H15.1976V7.55418H15.5269C15.7557 7.55418 15.832 7.62858 15.832 7.79972V10.2179C15.832 10.4151 15.7222 10.4691 15.5641 10.4691H15.1976V10.8895H18.6725ZM21.5297 7.41838C21.4944 7.38304 21.1483 7.02403 20.4731 7.02403C19.7644 7.02403 19.0482 7.38304 19.0482 8.15315C19.0482 8.85072 19.6044 9.16881 20.2443 9.30646C20.4564 9.35111 20.5829 9.37529 20.7763 9.41621C21.2562 9.51852 21.5762 9.66362 21.5762 9.99659C21.5762 10.2496 21.3083 10.5212 20.7782 10.5212C20.0378 10.5212 19.5988 10.1082 19.5077 9.4776H19.0724V10.8895H19.4574L19.5821 10.5528C19.6732 10.6328 20.0341 11.0011 20.7205 11.0011C21.5948 11.0011 22.2552 10.6123 22.2552 9.84405C22.2552 9.09998 21.6394 8.78003 20.8879 8.62936C20.754 8.59588 20.6312 8.57541 20.4936 8.54379C20.0267 8.44334 19.7272 8.32801 19.7272 7.99318C19.7272 7.70299 20.0341 7.50395 20.4954 7.50395C21.1893 7.50395 21.4571 7.94481 21.6004 8.41916H22.0226V7.13564H21.7176L21.5297 7.41838ZM4.30073 16.7416V16.3193H4.01798C3.7557 16.3193 3.65897 16.2412 3.65897 16.0291V15.006H3.89149C4.24306 15.006 4.3956 15.1586 4.3956 15.5567V15.6813H4.78996V13.9532H4.3956V14.0276C4.3956 14.3196 4.28957 14.5875 3.92497 14.5875H3.65897V13.4044H4.39746C5.22896 13.4044 5.31638 13.823 5.37219 14.2676H5.77771V12.9859H2.22477V13.4044H2.60053C2.7698 13.4044 2.86467 13.4807 2.86467 13.6165V16.0422C2.86467 16.2003 2.7791 16.3193 2.5782 16.3193H2.22477V16.7416H4.30073ZM20.0211 12.8724C18.7896 12.8724 17.9749 13.7337 17.9749 14.8628C17.9749 15.9901 18.7896 16.8588 20.0211 16.8588C21.2488 16.8588 22.0654 15.9901 22.0654 14.8628C22.0654 13.7337 21.2488 12.8724 20.0211 12.8724ZM20.0211 13.3151C20.9102 13.3151 21.1763 14.0536 21.1763 14.8628C21.1763 15.672 20.9102 16.4123 20.0211 16.4123C19.1263 16.4123 18.8622 15.672 18.8622 14.8628C18.8622 14.0536 19.1263 13.3151 20.0211 13.3151ZM16.5574 13.2928C16.4756 13.2203 16.124 12.8724 15.4302 12.8724C14.3196 12.8724 13.6221 13.7188 13.6221 14.8628C13.6221 16.0161 14.3308 16.8588 15.4302 16.8588C16.137 16.8588 16.5202 16.5351 16.6077 16.4551L16.8179 16.7416H17.2029V15.4395C17.2029 15.2181 17.2848 15.1586 17.5043 15.1586H17.6084V14.7382H15.8747V15.1586H16.1315C16.3175 15.1586 16.4309 15.2423 16.4309 15.4246V15.6441C16.4309 16.0738 16.1668 16.3733 15.592 16.3733C14.8721 16.3733 14.5112 15.7259 14.5112 14.8628C14.5112 14.0127 14.8721 13.3617 15.5697 13.3617C16.297 13.3617 16.5444 14.0388 16.6281 14.2676H17.0932V12.9859H16.6969L16.5574 13.2928ZM13.4342 15.8599V15.9622C13.4342 16.6095 13.1254 16.8588 12.6566 16.8588C12.1079 16.8588 11.9237 16.5946 11.9237 16.0831V15.8878C11.9237 15.2423 11.6484 14.9819 11.0197 14.9819H10.7221V16.1166C10.7221 16.2672 10.7909 16.3193 10.9546 16.3193H11.3675V16.7416H7.61743V16.3193H8.03411C8.14943 16.3193 8.19222 16.2914 8.19222 16.2245C8.19222 16.1891 8.18108 16.1315 8.15874 16.0701C8.13827 16.0198 7.96157 15.5362 7.96157 15.5362H6.62224C6.62224 15.5362 6.45669 15.9826 6.42878 16.057C6.41016 16.1129 6.3953 16.1594 6.3953 16.2133C6.3953 16.2933 6.46227 16.3193 6.57388 16.3193H6.97196V16.7416H5.20479V16.3193C5.50428 16.3193 5.69401 16.2766 5.80005 16.0143L6.998 12.9859H7.71789L8.94561 16.0143C9.04791 16.2803 9.24137 16.3193 9.54086 16.3193H9.69339C9.85523 16.3193 9.92778 16.2672 9.92778 16.1166V13.6091C9.92778 13.4584 9.87011 13.4044 9.69339 13.4044H9.29904V12.9859H11.7656C12.5841 12.9859 12.9692 13.3728 12.9692 13.9588C12.9692 14.6861 12.2456 14.8293 11.907 14.8479V14.8572C12.3032 14.887 12.6381 15.0507 12.6381 15.6292V15.8487C12.6381 16.2338 12.7199 16.3193 12.8557 16.3193C12.9896 16.3193 13.0603 16.2133 13.0603 15.9622V15.8599H13.4342ZM7.80716 15.1195L7.30119 13.7523H7.28448L6.77851 15.1195H7.80716ZM12.1804 13.9829C12.1804 13.6537 11.9442 13.4044 11.4196 13.4044H10.7221V14.5633H11.4196C11.9033 14.5633 12.1804 14.3457 12.1804 13.9829Z" fill="#FFCC02"/>
</svg>
