<svg width="24" height="24" viewBox="0 0 24 24" fill="none" xmlns="http://www.w3.org/2000/svg">
<path d="M0 0H24V24H0V0Z" fill="#1A75CF"/>
<path d="M12.0068 8.71921C12.3718 8.71921 12.6882 8.50833 12.7128 8.24941L13.0779 3.79137C13.0779 3.34244 12.5963 3 12.0068 3C11.3985 3 10.9357 3.36958 10.9357 3.79137L11.3007 8.24941C11.3248 8.51303 11.6417 8.71921 12.0068 8.71921ZM9.76732 10.1182C9.96189 9.77524 9.93782 9.37958 9.74325 9.22141L6.36 6.66246C6.01902 6.45157 5.48349 6.71469 5.19164 7.26907C4.89979 7.82345 4.94842 8.45612 5.28892 8.66702L9.03722 10.5672C9.28043 10.6465 9.59684 10.4617 9.76732 10.1182ZM14.2221 10.1177C14.4167 10.4607 14.7326 10.6397 14.9522 10.5353L18.7005 8.63516C19.0415 8.42426 19.1147 7.79107 18.7978 7.23721C18.506 6.68387 17.9704 6.41921 17.6295 6.63063L14.2462 9.18954C14.0517 9.37434 14.0271 9.77003 14.2221 10.1135M12.0068 14.2808C12.3718 14.2808 12.6882 14.4917 12.7128 14.7506L13.0779 19.2086C13.0779 19.6575 12.5963 20 12.0068 20C11.3985 20 10.9357 19.6304 10.9357 19.2086L11.3007 14.7506C11.3248 14.487 11.6417 14.2808 12.0068 14.2808ZM14.2221 12.887C14.4167 12.544 14.7326 12.365 14.9522 12.4694L18.7005 14.3424C19.0415 14.5533 19.1147 15.1865 18.7978 15.7403C18.506 16.2937 17.9704 16.5583 17.6295 16.3469L14.2462 13.788C14.0517 13.6298 14.0271 13.2346 14.2221 12.8912M9.76732 12.8922C9.96189 13.2352 9.93782 13.6309 9.74325 13.789L6.36 16.348C6.01902 16.5589 5.48349 16.2958 5.19164 15.7414C4.89979 15.187 4.94842 14.5543 5.28892 14.3434L9.03722 12.4704C9.28043 12.365 9.59684 12.5498 9.76732 12.888" fill="#FDBB30"/>
</svg>
