<svg width="24" height="24" viewBox="0 0 24 24" fill="none" xmlns="http://www.w3.org/2000/svg">
<path d="M0 0H24V24H0V0Z" fill="#0076BE"/>
<path d="M20.9621 12.0996C21.2722 14.0259 19.6275 15.1125 17.9828 15.2279C17.144 16.7551 15.417 17.9962 12.9217 17.9962C11.9006 18.0326 10.8875 17.8067 9.98239 17.341C9.76145 17.3806 9.53734 17.4007 9.31275 17.401C8.44105 17.401 7.84661 17.2026 7.26625 16.5267C8.44105 14.9741 12.0171 12.1827 16.3733 13.6245C18.7017 14.3927 19.3079 12.5864 18.7229 11.9104C16.5284 9.35663 11.566 11.6544 11.3898 11.8482C13.3282 8.79373 20.2971 7.94016 20.9621 12.0996ZM14.2845 8.59303C14.2986 8.59303 12.7032 8.01398 10.4711 9.00136C10.3812 8.96451 10.2933 8.92293 10.208 8.87678C12.3531 7.42109 14.2352 6.80052 15.847 7.03121C14.8085 6.1338 13.6713 6 12.0124 6C10.1727 6 8.54209 6.70824 7.50826 7.80405C7.18809 7.73471 6.86104 7.70066 6.53318 7.70254C4.04026 7.70254 1.87628 10.0118 2.00551 12.6348C2.13473 15.2578 4.9378 16.8935 6.53318 16.4529C6.57202 16.4459 6.61182 16.4459 6.65066 16.4529C7.0031 14.718 8.4434 10.6831 14.2845 8.59303Z" fill="white"/>
</svg>
