<svg width="33" height="18" fill="none" xmlns="http://www.w3.org/2000/svg"><g clip-path="url(#clip0)" fill-rule="evenodd" clip-rule="evenodd"><path d="M20.99 6v4L14 14v4l10.47-6V4l-3.5 2z" fill="#046ED8"/><path d="M7.02 14l6.99 4v-4l-6.99-4v4z" fill="#007FFF"/><path d="M14 6L21 10 14 14l-6.99-4 6.99-4z" fill="#61B0FF"/><path d="M14 2L21 6v4L14 6V2z" fill="#007FFF"/><path d="M14 2L21 6l3.49-2-6.98-4L14 2z" fill="#61B0FF"/><path d="M0 9.01v4l3.51 2v-4L0 9.01z" fill="#007FFF"/><path d="M14.04 5.01v4l-10.53 6v-4l10.53-6z" fill="#046ED8"/><path d="M10.53 3.01L0 9.01l3.51 2 10.53-6-3.51-2z" fill="#61B0FF"/><path d="M29.71 14l3.51-2V8.02l-3.5 2v3.97z" fill="#046ED8"/><path d="M26.2 8.02l3.51 2v3.97L26.21 12V8.02z" fill="#007FFF"/><path d="M29.71 6.03l3.51 1.99-3.5 2-3.52-2 3.51-1.99z" fill="#61B0FF"/></g><defs><clipPath id="clip0"><path fill="#fff" d="M0 0h33v18H0z"/></clipPath></defs></svg>