<svg width="33" height="18" viewBox="0 0 33 18" fill="none" xmlns="http://www.w3.org/2000/svg">
<g clip-path="url(#clip0)">
<path fill-rule="evenodd" clip-rule="evenodd" d="M20.9871 6.00002V9.99998L14.006 14V18L24.4776 12V4.00003L20.9871 6.00002Z" fill="#046ED8"/>
<path fill-rule="evenodd" clip-rule="evenodd" d="M7.0249 14L14.006 18V14L7.0249 10V14Z" fill="#007FFF"/>
<path fill-rule="evenodd" clip-rule="evenodd" d="M14.006 6L20.9871 9.99997L14.006 14L7.02493 9.99997L14.006 6Z" fill="#61B0FF"/>
<path fill-rule="evenodd" clip-rule="evenodd" d="M14.006 2.00002L20.9871 5.99998V9.99999L14.006 5.99998V2.00002Z" fill="#007FFF"/>
<path fill-rule="evenodd" clip-rule="evenodd" d="M14.006 2L20.9871 6.00001L24.4776 4.00003L17.4965 1.90735e-05L14.006 2Z" fill="#61B0FF"/>
<path fill-rule="evenodd" clip-rule="evenodd" d="M0 9.01478V13.0147L3.50952 15.0148V11.0148L0 9.01478Z" fill="#007FFF"/>
<path fill-rule="evenodd" clip-rule="evenodd" d="M14.038 5.0148V9.01477L3.50951 15.0148V11.0148L14.038 5.0148Z" fill="#046ED8"/>
<path fill-rule="evenodd" clip-rule="evenodd" d="M10.5285 3.01478L0 9.01478L3.50953 11.0148L14.0381 5.01481L10.5285 3.01478Z" fill="#61B0FF"/>
<path fill-rule="evenodd" clip-rule="evenodd" d="M29.7105 13.9925L33.22 12.0018V8.02033L29.7105 10.0111V13.9925Z" fill="#046ED8"/>
<path fill-rule="evenodd" clip-rule="evenodd" d="M26.201 8.02032L29.7105 10.011V13.9925L26.201 12.0018V8.02032Z" fill="#007FFF"/>
<path fill-rule="evenodd" clip-rule="evenodd" d="M29.7105 6.02956L33.22 8.02033L29.7105 10.011L26.201 8.02033L29.7105 6.02956Z" fill="#61B0FF"/>
</g>
<defs>
<clipPath id="clip0">
<rect width="33" height="18" fill="white"/>
</clipPath>
</defs>
</svg>
