<svg width="24" height="18" fill="none" xmlns="http://www.w3.org/2000/svg"><g clip-path="url(#clip0)" fill-rule="evenodd" clip-rule="evenodd"><path d="M20.72 6.38v4l-6.9 4v4l10.35-6v-8l-3.45 2z" fill="#00B7E9"/><path d="M6.9 14.38l6.91 4v-4l-6.9-4v4z" fill="#00C8FF"/><path d="M13.81 6.38l6.9 4-6.9 4-6.9-4 6.9-4z" fill="#7CE3FF"/><path d="M13.81 2.38l6.9 4v4l-6.9-4v-4z" fill="#00C8FF"/><path d="M13.81 2.38l6.9 4 3.46-2-6.9-4-3.46 2z" fill="#7CE3FF"/><path d="M0 9.49v4l3.45 2v-4L0 9.5z" fill="#00C8FF"/><path d="M13.8 5.49v4l-10.35 6v-4l10.36-6z" fill="#00B7E9"/><path d="M10.36 3.49L0 9.49l3.45 2 10.36-6-3.45-2z" fill="#7CE3FF"/></g><defs><clipPath id="clip0"><path fill="#fff" d="M0 0h24v18H0z"/></clipPath></defs></svg>